<svg width="676" height="383" viewBox="0 0 676 383" fill="none" xmlns="http://www.w3.org/2000/svg">
<rect x="2.5" y="2.5" width="670.823" height="378" fill="#480C0C" stroke="black" stroke-width="5"/>
<g clip-path="url(#clip0_135_1231)">
<g clip-path="url(#clip1_135_1231)">
<path d="M336.829 315.178C395.978 315.178 443.927 267.214 443.927 208.048C443.927 148.881 395.978 100.917 336.829 100.917C277.68 100.917 229.731 148.881 229.731 208.048C229.731 267.214 277.68 315.178 336.829 315.178Z" fill="#F6A09C"/>
<path d="M336.829 286.663C380.234 286.663 415.421 251.466 415.421 208.048C415.421 164.629 380.234 129.432 336.829 129.432C293.424 129.432 258.237 164.629 258.237 208.048C258.237 251.466 293.424 286.663 336.829 286.663Z" fill="#E7543A"/>
<path d="M332.566 263.478C308.056 263.478 288.342 243.491 288.342 218.974C288.342 204.85 295.002 191.791 306.192 183.53L301.663 170.472H285.678V161.145H308.323L317.647 187.528L314.45 189.66C304.06 196.055 297.933 207.248 297.933 219.24C297.933 238.428 313.651 254.151 332.833 254.151C352.015 254.151 367.733 238.428 367.733 219.24H377.057C377.057 243.491 357.076 263.478 332.566 263.478Z" fill="#0C2C48"/>
<path d="M388.513 245.09L375.992 209.113L332.3 212.844L313.118 159.812L321.91 156.614L338.694 202.718L382.386 198.987L397.571 241.892L388.513 245.09Z" fill="#F2F2F2"/>
</g>
</g>
<path d="M21.964 52L31.936 26.8H37.12L47.02 52H40.828L36.076 39.22C35.884 38.716 35.692 38.176 35.5 37.6C35.308 37.024 35.116 36.436 34.924 35.836C34.732 35.212 34.54 34.612 34.348 34.036C34.18 33.436 34.036 32.884 33.916 32.38L34.996 32.344C34.852 32.944 34.684 33.532 34.492 34.108C34.324 34.684 34.144 35.26 33.952 35.836C33.784 36.388 33.592 36.952 33.376 37.528C33.16 38.08 32.956 38.656 32.764 39.256L28.012 52H21.964ZM26.716 47.176L28.624 42.568H40.216L42.088 47.176H26.716ZM57.237 52.36C55.389 52.36 53.733 51.928 52.269 51.064C50.805 50.2 49.641 49.024 48.777 47.536C47.937 46.024 47.517 44.32 47.517 42.424C47.517 40.528 47.937 38.836 48.777 37.348C49.641 35.836 50.805 34.648 52.269 33.784C53.733 32.92 55.389 32.488 57.237 32.488C58.941 32.488 60.501 32.788 61.917 33.388C63.357 33.988 64.497 34.828 65.337 35.908L62.205 39.652C61.869 39.268 61.473 38.908 61.017 38.572C60.561 38.236 60.057 37.972 59.505 37.78C58.953 37.588 58.377 37.492 57.777 37.492C56.865 37.492 56.061 37.708 55.365 38.14C54.669 38.548 54.129 39.124 53.745 39.868C53.361 40.612 53.169 41.464 53.169 42.424C53.169 43.336 53.361 44.164 53.745 44.908C54.153 45.652 54.705 46.24 55.401 46.672C56.097 47.104 56.889 47.32 57.777 47.32C58.401 47.32 58.977 47.248 59.505 47.104C60.033 46.936 60.513 46.696 60.945 46.384C61.401 46.072 61.821 45.688 62.205 45.232L65.301 49.012C64.485 50.044 63.345 50.86 61.881 51.46C60.441 52.06 58.893 52.36 57.237 52.36ZM76.8542 52.36C75.0062 52.36 73.3502 51.928 71.8862 51.064C70.4222 50.2 69.2582 49.024 68.3942 47.536C67.5542 46.024 67.1342 44.32 67.1342 42.424C67.1342 40.528 67.5542 38.836 68.3942 37.348C69.2582 35.836 70.4222 34.648 71.8862 33.784C73.3502 32.92 75.0062 32.488 76.8542 32.488C78.5582 32.488 80.1182 32.788 81.5342 33.388C82.9742 33.988 84.1142 34.828 84.9542 35.908L81.8222 39.652C81.4862 39.268 81.0902 38.908 80.6342 38.572C80.1782 38.236 79.6742 37.972 79.1222 37.78C78.5702 37.588 77.9942 37.492 77.3942 37.492C76.4822 37.492 75.6782 37.708 74.9822 38.14C74.2862 38.548 73.7462 39.124 73.3622 39.868C72.9782 40.612 72.7862 41.464 72.7862 42.424C72.7862 43.336 72.9782 44.164 73.3622 44.908C73.7702 45.652 74.3222 46.24 75.0182 46.672C75.7142 47.104 76.5062 47.32 77.3942 47.32C78.0182 47.32 78.5942 47.248 79.1222 47.104C79.6502 46.936 80.1302 46.696 80.5622 46.384C81.0182 46.072 81.4382 45.688 81.8222 45.232L84.9182 49.012C84.1022 50.044 82.9622 50.86 81.4982 51.46C80.0582 52.06 78.5102 52.36 76.8542 52.36ZM97.1913 52.36C95.0793 52.36 93.2433 51.94 91.6833 51.1C90.1233 50.236 88.9113 49.072 88.0473 47.608C87.1833 46.12 86.7513 44.428 86.7513 42.532C86.7513 41.068 86.9913 39.724 87.4713 38.5C87.9513 37.276 88.6233 36.22 89.4873 35.332C90.3513 34.42 91.3713 33.724 92.5473 33.244C93.7473 32.74 95.0553 32.488 96.4713 32.488C97.8153 32.488 99.0393 32.728 100.143 33.208C101.271 33.688 102.243 34.36 103.059 35.224C103.875 36.088 104.499 37.108 104.931 38.284C105.363 39.46 105.555 40.744 105.507 42.136L105.471 43.684H90.2433L89.4153 40.444H100.791L100.179 41.128V40.408C100.131 39.808 99.9393 39.28 99.6033 38.824C99.2913 38.344 98.8713 37.972 98.3433 37.708C97.8153 37.444 97.2153 37.312 96.5433 37.312C95.6073 37.312 94.8033 37.504 94.1313 37.888C93.4833 38.248 92.9913 38.788 92.6553 39.508C92.3193 40.204 92.1513 41.068 92.1513 42.1C92.1513 43.156 92.3673 44.08 92.7993 44.872C93.2553 45.64 93.9033 46.24 94.7433 46.672C95.6073 47.104 96.6273 47.32 97.8033 47.32C98.6193 47.32 99.3393 47.2 99.9633 46.96C100.611 46.72 101.307 46.312 102.051 45.736L104.751 49.552C104.007 50.2 103.215 50.728 102.375 51.136C101.535 51.544 100.671 51.844 99.7833 52.036C98.9193 52.252 98.0553 52.36 97.1913 52.36ZM115.621 52.36C113.749 52.36 112.093 52.06 110.653 51.46C109.237 50.86 108.109 50.056 107.269 49.048L110.761 46.024C111.505 46.768 112.345 47.32 113.281 47.68C114.217 48.016 115.105 48.184 115.945 48.184C116.281 48.184 116.581 48.148 116.845 48.076C117.109 48.004 117.325 47.908 117.493 47.788C117.685 47.644 117.829 47.488 117.925 47.32C118.021 47.128 118.069 46.912 118.069 46.672C118.069 46.192 117.853 45.82 117.421 45.556C117.205 45.436 116.845 45.292 116.341 45.124C115.837 44.956 115.189 44.764 114.397 44.548C113.269 44.26 112.285 43.924 111.445 43.54C110.629 43.132 109.957 42.664 109.429 42.136C108.949 41.632 108.577 41.08 108.313 40.48C108.049 39.856 107.917 39.16 107.917 38.392C107.917 37.504 108.121 36.7 108.529 35.98C108.961 35.26 109.525 34.636 110.221 34.108C110.941 33.58 111.757 33.184 112.669 32.92C113.605 32.632 114.565 32.488 115.549 32.488C116.605 32.488 117.613 32.608 118.573 32.848C119.533 33.088 120.421 33.424 121.237 33.856C122.077 34.288 122.821 34.804 123.469 35.404L120.445 38.788C120.013 38.38 119.521 38.02 118.969 37.708C118.441 37.372 117.889 37.108 117.313 36.916C116.737 36.724 116.209 36.628 115.729 36.628C115.369 36.628 115.045 36.664 114.757 36.736C114.493 36.784 114.265 36.88 114.073 37.024C113.881 37.144 113.737 37.3 113.641 37.492C113.545 37.66 113.497 37.864 113.497 38.104C113.497 38.344 113.557 38.572 113.677 38.788C113.821 39.004 114.013 39.184 114.253 39.328C114.493 39.472 114.877 39.64 115.405 39.832C115.933 40 116.653 40.216 117.565 40.48C118.693 40.792 119.665 41.14 120.481 41.524C121.297 41.908 121.945 42.364 122.425 42.892C122.809 43.3 123.097 43.78 123.289 44.332C123.481 44.86 123.577 45.436 123.577 46.06C123.577 47.284 123.229 48.376 122.533 49.336C121.861 50.272 120.925 51.016 119.725 51.568C118.525 52.096 117.157 52.36 115.621 52.36ZM133.445 52.36C131.573 52.36 129.917 52.06 128.477 51.46C127.061 50.86 125.933 50.056 125.093 49.048L128.585 46.024C129.329 46.768 130.169 47.32 131.105 47.68C132.041 48.016 132.929 48.184 133.769 48.184C134.105 48.184 134.405 48.148 134.669 48.076C134.933 48.004 135.149 47.908 135.317 47.788C135.509 47.644 135.653 47.488 135.749 47.32C135.845 47.128 135.893 46.912 135.893 46.672C135.893 46.192 135.677 45.82 135.245 45.556C135.029 45.436 134.669 45.292 134.165 45.124C133.661 44.956 133.013 44.764 132.221 44.548C131.093 44.26 130.109 43.924 129.269 43.54C128.453 43.132 127.781 42.664 127.253 42.136C126.773 41.632 126.401 41.08 126.137 40.48C125.873 39.856 125.741 39.16 125.741 38.392C125.741 37.504 125.945 36.7 126.353 35.98C126.785 35.26 127.349 34.636 128.045 34.108C128.765 33.58 129.581 33.184 130.493 32.92C131.429 32.632 132.389 32.488 133.373 32.488C134.429 32.488 135.437 32.608 136.397 32.848C137.357 33.088 138.245 33.424 139.061 33.856C139.901 34.288 140.645 34.804 141.293 35.404L138.269 38.788C137.837 38.38 137.345 38.02 136.793 37.708C136.265 37.372 135.713 37.108 135.137 36.916C134.561 36.724 134.033 36.628 133.553 36.628C133.193 36.628 132.869 36.664 132.581 36.736C132.317 36.784 132.089 36.88 131.897 37.024C131.705 37.144 131.561 37.3 131.465 37.492C131.369 37.66 131.321 37.864 131.321 38.104C131.321 38.344 131.381 38.572 131.501 38.788C131.645 39.004 131.837 39.184 132.077 39.328C132.317 39.472 132.701 39.64 133.229 39.832C133.757 40 134.477 40.216 135.389 40.48C136.517 40.792 137.489 41.14 138.305 41.524C139.121 41.908 139.769 42.364 140.249 42.892C140.633 43.3 140.921 43.78 141.113 44.332C141.305 44.86 141.401 45.436 141.401 46.06C141.401 47.284 141.053 48.376 140.357 49.336C139.685 50.272 138.749 51.016 137.549 51.568C136.349 52.096 134.981 52.36 133.445 52.36ZM145.15 52V32.884H150.91V52H145.15ZM148.03 29.104C146.95 29.104 146.098 28.852 145.474 28.348C144.874 27.82 144.574 27.076 144.574 26.116C144.574 25.252 144.886 24.544 145.51 23.992C146.134 23.44 146.974 23.164 148.03 23.164C149.11 23.164 149.95 23.428 150.55 23.956C151.15 24.46 151.45 25.18 151.45 26.116C151.45 27.004 151.138 27.724 150.514 28.276C149.914 28.828 149.086 29.104 148.03 29.104ZM167.806 52.396C166.942 52.396 166.114 52.276 165.322 52.036C164.53 51.796 163.81 51.472 163.162 51.064C162.538 50.656 162.01 50.188 161.578 49.66C161.17 49.108 160.894 48.544 160.75 47.968L162.01 47.536L161.686 51.964H156.322V25.36H162.118V37.456L160.93 37.024C161.074 36.4 161.35 35.824 161.758 35.296C162.166 34.744 162.682 34.264 163.306 33.856C163.93 33.424 164.614 33.088 165.358 32.848C166.102 32.608 166.87 32.488 167.662 32.488C169.318 32.488 170.782 32.92 172.054 33.784C173.35 34.624 174.37 35.8 175.114 37.312C175.858 38.8 176.23 40.504 176.23 42.424C176.23 44.368 175.858 46.096 175.114 47.608C174.394 49.096 173.398 50.272 172.126 51.136C170.854 51.976 169.414 52.396 167.806 52.396ZM166.294 47.536C167.158 47.536 167.914 47.32 168.562 46.888C169.21 46.456 169.702 45.868 170.038 45.124C170.398 44.356 170.578 43.456 170.578 42.424C170.578 41.416 170.398 40.528 170.038 39.76C169.702 38.992 169.21 38.404 168.562 37.996C167.914 37.588 167.158 37.384 166.294 37.384C165.406 37.384 164.638 37.588 163.99 37.996C163.342 38.404 162.838 38.992 162.478 39.76C162.118 40.528 161.938 41.416 161.938 42.424C161.938 43.456 162.118 44.356 162.478 45.124C162.838 45.868 163.342 46.456 163.99 46.888C164.638 47.32 165.406 47.536 166.294 47.536ZM180.341 52V32.884H186.101V52H180.341ZM183.221 29.104C182.141 29.104 181.289 28.852 180.665 28.348C180.065 27.82 179.765 27.076 179.765 26.116C179.765 25.252 180.077 24.544 180.701 23.992C181.325 23.44 182.165 23.164 183.221 23.164C184.301 23.164 185.141 23.428 185.741 23.956C186.341 24.46 186.641 25.18 186.641 26.116C186.641 27.004 186.329 27.724 185.705 28.276C185.105 28.828 184.277 29.104 183.221 29.104ZM191.549 52V25.36H197.309V52H191.549ZM202.771 52V32.884H208.531V52H202.771ZM205.651 29.104C204.571 29.104 203.719 28.852 203.095 28.348C202.495 27.82 202.195 27.076 202.195 26.116C202.195 25.252 202.507 24.544 203.131 23.992C203.755 23.44 204.595 23.164 205.651 23.164C206.731 23.164 207.571 23.428 208.171 23.956C208.771 24.46 209.071 25.18 209.071 26.116C209.071 27.004 208.759 27.724 208.135 28.276C207.535 28.828 206.707 29.104 205.651 29.104ZM215.527 52V28.06H221.287V52H215.527ZM212.143 37.924V32.884H224.995V37.924H212.143ZM230.698 60.28L235.054 50.02L235.126 52.972L225.91 32.884H232.426L236.458 42.496C236.674 42.976 236.878 43.492 237.07 44.044C237.262 44.596 237.406 45.124 237.502 45.628L236.71 46.096C236.854 45.736 237.01 45.292 237.178 44.764C237.37 44.212 237.574 43.624 237.79 43L241.318 32.884H247.87L239.734 52L236.422 60.28H230.698Z" fill="white"/>
<defs>
<clipPath id="clip0_135_1231">
<rect width="404.764" height="234.663" fill="white" transform="translate(134.921 100.917)"/>
</clipPath>
<clipPath id="clip1_135_1231">
<rect width="213.929" height="213.994" fill="white" transform="translate(229.731 100.917)"/>
</clipPath>
</defs>
</svg>