<svg width="81" height="81" viewBox="0 0 81 81" fill="none" xmlns="http://www.w3.org/2000/svg">
<g clip-path="url(#clip0_135_625)">
<path d="M72.8508 63.8726L72.8167 63.0913C72.8167 63.0913 72.8899 63.3892 72.8508 63.8726ZM24.8066 14.3672L26.4293 14.2964L29.9606 20.7055L23.4098 20.9915L24.8066 14.3672V14.3672ZM22.0732 27.6131L33.5521 27.1119C33.5521 27.1119 36.3933 31.5039 38.9079 36.6929C41.7598 42.7102 42.7253 49.6528 42.7253 49.6528L18.2049 50.7234L22.0732 27.6131ZM24.8066 14.3672L26.4293 14.2964L29.9606 20.7055L23.4098 20.9915L24.8066 14.3672V14.3672ZM22.0732 27.6131L33.5521 27.1119C33.5521 27.1119 36.3933 31.5039 38.9079 36.6929C41.7598 42.7102 42.7253 49.6528 42.7253 49.6528L18.2049 50.7234L22.0732 27.6131ZM55.3241 72.0441C70.8898 71.3645 72.6996 65.9264 72.8508 63.8726L73.0318 68.0194C73.0318 68.0194 74.8311 76.1299 55.5393 76.9722C20.742 78.4915 11.2571 80.5314 11.2571 80.5314L11.0419 75.6033C11.0419 75.6033 20.5268 73.5634 55.3241 72.0441ZM22.0732 27.6131L33.5521 27.1119C33.5521 27.1119 36.3933 31.5039 38.9079 36.6929C41.7598 42.7102 42.7253 49.6528 42.7253 49.6528L18.2049 50.7234L22.0732 27.6131V27.6131ZM24.8066 14.3672L26.4293 14.2964L29.9606 20.7055L23.4098 20.9915L24.8066 14.3672V14.3672Z" fill="#0C0C0C"/>
<path d="M23.8847 2.9067C23.8847 2.9067 35.8601 16.534 42.7485 33.635C48.8919 48.8417 51.8985 72.1937 51.8985 72.1937L46.9704 72.4088C46.9704 72.4088 47.5919 70.0936 45.206 69.2343C37.4997 66.4999 18.6746 61.4811 15.1855 57.4185C8.5261 49.7009 23.8847 2.9067 23.8847 2.9067ZM24.5914 9.43912C24.5914 9.43912 23.3435 15.3343 21.7979 22.6876L33.0364 22.197L24.5914 9.43912V9.43912ZM28.4288 60.0918C34.9567 63.4196 46.6736 64.2328 46.6736 64.2328C46.6736 64.2328 46.4978 60.2061 45.4646 54.4707L18.9009 55.6305C21.1379 57.2188 24.6735 58.2085 28.4288 60.0918ZM16.5329 52.4222L44.8395 51.1863C43.9242 46.7704 42.5566 41.6518 40.5306 36.6221C38.9751 32.7159 35.1013 25.3583 35.1013 25.3583L21.0381 25.9724C19.1532 35.2071 17.0124 45.4767 16.4487 49.1141C16.266 50.4468 16.3132 51.5286 16.5329 52.4222V52.4222Z" fill="#0C0C0C"/>
</g>
<defs>
<clipPath id="clip0_135_625">
<rect width="77" height="77" fill="white" transform="matrix(-0.999048 0.0436194 0.0436194 0.999048 77.493 0.566162)"/>
</clipPath>
</defs>
</svg>