<svg width="128" height="128" viewBox="0 0 128 128" fill="none" xmlns="http://www.w3.org/2000/svg">
<path d="M31.5 46.5L6 62.5L14.5 72.5L44 87L66.5 89.5L89.5 84.5L115.5 70.5L122 64L102 49.5L78 41L57.5 39.5L31.5 46.5Z" fill="#C7B9B9"/>
<path d="M3 62.4L1 64.3L3 66.2C4.1 67.2 30.4 91.5 63.5 91.5C96.6 91.5 122.9 67.2 124 66.2L126 64.3L124 62.4C122.9 61.4 96.6 37 63.5 37C30.4 37 4.1 61.4 3 62.4ZM8.5 64.3C12 61.4 19.7 55.5 29.9 50.6L29.9 78C19.7 73 12 67.2 8.5 64.3ZM34.9 80.2V48.2C39 46.5 43.4 45 48 43.9V84.5C43.5 83.5 39 82 34.9 80.2ZM118.5 64.3C114.9 67.3 106.9 73.4 96.3 78.4V50.2C106.9 55.2 114.9 61.3 118.5 64.3ZM91.2 80.6C83 83.9 73.5 86.4 63.5 86.4C60 86.4 56.5 86.1 53.2 85.6V43C56.5 42.5 60 42.2 63.5 42.2C73.5 42.2 83 44.7 91.2 48V80.6Z" fill="#470000"/>
</svg>