<svg width="359" height="315" viewBox="0 0 359 315" fill="none" xmlns="http://www.w3.org/2000/svg">
<g clip-path="url(#clip0_647_413)">
<path d="M113.615 97.4254C91.568 103.087 70.4571 111.705 50.9058 123.027C58.8839 132.847 63.6445 145.213 63.6445 158.654C63.6445 172.096 58.8839 184.462 50.9058 194.282C108.559 227.648 177.374 236.171 240.723 219.883C262.13 214.38 282.682 206.094 301.774 195.246L301.199 194.282C293.221 184.462 288.461 172.096 288.461 158.654C288.461 145.213 293.221 132.847 301.199 123.027L301.774 122.062C263.443 100.288 220.318 89.4081 177.177 89.4081C155.787 89.4081 134.414 92.0805 113.615 97.4254Z" fill="#CE3838"/>
<path d="M113.615 114.978C91.8471 118.963 70.7198 125.051 50.9058 133.242C58.8839 140.248 63.6445 149.072 63.6445 158.654C63.6445 168.237 58.8839 177.061 50.9058 184.066C108.559 207.865 177.374 213.953 240.723 202.331C261.883 198.441 282.436 192.59 301.774 184.762L301.199 184.082C293.221 177.077 288.461 168.253 288.461 158.67C288.461 149.087 293.221 140.264 301.199 133.258L301.774 132.578C263.443 117.05 220.318 109.285 177.177 109.285C155.787 109.285 134.414 111.199 113.615 115.01V114.978Z" fill="#ED4948"/>
<path d="M285.44 262.927H305.763C315.924 262.927 324.986 269.063 328.433 278.25L334.721 295.028L318.748 310.414L301.331 304.342C291.777 301.021 285.424 292.292 285.424 282.504V262.911L285.44 262.927ZM35.5896 6.87875L53.0069 12.9352C62.5445 16.256 68.9139 25.0007 68.9139 34.7733V54.3501H48.591C38.446 54.3501 29.3679 48.2304 25.9206 39.0271L19.6333 22.2492L35.606 6.86295L35.5896 6.87875Z" fill="#F2C385"/>
<path d="M149.434 131.93H219.169C226.835 131.93 233.763 134.919 238.786 139.758C243.809 144.596 246.912 151.27 246.912 158.654C246.912 173.408 234.501 185.379 219.169 185.379H204.904L149.434 131.946V131.93ZM135.169 131.93H149.434L204.904 185.363H135.169C119.853 185.363 107.426 173.408 107.426 158.639C107.426 143.869 119.853 131.914 135.169 131.914V131.93Z" fill="#666766"/>
<path d="M288.461 158.654C288.461 145.213 293.221 132.847 301.199 123.027L301.774 122.062C319.24 131.993 335.722 144.201 350.726 158.654C335.722 173.108 319.257 185.315 301.774 195.246L301.199 194.282C293.221 184.462 288.461 172.096 288.461 158.654ZM6.00805 158.654H63.6444C63.6444 172.096 58.8838 184.462 50.9056 194.282C34.0465 184.541 18.1558 172.649 3.61133 158.654C4.00531 158.275 4.41571 157.88 4.80969 157.516L5.97522 158.654H6.00805Z" fill="#F2C385"/>
<path d="M50.9057 123.027C58.8838 132.847 63.6445 145.213 63.6445 158.654H5.9917L4.82617 157.516C19.026 144.011 34.5226 132.515 50.9057 123.027Z" fill="#F2C385"/>
<path d="M33.7018 1.67621L17.7291 17.0625C16.1039 18.628 15.5622 20.9684 16.3338 23.0558L22.6211 39.8336C26.9056 51.2508 38.2655 58.936 50.8893 58.936H68.7498L104.602 93.4722C85.5433 99.1808 67.256 107.056 50.1506 116.955C33.1108 126.822 17.2202 138.698 3.00403 152.218C2.57722 152.63 2.13399 153.025 1.70718 153.436C-0.60747 155.666 -0.60747 159.303 1.70718 161.532C16.3174 175.606 32.6184 187.893 50.1342 198.014C67.3873 207.992 85.8224 215.93 105.045 221.654C108.181 222.587 111.694 211.645 108.558 210.712C92.2903 205.873 76.6131 199.358 61.7895 191.293C67.3709 182.785 71.639 168 71.639 157.5C71.639 147.389 67.3709 132.183 61.8059 123.675C78.3367 114.678 95.9182 107.625 114.189 102.66L137.418 125.035C118.884 125.083 103.814 139.615 103.814 157.484C103.814 175.353 118.917 189.933 137.5 189.933H204.772L231.382 215.566C199.437 222.35 165.899 222.793 133.773 216.8C130.556 216.199 128.29 227.442 131.508 228.043C167.689 234.795 205.544 233.752 241.248 225.086L281.812 264.16V281.381C281.812 293.541 289.79 304.468 301.643 308.596L319.06 314.652C321.227 315.411 323.656 314.889 325.282 313.308L341.254 297.922C342.879 296.356 343.421 294.016 342.633 291.928L336.346 275.151C332.061 263.718 320.702 256.048 308.078 256.048H290.217L254.365 221.512C272.783 215.993 290.496 208.45 307.109 199.01C325.298 188.668 342.157 176.065 357.243 161.532C358.409 160.41 358.983 158.955 358.983 157.484C358.983 156.014 358.409 154.559 357.243 153.436C342.157 138.904 325.298 126.3 307.109 115.959C268.581 94.073 224.455 82.5136 179.492 82.5136C158.643 82.5136 137.877 84.9963 117.735 89.8984L77.1712 50.8238V33.619C77.1712 21.4744 69.2095 10.5316 57.3408 6.38855L39.9235 0.332062C37.7566 -0.426974 35.327 0.0948831 33.7018 1.67621ZM51.5952 185.41C40.8263 178.848 23.6066 165.707 13.9869 157.5H59.6883C59.4446 165.278 56.0439 178.706 51.5952 185.41ZM13.9869 157.5C23.5902 149.309 40.8099 136.136 51.5952 129.558C56.0439 136.247 59.6883 149.722 59.6883 157.5H13.9869ZM137.483 178.484C125.467 178.484 115.683 169.06 115.683 157.484C115.683 145.909 125.467 136.484 137.483 136.484H149.286L192.871 178.468H137.483V178.484ZM308.078 267.513C315.695 267.513 322.573 272.162 325.167 279.057L330.174 292.403L319.552 302.65L305.697 297.811C298.524 295.313 293.714 288.703 293.714 281.365V267.497H308.094L308.078 267.513ZM344.538 157.5C332.685 168.38 319.7 178.057 305.796 186.391C300.97 179.465 296.835 165.369 296.835 157.111C296.835 148.944 300.97 135.535 305.796 128.609C319.7 136.943 332.685 146.62 344.538 157.5ZM179.492 93.9782C220.203 93.9782 260.176 103.925 295.52 122.79C289.593 131.519 285.095 147 285.095 157.111L260.718 157.5C260.718 154.337 260.718 154.337 260.718 157.5C260.718 160.663 260.718 160.663 260.718 157.5L285.095 157.111C285.095 167.611 289.593 183.481 295.52 192.21C279.465 200.765 262.458 207.517 244.794 212.325L221.566 189.949C240.099 189.901 255.169 175.369 255.169 157.5C255.169 148.834 251.673 140.691 245.303 134.555C238.934 128.435 230.48 125.051 221.484 125.051C218.2 125.051 215.541 127.613 215.541 130.776C215.541 133.938 218.2 136.5 221.484 136.5C227.295 136.5 232.778 138.682 236.898 142.651C241.019 146.62 243.284 151.886 243.284 157.5C243.284 169.075 233.5 178.5 221.484 178.5H209.681L166.096 136.516H201.489C204.772 136.516 207.432 133.954 207.432 130.791C207.432 127.629 204.772 125.067 201.489 125.067H154.211L127.617 99.4496C144.657 95.8283 162.042 93.994 179.492 93.994V93.9782ZM53.3025 17.1732C60.4762 19.6717 65.2861 26.2817 65.2861 33.6348V47.4872H50.9057C43.2887 47.4872 36.4105 42.8539 33.8167 35.9435L28.8099 22.5814L39.431 12.3502L53.286 17.1732H53.3025Z" fill="black"/>
<path d="M105.079 221.67L131.508 228.043L133.774 216.8L108.592 210.727" fill="black"/>
<path d="M201.505 136.5H221.5V125.051H201.505" fill="black"/>
</g>
<defs>
<clipPath id="clip0_647_413">
<rect width="315" height="359" fill="white" transform="translate(0 315) rotate(-90)"/>
</clipPath>
</defs>
</svg>