<svg width="106" height="72" viewBox="0 0 106 72" fill="none" xmlns="http://www.w3.org/2000/svg">
<g clip-path="url(#clip0_650_624)">
<path d="M79.2209 18.9208C71.5028 18.9208 64.5515 22.1879 59.6635 27.4122C57.0466 24.3974 53.1843 22.4906 48.8788 22.4906C40.9907 22.4906 34.5974 28.8842 34.5974 36.7706C34.5974 36.8903 34.6007 37.0083 34.6022 37.1265C26.4538 38.7794 20.3191 45.9833 20.3191 54.62C20.3191 64.4761 28.3107 72.4696 38.1685 72.4696H79.2209C94.0102 72.4696 105.998 60.4846 105.998 45.6955C105.998 30.9073 94.0102 18.9208 79.2209 18.9208Z" fill="#AAB2BC" fill-opacity="0.9"/>
<path d="M95.8184 24.6837C99.4253 29.2463 101.58 35.0106 101.58 41.2798C101.58 56.0657 89.5917 68.0537 74.8053 68.0537H33.7515C29.9508 68.0537 26.4279 66.8632 23.533 64.8383C26.7596 69.4511 32.1118 72.4692 38.1685 72.4692H79.2209C94.0102 72.4692 105.998 60.4842 105.998 45.6951C105.998 37.1764 102.02 29.5875 95.8184 24.6837Z" fill="#949DA8" fill-opacity="0.9"/>
<path d="M58.9066 1.53076C51.1868 1.53076 44.2339 4.79627 39.3461 10.0221C36.7292 7.00715 32.8671 5.1006 28.5598 5.1006C20.6733 5.1006 14.2798 11.4941 14.2798 19.3804C14.2798 19.4984 14.2814 19.618 14.2845 19.7363C6.13476 21.3892 0.00146484 28.5931 0.00146484 37.23C0.00146484 47.0863 7.99308 55.0794 17.8511 55.0794H58.9066C73.6928 55.0794 85.6778 43.0915 85.6778 28.3053C85.6778 13.5173 73.6928 1.53076 58.9066 1.53076Z" fill="#D7DCE2" fill-opacity="0.9"/>
<path d="M75.501 7.29346C79.1079 11.8546 81.2656 17.6204 81.2656 23.8878C81.2656 38.6757 69.2776 50.6636 54.4882 50.6636H13.4341C9.6334 50.6636 6.11076 49.4732 3.21564 47.4484C6.44243 52.0609 11.7944 55.079 17.8513 55.079H58.9066C73.6928 55.079 85.6778 43.091 85.6778 28.3049C85.6778 19.7861 81.6989 12.1974 75.501 7.29346Z" fill="#CCD1D9" fill-opacity="0.9"/>
</g>
<defs>
<clipPath id="clip0_650_624">
<rect width="106" height="72" fill="white"/>
</clipPath>
</defs>
</svg>