<svg width="91" height="91" viewBox="0 0 91 91" fill="none" xmlns="http://www.w3.org/2000/svg">
<path d="M52 20.5L42.5 17.5L33 18.5L26.5 23L22 29.5L20 39H16L9.5 43.5L5 51V59L8.5 67.5L19 74H64L74.5 73L82 67.5L87 57.5L84.5 48L80 42L74.5 39L73.5 35L69 31L65.5 29.5L59 28.5L52 20.5Z" fill="white"/>
<path d="M75.6097 38.2484C74.79 35.127 72.9618 32.3639 70.4094 30.389C67.8569 28.4141 64.7234 27.3381 61.4961 27.3284C61.0454 27.3284 60.6011 27.3483 60.1674 27.3874C57.9042 23.166 54.307 19.8126 49.9372 17.851C45.5674 15.8893 40.6711 15.4297 36.0127 16.544C31.3542 17.6582 27.1958 20.2836 24.1866 24.0102C21.1774 27.7369 19.4868 32.355 19.3788 37.1436C14.6486 37.9152 10.3822 40.4391 7.42817 44.2132C4.47416 47.9873 3.04905 52.735 3.43631 57.5121C3.82357 62.2891 5.99482 66.7453 9.51816 69.9943C13.0415 73.2433 17.6587 75.047 22.4514 75.0466H68.5486C72.9847 75.0473 77.2823 73.5021 80.7021 70.6766C84.1219 67.8511 86.4501 63.9221 87.2861 59.5655C88.122 55.2089 87.4135 50.6972 85.2824 46.8066C83.1513 42.916 79.7309 39.8897 75.6097 38.2484V38.2484ZM68.5486 72.5583H22.4514C18.2005 72.556 14.1127 70.9217 11.0319 67.9928C7.95098 65.0639 6.11221 61.0639 5.8951 56.8185C5.678 52.5732 7.09912 48.4065 9.86513 45.1786C12.6311 41.9506 16.5309 39.9079 20.7594 39.472C21.0813 39.4393 21.3779 39.2825 21.5862 39.0349C21.7944 38.7872 21.898 38.4681 21.8749 38.1454C21.8628 37.9761 21.8635 37.8062 21.8635 37.637C21.8638 33.2923 23.3381 29.0761 26.0453 25.6779C28.7525 22.2797 32.5325 19.9004 36.7673 18.929C41.0021 17.9577 45.4412 18.4517 49.3588 20.3304C53.2764 22.209 56.4408 25.3611 58.3346 29.2714C58.4508 29.5124 58.6418 29.7094 58.879 29.833C59.1163 29.9566 59.3872 30.0003 59.6512 29.9575C60.2613 29.8616 60.8779 29.8141 61.4954 29.8153C64.2703 29.8231 66.9586 30.7819 69.1121 32.5318C71.2656 34.2817 72.7542 36.7169 73.3297 39.4314C73.3731 39.6402 73.4695 39.8344 73.6096 39.9952C73.7496 40.156 73.9287 40.2782 74.1295 40.35C77.8081 41.6663 80.904 44.2388 82.8716 47.6142C84.8392 50.9896 85.5522 54.9512 84.885 58.8008C84.2177 62.6504 82.213 66.1409 79.2242 68.6572C76.2353 71.1735 72.4542 72.554 68.5472 72.5554L68.5486 72.5583Z" fill="black"/>
<path d="M80.4447 47.1586C80.3485 47.0248 80.2266 46.9114 80.0862 46.8251C79.9458 46.7388 79.7896 46.6812 79.6268 46.6558C79.4639 46.6303 79.2977 46.6375 79.1376 46.6768C78.9776 46.7161 78.8269 46.7869 78.6944 46.885C78.562 46.983 78.4503 47.1064 78.3659 47.248C78.2815 47.3896 78.2261 47.5465 78.2029 47.7097C78.1796 47.8728 78.1891 48.039 78.2306 48.1985C78.2721 48.358 78.3449 48.5077 78.4448 48.6388C80.3022 51.1401 81.1414 54.253 80.7931 57.349C80.4447 60.445 78.9347 63.2935 76.5679 65.3195C76.3231 65.536 76.1733 65.8402 76.1509 66.1663C76.1285 66.4923 76.2353 66.8141 76.4482 67.0621C76.6612 67.31 76.9631 67.4643 77.2888 67.4914C77.6145 67.5185 77.9379 67.4164 78.1889 67.2071C81.0328 64.7716 82.8473 61.3482 83.2663 57.6275C83.6853 53.9068 82.6778 50.1656 80.4468 47.1586H80.4447Z" fill="black"/>
</svg>