<svg width="72" height="45" viewBox="0 0 72 45" fill="none" xmlns="http://www.w3.org/2000/svg">
<path d="M48.8996 0C42.4921 0 36.7213 2.71236 32.6633 7.04945C30.4908 4.54661 27.2843 2.96364 23.71 2.96364C17.1614 2.96364 11.8537 8.27149 11.8537 14.8187C11.8537 14.9181 11.8565 15.016 11.8577 15.1142C5.093 16.4864 0 22.467 0 29.6371C0 37.8195 6.63455 44.4556 14.8184 44.4556H48.8996C61.1775 44.4556 71.1299 34.5058 71.1299 22.2281C71.1299 9.95105 61.1775 0 48.8996 0Z" fill="#AAB2BC" fill-opacity="0.9"/>
<path d="M62.6787 4.78418C65.6731 8.57196 67.4617 13.3575 67.4617 18.562C67.4617 30.8372 57.5094 40.7894 45.2339 40.7894H11.1514C7.99617 40.7894 5.07154 39.8011 2.66821 38.12C5.34689 41.9496 9.7902 44.4552 14.8184 44.4552H48.8997C61.1776 44.4552 71.13 34.5053 71.13 22.2276C71.13 15.1555 67.8269 8.85521 62.6787 4.78418Z" fill="#949DA8" fill-opacity="0.9"/>
</svg>