<svg width="72" height="45" viewBox="0 0 72 45" fill="none" xmlns="http://www.w3.org/2000/svg">
<path d="M48.9024 0C42.4935 0 36.7213 2.71098 32.6635 7.04945C30.491 4.54644 27.2846 2.96364 23.7088 2.96364C17.1615 2.96364 11.8537 8.27148 11.8537 14.8185C11.8537 14.9165 11.8551 15.0159 11.8577 15.114C5.0918 16.4863 0 22.4668 0 29.6371C0 37.8197 6.63455 44.4555 14.8185 44.4555H48.9024C61.1777 44.4555 71.1275 34.5032 71.1275 22.2279C71.1275 9.95105 61.1777 0 48.9024 0Z" fill="#D7DCE2" fill-opacity="0.9"/>
<path d="M62.6788 4.78418C65.6732 8.57076 67.4645 13.3575 67.4645 18.5606C67.4645 30.8373 57.5123 40.7896 45.2342 40.7896H11.1516C7.99629 40.7896 5.07183 39.8013 2.66833 38.1204C5.34718 41.9496 9.79032 44.4552 14.8187 44.4552H48.9024C61.1777 44.4552 71.1275 34.5029 71.1275 22.2276C71.1275 15.1555 67.8243 8.85538 62.6788 4.78418Z" fill="#CCD1D9" fill-opacity="0.9"/>
</svg>