<svg width="676" height="383" viewBox="0 0 676 383" fill="none" xmlns="http://www.w3.org/2000/svg">
<rect x="2.5" y="2.5" width="671" height="378" fill="#333333" stroke="black" stroke-width="5"/>
<g clip-path="url(#clip0_135_1200)">
<path d="M214.877 116.678C223.243 116.678 230.571 121.791 235.657 130.054C240.177 137.399 242.972 147.422 242.972 158.381C242.972 169.34 240.177 179.363 235.657 186.707C230.571 194.972 223.243 200.084 214.877 200.084C206.511 200.084 199.182 194.972 194.096 186.708C189.577 179.363 186.781 169.34 186.781 158.381C186.781 147.422 189.576 137.4 194.096 130.055C199.182 121.79 206.511 116.678 214.877 116.678Z" fill="#EAE8D4"/>
<path d="M221.203 193.757C221.203 190.263 218.37 187.431 214.877 187.431C211.383 187.431 208.55 190.263 208.55 193.757V313.493C208.55 316.987 211.383 319.82 214.877 319.82C218.37 319.82 221.203 316.987 221.203 313.493V193.757Z" fill="#EAE8D4"/>
<path fill-rule="evenodd" clip-rule="evenodd" d="M490.434 218.249C490.434 185.931 477.335 156.672 456.155 135.492C434.976 114.312 405.718 101.212 373.401 101.212C341.084 101.212 311.826 114.312 290.647 135.492C269.467 156.672 256.368 185.931 256.368 218.249C256.368 250.568 269.467 279.827 290.647 301.007C311.826 322.187 341.084 335.287 373.401 335.287C405.718 335.287 434.976 322.187 456.155 301.007C477.334 279.827 490.434 250.567 490.434 218.249ZM373.401 149.347C392.426 149.347 409.651 157.059 422.12 169.529C434.588 181.998 442.301 199.223 442.301 218.249C442.301 237.275 434.589 254.501 422.12 266.97C409.651 279.439 392.426 287.152 373.401 287.152C354.376 287.152 337.151 279.439 324.682 266.97C312.214 254.501 304.501 237.275 304.501 218.249C304.501 199.224 312.213 181.998 324.682 169.529C337.151 157.06 354.376 149.347 373.401 149.347Z" fill="#EAE8D4"/>
<path fill-rule="evenodd" clip-rule="evenodd" d="M429.648 218.249C429.648 202.716 423.353 188.653 413.174 178.474C402.996 168.296 388.934 162 373.401 162C357.868 162 343.806 168.296 333.628 178.474C323.449 188.653 317.154 202.716 317.154 218.249C317.154 233.783 323.449 247.845 333.628 258.024C343.806 268.203 357.868 274.499 373.401 274.499C388.934 274.499 402.996 268.203 413.174 258.024C423.353 247.845 429.648 233.783 429.648 218.249Z" fill="#EAE8D4"/>
</g>
<path d="M29.9163 55.454V30.254H36.0363V55.454H29.9163ZM32.7603 45.806V40.694H45.7923V45.806H32.7603ZM32.7603 35.654V30.254H47.2683V35.654H32.7603ZM60.0309 55.814C58.0389 55.814 56.2629 55.382 54.7029 54.518C53.1669 53.654 51.9429 52.478 51.0309 50.99C50.1429 49.502 49.6989 47.798 49.6989 45.878C49.6989 43.958 50.1429 42.254 51.0309 40.766C51.9429 39.278 53.1669 38.102 54.7029 37.238C56.2629 36.374 58.0389 35.942 60.0309 35.942C62.0229 35.942 63.7869 36.374 65.3229 37.238C66.8829 38.102 68.1069 39.278 68.9949 40.766C69.8829 42.254 70.3269 43.958 70.3269 45.878C70.3269 47.798 69.8829 49.502 68.9949 50.99C68.1069 52.478 66.8829 53.654 65.3229 54.518C63.7869 55.382 62.0229 55.814 60.0309 55.814ZM60.0309 50.846C60.8949 50.846 61.6629 50.63 62.3349 50.198C63.0069 49.766 63.5349 49.178 63.9189 48.434C64.3029 47.69 64.4829 46.838 64.4589 45.878C64.4829 44.918 64.3029 44.066 63.9189 43.322C63.5349 42.554 63.0069 41.954 62.3349 41.522C61.6629 41.09 60.8949 40.874 60.0309 40.874C59.1669 40.874 58.3869 41.09 57.6909 41.522C57.0189 41.954 56.4909 42.554 56.1069 43.322C55.7229 44.066 55.5429 44.918 55.5669 45.878C55.5429 46.838 55.7229 47.69 56.1069 48.434C56.4909 49.178 57.0189 49.766 57.6909 50.198C58.3869 50.63 59.1669 50.846 60.0309 50.846ZM83.0934 55.814C81.1014 55.814 79.3254 55.382 77.7654 54.518C76.2294 53.654 75.0054 52.478 74.0934 50.99C73.2054 49.502 72.7614 47.798 72.7614 45.878C72.7614 43.958 73.2054 42.254 74.0934 40.766C75.0054 39.278 76.2294 38.102 77.7654 37.238C79.3254 36.374 81.1014 35.942 83.0934 35.942C85.0854 35.942 86.8494 36.374 88.3854 37.238C89.9454 38.102 91.1694 39.278 92.0574 40.766C92.9454 42.254 93.3894 43.958 93.3894 45.878C93.3894 47.798 92.9454 49.502 92.0574 50.99C91.1694 52.478 89.9454 53.654 88.3854 54.518C86.8494 55.382 85.0854 55.814 83.0934 55.814ZM83.0934 50.846C83.9574 50.846 84.7254 50.63 85.3974 50.198C86.0694 49.766 86.5974 49.178 86.9814 48.434C87.3654 47.69 87.5454 46.838 87.5214 45.878C87.5454 44.918 87.3654 44.066 86.9814 43.322C86.5974 42.554 86.0694 41.954 85.3974 41.522C84.7254 41.09 83.9574 40.874 83.0934 40.874C82.2294 40.874 81.4494 41.09 80.7534 41.522C80.0814 41.954 79.5534 42.554 79.1694 43.322C78.7854 44.066 78.6054 44.918 78.6294 45.878C78.6054 46.838 78.7854 47.69 79.1694 48.434C79.5534 49.178 80.0814 49.766 80.7534 50.198C81.4494 50.63 82.2294 50.846 83.0934 50.846ZM104.392 55.85C102.736 55.85 101.26 55.43 99.9639 54.59C98.6919 53.726 97.6839 52.55 96.9399 51.062C96.1959 49.55 95.8239 47.834 95.8239 45.914C95.8239 43.994 96.1959 42.29 96.9399 40.802C97.6839 39.29 98.7039 38.102 99.9999 37.238C101.296 36.374 102.784 35.942 104.464 35.942C105.328 35.942 106.156 36.074 106.948 36.338C107.74 36.602 108.46 36.962 109.108 37.418C109.756 37.874 110.284 38.402 110.692 39.002C111.1 39.578 111.34 40.178 111.412 40.802L110.044 41.126V28.814H115.84V55.454H110.476L110.152 51.098L111.304 51.278C111.232 51.878 110.992 52.454 110.584 53.006C110.2 53.558 109.696 54.05 109.072 54.482C108.448 54.89 107.728 55.214 106.912 55.454C106.12 55.718 105.28 55.85 104.392 55.85ZM105.868 51.062C106.756 51.062 107.524 50.846 108.172 50.414C108.82 49.982 109.312 49.382 109.648 48.614C110.008 47.846 110.188 46.946 110.188 45.914C110.188 44.858 110.008 43.946 109.648 43.178C109.312 42.41 108.82 41.81 108.172 41.378C107.524 40.946 106.756 40.73 105.868 40.73C104.98 40.73 104.212 40.946 103.564 41.378C102.94 41.81 102.448 42.41 102.088 43.178C101.728 43.946 101.548 44.858 101.548 45.914C101.548 46.946 101.728 47.846 102.088 48.614C102.448 49.382 102.94 49.982 103.564 50.414C104.212 50.846 104.98 51.062 105.868 51.062ZM132.35 55.454V50.306H136.598V35.402H132.35V30.254H147.002V35.402H142.718V50.306H147.002V55.454H132.35ZM152.211 55.454V36.338H157.683L157.863 40.226L156.711 40.658C156.975 39.794 157.443 39.014 158.115 38.318C158.811 37.598 159.639 37.022 160.599 36.59C161.559 36.158 162.567 35.942 163.623 35.942C165.063 35.942 166.275 36.242 167.259 36.842C168.243 37.418 168.987 38.294 169.491 39.47C169.995 40.622 170.247 42.038 170.247 43.718V55.454H164.451V44.186C164.451 43.418 164.343 42.782 164.127 42.278C163.911 41.774 163.575 41.402 163.119 41.162C162.687 40.898 162.147 40.778 161.499 40.802C160.995 40.802 160.527 40.886 160.095 41.054C159.663 41.198 159.291 41.426 158.979 41.738C158.667 42.026 158.415 42.362 158.223 42.746C158.055 43.13 157.971 43.55 157.971 44.006V55.454H155.127C154.455 55.454 153.879 55.454 153.399 55.454C152.919 55.454 152.523 55.454 152.211 55.454ZM181.506 55.814C179.634 55.814 177.978 55.514 176.538 54.914C175.122 54.314 173.994 53.51 173.154 52.502L176.646 49.478C177.39 50.222 178.23 50.774 179.166 51.134C180.102 51.47 180.99 51.638 181.83 51.638C182.166 51.638 182.466 51.602 182.73 51.53C182.994 51.458 183.21 51.362 183.378 51.242C183.57 51.098 183.714 50.942 183.81 50.774C183.906 50.582 183.954 50.366 183.954 50.126C183.954 49.646 183.738 49.274 183.306 49.01C183.09 48.89 182.73 48.746 182.226 48.578C181.722 48.41 181.074 48.218 180.282 48.002C179.154 47.714 178.17 47.378 177.33 46.994C176.514 46.586 175.842 46.118 175.314 45.59C174.834 45.086 174.462 44.534 174.198 43.934C173.934 43.31 173.802 42.614 173.802 41.846C173.802 40.958 174.006 40.154 174.414 39.434C174.846 38.714 175.41 38.09 176.106 37.562C176.826 37.034 177.642 36.638 178.554 36.374C179.49 36.086 180.45 35.942 181.434 35.942C182.49 35.942 183.498 36.062 184.458 36.302C185.418 36.542 186.306 36.878 187.122 37.31C187.962 37.742 188.706 38.258 189.354 38.858L186.33 42.242C185.898 41.834 185.406 41.474 184.854 41.162C184.326 40.826 183.774 40.562 183.198 40.37C182.622 40.178 182.094 40.082 181.614 40.082C181.254 40.082 180.93 40.118 180.642 40.19C180.378 40.238 180.15 40.334 179.958 40.478C179.766 40.598 179.622 40.754 179.526 40.946C179.43 41.114 179.382 41.318 179.382 41.558C179.382 41.798 179.442 42.026 179.562 42.242C179.706 42.458 179.898 42.638 180.138 42.782C180.378 42.926 180.762 43.094 181.29 43.286C181.818 43.454 182.538 43.67 183.45 43.934C184.578 44.246 185.55 44.594 186.366 44.978C187.182 45.362 187.83 45.818 188.31 46.346C188.694 46.754 188.982 47.234 189.174 47.786C189.366 48.314 189.462 48.89 189.462 49.514C189.462 50.738 189.114 51.83 188.418 52.79C187.746 53.726 186.81 54.47 185.61 55.022C184.41 55.55 183.042 55.814 181.506 55.814ZM201.994 55.814C199.882 55.814 198.046 55.394 196.486 54.554C194.926 53.69 193.714 52.526 192.85 51.062C191.986 49.574 191.554 47.882 191.554 45.986C191.554 44.522 191.794 43.178 192.274 41.954C192.754 40.73 193.426 39.674 194.29 38.786C195.154 37.874 196.174 37.178 197.35 36.698C198.55 36.194 199.858 35.942 201.274 35.942C202.618 35.942 203.842 36.182 204.946 36.662C206.074 37.142 207.046 37.814 207.862 38.678C208.678 39.542 209.302 40.562 209.734 41.738C210.166 42.914 210.358 44.198 210.31 45.59L210.274 47.138H195.046L194.218 43.898H205.594L204.982 44.582V43.862C204.934 43.262 204.742 42.734 204.406 42.278C204.094 41.798 203.674 41.426 203.146 41.162C202.618 40.898 202.018 40.766 201.346 40.766C200.41 40.766 199.606 40.958 198.934 41.342C198.286 41.702 197.794 42.242 197.458 42.962C197.122 43.658 196.954 44.522 196.954 45.554C196.954 46.61 197.17 47.534 197.602 48.326C198.058 49.094 198.706 49.694 199.546 50.126C200.41 50.558 201.43 50.774 202.606 50.774C203.422 50.774 204.142 50.654 204.766 50.414C205.414 50.174 206.11 49.766 206.854 49.19L209.554 53.006C208.81 53.654 208.018 54.182 207.178 54.59C206.338 54.998 205.474 55.298 204.586 55.49C203.722 55.706 202.858 55.814 201.994 55.814ZM222.368 55.814C220.52 55.814 218.864 55.382 217.4 54.518C215.936 53.654 214.772 52.478 213.908 50.99C213.068 49.478 212.648 47.774 212.648 45.878C212.648 43.982 213.068 42.29 213.908 40.802C214.772 39.29 215.936 38.102 217.4 37.238C218.864 36.374 220.52 35.942 222.368 35.942C224.072 35.942 225.632 36.242 227.048 36.842C228.488 37.442 229.628 38.282 230.468 39.362L227.336 43.106C227 42.722 226.604 42.362 226.148 42.026C225.692 41.69 225.188 41.426 224.636 41.234C224.084 41.042 223.508 40.946 222.908 40.946C221.996 40.946 221.192 41.162 220.496 41.594C219.8 42.002 219.26 42.578 218.876 43.322C218.492 44.066 218.3 44.918 218.3 45.878C218.3 46.79 218.492 47.618 218.876 48.362C219.284 49.106 219.836 49.694 220.532 50.126C221.228 50.558 222.02 50.774 222.908 50.774C223.532 50.774 224.108 50.702 224.636 50.558C225.164 50.39 225.644 50.15 226.076 49.838C226.532 49.526 226.952 49.142 227.336 48.686L230.432 52.466C229.616 53.498 228.476 54.314 227.012 54.914C225.572 55.514 224.024 55.814 222.368 55.814ZM240.113 55.85C238.697 55.85 237.485 55.55 236.477 54.95C235.493 54.326 234.725 53.438 234.173 52.286C233.645 51.134 233.381 49.754 233.381 48.146V36.338H239.177V47.354C239.177 48.122 239.297 48.782 239.537 49.334C239.777 49.886 240.137 50.318 240.617 50.63C241.097 50.918 241.673 51.062 242.345 51.062C242.849 51.062 243.305 50.978 243.713 50.81C244.145 50.642 244.505 50.414 244.793 50.126C245.105 49.814 245.345 49.466 245.513 49.082C245.681 48.674 245.765 48.23 245.765 47.75V36.338H251.561V55.454H246.125L245.873 51.53L246.953 51.098C246.665 52.01 246.185 52.826 245.513 53.546C244.841 54.242 244.037 54.806 243.101 55.238C242.165 55.646 241.169 55.85 240.113 55.85ZM256.695 55.454V36.338H262.167L262.419 42.566L261.339 41.378C261.627 40.346 262.095 39.422 262.743 38.606C263.415 37.79 264.195 37.142 265.083 36.662C265.971 36.182 266.919 35.942 267.927 35.942C268.359 35.942 268.755 35.978 269.115 36.05C269.499 36.122 269.847 36.206 270.159 36.302L268.575 42.674C268.311 42.506 267.951 42.374 267.495 42.278C267.063 42.158 266.607 42.098 266.127 42.098C265.599 42.098 265.107 42.194 264.651 42.386C264.195 42.554 263.811 42.806 263.499 43.142C263.187 43.478 262.935 43.874 262.743 44.33C262.575 44.786 262.491 45.302 262.491 45.878V55.454H256.695ZM273.402 55.454V36.338H279.162V55.454H273.402ZM276.282 32.558C275.202 32.558 274.35 32.306 273.726 31.802C273.126 31.274 272.826 30.53 272.826 29.57C272.826 28.706 273.138 27.998 273.762 27.446C274.386 26.894 275.226 26.618 276.282 26.618C277.362 26.618 278.202 26.882 278.802 27.41C279.402 27.914 279.702 28.634 279.702 29.57C279.702 30.458 279.39 31.178 278.766 31.73C278.166 32.282 277.338 32.558 276.282 32.558ZM286.158 55.454V31.514H291.918V55.454H286.158ZM282.774 41.378V36.338H295.626V41.378H282.774ZM301.33 63.734L305.686 53.474L305.758 56.426L296.542 36.338H303.058L307.09 45.95C307.306 46.43 307.51 46.946 307.702 47.498C307.894 48.05 308.038 48.578 308.134 49.082L307.342 49.55C307.486 49.19 307.642 48.746 307.81 48.218C308.002 47.666 308.206 47.078 308.422 46.454L311.95 36.338H318.502L310.366 55.454L307.054 63.734H301.33Z" fill="white"/>
<defs>
<clipPath id="clip0_135_1200">
<rect width="404.871" height="234.663" fill="white" transform="translate(136.173 100.917)"/>
</clipPath>
</defs>
</svg>