<svg width="114" height="114" viewBox="0 0 114 114" fill="none" xmlns="http://www.w3.org/2000/svg">
<g clip-path="url(#clip0_650_611)">
<path d="M17.7135 70.337C17.7135 73.2095 20.0425 75.5385 22.9152 75.5387C25.7877 75.5387 28.1167 73.2097 28.1167 70.3372L28.1165 42.8742C28.1164 40.0013 25.7874 37.6723 22.9148 37.6724C20.0422 37.6726 17.7137 40.0015 17.7133 42.874L17.7135 70.337Z" fill="#FFCE00"/>
<path d="M81.5678 60.5778C83.7617 62.7718 87.3189 62.7718 89.5129 60.5778C91.7069 58.3839 91.7069 54.8267 89.5129 52.6327C87.3189 50.4387 83.7617 50.4387 81.5678 52.6327C79.3738 54.8267 79.3738 58.3839 81.5678 60.5778Z" fill="#7D868C"/>
<path opacity="0.2" d="M86.6432 56.6055C86.6432 54.4925 86.473 52.635 86.13 51.0182C85.9341 50.9975 85.7373 50.9872 85.5403 50.9872C82.4373 50.9873 79.9219 53.5027 79.9222 56.6053C79.9219 59.7081 82.4376 62.2238 85.5403 62.2234C85.7388 62.2233 85.9372 62.2129 86.1346 62.1921C86.4748 60.5825 86.6435 58.7296 86.6432 56.6055ZM28.1163 45.2828C24.2635 45.6167 21.3679 45.8395 20.4174 45.8396C19.5051 45.8391 18.5965 45.9548 17.7135 46.1838L17.7133 67.0272C18.5964 67.2564 19.5052 67.3722 20.4176 67.3719C21.3683 67.3715 24.2631 67.5946 28.1165 67.9281L28.1163 45.2828Z" fill="black"/>
<path d="M84.9164 56.6057C84.9164 49.8256 83.1658 44.329 76.386 44.3293C68.4795 44.3297 25.2031 48.9069 20.4176 48.9066C16.1658 48.907 12.7185 52.3536 12.7188 56.6054C12.7185 60.8577 16.1661 64.3043 20.4176 64.3041C25.2031 64.3045 68.4793 68.8819 76.3859 68.8817C83.1659 68.8818 84.9163 63.3854 84.9164 56.6057Z" fill="#333E48"/>
<path d="M44.43 60.5789C46.6238 62.7727 50.1808 62.7727 52.3747 60.5789C54.5685 58.385 54.5685 54.8281 52.3747 52.6342C50.1808 50.4403 46.6238 50.4403 44.43 52.6342C42.2361 54.8281 42.2361 58.385 44.43 60.5789Z" fill="#7D868C"/>
<path opacity="0.2" d="M73.8182 44.4141C67.9141 44.7196 56.0674 45.8004 44.9867 46.8253L44.9867 66.3859C56.0674 67.4109 67.9139 68.4923 73.8183 68.797L73.8182 44.4141Z" fill="black"/>
<path d="M48.4017 93.214C48.4019 99.2465 53.2921 104.136 59.3245 104.136C65.3565 104.136 70.247 99.2465 70.2469 93.2139L70.2466 19.9973C70.2466 13.9646 65.3567 9.07459 59.3243 9.07492C53.2918 9.0747 48.4013 13.9648 48.4018 19.997L48.4017 93.214ZM17.7331 57.5217C17.6126 57.4015 17.5171 57.2588 17.452 57.1016C17.3869 56.9445 17.3535 56.776 17.3537 56.6059C17.3537 56.2624 17.4901 55.9329 17.733 55.6899C17.9758 55.447 18.3053 55.3105 18.6488 55.3104L29.8843 55.3102C30.2279 55.3102 30.5573 55.4466 30.8003 55.6895C31.0432 55.9324 31.1797 56.2618 31.1797 56.6053C31.1798 56.7754 31.1464 56.9439 31.0813 57.101C31.0162 57.2582 30.9208 57.401 30.8006 57.5212C30.6803 57.6415 30.5375 57.7369 30.3804 57.802C30.2232 57.867 30.0548 57.9005 29.8847 57.9004L18.6491 57.9006C18.479 57.901 18.3105 57.8677 18.1532 57.8026C17.996 57.7376 17.8532 57.6421 17.7331 57.5217Z" fill="#FFCE00"/>
<path opacity="0.2" d="M48.4004 38.967L48.4005 36.3766L70.2458 36.377L70.2458 38.9674L48.4004 38.967Z" fill="black"/>
<path opacity="0.2" d="M48.4017 26.4113L48.4018 23.8208L70.2472 23.8212L70.2471 26.4116L48.4017 26.4113Z" fill="black"/>
<path opacity="0.2" d="M48.4017 76.8333L48.4017 74.2428L70.2471 74.2432L70.247 76.8336L48.4017 76.8333Z" fill="black"/>
<path opacity="0.2" d="M48.4009 89.3914L48.401 86.8009L70.2464 86.8013L70.2463 89.3917L48.4009 89.3914Z" fill="black"/>
<path d="M71.5424 93.2141L71.5424 69.9593C73.7726 70.1055 75.3659 70.1769 76.3861 70.177C80.019 70.177 82.6865 68.7495 84.3149 65.9348C84.729 65.2194 85.0727 64.4133 85.3499 63.5142C85.4136 63.5158 85.4769 63.5189 85.5408 63.5189C86.0142 63.5188 86.4865 63.4707 86.9502 63.3752L86.9502 72.4871C86.95 72.6573 86.9834 72.8257 87.0486 72.9829C87.1137 73.1401 87.2092 73.2828 87.3296 73.403C87.5108 73.5841 87.7416 73.7074 87.9928 73.7573C88.244 73.8073 88.5044 73.7816 88.7411 73.6836C88.9777 73.5856 89.18 73.4196 89.3224 73.2066C89.4647 72.9937 89.5407 72.7433 89.5408 72.4871L89.5408 62.2444C89.854 62.021 90.1519 61.7717 90.4293 61.4943C91.7351 60.1885 92.4542 58.4525 92.4542 56.606C92.4543 54.7593 91.7354 53.0231 90.4296 51.7173C90.152 51.4397 89.854 51.1903 89.5405 50.9669L89.5404 40.7247C89.5346 40.3851 89.3956 40.0613 89.1534 39.8232C88.9112 39.585 88.5851 39.4516 88.2455 39.4515C87.9058 39.4515 87.5797 39.5848 87.3374 39.8229C87.0951 40.0609 86.956 40.3846 86.9501 40.7242L86.95 49.8363C86.4863 49.7405 86.0141 49.6923 85.5407 49.6922C85.477 49.6922 85.4133 49.6953 85.3495 49.697C85.0724 48.798 84.7286 47.9922 84.3147 47.2764C82.6862 44.4608 80.0186 43.0341 76.3858 43.0342C75.3664 43.0343 73.7729 43.1061 71.5419 43.2522L71.542 19.9976C71.5421 16.7339 70.2712 13.6656 67.9636 11.358C65.6561 9.05043 62.5878 7.77957 59.3246 7.77979C56.0609 7.77979 52.9926 9.05043 50.6851 11.3579C48.3774 13.6654 47.1064 16.7336 47.1067 19.997L47.1067 45.3288C45.575 45.4702 44.0433 45.6118 42.5116 45.7537C37.7975 46.1901 33.2057 46.6154 29.4118 46.9489L29.4119 42.874C29.4119 41.1387 28.736 39.5071 27.5089 38.28C26.2818 37.0529 24.6503 36.3771 22.9148 36.3773C19.3331 36.3774 16.4188 39.2917 16.4183 42.8738L16.4182 48.5528C13.4609 50.0278 11.4236 53.0824 11.4239 56.6052C11.4237 59.0078 12.3593 61.2664 14.0581 62.9652C14.7477 63.6554 15.5448 64.229 16.4183 64.6634L16.4183 70.3368C16.4184 72.1281 17.1469 73.7519 18.3233 74.9284C19.4997 76.1047 21.1243 76.8336 22.9152 76.8337C26.4975 76.8337 29.412 73.9193 29.4118 70.3369L29.4118 66.2617C33.2042 66.5952 37.7933 67.0201 42.5047 67.4562C44.0206 67.5965 45.5608 67.7392 47.1065 67.8817L47.1067 93.2138C47.1068 96.4767 48.3775 99.5448 50.6848 101.853L50.6853 101.853C52.9926 104.16 56.061 105.431 59.3247 105.431C62.588 105.431 65.6561 104.16 67.9638 101.853C70.2715 99.5458 71.5423 96.4774 71.5424 93.2141ZM88.5977 53.5488C89.4142 54.3653 89.8638 55.4509 89.8637 56.6056C89.8637 57.7603 89.414 58.8458 88.5975 59.6622C87.8722 60.3875 86.9348 60.8223 85.9254 60.9107C86.1162 59.6232 86.212 58.193 86.2119 56.6057C86.2119 55.0184 86.1162 53.5881 85.9254 52.3003C86.9348 52.3887 87.8726 52.8237 88.5977 53.5488ZM76.3861 45.6246C79.1016 45.6244 80.9086 46.5611 82.0724 48.5735C83.1145 50.3749 83.6211 53.0024 83.6208 56.6057C83.621 60.2089 83.1143 62.8361 82.072 64.6377C80.9083 66.6496 79.1013 67.5867 76.3854 67.5864C75.4095 67.5866 73.7821 67.5114 71.5419 67.3631L71.5419 45.8479C73.7833 45.7 75.411 45.6245 76.3861 45.6246ZM19.0088 42.8741C19.009 40.7202 20.7615 38.9678 22.9151 38.9678C23.9582 38.9677 24.9393 39.3741 25.6772 40.112C26.4152 40.8499 26.8215 41.8309 26.8216 42.8742L26.8212 47.1726C23.6277 47.4422 21.2989 47.6115 20.4175 47.6115C19.9457 47.6117 19.4746 47.6489 19.0086 47.723L19.0088 42.8741ZM26.8215 70.3371C26.8216 72.4911 25.0694 74.2433 22.9155 74.2433C20.7615 74.2432 19.0088 72.4908 19.0088 70.3367L19.0087 65.4884C19.4748 65.5617 19.9459 65.5987 20.4177 65.5991C21.2989 65.5991 23.6279 65.7686 26.8216 66.0381L26.8215 70.3371ZM42.7437 64.8774C31.9197 63.875 22.5719 63.0094 20.4176 63.0092C18.7073 63.0092 17.0992 62.3431 15.8896 61.1337C14.6802 59.9243 14.014 58.3162 14.0141 56.6055C14.0139 53.075 16.8865 50.2023 20.4176 50.202C22.5721 50.2021 31.923 49.3362 42.7505 48.3334C44.2026 48.1988 45.6546 48.0645 47.1067 47.9305L47.1067 65.281L42.7437 64.8774ZM59.3247 102.841C56.7528 102.841 54.3351 101.84 52.5169 100.022L52.5165 100.021C50.6983 98.2029 49.697 95.7853 49.6969 93.2141L49.6971 19.997C49.6967 17.4255 50.6981 15.0079 52.5167 13.1897C54.3351 11.3714 56.7529 10.3701 59.3247 10.3701C61.8962 10.3703 64.3138 11.3716 66.132 13.1898C67.9504 15.0082 68.9518 17.4258 68.9517 19.9975L68.9518 93.2141C68.9519 95.7855 67.9505 98.2034 66.1322 100.022C64.3139 101.84 61.8964 102.841 59.3247 102.841Z" fill="#1E252B"/>
</g>
<defs>
<clipPath id="clip0_650_611">
<rect width="80.0524" height="80.0524" fill="white" transform="translate(56.6056) rotate(45)"/>
</clipPath>
</defs>
</svg>