<svg width="76" height="73" viewBox="0 0 76 73" fill="none" xmlns="http://www.w3.org/2000/svg">
<path d="M47.1291 27.6133L29.8951 2.29608L24.4809 2.29608L33.1742 28.4521L13.5 30.3585L3.51034 23.4954L6.40809 31.1973L2.44275 35.9253L6.40809 40.3481L3.51034 47.44L13.5 41.2632L33.1742 42.7121L24.4809 69.6307L29.8951 70.622L48.578 42.7121L68.8623 41.9495L74.6578 35.9253L68.8623 30.3585L47.1291 27.6133Z" fill="white"/>
<path d="M69.8947 42.4872C64.4777 44.859 56.8939 44.7126 48.6659 44.5515C46.7041 44.5222 44.7129 44.4783 42.2533 44.4783C31.1851 44.4783 21.1563 43.6877 13.88 42.414C5.88625 41.0085 0.937744 38.7246 0.937744 35.9282C0.937744 33.1173 5.88625 30.848 13.88 29.4425C21.1563 28.1688 31.1851 27.3782 42.2533 27.3782C44.6544 27.3782 46.4845 27.3489 48.256 27.3196C56.6596 27.1878 64.4045 27.0707 69.9532 29.3693C71.6293 29.9964 73.134 31.0095 74.3454 32.3267C75.2165 33.2961 75.7011 34.5518 75.707 35.855C75.6689 37.1389 75.1879 38.37 74.3454 39.3395C73.1278 40.7217 71.6036 41.7997 69.8947 42.4872V42.4872ZM48.7245 41.4477C56.5864 41.5941 63.8481 41.7405 68.6649 39.6323C69.9161 39.1415 71.0381 38.3702 71.9443 37.3777C72.3347 36.9508 72.5672 36.4031 72.6032 35.8258C72.5768 35.2735 72.3535 34.7489 71.9736 34.3471C71.0806 33.4113 69.9832 32.6948 68.7674 32.2535C63.7896 30.1892 56.3815 30.3063 48.3292 30.4234C46.1477 30.4673 43.937 30.4966 42.268 30.4966C31.3754 30.4966 21.537 31.2726 14.4217 32.517C8.02376 33.6443 4.07082 34.8595 4.07082 35.9282C4.07082 36.9824 8.02376 38.2122 14.4217 39.3395C21.537 40.5839 31.3754 41.3599 42.268 41.3599C44.142 41.3599 46.4552 41.4038 48.7098 41.4477H48.7245Z" fill="#212121"/>
<path d="M47.319 29.9403L31.6975 6.39829L29.7796 4.14365L29.6332 3.93868C29.4575 3.64587 29.0622 3.48482 28.5352 3.38234C27.7103 3.26978 26.8755 3.25013 26.0463 3.32378C26.0756 3.67515 26.2659 4.20221 26.6319 4.93424L26.6905 5.05136C28.6962 10.0731 30.3652 14.6263 31.6682 18.6231C33.0005 22.6639 33.9668 26.2362 34.5232 29.2082L31.4633 29.7792C30.7636 26.3227 29.8442 22.9143 28.7109 19.5748C27.4078 15.6072 25.7827 11.1565 23.8356 6.29581C23.2309 5.25672 22.922 4.07198 22.9425 2.86992C23.0596 1.50835 23.8209 0.644561 25.1971 0.278547L25.4899 0.234626C26.6944 0.117268 27.9088 0.146765 29.1061 0.322469C30.4092 0.556718 31.4926 1.11306 32.2099 2.18182L34.1425 4.46574L34.245 4.61215L49.9104 28.2273L47.319 29.9403V29.9403Z" fill="#212121"/>
<path d="M49.9249 44.288L34.2596 67.9032L34.1424 68.0496L32.2099 70.3335C31.8509 70.8428 31.3893 71.2714 30.8547 71.5916C30.3202 71.9119 29.7245 72.1167 29.1061 72.1929C27.9087 72.3686 26.6944 72.3981 25.4899 72.2807L25.1971 72.2368C23.8209 71.8708 23.0595 71.007 22.9424 69.6308C22.9202 68.435 23.2239 67.2558 23.8209 66.2195C25.768 61.3589 27.4078 56.9081 28.7108 52.9259C29.9992 48.973 30.9362 45.5617 31.4632 42.7361L34.5377 43.2924C33.8132 46.883 32.8596 50.4235 31.6828 53.8922C30.3652 57.8891 28.6962 62.4423 26.6904 67.4493L26.6318 67.5957C26.3481 68.0909 26.1501 68.6304 26.0462 69.1915C26.8754 69.2652 27.7103 69.2455 28.5351 69.133C29.0622 69.0305 29.4575 68.8695 29.6331 68.5766L29.7796 68.3717L31.6975 66.1024L47.3189 42.5604L49.9249 44.288V44.288Z" fill="#212121"/>
<path d="M12.6794 31.4775C11.1393 29.8274 9.45909 28.3138 7.65771 26.9536C6.76154 26.2747 5.7699 25.732 4.71496 25.3431L5.95941 27.1C7.05745 28.5787 8.17013 30.116 8.60935 31.2433L5.71052 32.3706C5.41771 31.6386 4.42215 30.2624 3.45588 28.9301C2.50424 27.6417 1.58189 26.368 1.11339 25.4017C0.454568 23.9962 0.52777 22.9128 1.84542 22.2833L2.10895 22.1808C4.51 21.5805 7.11601 22.7225 9.47314 24.4208C11.6107 25.9434 13.5725 27.9345 14.9194 29.3107L12.6794 31.4775V31.4775Z" fill="#212121"/>
<path d="M14.9047 41.9162C13.5871 43.3071 11.6106 45.2836 9.48775 46.8062C7.11598 48.5045 4.50997 49.6611 2.10892 49.0462L1.83075 48.9437C0.557021 48.3288 0.454538 47.2308 1.11336 45.8253C1.58186 44.859 2.50421 43.5853 3.45585 42.2969C4.42212 40.9646 5.43232 39.603 5.71049 38.8564L8.60932 39.9837C8.1701 41.1257 7.05742 42.6483 5.97402 44.1416C5.5348 44.7419 5.08095 45.3421 4.71493 45.8985C5.77074 45.5051 6.76242 44.9575 7.65768 44.2734C9.45906 42.9132 11.1392 41.3996 12.6794 39.7494L14.9194 41.9309L14.9047 41.9162Z" fill="#212121"/>
<path d="M66.0003 28.3152C68.1964 33.3076 68.1671 38.3 66.0003 43.2924L63.1454 42.0626C64.0468 40.1044 64.5135 37.9742 64.5135 35.8184C64.5135 33.6627 64.0468 31.5325 63.1454 29.5742L66.0003 28.3152Z" fill="#212121"/>
</svg>