<svg width="140" height="140" viewBox="0 0 140 140" fill="none" xmlns="http://www.w3.org/2000/svg">
<g clip-path="url(#clip0_394_154)">
<path d="M74.5034 46.5266L94.6311 29.7051C94.9088 29.4729 95.2453 29.3222 95.6033 29.2694C95.9614 29.2167 96.3271 29.264 96.66 29.4062L100.966 31.2459C101.444 31.4504 101.822 31.8365 102.016 32.3194C102.209 32.8023 102.203 33.3424 101.999 33.8208L94.5203 51.6218L94.5203 88.4333L101.999 106.179C102.203 106.657 102.209 107.197 102.016 107.68C101.822 108.163 101.444 108.549 100.966 108.754L96.66 110.594C96.3271 110.736 95.9614 110.784 95.6033 110.731C95.2453 110.678 94.9088 110.527 94.6311 110.295L74.5034 93.4736L74.5034 46.5266Z" fill="#315591"/>
<path opacity="0.39" d="M81.7153 40.499L74.5034 46.5267L74.5034 93.4736L82.1216 99.8406H99.3273L94.52 88.4333L94.52 51.6224L99.1931 40.499L81.7153 40.499Z" fill="#2F2D30"/>
<path d="M94.5201 88.4333C99.5283 86.8425 103.799 85.0818 106.492 83.2878C107.305 82.7467 107.776 81.8337 107.776 80.857V59.1983C107.776 58.2218 107.305 57.3088 106.492 56.7674C103.799 54.9731 99.5283 53.2127 94.5201 51.6216L94.5201 88.4333Z" fill="#4675CF"/>
<path d="M57.4496 45.2487C41.7719 45.2487 27.6272 51.76 17.5525 58.1076L17.5525 81.9488C27.627 88.2964 41.7719 94.8077 57.4496 94.8077C67.5947 94.8077 83.0474 92.0783 94.52 88.4336L94.52 51.6225C83.0474 47.9778 67.5944 45.2487 57.4496 45.2487V45.2487Z" fill="#4E8FE3"/>
<path d="M50.815 70.0013C50.815 62.7603 44.945 56.8902 37.704 56.8902C30.4629 56.8902 24.5929 62.7603 24.5929 70.0013C24.5929 77.2423 30.4629 83.1123 37.704 83.1123C44.945 83.1123 50.815 77.2423 50.815 70.0013Z" fill="#FFF5CC"/>
<path d="M2.0751 70.028C2.0751 70.028 7.97478 75.9143 17.5525 81.9487L17.5525 58.1075C7.97451 64.1417 2.0751 70.028 2.0751 70.028V70.028Z" fill="#4675CF"/>
<path d="M44.0548 70.0012C44.0548 66.4937 41.2114 63.6504 37.704 63.6504C34.1965 63.6504 31.3531 66.4937 31.3531 70.0012C31.3531 73.5087 34.1965 76.3521 37.704 76.3521C41.2114 76.3521 44.0548 73.5087 44.0548 70.0012Z" fill="#FFCD00"/>
<path opacity="0.28" d="M90.2126 89.7094L46.7391 46.2359C36.3822 48.1084 27.0634 52.3946 19.6481 56.824L57.6315 94.8074C66.5477 94.7795 79.4701 92.6773 90.2126 89.7094V89.7094Z" fill="white"/>
<path opacity="0.15" d="M17.5525 58.1073C7.97451 64.1415 2.0751 70.028 2.0751 70.028C2.0751 70.028 4.08049 72.0271 7.64529 74.8878C10.8117 72.349 14.1195 69.9916 17.5527 67.8271C27.6272 61.4796 41.7721 54.9682 57.4499 54.9682C67.595 54.9682 83.0477 57.6977 94.5203 61.3423C99.5286 62.9332 103.799 64.6938 106.493 66.4881C107.306 67.0292 107.777 67.9422 107.777 68.9187V59.1988C107.777 58.2224 107.306 57.3094 106.493 56.7682C103.799 54.974 99.5286 53.2136 94.5203 51.6224C83.048 47.9781 67.5947 45.2483 57.4499 45.2483C41.7719 45.2486 27.627 51.76 17.5525 58.1073V58.1073Z" fill="#2F2D30"/>
<path d="M93.3003 28.1131L73.5299 44.6361C67.6355 43.7069 62.0122 43.1738 57.4496 43.1738C40.8474 43.1738 25.9883 50.3403 16.4467 56.3518C6.78423 62.4396 0.857214 68.3119 0.609753 68.5594C0.416579 68.7521 0.263312 68.981 0.158729 69.233C0.0541458 69.485 0.000300066 69.7552 0.000274667 70.0281C0.000249268 70.3009 0.0540447 70.5711 0.158581 70.8232C0.263117 71.0752 0.416341 71.3042 0.60948 71.4969C0.857214 71.7441 6.78369 77.6167 16.4464 83.7045C25.9883 89.716 40.8476 96.8825 57.4494 96.8825C62.0259 96.8825 67.6705 96.3455 73.5854 95.4109L93.2997 111.887C93.8701 112.366 94.5627 112.678 95.3001 112.786C96.0374 112.895 96.7904 112.796 97.4748 112.502L101.781 110.662C102.269 110.454 102.711 110.153 103.082 109.773C103.453 109.394 103.745 108.945 103.941 108.453C104.139 107.963 104.239 107.438 104.234 106.91C104.229 106.381 104.119 105.859 103.91 105.373L97.305 89.6993C101.815 88.1558 105.287 86.5832 107.642 85.0145C109.025 84.0933 109.851 82.5391 109.851 80.8569L109.851 59.1983C109.851 57.5158 109.025 55.9618 107.642 55.0406C105.286 53.4717 101.813 51.8989 97.3028 50.3553L103.906 34.6365C104.12 34.137 104.231 33.5992 104.231 33.0558C104.231 31.4873 103.312 29.9924 101.781 29.3378L97.4751 27.4982C96.7906 27.2036 96.0377 27.1051 95.3005 27.2137C94.5632 27.3223 93.8707 27.6337 93.3003 28.1131V28.1131ZM5.11928 70.028C7.04318 68.301 10.6443 65.25 15.4773 61.9504L15.4773 78.1056C10.6443 74.8058 7.04318 71.755 5.11928 70.028V70.028ZM19.6273 80.7957L19.6273 59.2603C28.7237 53.6751 42.3827 47.3234 57.4494 47.3234C66.7151 47.3234 81.1791 49.7483 92.4449 53.152L92.4449 86.904C81.1785 90.3075 66.7145 92.7326 57.4494 92.7326C42.383 92.7326 28.7243 86.3812 19.6273 80.7957ZM100.046 106.89L95.908 108.658L78.9325 94.4713C83.8579 93.5195 88.8039 92.3271 93.3366 90.9686L100.046 106.89V106.89ZM105.342 58.495C105.567 58.6448 105.701 58.9079 105.701 59.1985L105.701 80.8572C105.701 81.1479 105.567 81.4112 105.342 81.5607C103.414 82.8451 100.421 84.209 96.5952 85.5532L96.5952 54.5022C100.42 55.8467 103.414 57.2106 105.342 58.495V58.495ZM100.046 33.1102L93.3344 49.0868C88.7858 47.7237 83.821 46.5277 78.8784 45.5743L95.9083 31.3419L100.046 33.1102V33.1102Z" fill="black"/>
<path d="M46.128 70.0002C46.128 65.3542 42.3483 61.5745 37.7023 61.5745C33.0563 61.5745 29.2763 65.3542 29.2763 70.0002C29.2763 74.6462 33.0561 78.4261 37.702 78.4261C42.348 78.4261 46.128 74.6464 46.128 70.0002ZM33.4263 70.0002C33.4263 67.6423 35.3447 65.7245 37.702 65.7245C40.0596 65.7245 41.9778 67.6426 41.9778 70.0002C41.9778 72.358 40.0593 74.2762 37.702 74.2762C35.3447 74.2762 33.4263 72.358 33.4263 70.0002Z" fill="black"/>
<path d="M52.8444 71.1516C52.8742 70.7584 52.889 70.3663 52.889 69.9761C52.889 66.3522 51.6091 62.8853 49.2236 60.1075C46.5811 57.0299 42.8984 55.1659 38.854 54.8583C34.8096 54.551 30.8874 55.8367 27.8102 58.4789C24.7329 61.1211 22.8686 64.804 22.561 68.8484C22.2537 72.8928 23.5391 76.815 26.1816 79.8925C28.8241 82.9698 32.5067 84.8341 36.5511 85.1417C40.5956 85.4491 44.5177 84.1634 47.595 81.5211C50.6725 78.8789 52.5368 75.196 52.8444 71.1516V71.1516ZM36.8656 81.0041C33.9264 80.7804 31.25 79.4258 29.3297 77.1894C27.5961 75.1706 26.6659 72.6514 26.6659 70.0179C26.6659 69.7344 26.6765 69.4492 26.6984 69.1637C26.9221 66.2245 28.2764 63.5481 30.5128 61.6278C32.7493 59.7074 35.5996 58.7728 38.5388 58.9965C41.4779 59.2202 44.1543 60.5748 46.0747 62.8112C47.9948 65.0474 48.928 67.8974 48.706 70.8369C48.4823 73.776 47.128 76.4524 44.8912 78.3728C42.6554 80.2931 39.8048 81.2277 36.8656 81.0041ZM112.479 60.7634C112.479 61.3138 112.698 61.8416 113.087 62.2308C113.476 62.6199 114.004 62.8386 114.554 62.8386L137.925 62.8386C138.476 62.8386 139.003 62.6199 139.392 62.2308C139.782 61.8416 140 61.3138 140 60.7634C140 60.2131 139.782 59.6853 139.392 59.2961C139.003 58.907 138.476 58.6883 137.925 58.6883L114.554 58.6883C114.282 58.6883 114.012 58.7419 113.76 58.8462C113.508 58.9505 113.28 59.1033 113.087 59.296C112.894 59.4887 112.741 59.7175 112.637 59.9693C112.533 60.2211 112.479 60.4909 112.479 60.7634V60.7634ZM112.479 70.1664C112.479 70.7167 112.698 71.2446 113.087 71.6337C113.476 72.0229 114.004 72.2415 114.554 72.2415L128.424 72.2415C128.974 72.2415 129.502 72.0229 129.891 71.6337C130.281 71.2446 130.499 70.7167 130.499 70.1664C130.499 69.616 130.281 69.0882 129.891 68.6991C129.502 68.3099 128.974 68.0913 128.424 68.0913L114.554 68.0913C114.282 68.0912 114.012 68.1449 113.76 68.2492C113.508 68.3534 113.28 68.5063 113.087 68.699C112.894 68.8917 112.741 69.1205 112.637 69.3722C112.533 69.624 112.479 69.8939 112.479 70.1664V70.1664ZM112.479 79.5696C112.479 80.12 112.698 80.6478 113.087 81.0369C113.476 81.4261 114.004 81.6447 114.554 81.6447L137.925 81.6447C138.476 81.6447 139.003 81.4261 139.392 81.0369C139.782 80.6478 140 80.12 140 79.5696C140 79.0193 139.782 78.4914 139.392 78.1023C139.003 77.7131 138.476 77.4945 137.925 77.4945L114.554 77.4945C114.282 77.4945 114.012 77.5481 113.76 77.6524C113.508 77.7567 113.28 77.9095 113.087 78.1022C112.894 78.2949 112.741 78.5237 112.637 78.7755C112.533 79.0272 112.479 79.2971 112.479 79.5696V79.5696Z" fill="black"/>
</g>
<defs>
<clipPath id="clip0_394_154">
<rect width="140" height="140" fill="white" transform="translate(0 140) rotate(-90)"/>
</clipPath>
</defs>
</svg>