<svg width="84" height="84" viewBox="0 0 84 84" fill="none" xmlns="http://www.w3.org/2000/svg">
<path d="M41.967 83.934C65.1447 83.934 83.934 65.1447 83.934 41.967C83.934 18.7893 65.1447 0 41.967 0C18.7893 0 0 18.7893 0 41.967C0 65.1447 18.7893 83.934 41.967 83.934Z" fill="#FFF5B1"/>
<path fill-rule="evenodd" clip-rule="evenodd" d="M41.656 17C28.061 17 17 28.06 17 41.656C17 55.252 28.06 66.312 41.656 66.312C55.251 66.312 66.312 55.252 66.312 41.656C66.312 28.06 55.252 17 41.656 17ZM41.918 50.836C37 50.836 33 46.835 33 41.918C33 37.001 37.001 33 41.918 33C46.836 33 50.836 37.001 50.836 41.918C50.836 46.835 46.836 50.836 41.918 50.836Z" fill="black"/>
</svg>