<svg width="67" height="67" viewBox="0 0 67 67" fill="none" xmlns="http://www.w3.org/2000/svg">
<path d="M40.918 40.918V58.229C40.918 60.316 40.089 62.3175 38.6132 63.7932C37.1375 65.2689 35.136 66.098 33.049 66.098C30.962 66.098 28.9605 65.2689 27.4848 63.7932C26.0091 62.3175 25.18 60.316 25.18 58.229V40.918H7.869C5.78201 40.918 3.7805 40.0889 2.30478 38.6132C0.829055 37.1375 0 35.136 0 33.049C0 30.962 0.829055 28.9605 2.30478 27.4848C3.7805 26.009 5.78201 25.18 7.869 25.18H25.18V7.86899C25.18 5.782 26.0091 3.78047 27.4848 2.30475C28.9605 0.829025 30.962 0 33.049 0C35.136 0 37.1375 0.829025 38.6132 2.30475C40.089 3.78047 40.918 5.782 40.918 7.86899V25.18H58.229C60.316 25.18 62.3175 26.009 63.7932 27.4848C65.269 28.9605 66.098 30.962 66.098 33.049C66.098 35.136 65.269 37.1375 63.7932 38.6132C62.3175 40.0889 60.316 40.918 58.229 40.918H40.918Z" fill="black"/>
</svg>