<svg width="42" height="41" viewBox="0 0 42 41" fill="none" xmlns="http://www.w3.org/2000/svg">
<path d="M38.6628 13.4828L31.6368 20.5088L38.6628 27.5348C39.7632 28.6353 40.5126 30.0374 40.8162 31.5638C41.1198 33.0902 40.964 34.6723 40.3684 36.1101C39.7729 37.5479 38.7644 38.7769 37.4704 39.6415C36.1764 40.5062 34.6551 40.9678 33.0988 40.9679C32.0653 40.9694 31.0416 40.7665 30.0867 40.3709C29.1318 39.9753 28.2645 39.3948 27.5348 38.6628L20.5088 31.6368L13.4828 38.6628C12.753 39.3947 11.8858 39.9751 10.9309 40.3707C9.97603 40.7663 8.9524 40.9692 7.91884 40.9679C6.88526 40.9694 5.86159 40.7665 4.9067 40.3709C3.95181 39.9753 3.08455 39.3948 2.35485 38.6628C0.879259 37.1871 0.0502804 35.1857 0.0502804 33.0988C0.0502804 31.012 0.879259 29.0105 2.35485 27.5348L9.38085 20.5088L2.35485 13.4828C1.61339 12.7546 1.02354 11.8866 0.619372 10.9291C0.215206 9.97161 0.00473407 8.94353 7.89397e-05 7.90424C-0.00457619 6.86495 0.1967 5.83503 0.592273 4.87395C0.987845 3.91287 1.56987 3.03966 2.30477 2.30477C3.03966 1.56987 3.91287 0.98783 4.87395 0.592257C5.83503 0.196684 6.86496 -0.00457618 7.90425 7.89455e-05C8.94355 0.00473407 9.9716 0.215221 10.9291 0.619387C11.8866 1.02355 12.7546 1.61338 13.4828 2.35483L20.5088 9.38083L27.5348 2.35483C28.2631 1.61338 29.1311 1.02355 30.0886 0.619387C31.0461 0.215221 32.0742 0.00473407 33.1135 7.89455e-05C34.1527 -0.00457618 35.1826 0.196684 36.1437 0.592257C37.1048 0.98783 37.978 1.56987 38.7129 2.30477C39.4478 3.03966 40.0299 3.91287 40.4254 4.87395C40.821 5.83503 41.0223 6.86495 41.0176 7.90424C41.0129 8.94353 40.8025 9.97161 40.3983 10.9291C39.9941 11.8866 39.4043 12.7546 38.6628 13.4828Z" fill="black"/>
</svg>