<svg width="81" height="81" viewBox="0 0 81 81" fill="none" xmlns="http://www.w3.org/2000/svg">
<path d="M30.2231 50.625C31.1462 50.6238 32.0486 50.3509 32.8177 49.8403L35.4375 48.0938L26.6414 54.3966C26.5729 54.4251 26.5089 54.4634 26.4516 54.5105C26.2258 54.6258 26.0135 54.7659 25.8187 54.9281L23.9583 56.1684C23.1892 56.679 22.2869 56.9519 21.3637 56.9531H19.883C18.8258 56.9547 17.7991 56.5989 16.9695 55.9436C16.1399 55.2883 15.5561 54.3719 15.3129 53.3431C15.0696 52.3142 15.1811 51.2334 15.6293 50.2759C16.0775 49.3185 16.8361 48.5406 17.782 48.0684L19.845 46.8281L24.0469 44.2969L24.3126 44.3981C24.1345 44.8889 24.0445 45.4074 24.0469 45.9295C24.0467 46.5462 24.168 47.1569 24.404 47.7266C24.6399 48.2964 24.9857 48.8141 25.4218 49.2501C25.8578 49.6861 26.3755 50.032 26.9453 50.2679C27.515 50.5038 28.1257 50.6252 28.7423 50.625H30.2231ZM54.5484 54.5105C54.4911 54.4634 54.4271 54.4251 54.3586 54.3966L45.5625 48.0938L48.1823 49.8403C48.9514 50.3509 49.8537 50.6238 50.7769 50.625H52.2577C52.8743 50.6252 53.485 50.5038 54.0547 50.2679C54.6245 50.032 55.1422 49.6861 55.5782 49.2501C56.0143 48.8141 56.3601 48.2964 56.596 47.7266C56.8319 47.1569 56.9533 46.5462 56.9531 45.9295C56.9555 45.4074 56.8655 44.8889 56.6873 44.3981L56.9531 44.2969L61.155 46.8281L63.218 48.0684C64.1639 48.5406 64.9225 49.3185 65.3707 50.2759C65.8189 51.2334 65.9304 52.3142 65.6871 53.3431C65.4438 54.3719 64.86 55.2883 64.0305 55.9436C63.2009 56.5989 62.1742 56.9547 61.117 56.9531H59.6362C58.7131 56.9519 57.8108 56.679 57.0417 56.1684L55.1812 54.9281C54.9865 54.7659 54.7742 54.6258 54.5484 54.5105Z" fill="#004228"/>
<path d="M48.0938 62.4333L45.5625 60.75V48.0938L54.3586 54.3966C54.4271 54.4251 54.4911 54.4634 54.5484 54.5105L55.1812 54.9281C55.736 55.3623 56.1841 55.9176 56.4912 56.5516C56.7983 57.1855 56.9563 57.8814 56.9531 58.5858C56.9533 59.2024 56.832 59.8131 56.596 60.3829C56.3601 60.9526 56.0143 61.4703 55.5782 61.9063C55.1422 62.3424 54.6245 62.6883 54.0547 62.9242C53.485 63.1601 52.8743 63.2814 52.2577 63.2812H50.7769C49.8538 63.2801 48.9514 63.0072 48.1823 62.4966L48.0938 62.4333ZM35.4375 60.75L32.9062 62.4333L32.8177 62.4966C32.0486 63.0072 31.1462 63.2801 30.2231 63.2812H28.7423C28.1257 63.2814 27.515 63.1601 26.9453 62.9242C26.3755 62.6883 25.8578 62.3424 25.4218 61.9063C24.9857 61.4703 24.6399 60.9526 24.404 60.3829C24.168 59.8131 24.0467 59.2024 24.0469 58.5858C24.0789 57.8879 24.2525 57.2037 24.5571 56.575C24.8617 55.9462 25.291 55.3859 25.8187 54.9281L26.4516 54.5105C26.5089 54.4634 26.5729 54.4251 26.6414 54.3966L35.4375 48.0938V60.75Z" fill="#004A2D"/>
<path d="M44.2969 65.3569C43.8233 65.8979 43.2395 66.3314 42.5847 66.6283C41.9298 66.9251 41.219 67.0785 40.5 67.0781C39.1576 67.0757 37.8705 66.5436 36.9183 65.5973C36.84 65.5233 36.7681 65.4429 36.7031 65.3569C35.8892 64.434 35.4393 63.2462 35.4375 62.0156V49.3594C35.4375 50.702 35.9709 51.9897 36.9203 52.9391C37.8697 53.8885 39.1573 54.4219 40.5 54.4219C41.8427 54.4219 43.1303 53.8885 44.0797 52.9391C45.0291 51.9897 45.5625 50.702 45.5625 49.3594V62.0156C45.5631 63.2466 45.1128 64.4352 44.2969 65.3569Z" fill="#004F30"/>
<path d="M15.1875 39.6014C15.1873 40.2181 15.3087 40.8287 15.5446 41.3985C15.7805 41.9683 16.1263 42.4859 16.5624 42.922C16.9984 43.358 17.5161 43.7039 18.0859 43.9398C18.6556 44.1757 19.2663 44.2971 19.883 44.2969H21.3637C22.2869 44.2957 23.1892 44.0228 23.9583 43.5122L25.8187 42.2719C25.1198 42.8183 24.5962 43.5575 24.3126 44.3981L24.0469 44.2969L19.845 46.8281H17.3517C16.2945 46.8297 15.2678 46.4739 14.4383 45.8186C13.6087 45.1633 13.0249 44.2469 12.7816 43.2181C12.5383 42.1893 12.6498 41.1084 13.0981 40.151C13.5463 39.1935 14.3049 38.4156 15.2508 37.9435L15.4659 38.032C15.2775 38.5336 15.1831 39.0656 15.1875 39.6014ZM68.3437 42.1327C68.3439 42.7493 68.2226 43.36 67.9867 43.9297C67.7508 44.4995 67.4049 45.0172 66.9688 45.4532C66.5328 45.8893 66.0151 46.2351 65.4454 46.4711C64.8756 46.707 64.2649 46.8283 63.6483 46.8281H61.155L56.9531 44.2969L56.6873 44.3981C56.4038 43.5575 55.8802 42.8183 55.1812 42.2719L57.0417 43.5122C57.8108 44.0228 58.7131 44.2957 59.6362 44.2969H61.117C61.7337 44.2971 62.3443 44.1757 62.9141 43.9398C63.4839 43.7039 64.0015 43.358 64.4376 42.922C64.8736 42.4859 65.2195 41.9683 65.4554 41.3985C65.6913 40.8287 65.8127 40.2181 65.8125 39.6014C65.8149 39.0793 65.7249 38.5608 65.5467 38.07L65.8125 37.9688C66.5831 38.3548 67.2293 38.9502 67.677 39.6866C68.1247 40.4231 68.3558 41.2709 68.3437 42.1327Z" fill="#003620"/>
<path d="M65.7493 29.0841C66.5295 29.4708 67.1859 30.0681 67.6444 30.8084C68.1029 31.5487 68.3452 32.4025 68.3438 33.2733C68.3485 34.2052 68.1192 35.1235 67.677 35.9438C67.2348 36.7642 66.5937 37.4604 65.8126 37.9688L65.5468 38.07C65.1526 36.9109 64.3153 35.9553 63.218 35.4122L56.9532 31.6406H57.624C58.7982 31.6405 59.9433 31.2748 60.9003 30.5945C61.8574 29.9141 62.5789 28.9527 62.9649 27.8438H63.2813L65.7493 29.0841ZM18.0352 27.8438C18.4212 28.9527 19.1428 29.9141 20.0998 30.5945C21.0569 31.2748 22.2019 31.6405 23.3762 31.6406H24.0469L17.7821 35.4122C17.1619 35.7159 16.643 36.1462 15.466 38.032L15.2509 37.9434L15.1876 37.9688C14.4064 37.4604 13.7654 36.7642 13.3231 35.9438C12.8809 35.1235 12.6516 34.2052 12.6563 33.2733C12.655 32.4025 12.8972 31.5487 13.3557 30.8084C13.8142 30.0681 14.4707 29.4708 15.2509 29.0841L17.7188 27.8438H18.0352Z" fill="#002E1B"/>
<path d="M54.5486 41.8542C54.4912 41.8072 54.4272 41.7688 54.3587 41.7403L49.3595 39.2344V36.4753C49.8167 36.6268 50.2954 36.7037 50.777 36.7031H52.2578C52.8745 36.7033 53.4851 36.582 54.0549 36.346C54.6246 36.1101 55.1423 35.7643 55.5784 35.3282C56.0144 34.8922 56.3603 34.3745 56.5962 33.8047C56.8321 33.235 56.9534 32.6243 56.9533 32.0077L56.928 31.6406H56.9533L63.2181 35.4122C64.3153 35.9553 65.1527 36.9109 65.5469 38.07C65.725 38.5608 65.815 39.0793 65.8126 39.6014C65.8128 40.2181 65.6915 40.8287 65.4556 41.3985C65.2197 41.9682 64.8738 42.4859 64.4377 42.922C64.0017 43.358 63.484 43.7039 62.9143 43.9398C62.3445 44.1757 61.7338 44.297 61.1172 44.2969H59.6364C58.7133 44.2957 57.8109 44.0228 57.0419 43.5122L55.1814 42.2719C54.9866 42.1096 54.7744 41.9695 54.5486 41.8542ZM31.6408 39.2344L26.6415 41.7403C26.573 41.7688 26.5091 41.8072 26.4517 41.8542C26.2259 41.9695 26.0137 42.1096 25.8189 42.2719L23.9584 43.5122C23.1894 44.0228 22.287 44.2957 21.3639 44.2969H19.8831C19.2664 44.297 18.6558 44.1757 18.086 43.9398C17.5163 43.7039 16.9986 43.358 16.5625 42.922C16.1265 42.4859 15.7806 41.9682 15.5447 41.3985C15.3088 40.8287 15.1875 40.2181 15.1876 39.6014C15.1833 39.0656 15.2777 38.5336 15.4661 38.032C16.6431 36.1462 17.162 35.7159 17.7822 35.4122L24.047 31.6406H24.0723L24.047 32.0077C24.0469 32.6243 24.1682 33.235 24.4041 33.8047C24.64 34.3745 24.9859 34.8922 25.4219 35.3282C25.858 35.7643 26.3757 36.1101 26.9454 36.346C27.5152 36.582 28.1258 36.7033 28.7425 36.7031H30.2233C30.7049 36.7037 31.1835 36.6268 31.6408 36.4753V39.2344Z" fill="#008F57"/>
<path d="M49.3594 39.2344L54.3586 41.7403C54.4271 41.7688 54.4911 41.8072 54.5485 41.8542L55.1813 42.2719C55.8803 42.8183 56.4038 43.5575 56.6874 44.3981C56.8656 44.8889 56.9555 45.4074 56.9532 45.9295C56.9533 46.5462 56.832 47.1569 56.5961 47.7266C56.3602 48.2964 56.0143 48.8141 55.5783 49.2501C55.1422 49.6861 54.6245 50.032 54.0548 50.2679C53.485 50.5038 52.8744 50.6252 52.2577 50.625H50.7769C49.8538 50.6238 48.9515 50.3509 48.1824 49.8403L45.5625 48.0938V34.1719L48.1824 35.9184C48.5461 36.1595 48.9424 36.347 49.3594 36.4753V39.2344ZM35.4375 34.1719V48.0938L32.8177 49.8403C32.0486 50.3509 31.1463 50.6238 30.2232 50.625H28.7424C28.1257 50.6252 27.5151 50.5038 26.9453 50.2679C26.3756 50.032 25.8579 49.6861 25.4218 49.2501C24.9858 48.8141 24.6399 48.2964 24.404 47.7266C24.1681 47.1569 24.0468 46.5462 24.0469 45.9295C24.0446 45.4074 24.1345 44.8889 24.3127 44.3981C24.5962 43.5575 25.1198 42.8183 25.8188 42.2719L26.4516 41.8542C26.509 41.8072 26.5729 41.7688 26.6415 41.7403L31.6407 39.2344V36.4753C32.0577 36.347 32.454 36.1595 32.8177 35.9184L35.4375 34.1719Z" fill="#007145"/>
<path d="M40.5 39.2344C41.8427 39.2344 43.1303 38.701 44.0797 37.7516C45.0291 36.8022 45.5625 35.5145 45.5625 34.1719V49.3594C45.5625 50.702 45.0291 51.9897 44.0797 52.9391C43.1303 53.8885 41.8427 54.4219 40.5 54.4219C39.1573 54.4219 37.8697 53.8885 36.9203 52.9391C35.9709 51.9897 35.4375 50.702 35.4375 49.3594V34.1719C35.4367 34.8369 35.567 35.4956 35.8212 36.1102C36.0753 36.7248 36.4482 37.2832 36.9184 37.7535C37.3887 38.2237 37.9471 38.5966 38.5617 38.8507C39.1763 39.1048 39.835 39.2352 40.5 39.2344Z" fill="#00613B"/>
<path d="M56.9531 31.6406H56.9277C56.8558 30.8388 56.5826 30.0681 56.1335 29.4C55.6844 28.7318 55.0739 28.1878 54.3585 27.8185L49.3593 25.3125V22.5535C49.8165 22.7049 50.2951 22.7818 50.7768 22.7813H52.2576C53.3479 22.7783 54.4034 22.3969 55.2437 21.702C56.0839 21.0072 56.6568 20.0421 56.8645 18.9717L56.9531 18.9844L60.5348 21.136C61.5948 21.7727 62.417 22.7393 62.8754 23.8878C63.3338 25.0363 63.4032 26.3033 63.073 27.495C62.7428 28.6867 62.0311 29.7373 61.047 30.486C60.0628 31.2348 58.8604 31.6403 57.6238 31.6406H56.9531ZM18.0351 27.8438C17.6061 26.6168 17.6136 25.2795 18.0563 24.0574C18.499 22.8354 19.3498 21.8035 20.4651 21.136L24.0468 18.9844L24.1354 18.9717C24.339 20.0441 24.9107 21.0117 25.7519 21.7073C26.593 22.4028 27.6508 22.7827 28.7423 22.7813H30.2231C30.7047 22.7818 31.1833 22.7049 31.6406 22.5535V25.3125L26.6413 27.8185C25.9167 28.1759 25.2983 28.7168 24.8476 29.3873C24.3968 30.0579 24.1295 30.8347 24.0721 31.6406H23.376C22.2018 31.6405 21.0567 31.2748 20.0997 30.5945C19.1426 29.9141 18.4211 28.9528 18.0351 27.8438Z" fill="#007145"/>
<path d="M45.5625 34.1719V20.25L48.1823 21.9966C48.546 22.2376 48.9424 22.4251 49.3594 22.5534V25.3125L54.3586 27.8184C55.0739 28.1878 55.6844 28.7318 56.1335 29.3999C56.5827 30.0681 56.8559 30.8388 56.9278 31.6406L56.9531 32.0077C56.9533 32.6243 56.832 33.235 56.596 33.8047C56.3601 34.3745 56.0143 34.8922 55.5782 35.3282C55.1422 35.7643 54.6245 36.1101 54.0547 36.346C53.485 36.582 52.8743 36.7033 52.2577 36.7031H50.7769C50.2952 36.7037 49.8166 36.6268 49.3594 36.4753C48.9424 36.347 48.546 36.1595 48.1823 35.9184L45.5625 34.1719ZM35.4375 20.25V34.1719L32.8177 35.9184C32.454 36.1595 32.0576 36.347 31.6406 36.4753C31.1834 36.6268 30.7048 36.7037 30.2231 36.7031H28.7423C28.1257 36.7033 27.515 36.582 26.9453 36.346C26.3755 36.1101 25.8578 35.7643 25.4218 35.3282C24.9857 34.8922 24.6399 34.3745 24.404 33.8047C24.168 33.235 24.0467 32.6243 24.0469 32.0077L24.0722 31.6406C24.1296 30.8347 24.3969 30.0578 24.8477 29.3873C25.2984 28.7167 25.9168 28.1759 26.6414 27.8184L31.6406 25.3125V22.5534C32.0576 22.4251 32.454 22.2376 32.8177 21.9966L35.4375 20.25Z" fill="#009E60"/>
<path d="M45.5625 20.25V34.1719C45.5625 35.5145 45.0291 36.8022 44.0797 37.7516C43.1303 38.701 41.8427 39.2344 40.5 39.2344C39.1573 39.2344 37.8697 38.701 36.9203 37.7516C35.9709 36.8022 35.4375 35.5145 35.4375 34.1719V20.25L35.5894 20.212C35.8637 21.3067 36.4959 22.2783 37.3856 22.9725C38.2753 23.6668 39.3715 24.0438 40.5 24.0438C41.6285 24.0438 42.7247 23.6668 43.6144 22.9725C44.5041 22.2783 45.1363 21.3067 45.4106 20.212L45.5625 20.25Z" fill="#008F57"/>
<path d="M45.4108 20.212C45.1364 21.3067 44.5042 22.2783 43.6145 22.9725C42.7248 23.6668 41.6287 24.0438 40.5001 24.0438C39.3716 24.0438 38.2755 23.6668 37.3858 22.9725C36.4961 22.2783 35.8639 21.3067 35.5895 20.212L35.4376 20.25L32.8178 21.9966C32.4541 22.2376 32.0578 22.4251 31.6408 22.5534C31.1835 22.7049 30.7049 22.7818 30.2233 22.7813H28.7425C27.651 22.7827 26.5933 22.4028 25.7521 21.7072C24.9109 21.0117 24.3392 20.0441 24.1356 18.9717C24.0742 18.6805 24.0445 18.3834 24.047 18.0858C24.0457 17.215 24.2879 16.3612 24.7464 15.6209C25.2049 14.8806 25.8614 14.2833 26.6416 13.8966L31.6408 11.3906L33.6658 6.01173C34.1847 4.61768 35.1175 3.41566 36.3391 2.56691C37.5607 1.71816 39.0126 1.26328 40.5001 1.26328C41.9876 1.26328 43.4396 1.71816 44.6612 2.56691C45.8828 3.41566 46.8156 4.61768 47.3345 6.01173L49.3595 11.3906L54.3587 13.8966C55.1389 14.2833 55.7954 14.8806 56.2539 15.6209C56.7124 16.3612 56.9546 17.215 56.9533 18.0858C56.9558 18.3834 56.9261 18.6805 56.8647 18.9717C56.6571 20.0421 56.0842 21.0072 55.2439 21.702C54.4036 22.3969 53.3481 22.7783 52.2578 22.7813H50.777C50.2954 22.7818 49.8168 22.7049 49.3595 22.5534C48.9425 22.4251 48.5461 22.2376 48.1825 21.9966L45.5626 20.25L45.4108 20.212Z" fill="#00C477"/>
<path d="M44.2968 65.3569C45.1128 64.4352 45.563 63.2466 45.5624 62.0156V60.75L48.0937 62.4333V66.6352C48.0957 67.14 48.2486 67.6326 48.5328 68.0498C48.817 68.4671 49.2194 68.7898 49.6884 68.9766L52.5234 70.1156C53.1756 70.376 53.7166 70.8557 54.0533 71.4721C54.3899 72.0884 54.5011 72.8029 54.3677 73.4924C54.2343 74.1819 53.8647 74.8033 53.3224 75.2496C52.7802 75.6959 52.0993 75.9392 51.397 75.9375H51.3337C50.8683 75.935 50.4096 75.8268 49.9921 75.6211L44.2968 72.1406V65.3569ZM36.7031 65.3569V72.1406L31.0077 75.6211C30.5903 75.8268 30.1316 75.935 29.6662 75.9375H29.6029C28.9006 75.9392 28.2197 75.6959 27.6774 75.2496C27.1352 74.8033 26.7655 74.1819 26.6321 73.4924C26.4987 72.8029 26.6099 72.0884 26.9466 71.4721C27.2832 70.8557 27.8242 70.376 28.4765 70.1156L31.3115 68.9766C31.7805 68.7898 32.1829 68.4671 32.4671 68.0498C32.7512 67.6326 32.9041 67.14 32.9062 66.6352V62.4333L35.4374 60.75V62.0156C35.4392 63.2462 35.8891 64.434 36.7031 65.3569Z" fill="#7C4026"/>
<path d="M44.2969 65.3569V72.1406L48.2583 75.2034C48.596 75.4286 48.8731 75.7334 49.0651 76.091C49.2571 76.4485 49.3582 76.8479 49.3594 77.2537V77.2664C49.36 77.5907 49.2967 77.9119 49.1729 78.2116C49.0491 78.5114 48.8673 78.7837 48.638 79.013C48.4087 79.2423 48.1364 79.4241 47.8367 79.5479C47.5369 79.6717 47.2157 79.735 46.8914 79.7344H45.322C44.6675 79.7336 44.0398 79.4743 43.5755 79.013L40.5 75.9375L37.4245 79.013C36.9603 79.4743 36.3325 79.7336 35.678 79.7344H34.1086C33.7843 79.735 33.4631 79.6717 33.1634 79.5479C32.8636 79.4241 32.5913 79.2423 32.362 79.013C32.1327 78.7837 31.9509 78.5114 31.8271 78.2116C31.7033 77.9119 31.64 77.5907 31.6406 77.2664V77.2537C31.6418 76.8479 31.7429 76.4485 31.9349 76.091C32.127 75.7334 32.404 75.4286 32.7417 75.2034L36.7031 72.1406V65.3569C36.7681 65.4428 36.84 65.5233 36.9183 65.5973C37.8705 66.5436 39.1576 67.0757 40.5 67.0781C41.219 67.0785 41.9298 66.9251 42.5847 66.6283C43.2395 66.3314 43.8233 65.8979 44.2969 65.3569Z" fill="#9A6948"/>
<path d="M35.4376 14.4813C35.4383 13.9494 35.2714 13.4308 34.9606 12.9991C34.6498 12.5675 34.2109 12.2447 33.7063 12.0766L31.6408 11.3906L26.6416 13.8966C25.8614 14.2833 25.2049 14.8806 24.7464 15.6209C24.2879 16.3612 24.0457 17.215 24.047 18.0858C24.0445 18.3834 24.0742 18.6805 24.1356 18.9717C24.3392 20.0441 24.9109 21.0116 25.7521 21.7072C26.5933 22.4028 27.651 22.7827 28.7425 22.7812H30.2233C30.7049 22.7818 31.1835 22.7049 31.6408 22.5534C32.0578 22.4251 32.4541 22.2376 32.8178 21.9966L35.4376 20.25L35.5895 20.212C35.64 20.3942 35.7008 20.5734 35.7718 20.7487C35.5552 20.1854 35.442 19.5878 35.4376 18.9844V14.4813ZM54.3587 13.8966L49.3595 11.3906L47.294 12.0791C46.7898 12.2471 46.3512 12.5695 46.0404 13.0006C45.7297 13.4318 45.5625 13.9498 45.5626 14.4813V18.9844C45.5638 19.646 45.4348 20.3014 45.183 20.9132C45.277 20.6852 45.3548 20.4509 45.4158 20.212L45.5626 20.25L48.1825 21.9966C48.5461 22.2376 48.9425 22.4251 49.3595 22.5534C49.8168 22.7049 50.2954 22.7818 50.777 22.7812H52.2578C53.3481 22.7783 54.4036 22.3969 55.2439 21.702C56.0842 21.0072 56.6571 20.0421 56.8647 18.9717C56.9261 18.6805 56.9558 18.3834 56.9533 18.0858C56.9546 17.215 56.7124 16.3612 56.2539 15.6209C55.7954 14.8806 55.1389 14.2833 54.3587 13.8966Z" fill="#009E60"/>
<path d="M52.6576 73.9125L47.0964 71.5281C46.6418 71.3332 46.2542 71.0093 45.9816 70.5966C45.709 70.1839 45.5633 69.7003 45.5625 69.2056V67.3768C45.5625 66.9066 45.6935 66.4458 45.9407 66.0458C46.188 65.6459 46.5417 65.3228 46.9623 65.1126L48.0938 64.5469V62.4333L45.5625 60.75V62.0156C45.5631 63.2466 45.1128 64.4352 44.2969 65.3569V72.1406L49.9922 75.6211C50.4096 75.8268 50.8684 75.935 51.3338 75.9375H51.397C52.1993 75.9375 52.9687 75.6188 53.5359 75.0515C54.1032 74.4843 54.4219 73.7149 54.4219 72.9127C54.4219 72.8873 54.4118 72.8646 54.4105 72.8392C54.3957 73.0395 54.3334 73.2334 54.2289 73.4048C54.1243 73.5763 53.9804 73.7204 53.8092 73.8253C53.6379 73.9301 53.4442 73.9927 53.2439 74.0079C53.0437 74.0231 52.8427 73.9904 52.6576 73.9125ZM35.4375 60.75L32.9063 62.4333V64.5469L34.0377 65.1126C34.4583 65.3228 34.812 65.6459 35.0593 66.0458C35.3065 66.4458 35.4375 66.9066 35.4375 67.3768V69.2056C35.4374 69.7009 35.2921 70.1853 35.0194 70.5988C34.7468 71.0123 34.3588 71.3367 33.9036 71.5319L28.3424 73.9125C28.157 73.9904 27.9557 74.0231 27.7552 74.0077C27.5547 73.9923 27.3607 73.9294 27.1894 73.8241C27.018 73.7188 26.8743 73.5742 26.7699 73.4023C26.6656 73.2304 26.6038 73.0361 26.5895 72.8355C26.5895 72.8608 26.5781 72.8835 26.5781 72.9089C26.5776 73.3064 26.6555 73.7002 26.8073 74.0676C26.9591 74.435 27.1818 74.7689 27.4627 75.0502C27.7437 75.3315 28.0773 75.5546 28.4445 75.7069C28.8118 75.8591 29.2054 75.9375 29.603 75.9375H29.6663C30.1316 75.935 30.5904 75.8268 31.0078 75.6211L36.7031 72.1406V65.3569C35.8892 64.434 35.4393 63.2462 35.4375 62.0156V60.75Z" fill="#5D241D"/>
<path d="M41.6606 69.5524C42.5557 69.49 43.4405 69.323 44.2969 69.055V65.3569C43.8233 65.8979 43.2395 66.3314 42.5847 66.6283C41.9298 66.9251 41.219 67.0785 40.5 67.0781C39.1576 67.0757 37.8705 66.5436 36.9183 65.5973C36.84 65.5233 36.7681 65.4428 36.7031 65.3569V72.1406L32.7417 75.2034C32.404 75.4286 32.127 75.7334 31.9349 76.091C31.7429 76.4485 31.6418 76.8479 31.6406 77.2537V77.2664C31.64 77.5907 31.7033 77.9119 31.8271 78.2116C31.9509 78.5114 32.1327 78.7837 32.362 79.013C32.5913 79.2423 32.8636 79.4241 33.1634 79.5479C33.4631 79.6717 33.7843 79.735 34.1086 79.7344H35.678C36.3325 79.7336 36.9603 79.4743 37.4245 79.013L40.5 75.9375V70.813C40.5002 70.4956 40.6196 70.1899 40.8345 69.9564C41.0495 69.723 41.3443 69.5788 41.6606 69.5524Z" fill="#7C4026"/>
</svg>