<svg width="88" height="88" viewBox="0 0 88 88" fill="none" xmlns="http://www.w3.org/2000/svg">
<path d="M44 57.75C44 57.75 44.495 60.225 48.1662 62.205L50.8475 80.9462C50.8635 81.0648 50.8727 81.1842 50.875 81.3038V83.875C50.8728 84.6037 50.5824 85.3019 50.0671 85.8171C49.5519 86.3324 48.8537 86.6228 48.125 86.625H39.875C39.1463 86.6228 38.4481 86.3324 37.9329 85.8171C37.4176 85.3019 37.1272 84.6037 37.125 83.875V81.3038C37.1273 81.1842 37.1365 81.0648 37.1525 80.9462L39.8337 62.205C43.505 60.225 44 57.75 44 57.75Z" fill="#A56645"/>
<path d="M48.125 20.625C48.1903 24.3302 48.6512 28.0178 49.5 31.625C49.5 35.53 46.9838 39.875 44 39.875C41.0162 39.875 38.5 35.53 38.5 31.625C39.3488 28.0178 39.8097 24.3302 39.875 20.625C39.875 23.6638 41.7175 27.5 44 27.5C46.2825 27.5 48.125 23.6638 48.125 20.625Z" fill="#007145"/>
<path d="M46.75 12.375C46.9705 15.1594 47.4305 17.9196 48.125 20.625C48.125 23.6638 46.2825 27.5 44 27.5C41.7175 27.5 39.875 23.6638 39.875 20.625C40.5695 17.9196 41.0295 15.1594 41.25 12.375V12.265C42.0888 12.3338 43.01 12.375 44 12.375C44.99 12.375 45.9112 12.3338 46.75 12.265V12.375Z" fill="#008F57"/>
<path d="M41.25 12.375C41.0295 15.1594 40.5695 17.9196 39.875 20.625C39.875 22.9075 37.565 27.5 33 27.5C30.4508 27.4468 28.0077 26.4695 26.125 24.75C29.2188 24.75 32.2988 22.5775 34.4163 20.68C35.3862 19.8121 36.2915 18.8747 37.125 17.875C38.3022 16.1021 39.1888 14.1525 39.7512 12.1C40.2187 12.1688 40.7275 12.2238 41.25 12.265V12.375ZM50.875 17.875C51.7085 18.8747 52.6138 19.8121 53.5838 20.68C55.7013 22.5775 58.7812 24.75 61.875 24.75C59.9923 26.4695 57.5492 27.4468 55 27.5C50.435 27.5 48.125 22.9075 48.125 20.625C47.4305 17.9196 46.9705 15.1594 46.75 12.375V12.265C47.2725 12.2238 47.7813 12.1688 48.2488 12.1C48.8112 14.1525 49.6978 16.1021 50.875 17.875Z" fill="#009E60"/>
<path d="M44 53.625V57.75C44 57.75 43.505 60.225 39.8337 62.205C37.4 63.525 33.55 64.625 27.5 64.625C29.5662 62.8165 31.0895 60.4697 31.9 57.8462C32.6358 55.6244 33.0073 53.2981 33 50.9575C35.3915 48.8108 36.868 45.8283 37.125 42.625C37.125 47.3963 40.315 53.625 44 53.625ZM48.1662 62.205C44.495 60.225 44 57.75 44 57.75V53.625C47.685 53.625 50.875 47.3963 50.875 42.625C51.132 45.8283 52.6085 48.8108 55 50.9575C54.9927 53.2981 55.3642 55.6244 56.1 57.8462C56.9105 60.4697 58.4338 62.8165 60.5 64.625C54.45 64.625 50.6 63.525 48.1662 62.205Z" fill="#004A2D"/>
<path d="M33 50.9575C33.0073 53.2981 32.6358 55.6244 31.9 57.8462L31.625 57.75C31.625 57.75 27.5 61.875 12.375 61.875C12.375 61.875 18.7962 58.025 21.6975 52.8C23.1116 53.3395 24.6115 53.619 26.125 53.625C28.6706 53.6324 31.1255 52.6799 33 50.9575ZM66.3025 52.8C69.2038 58.025 75.625 61.875 75.625 61.875C60.5 61.875 56.375 57.75 56.375 57.75L56.1 57.8462C55.3642 55.6244 54.9927 53.2981 55 50.9575C56.8745 52.6799 59.3294 53.6324 61.875 53.625C63.3885 53.619 64.8884 53.3395 66.3025 52.8ZM49.5 31.625C49.6828 35.3209 50.1424 38.9978 50.875 42.625C50.875 47.3963 47.685 53.625 44 53.625C40.315 53.625 37.125 47.3963 37.125 42.625C37.8576 38.9978 38.3172 35.3209 38.5 31.625C38.5 35.53 41.0162 39.875 44 39.875C46.9838 39.875 49.5 35.53 49.5 31.625Z" fill="#007145"/>
<path d="M33 50.9575C31.1255 52.6799 28.6706 53.6324 26.125 53.625C24.6115 53.619 23.1116 53.3395 21.6975 52.8C19.1537 51.8094 16.8954 50.203 15.125 48.125C24.0075 48.125 28.875 39.875 28.875 39.875C34.8425 39.875 38.5 34.5538 38.5 31.625C38.3172 35.3209 37.8576 38.9978 37.125 42.625C36.868 45.8283 35.3915 48.8108 33 50.9575ZM66.3025 52.8C64.8884 53.3395 63.3885 53.619 61.875 53.625C59.3294 53.6324 56.8745 52.6799 55 50.9575C52.6085 48.8108 51.132 45.8283 50.875 42.625C50.1424 38.9978 49.6828 35.3209 49.5 31.625C49.5 34.5538 53.1575 39.875 59.125 39.875C59.125 39.875 63.9925 48.125 72.875 48.125C71.1046 50.203 68.8463 51.8094 66.3025 52.8Z" fill="#007145"/>
<path d="M39.875 20.625C39.8097 24.3302 39.3488 28.0178 38.5 31.625C38.5 34.5538 34.8425 39.875 28.875 39.875C27.2775 39.8559 25.7051 39.4748 24.2761 38.7603C22.8471 38.0458 21.5988 37.0166 20.625 35.75C27.8163 35.75 33 27.5 33 27.5C37.565 27.5 39.875 22.9075 39.875 20.625ZM67.375 35.75C66.4012 37.0166 65.1529 38.0458 63.7239 38.7603C62.2949 39.4748 60.7225 39.8559 59.125 39.875C53.1575 39.875 49.5 34.5538 49.5 31.625C48.6512 28.0178 48.1903 24.3302 48.125 20.625C48.125 22.9075 50.435 27.5 55 27.5C55 27.5 60.1837 35.75 67.375 35.75Z" fill="#009E60"/>
<path d="M39.7512 12.1C39.1888 14.1525 38.3022 16.102 37.125 17.875C36.2915 18.8746 35.3862 19.8121 34.4163 20.68L34.375 20.625C28.875 20.625 27.5 16.5 27.5 16.5C32.01 16.5 35.5987 12.7875 36.7537 11.4675C37.7361 11.7513 38.738 11.9627 39.7512 12.1ZM60.5 16.5C60.5 16.5 59.125 20.625 53.625 20.625L53.5838 20.68C52.6138 19.8121 51.7085 18.8746 50.875 17.875C49.6978 16.102 48.8112 14.1525 48.2488 12.1C49.262 11.9627 50.2639 11.7513 51.2463 11.4675C52.4013 12.7875 55.99 16.5 60.5 16.5Z" fill="#007145"/>
<path d="M44 1.375C44 1.375 48.125 9.625 55 9.625C53.9046 10.5159 52.621 11.1459 51.2463 11.4675C50.2639 11.7513 49.262 11.9627 48.2488 12.1C47.7813 12.1688 47.2725 12.2238 46.75 12.265C45.9112 12.3338 44.99 12.375 44 12.375C43.01 12.375 42.0888 12.3338 41.25 12.265C40.7275 12.2238 40.2187 12.1688 39.7512 12.1C38.738 11.9627 37.7361 11.7513 36.7537 11.4675C35.379 11.1459 34.0954 10.5159 33 9.625C39.875 9.625 44 1.375 44 1.375Z" fill="#00C477"/>
<path d="M33 9.625C34.0954 10.5159 35.379 11.1459 36.7537 11.4675C37.7361 11.7513 38.738 11.9627 39.7512 12.1C39.9245 12.1248 40.1225 12.1399 40.3012 12.1605C42.3376 8.83025 44 1.375 44 1.375C44 1.375 39.875 9.625 33 9.625ZM51.2463 11.4675C52.621 11.1459 53.9046 10.5159 55 9.625C48.125 9.625 44 1.375 44 1.375C43.9548 5.31295 45.3304 9.13527 47.8748 12.1412C47.9958 12.1261 48.1319 12.1165 48.2488 12.1C49.262 11.9627 50.2639 11.7513 51.2463 11.4675Z" fill="#00E088"/>
<path d="M44 33C45.094 33 46.1432 32.5654 46.9168 31.7918C47.6904 31.0182 48.125 29.969 48.125 28.875V20.625C48.125 23.6638 46.2825 27.5 44 27.5C41.7175 27.5 39.875 23.6638 39.875 20.625V28.875C39.875 29.969 40.3096 31.0182 41.0832 31.7918C41.8568 32.5654 42.906 33 44 33Z" fill="#004A2D"/>
<path d="M33 27.5C32.4188 28.3786 31.7755 29.2144 31.075 30.0011C31.9507 30.7904 33.0946 31.2158 34.2732 31.1905C34.5272 31.175 34.7805 31.2303 35.005 31.3503C35.2294 31.4702 35.4161 31.6501 35.5444 31.8698C35.6727 32.0896 35.7374 32.3407 35.7315 32.5951C35.7255 32.8495 35.6491 33.0972 35.5107 33.3107C33.9281 35.5905 30.5951 38.3281 23.7559 38.4849C25.3073 39.3975 27.075 39.8776 28.875 39.875C34.8425 39.875 38.5 34.5537 38.5 31.625C39.3487 28.0178 39.8097 24.3302 39.875 20.625C39.875 22.9075 37.565 27.5 33 27.5ZM53.6332 33.3107C53.4948 33.0972 53.4184 32.8495 53.4125 32.5951C53.4065 32.3407 53.4713 32.0896 53.5996 31.8698C53.7279 31.6501 53.9146 31.4702 54.139 31.3503C54.3634 31.2303 54.6167 31.175 54.8707 31.1905C55.7586 31.2223 56.6349 30.9824 57.3829 30.503C56.5074 29.5692 55.7104 28.5648 55 27.5C50.435 27.5 48.125 22.9075 48.125 20.625C48.1903 24.3302 48.6512 28.0178 49.5 31.625C49.5 34.5537 53.1575 39.875 59.125 39.875C60.9544 39.8775 62.7499 39.3812 64.3184 38.4395C58.1969 38.0366 55.1375 35.475 53.6332 33.3107Z" fill="#007145"/>
<path d="M44 44C47.0374 44 49.5 42.1534 49.5 39.875V31.625C49.5 35.53 46.9838 39.875 44 39.875C41.0162 39.875 38.5 35.53 38.5 31.625V39.875C38.5 42.1534 40.9626 44 44 44ZM30.019 39.8063V39.875C30.4967 40.5677 31.1308 41.1382 31.8698 41.5404C32.6089 41.9427 33.4322 42.1654 34.2733 42.1905C34.527 42.1752 34.7801 42.2306 35.0043 42.3505C35.2285 42.4703 35.4151 42.65 35.5433 42.8696C35.6715 43.0891 35.7363 43.3399 35.7306 43.5941C35.7249 43.8482 35.6488 44.0958 35.5108 44.3094C33.88 46.6579 30.4054 49.5 23.1358 49.5H19.0108C18.5136 49.4988 18.0262 49.3622 17.6009 49.1049C17.1755 48.8477 16.8282 48.4794 16.5962 48.0397C16.1077 48.094 15.6166 48.1224 15.125 48.125C16.8954 50.203 19.1537 51.8094 21.6975 52.8C23.1116 53.3395 24.6115 53.619 26.125 53.625C28.6706 53.6324 31.1255 52.6799 33 50.9575C35.3915 48.8108 36.868 45.8283 37.125 42.625C37.8576 38.9978 38.3172 35.3209 38.5 31.625C38.5 34.3613 35.3059 39.1875 30.019 39.8063ZM72.5051 48.1044C72.2674 48.5268 71.9218 48.8786 71.5036 49.1238C71.0855 49.369 70.6097 49.4988 70.125 49.5H66C58.7359 49.5 55.2626 46.6579 53.6319 44.3094C53.4939 44.0958 53.4178 43.8482 53.412 43.5941C53.4063 43.3399 53.4711 43.0891 53.5993 42.8696C53.7276 42.65 53.9141 42.4703 54.1383 42.3505C54.3625 42.2306 54.6156 42.1752 54.8694 42.1905C55.7107 42.1656 56.5343 41.943 57.2736 41.5407C58.0129 41.1385 58.6471 40.5678 59.125 39.875C53.1575 39.875 49.5 34.5538 49.5 31.625C49.6828 35.3209 50.1424 38.9978 50.875 42.625C51.132 45.8283 52.6085 48.8108 55 50.9575C56.8745 52.6799 59.3294 53.6324 61.875 53.625C63.3885 53.619 64.8884 53.3395 66.3025 52.8C68.8463 51.8094 71.1046 50.203 72.875 48.125C72.7485 48.125 72.6302 48.1071 72.5051 48.1044Z" fill="#004A2D"/>
<path d="M49.225 83.875C48.0552 83.8751 46.8987 83.6263 45.8324 83.1453C44.7661 82.6644 43.8142 81.9621 43.04 81.0851C42.2657 80.2082 41.6869 79.1766 41.3418 78.0589C40.9967 76.9411 40.8932 75.7628 41.0383 74.602L42.13 65.8639C44 64.5879 44 63.25 44 63.25C44 63.25 44.0137 65.7814 48.8812 67.2004L48.1662 62.205C44.495 60.225 44 57.75 44 57.75C44 57.75 43.505 60.225 39.8337 62.205L39.1188 67.2004L37.1525 80.9504C37.1365 81.0689 37.1273 81.1883 37.125 81.3079V83.875C37.1272 84.6037 37.4176 85.3019 37.9329 85.8171C38.4481 86.3324 39.1463 86.6228 39.875 86.625H48.125C48.8537 86.6228 49.5519 86.3324 50.0671 85.8171C50.5824 85.3019 50.8728 84.6037 50.875 83.875H49.225Z" fill="#5D241D"/>
</svg>