<svg width="75" height="75" viewBox="0 0 75 75" fill="none" xmlns="http://www.w3.org/2000/svg">
<path d="M62.1094 23.4375C62.11 24.4016 61.9104 25.3553 61.5234 26.2383C63.3317 27.4684 64.6531 29.2921 65.2587 31.3936C65.8643 33.4951 65.7162 35.7423 64.8399 37.7461C66.0678 39.0728 66.972 40.6658 67.4817 42.4003C67.9913 44.1348 68.0925 45.9637 67.7774 47.7439C67.4623 49.524 66.7394 51.207 65.6654 52.6612C64.5913 54.1153 63.1952 55.3011 61.5864 56.1257C59.9776 56.9503 58.1998 57.3913 56.3921 57.4142C54.5844 57.4371 52.796 57.0412 51.1668 56.2576C49.5377 55.474 48.112 54.324 47.0015 52.8975C45.891 51.471 45.1257 49.8068 44.7656 48.0352C44.6836 48.0352 44.6133 48.0469 44.5313 48.0469C43.2947 48.0457 42.0809 47.7139 41.0156 47.0859C40.9219 47.0391 40.8399 46.9922 40.7461 46.9336C39.3903 47.6697 37.8709 48.0526 36.3281 48.0469C35.7779 48.0437 35.2289 47.9928 34.6875 47.8945C35.0228 48.7699 35.1794 49.7035 35.1479 50.6404C35.1165 51.5772 34.8977 52.4983 34.5045 53.3492C34.1112 54.2001 33.5515 54.9636 32.8584 55.5947C32.1652 56.2257 31.3527 56.7115 30.4688 57.0234C30.1352 57.1512 29.7897 57.2454 29.4375 57.3047C28.4206 57.4979 27.3735 57.4642 26.3711 57.206C25.3687 56.9478 24.4357 56.4715 23.6387 55.811C22.8417 55.1506 22.2003 54.3223 21.7604 53.3853C21.3204 52.4483 21.0928 51.4257 21.0938 50.3906V50.2969C19.3292 51.3277 17.2726 51.7439 15.2461 51.4805C15.1358 51.4804 15.0258 51.4686 14.918 51.4453C13.1132 51.1532 11.4332 50.3397 10.0848 49.105C8.73639 47.8703 7.77845 46.2682 7.32887 44.4961C6.8793 42.7239 6.95771 40.859 7.55445 39.1308C8.1512 37.4027 9.24023 35.8867 10.6875 34.7695C10.9308 34.5759 11.1326 34.3352 11.2808 34.0618C11.429 33.7885 11.5206 33.4881 11.5501 33.1785C11.5796 32.869 11.5465 32.5567 11.4526 32.2602C11.3588 31.9638 11.2062 31.6893 11.0039 31.4531C10.2284 30.5234 9.70613 29.4092 9.4876 28.2184C9.26908 27.0277 9.36172 25.8006 9.75658 24.6561C10.1514 23.5117 10.8351 22.4885 11.7414 21.6858C12.6477 20.8831 13.7459 20.328 14.9297 20.0742C15.3964 19.9784 15.8712 19.9274 16.3477 19.9219C16.6642 19.922 16.9776 19.8596 17.2699 19.7382C17.5622 19.6168 17.8276 19.4388 18.0509 19.2145C18.2741 18.9901 18.4509 18.7238 18.5708 18.4309C18.6908 18.138 18.7517 17.8243 18.75 17.5078C18.7531 17.0267 18.8081 16.5474 18.9141 16.0781C19.2014 14.7638 19.8599 13.5594 20.8112 12.6081C21.7626 11.6567 22.9669 10.9983 24.2813 10.7109C24.7505 10.605 25.2299 10.55 25.7109 10.5469C26.34 10.5498 26.9451 10.3061 27.3965 9.86786C27.8478 9.42967 28.1094 8.832 28.125 8.20313V8.14454C28.1306 7.66811 28.1816 7.1933 28.2774 6.72657C28.585 5.30141 29.3281 4.00715 30.4037 3.02292C31.4794 2.03869 32.8344 1.41318 34.2812 1.23297C35.728 1.05276 37.1951 1.32677 38.4793 2.01707C39.7635 2.70736 40.8014 3.7798 41.4492 5.08594C41.7258 5.58058 42.1661 5.96344 42.6943 6.16874C43.2225 6.37404 43.8057 6.38896 44.3438 6.21094C45.1666 5.97458 46.0189 5.85621 46.875 5.85938C49.3614 5.85938 51.746 6.8471 53.5041 8.60526C55.2623 10.3634 56.25 12.748 56.25 15.2344C56.2484 15.6579 56.217 16.0808 56.1563 16.5C57.8139 16.7541 59.3257 17.5935 60.4178 18.8661C61.5099 20.1388 62.11 21.7605 62.1094 23.4375Z" fill="#008F57"/>
<path d="M45.7031 71.5313V71.543C45.7037 71.8432 45.6451 72.1407 45.5304 72.4182C45.4158 72.6957 45.2475 72.9479 45.0352 73.1602C44.8229 73.3725 44.5707 73.5408 44.2932 73.6554C44.0157 73.7701 43.7182 73.8287 43.418 73.8281H41.9648C41.3588 73.8274 40.7776 73.5873 40.3477 73.1602L37.5 70.3125L34.6523 73.1602C34.2225 73.5873 33.6412 73.8274 33.0352 73.8281H31.582C31.2818 73.8287 30.9843 73.7701 30.7068 73.6554C30.4293 73.5408 30.1771 73.3725 29.9648 73.1602C29.7525 72.9479 29.5842 72.6957 29.4696 72.4182C29.3549 72.1407 29.2963 71.8432 29.2969 71.543V71.5313C29.298 71.1554 29.3916 70.7857 29.5694 70.4546C29.7472 70.1235 30.0037 69.8413 30.3164 69.6328L33.9844 66.7969V54.2813C34.6031 53.3502 34.9899 52.2845 35.1122 51.1734C35.2345 50.0622 35.0889 48.9379 34.6875 47.8945C35.2289 47.9928 35.7779 48.0437 36.3281 48.0469C37.8709 48.0526 39.3903 47.6697 40.7461 46.9336C40.8398 46.9922 40.9219 47.0391 41.0156 47.0859V66.7969L44.6836 69.6328C44.9963 69.8413 45.2528 70.1235 45.4306 70.4546C45.6084 70.7857 45.702 71.1554 45.7031 71.5313Z" fill="#AF7A58"/>
<path d="M44.7656 48.0352C45.2279 50.2949 46.3459 52.3682 47.98 53.996C49.6141 55.6238 51.6917 56.7339 53.9531 57.1875L53.9063 57.4219C53.9063 57.4219 52.7344 59.7656 44.5313 59.7656V48.0469C44.6133 48.0469 44.6836 48.0352 44.7656 48.0352ZM30.4688 57.0234V59.7656C30.4688 60.4102 28.8985 60.9375 26.9531 60.9375C25.0078 60.9375 23.4375 59.7656 23.4375 58.5937C23.4375 59.7656 20.6953 60.9375 18.75 60.9375C16.4063 60.9375 15.2344 58.8398 15.2344 56.25C14.6264 56.2086 14.054 55.9484 13.6231 55.5175C13.1922 55.0866 12.932 54.5142 12.8906 53.9062C12.8896 53.5982 12.9494 53.2929 13.0668 53.0081C13.1842 52.7232 13.3568 52.4644 13.5747 52.2466C13.7925 52.0287 14.0513 51.8561 14.3362 51.7387C14.621 51.6213 14.9263 51.5614 15.2344 51.5625L15.2461 51.4805C17.2726 51.7439 19.3292 51.3276 21.0938 50.2969V50.3906C21.0928 51.4257 21.3204 52.4483 21.7604 53.3853C22.2003 54.3223 22.8417 55.1506 23.6387 55.811C24.4357 56.4715 25.3687 56.9478 26.3711 57.206C27.3735 57.4642 28.4206 57.4979 29.4375 57.3047C29.7897 57.2454 30.1352 57.1512 30.4688 57.0234Z" fill="#004A2D"/>
<path d="M33.9842 54.2812V66.7969L28.7108 70.0195C28.3243 70.21 27.8995 70.3102 27.4686 70.3125H27.41C26.7597 70.3141 26.1293 70.0888 25.6272 69.6756C25.1251 69.2623 24.7828 68.6869 24.6593 68.0485C24.5358 67.4101 24.6387 66.7485 24.9504 66.1778C25.2622 65.6071 25.7631 65.163 26.367 64.9219L28.992 63.8672C29.4263 63.6942 29.7989 63.3954 30.062 63.0091C30.3251 62.6228 30.4667 62.1666 30.4686 61.6992V57.0234C31.9094 56.5195 33.1446 55.556 33.9842 54.2812ZM50.3905 67.5117C50.3905 68.2545 50.0954 68.9669 49.5702 69.4922C49.0449 70.0174 48.3325 70.3125 47.5897 70.3125H47.5311C47.1002 70.3102 46.6755 70.21 46.2889 70.0195L41.0155 66.7969V47.0859C42.0808 47.7139 43.2945 48.0457 44.5311 48.0469V61.6992C44.533 62.1666 44.6746 62.6228 44.9377 63.0091C45.2008 63.3954 45.5734 63.6942 46.0077 63.8672L48.6327 64.9219C49.1515 65.1277 49.5965 65.4846 49.9099 65.9464C50.2234 66.4082 50.3908 66.9536 50.3905 67.5117Z" fill="#A56645"/>
<path d="M33.9844 59.5196V66.7969L30.3164 69.6328C30.0037 69.8413 29.7472 70.1236 29.5694 70.4546C29.3916 70.7857 29.298 71.1555 29.2969 71.5313V71.543C29.2963 71.8433 29.3549 72.1407 29.4696 72.4182C29.5842 72.6957 29.7525 72.9479 29.9648 73.1602C30.1771 73.3725 30.4293 73.5408 30.7068 73.6555C30.9843 73.7701 31.2818 73.8288 31.582 73.8282H33.0352C33.6412 73.8275 34.2225 73.5874 34.6523 73.1602L37.5 70.3125V54.6422C37.2975 55.6595 36.8788 56.6215 36.2722 57.4629C35.6657 58.3044 34.8855 59.0058 33.9844 59.5196Z" fill="#A56645"/>
<path d="M31.6406 60.4863V62.0508C31.6412 62.7948 31.4646 63.5283 31.1255 64.1905C30.7865 64.8528 30.2946 65.4248 29.6906 65.8594L26.3051 68.2957C26.1379 68.3791 25.9531 68.4211 25.7663 68.4182C25.5795 68.4152 25.3962 68.3673 25.2318 68.2786C25.0673 68.1899 24.9267 68.063 24.8216 67.9085C24.7165 67.754 24.6502 67.5765 24.6281 67.391C24.6281 67.4332 24.6094 67.4718 24.6094 67.5152C24.6103 68.2574 24.9058 68.9689 25.4309 69.4934C25.9561 70.0179 26.668 70.3125 27.4102 70.3125H27.4688C27.8997 70.3101 28.3244 70.21 28.7109 70.0195L33.9844 66.7968V59.5195C33.2472 59.9398 32.4597 60.2647 31.6406 60.4863ZM48.6949 68.2922L45.3094 65.8594C44.7054 65.4248 44.2135 64.8528 43.8745 64.1905C43.5354 63.5283 43.3588 62.7948 43.3594 62.0508V51.8133C42.5711 51.7538 41.788 51.6394 41.0156 51.4711V66.7968L46.2891 70.0195C46.6756 70.21 47.1003 70.3101 47.5313 70.3125H47.5898C48.3327 70.3125 49.045 70.0174 49.5703 69.4921C50.0955 68.9669 50.3906 68.2545 50.3906 67.5117C50.3906 67.4683 50.3742 67.4297 50.3719 67.3875C50.3498 67.573 50.2835 67.7505 50.1784 67.905C50.0733 68.0595 49.9327 68.1864 49.7682 68.2751C49.6038 68.3638 49.4205 68.4117 49.2337 68.4147C49.0469 68.4176 48.8621 68.3756 48.6949 68.2922Z" fill="#6F3529"/>
<path d="M40.7461 46.9336C39.3902 47.6697 37.8709 48.0526 36.3281 48.0469C35.7779 48.0437 35.2289 47.9928 34.6875 47.8945C35.0889 48.9379 35.2345 50.0622 35.1122 51.1734C34.9899 52.2845 34.6031 53.3502 33.9844 54.2813V59.5195C34.8855 59.0057 35.6657 58.3044 36.2722 57.4629C36.8788 56.6215 37.2975 55.6595 37.5 54.6422C37.7935 53.2402 37.7935 51.7926 37.5 50.3906C38.639 50.8501 39.8152 51.2116 41.0156 51.4711V47.0859C40.9219 47.0391 40.8398 46.9922 40.7461 46.9336Z" fill="#7C4026"/>
<path d="M31.6406 56.4773C31.2687 56.6971 30.8762 56.88 30.4688 57.0234V60.7594C30.8824 60.682 31.2715 60.5906 31.6406 60.4863C32.4597 60.2647 33.2472 59.9398 33.9844 59.5195V54.2812C33.3816 55.1831 32.5797 55.9344 31.6406 56.4773ZM43.3594 47.9297C42.5337 47.7892 41.7399 47.5018 41.0156 47.0812V51.4664C41.788 51.6348 42.5711 51.7491 43.3594 51.8086C43.7859 51.8391 44.1797 51.8519 44.5312 51.8473V48.0469C44.138 48.0419 43.7459 48.0027 43.3594 47.9297Z" fill="#5D241D"/>
<path d="M44.414 40.5469C44.1398 41.5723 43.1859 43.3594 39.8437 43.3594H32.8125C32.8125 43.3594 33.9844 50.3906 28.125 50.3906C22.2656 50.3906 22.2656 43.3594 22.2656 43.3594C22.2656 43.3594 19.0207 49.5797 15.2344 44.5312C13.1156 41.7059 13.9781 38.0379 15 35.5629C13.7115 35.1938 12.4619 34.7004 11.2687 34.0898C11.1216 34.3538 10.9222 34.5851 10.6828 34.7695C9.23544 35.887 8.14648 37.4033 7.54997 39.1319C6.95347 40.8604 6.87547 42.7256 7.32558 44.4979C7.77568 46.2701 8.73425 47.8721 10.0832 49.1065C11.4322 50.3409 13.1128 51.1539 14.9179 51.4453C15.0258 51.4686 15.1358 51.4804 15.2461 51.4805C17.2726 51.7439 19.3292 51.3277 21.0937 50.2969V50.3906C21.0928 51.4257 21.3204 52.4483 21.7603 53.3853C22.2002 54.3223 22.8416 55.1506 23.6387 55.811C24.4357 56.4715 25.3687 56.9478 26.3711 57.206C27.3735 57.4642 28.4206 57.4979 29.4375 57.3047C29.7897 57.2454 30.1352 57.1512 30.4687 57.0234C31.3532 56.7122 32.1662 56.2268 32.8598 55.5959C33.5534 54.965 34.1134 54.2014 34.5067 53.3503C34.9001 52.4991 35.1187 51.5778 35.1498 50.6407C35.1808 49.7036 35.0236 48.7698 34.6875 47.8945C35.2289 47.9928 35.7778 48.0437 36.3281 48.0469C37.8709 48.0526 39.3902 47.6697 40.7461 46.9336C40.8398 46.9922 40.9219 47.0391 41.0156 47.0859C42.0809 47.7139 43.2946 48.0457 44.5312 48.0469H44.5558C44.1104 45.5703 44.0626 43.0385 44.414 40.5469Z" fill="#00613B"/>
<path d="M64.9334 37.5H64.4529C64.4529 37.5 64.4529 46.875 57.4217 46.875C50.3904 46.875 44.5311 39.8438 44.5311 39.8438C44.5188 40.0818 44.4795 40.3177 44.4139 40.5469C44.0613 43.0383 44.1079 45.5701 44.5522 48.0469C44.6236 48.0469 44.6881 48.0363 44.7619 48.0363C45.2242 50.296 46.3422 52.3694 47.9763 53.9972C49.6103 55.625 51.688 56.7351 53.9494 57.1887C54.5387 57.3091 55.1367 57.3812 55.7377 57.4043C55.8783 57.4043 56.0108 57.4195 56.1537 57.4195C56.836 57.4268 57.5177 57.377 58.1916 57.2707C60.2783 56.9232 62.2319 56.0167 63.8446 54.6476C65.4572 53.2785 66.6688 51.498 67.3504 49.4953C68.0319 47.4927 68.1581 45.3428 67.7154 43.2742C67.2727 41.2055 66.2777 39.2956 64.8361 37.7473C64.8748 37.6664 64.9006 37.5809 64.9334 37.5Z" fill="#007145"/>
<path d="M31.6242 14.2793C31.6242 14.2043 31.6406 14.1399 31.6406 14.0625C31.6406 14.1399 31.6266 14.2043 31.6242 14.2793C32.6961 14.9051 33.9151 15.2347 35.1563 15.2344C44.5313 11.7188 48.0469 19.9219 48.0469 19.9219C48.0469 24.457 50.543 26.9531 55.0781 26.9531C58.9688 26.9531 62.1094 25.3828 62.1094 23.4375C62.11 21.7605 61.5099 20.1388 60.4178 18.8661C59.3257 17.5935 57.8139 16.7541 56.1563 16.5C56.217 16.0808 56.2484 15.6579 56.25 15.2344C56.25 12.748 55.2623 10.3634 53.5041 8.60526C51.746 6.8471 49.3614 5.85938 46.875 5.85938C46.0189 5.85621 45.1666 5.97458 44.3438 6.21094C43.8057 6.38896 43.2225 6.37404 42.6943 6.16874C42.166 5.96344 41.7258 5.58058 41.4492 5.08594C40.8014 3.7798 39.7635 2.70736 38.4793 2.01707C37.1951 1.32677 35.728 1.05276 34.2812 1.23297C32.8344 1.41318 31.4794 2.03869 30.4037 3.02292C29.3281 4.00715 28.585 5.30141 28.2773 6.72657C28.1816 7.1933 28.1306 7.66811 28.125 8.14454V8.20313C28.1239 9.43391 28.4466 10.6433 29.0608 11.7099C29.675 12.7764 30.5591 13.6626 31.6242 14.2793Z" fill="#00C477"/>
<path d="M31.6242 14.2793C30.5591 13.6626 29.675 12.7764 29.0608 11.7099C28.4466 10.6433 28.1238 9.4339 28.125 8.20312C28.1093 8.83199 27.8478 9.42966 27.3964 9.86786C26.9451 10.306 26.34 10.5498 25.7109 10.5469C25.2298 10.55 24.7505 10.605 24.2812 10.7109C22.9668 10.9983 21.7625 11.6567 20.8112 12.6081C19.8598 13.5594 19.2014 14.7638 18.914 16.0781C18.8081 16.5474 18.7531 17.0267 18.75 17.5078C18.7517 17.8243 18.6908 18.138 18.5708 18.4309C18.4508 18.7238 18.2741 18.9901 18.0508 19.2145C17.8276 19.4388 17.5622 19.6168 17.2699 19.7382C16.9776 19.8596 16.6641 19.922 16.3476 19.9219C15.8712 19.9274 15.3964 19.9784 14.9297 20.0742C13.7459 20.328 12.6477 20.8831 11.7414 21.6858C10.8351 22.4885 10.1514 23.5116 9.75653 24.6561C9.36168 25.8006 9.26903 27.0276 9.48756 28.2184C9.70608 29.4092 10.2284 30.5234 11.0039 31.4531C11.3089 31.8146 11.4974 32.2599 11.5447 32.7305C11.592 33.2011 11.4958 33.6749 11.2687 34.0898C12.4619 34.7004 13.7115 35.1938 15 35.5629C16.5974 36.0441 18.2537 36.3016 19.9218 36.3281C19.9218 36.3281 26.9531 36.3281 26.9531 30.4688C26.9531 30.4688 28.125 22.2656 23.4375 21.0938C23.4375 21.0938 31.4484 21.082 31.6242 14.2793Z" fill="#009E60"/>
</svg>