<svg width="66" height="33" viewBox="0 0 66 33" fill="none" xmlns="http://www.w3.org/2000/svg">
<path d="M59.4 33H46.2C37.8596 33 30.5904 28.3338 26.8594 21.4758C28.1282 20.696 29.3391 19.8259 30.4828 18.8721C33.3749 24.6299 39.3268 28.5998 46.2 28.5998H59.4V33ZM31.6497 33C28.0381 30.6022 25.0404 27.3537 22.9687 23.5271C21.6143 24.1145 20.2186 24.6016 18.7929 24.9843C20.3202 27.9581 22.3188 30.665 24.7111 33H31.6497ZM18.8113 33C17.0538 30.8115 15.5351 28.4216 14.3319 25.8522C13.1294 25.9921 11.9176 26.0859 10.6894 26.0859H9.60236C10.6122 28.5266 11.8754 30.8319 13.33 33H18.8113V33Z" fill="#03A9F4"/>
<path d="M59.4 24.1996H46.2C38.9222 24.1996 33 18.2787 33 10.9996C33 10.7554 33.0231 10.5184 33.0363 10.2775L29.3581 13.9557C24.3725 18.94 17.7428 21.6863 10.6894 21.6863H6.60001V17.2861H10.6894C13.5749 17.2861 16.3739 16.7317 18.9677 15.679C20.3393 15.1232 21.6506 14.4293 22.8815 13.6079C24.0912 12.7991 25.2184 11.8733 26.2469 10.8438H26.2462L30.6451 6.44424C34.6282 2.4618 40.1287 0 46.2 0V2.19978C41.3404 2.19978 37.3996 6.14064 37.3996 10.9996C37.3996 14.128 39.0416 16.8775 41.5067 18.4384C42.9099 19.3292 44.538 19.8015 46.2 19.8H59.4V24.1996Z" fill="#03A9F4"/>
</svg>