<svg width="64" height="18" viewBox="0 0 64 18" fill="none" xmlns="http://www.w3.org/2000/svg">
<g clip-path="url(#clip0_651_629)">
<path d="M42.452 6.21727C44.093 4.80674 45.279 3.78696 47.5 3.78696C49.907 3.78696 51.532 5.03327 53.414 6.47579C55.677 8.21053 58.243 10.1768 62.609 10.2947C63.363 10.3293 63.974 9.82316 63.998 9.19748C64.0093 8.89688 63.8784 8.60481 63.6341 8.38546C63.3897 8.16612 63.0519 8.03747 62.695 8.0278C59.322 7.93685 57.333 6.41264 55.228 4.79916C53.124 3.18653 50.949 1.51917 47.5 1.51917C44.147 1.51917 42.307 3.10064 40.528 4.6299C38.484 6.38653 36.553 8.04548 32 8.04548C27.447 8.04548 25.515 6.38653 23.472 4.6299C21.693 3.10064 19.853 1.51917 16.5 1.51917C13.05 1.51917 10.874 3.18738 8.77099 4.80001C6.66599 6.41348 4.67699 7.93769 1.30499 8.02864C1.1282 8.03332 0.954244 8.06729 0.793059 8.12862C0.631874 8.18995 0.486623 8.27744 0.365611 8.38607C0.244599 8.4947 0.150198 8.62235 0.0878058 8.76172C0.0254133 8.90109 -0.00374766 9.04945 0.00199021 9.19832C0.0249902 9.82485 0.65599 10.3259 1.39099 10.2956C5.75699 10.1785 8.32099 8.21222 10.584 6.47748C12.467 5.03411 14.093 3.7878 16.5 3.7878C18.721 3.7878 19.907 4.80758 21.548 6.21811C23.672 8.04295 26.315 10.315 32 10.315C37.685 10.315 40.328 8.04211 42.452 6.21727ZM42.452 14.0488C44.093 12.6383 45.279 11.6185 47.5 11.6185C49.907 11.6185 51.532 12.8648 53.414 14.3074C55.677 16.0421 58.242 18.0093 62.609 18.1263C63.363 18.1592 63.974 17.6547 63.998 17.0291C64.022 16.4034 63.438 15.8796 62.695 15.8594C59.322 15.7693 57.333 14.2442 55.228 12.6307C53.124 11.0181 50.949 9.35074 47.5 9.35074C44.147 9.35074 42.307 10.9322 40.528 12.4615C38.484 14.2181 36.553 15.8771 32 15.8771C27.447 15.8771 25.515 14.2181 23.472 12.4615C21.693 10.9322 19.853 9.35074 16.5 9.35074C13.05 9.35074 10.874 11.019 8.77099 12.6316C6.66599 14.2451 4.67799 15.7701 1.30499 15.8602C1.1282 15.8649 0.954244 15.8989 0.793059 15.9602C0.631874 16.0215 0.486623 16.109 0.365611 16.2176C0.244599 16.3263 0.150198 16.4539 0.0878058 16.5933C0.0254133 16.7327 -0.00374766 16.881 0.00199021 17.0299C0.00741716 17.1788 0.0476758 17.3254 0.12046 17.4611C0.193245 17.5969 0.297125 17.7193 0.426151 17.8212C0.555177 17.9231 0.706814 18.0026 0.872377 18.0551C1.03794 18.1076 1.21418 18.1321 1.39099 18.1272C5.75699 18.0101 8.32099 16.0438 10.584 14.3091C12.467 12.8657 14.093 11.6194 16.5 11.6194C18.721 11.6194 19.907 12.6392 21.548 14.0497C23.672 15.8745 26.315 18.1465 32 18.1465C37.685 18.1465 40.328 15.8737 42.452 14.0488Z" fill="#1786E7"/>
</g>
<defs>
<clipPath id="clip0_651_629">
<rect width="64" height="18" fill="white"/>
</clipPath>
</defs>
</svg>
