<svg width="367" height="319" viewBox="0 0 367 319" fill="none" xmlns="http://www.w3.org/2000/svg">
<rect width="367" height="319" rx="10" fill="white"/>
<path d="M34.64 167.895C33.5867 167.895 32.6267 167.682 31.76 167.255C30.9067 166.828 30.2 166.215 29.64 165.415L31.46 163.415C32.0067 164.015 32.5133 164.428 32.98 164.655C33.4467 164.868 33.9667 164.975 34.54 164.975C34.9667 164.975 35.3467 164.888 35.68 164.715C36.0133 164.542 36.2733 164.302 36.46 163.995C36.66 163.675 36.76 163.322 36.76 162.935C36.76 162.535 36.66 162.182 36.46 161.875C36.2733 161.555 36.0133 161.302 35.68 161.115C35.36 160.928 34.9867 160.835 34.56 160.835C34.2533 160.835 33.9667 160.862 33.7 160.915C33.4333 160.968 33.1467 161.062 32.84 161.195C32.5467 161.315 32.1933 161.495 31.78 161.735L30.34 159.815L31.2 153.635H39.24V156.495H32.82L33.7 155.375L33.04 159.815L31.84 159.415C32.0933 159.188 32.4 158.988 32.76 158.815C33.1333 158.642 33.5333 158.502 33.96 158.395C34.3867 158.275 34.8133 158.215 35.24 158.215C36.12 158.215 36.9067 158.422 37.6 158.835C38.3067 159.235 38.8667 159.795 39.28 160.515C39.6933 161.235 39.9 162.062 39.9 162.995C39.9 163.915 39.6667 164.748 39.2 165.495C38.7333 166.228 38.1067 166.815 37.32 167.255C36.5333 167.682 35.64 167.895 34.64 167.895ZM43.4741 167.975C42.9274 167.975 42.5007 167.822 42.1941 167.515C41.9007 167.208 41.7541 166.768 41.7541 166.195C41.7541 165.662 41.9141 165.228 42.2341 164.895C42.5541 164.562 42.9674 164.395 43.4741 164.395C44.0207 164.395 44.4474 164.555 44.7541 164.875C45.0607 165.182 45.2141 165.622 45.2141 166.195C45.2141 166.715 45.0541 167.142 44.7341 167.475C44.4141 167.808 43.9941 167.975 43.4741 167.975ZM43.4741 160.515C42.9274 160.515 42.5007 160.362 42.1941 160.055C41.9007 159.748 41.7541 159.308 41.7541 158.735C41.7541 158.202 41.9141 157.768 42.2341 157.435C42.5541 157.102 42.9674 156.935 43.4741 156.935C44.0207 156.935 44.4474 157.095 44.7541 157.415C45.0607 157.722 45.2141 158.162 45.2141 158.735C45.2141 159.255 45.0541 159.682 44.7341 160.015C44.4141 160.348 43.9941 160.515 43.4741 160.515ZM52.7908 167.955C51.5374 167.955 50.4641 167.668 49.5708 167.095C48.6908 166.522 48.0174 165.702 47.5508 164.635C47.0841 163.555 46.8508 162.262 46.8508 160.755C46.8508 159.248 47.0841 157.962 47.5508 156.895C48.0174 155.815 48.6908 154.988 49.5708 154.415C50.4641 153.842 51.5374 153.555 52.7908 153.555C54.0441 153.555 55.1174 153.842 56.0108 154.415C56.9041 154.988 57.5841 155.815 58.0508 156.895C58.5174 157.962 58.7508 159.248 58.7508 160.755C58.7508 162.262 58.5174 163.555 58.0508 164.635C57.5841 165.702 56.9041 166.522 56.0108 167.095C55.1174 167.668 54.0441 167.955 52.7908 167.955ZM52.7908 165.075C53.6574 165.075 54.3241 164.702 54.7908 163.955C55.2708 163.208 55.5108 162.142 55.5108 160.755C55.5108 159.328 55.2708 158.235 54.7908 157.475C54.3241 156.702 53.6574 156.315 52.7908 156.315C51.9241 156.315 51.2508 156.702 50.7708 157.475C50.3041 158.235 50.0708 159.328 50.0708 160.755C50.0708 162.142 50.3041 163.208 50.7708 163.955C51.2508 164.702 51.9241 165.075 52.7908 165.075ZM66.2869 167.955C65.0335 167.955 63.9602 167.668 63.0669 167.095C62.1869 166.522 61.5135 165.702 61.0469 164.635C60.5802 163.555 60.3469 162.262 60.3469 160.755C60.3469 159.248 60.5802 157.962 61.0469 156.895C61.5135 155.815 62.1869 154.988 63.0669 154.415C63.9602 153.842 65.0335 153.555 66.2869 153.555C67.5402 153.555 68.6135 153.842 69.5069 154.415C70.4002 154.988 71.0802 155.815 71.5469 156.895C72.0135 157.962 72.2469 159.248 72.2469 160.755C72.2469 162.262 72.0135 163.555 71.5469 164.635C71.0802 165.702 70.4002 166.522 69.5069 167.095C68.6135 167.668 67.5402 167.955 66.2869 167.955ZM66.2869 165.075C67.1535 165.075 67.8202 164.702 68.2869 163.955C68.7669 163.208 69.0069 162.142 69.0069 160.755C69.0069 159.328 68.7669 158.235 68.2869 157.475C67.8202 156.702 67.1535 156.315 66.2869 156.315C65.4202 156.315 64.7469 156.702 64.2669 157.475C63.8002 158.235 63.5669 159.328 63.5669 160.755C63.5669 162.142 63.8002 163.208 64.2669 163.955C64.7469 164.702 65.4202 165.075 66.2869 165.075ZM74.463 172.155V157.135H77.503L77.623 159.515L77.023 159.335C77.1163 158.895 77.343 158.495 77.703 158.135C78.063 157.775 78.5163 157.488 79.063 157.275C79.623 157.048 80.2096 156.935 80.823 156.935C81.7296 156.935 82.5363 157.175 83.243 157.655C83.9496 158.122 84.503 158.768 84.903 159.595C85.3163 160.408 85.523 161.355 85.523 162.435C85.523 163.502 85.3163 164.448 84.903 165.275C84.503 166.102 83.943 166.755 83.223 167.235C82.5163 167.702 81.703 167.935 80.783 167.935C80.183 167.935 79.6096 167.822 79.063 167.595C78.5163 167.368 78.0563 167.062 77.683 166.675C77.3096 166.288 77.063 165.868 76.943 165.415L77.683 165.135V172.155H74.463ZM80.003 165.235C80.483 165.235 80.903 165.122 81.263 164.895C81.623 164.655 81.903 164.328 82.103 163.915C82.303 163.502 82.403 163.008 82.403 162.435C82.403 161.875 82.303 161.388 82.103 160.975C81.903 160.548 81.623 160.222 81.263 159.995C80.9163 159.755 80.4963 159.635 80.003 159.635C79.5096 159.635 79.083 159.748 78.723 159.975C78.363 160.202 78.083 160.528 77.883 160.955C77.683 161.382 77.583 161.875 77.583 162.435C77.583 163.008 77.683 163.502 77.883 163.915C78.083 164.328 78.363 164.655 78.723 164.895C79.083 165.122 79.5096 165.235 80.003 165.235ZM87.6266 167.755V157.135H90.6666L90.7666 159.055L90.3466 159.075C90.5066 158.728 90.7066 158.422 90.9466 158.155C91.1999 157.888 91.4799 157.668 91.7866 157.495C92.1066 157.308 92.4332 157.168 92.7666 157.075C93.1132 156.982 93.4599 156.935 93.8066 156.935C94.3266 156.935 94.7999 157.015 95.2266 157.175C95.6532 157.335 96.0266 157.595 96.3466 157.955C96.6666 158.302 96.9199 158.775 97.1066 159.375L96.6066 159.335L96.7666 159.015C96.9399 158.695 97.1599 158.408 97.4266 158.155C97.7066 157.888 98.0132 157.668 98.3466 157.495C98.6799 157.308 99.0266 157.168 99.3866 157.075C99.7466 156.982 100.093 156.935 100.427 156.935C101.267 156.935 101.967 157.102 102.527 157.435C103.087 157.755 103.507 158.242 103.787 158.895C104.08 159.548 104.227 160.342 104.227 161.275V167.755H101.007V161.535C101.007 161.108 100.947 160.755 100.827 160.475C100.707 160.195 100.527 159.988 100.287 159.855C100.06 159.708 99.7732 159.635 99.4266 159.635C99.1466 159.635 98.8866 159.682 98.6466 159.775C98.4199 159.868 98.2199 159.995 98.0466 160.155C97.8866 160.315 97.7599 160.502 97.6666 160.715C97.5732 160.928 97.5266 161.168 97.5266 161.435V167.755H94.3066V161.515C94.3066 161.115 94.2466 160.775 94.1266 160.495C94.0066 160.215 93.8266 160.002 93.5866 159.855C93.3466 159.708 93.0666 159.635 92.7466 159.635C92.4666 159.635 92.2066 159.682 91.9666 159.775C91.7399 159.868 91.5399 159.995 91.3666 160.155C91.2066 160.315 91.0799 160.502 90.9866 160.715C90.8932 160.928 90.8466 161.162 90.8466 161.415V167.755H87.6266ZM113.631 167.755V153.755H123.391V156.655H116.931V164.855H123.591V167.755H113.631ZM115.231 162.015V159.255H122.491V162.015H115.231ZM129.562 167.755V156.755H125.402V153.755H137.222V156.755H132.962V167.755H129.562ZM34.88 192.755C34.16 192.755 33.48 192.628 32.84 192.375C32.2133 192.108 31.6667 191.748 31.2 191.295C30.7333 190.828 30.36 190.288 30.08 189.675C29.8133 189.062 29.68 188.402 29.68 187.695C29.68 187.202 29.7333 186.728 29.84 186.275C29.9467 185.808 30.0933 185.342 30.28 184.875C30.48 184.395 30.7133 183.908 30.98 183.415C31.26 182.908 31.5667 182.375 31.9 181.815L33.86 178.535H37L37.08 178.735L34.36 183.015C34.0133 183.575 33.7133 184.102 33.46 184.595C33.2067 185.075 32.98 185.555 32.78 186.035C32.58 186.515 32.38 187.022 32.18 187.555L31.54 186.175C31.6733 185.708 31.8867 185.282 32.18 184.895C32.4733 184.495 32.8133 184.155 33.2 183.875C33.6 183.582 34.0133 183.362 34.44 183.215C34.8667 183.055 35.2867 182.975 35.7 182.975C36.4867 182.975 37.2067 183.188 37.86 183.615C38.5267 184.028 39.06 184.582 39.46 185.275C39.86 185.968 40.06 186.728 40.06 187.555C40.06 188.542 39.8333 189.428 39.38 190.215C38.94 191.002 38.3267 191.622 37.54 192.075C36.7667 192.528 35.88 192.755 34.88 192.755ZM34.92 189.955C35.3467 189.955 35.72 189.862 36.04 189.675C36.3733 189.488 36.6333 189.228 36.82 188.895C37.0067 188.548 37.1 188.155 37.1 187.715C37.1 187.342 37 186.995 36.8 186.675C36.6133 186.342 36.3533 186.075 36.02 185.875C35.7 185.662 35.34 185.555 34.94 185.555C34.5133 185.555 34.1267 185.655 33.78 185.855C33.4467 186.042 33.1867 186.302 33 186.635C32.8133 186.955 32.72 187.315 32.72 187.715C32.72 188.142 32.8133 188.528 33 188.875C33.1867 189.208 33.4467 189.475 33.78 189.675C34.1133 189.862 34.4933 189.955 34.92 189.955ZM40.742 195.595L49.062 178.755H52.242L43.962 195.595H40.742ZM53.0511 192.755L52.3911 191.115L56.4711 186.655C56.6978 186.402 56.9444 186.115 57.2111 185.795C57.4778 185.475 57.7378 185.148 57.9911 184.815C58.2444 184.468 58.4444 184.135 58.5911 183.815C58.7511 183.495 58.8311 183.202 58.8311 182.935C58.8311 182.668 58.7711 182.435 58.6511 182.235C58.5311 182.035 58.3578 181.882 58.1311 181.775C57.9044 181.655 57.6178 181.595 57.2711 181.595C56.9644 181.595 56.6711 181.675 56.3911 181.835C56.1111 181.982 55.8444 182.215 55.5911 182.535C55.3511 182.855 55.1244 183.248 54.9111 183.715L52.3911 182.355C52.6711 181.582 53.0644 180.902 53.5711 180.315C54.0911 179.715 54.6978 179.255 55.3911 178.935C56.0844 178.602 56.8244 178.435 57.6111 178.435C58.4378 178.448 59.1844 178.628 59.8511 178.975C60.5178 179.308 61.0444 179.782 61.4311 180.395C61.8311 180.995 62.0311 181.702 62.0311 182.515C62.0311 182.795 61.9978 183.088 61.9311 183.395C61.8644 183.702 61.7644 184.022 61.6311 184.355C61.4978 184.675 61.3178 185.022 61.0911 185.395C60.8778 185.755 60.6178 186.135 60.3111 186.535C60.0044 186.935 59.6444 187.362 59.2311 187.815L56.0511 191.275L55.6511 189.755H62.6511V192.755H53.0511ZM68.5681 192.955C67.4348 192.955 66.4415 192.722 65.5881 192.255C64.7481 191.775 63.9815 190.955 63.2881 189.795L65.7281 188.215C66.0215 188.682 66.3215 189.055 66.6281 189.335C66.9481 189.615 67.2748 189.822 67.6081 189.955C67.9548 190.075 68.3148 190.135 68.6881 190.135C69.0615 190.135 69.4015 190.055 69.7081 189.895C70.0281 189.722 70.2815 189.482 70.4681 189.175C70.6681 188.868 70.7681 188.522 70.7681 188.135C70.7681 187.722 70.6815 187.375 70.5081 187.095C70.3481 186.802 70.1081 186.582 69.7881 186.435C69.4815 186.288 69.1081 186.215 68.6681 186.215C68.4681 186.215 68.2548 186.242 68.0281 186.295C67.8015 186.335 67.5615 186.395 67.3081 186.475C67.0548 186.555 66.7948 186.662 66.5281 186.795L65.7881 184.815L69.1881 181.115L70.1081 181.615L64.2681 181.495V178.635H72.8681L73.4881 179.875L68.8681 184.835L68.0681 183.895C68.1748 183.842 68.3481 183.795 68.5881 183.755C68.8415 183.702 69.0815 183.675 69.3081 183.675C69.9348 183.675 70.5215 183.788 71.0681 184.015C71.6148 184.242 72.1015 184.555 72.5281 184.955C72.9548 185.355 73.2881 185.828 73.5281 186.375C73.7681 186.908 73.8881 187.482 73.8881 188.095C73.8881 189.028 73.6481 189.862 73.1681 190.595C72.7015 191.315 72.0615 191.888 71.2481 192.315C70.4481 192.742 69.5548 192.955 68.5681 192.955ZM74.2967 195.595L82.6167 178.755H85.7967L77.5167 195.595H74.2967ZM86.6058 192.755L85.9458 191.115L90.0258 186.655C90.2524 186.402 90.4991 186.115 90.7658 185.795C91.0324 185.475 91.2924 185.148 91.5458 184.815C91.7991 184.468 91.9991 184.135 92.1458 183.815C92.3058 183.495 92.3858 183.202 92.3858 182.935C92.3858 182.668 92.3258 182.435 92.2058 182.235C92.0858 182.035 91.9124 181.882 91.6858 181.775C91.4591 181.655 91.1724 181.595 90.8258 181.595C90.5191 181.595 90.2258 181.675 89.9458 181.835C89.6658 181.982 89.3991 182.215 89.1458 182.535C88.9058 182.855 88.6791 183.248 88.4658 183.715L85.9458 182.355C86.2258 181.582 86.6191 180.902 87.1258 180.315C87.6458 179.715 88.2524 179.255 88.9458 178.935C89.6391 178.602 90.3791 178.435 91.1658 178.435C91.9924 178.448 92.7391 178.628 93.4058 178.975C94.0724 179.308 94.5991 179.782 94.9858 180.395C95.3858 180.995 95.5858 181.702 95.5858 182.515C95.5858 182.795 95.5524 183.088 95.4858 183.395C95.4191 183.702 95.3191 184.022 95.1858 184.355C95.0524 184.675 94.8724 185.022 94.6458 185.395C94.4324 185.755 94.1724 186.135 93.8658 186.535C93.5591 186.935 93.1991 187.362 92.7858 187.815L89.6058 191.275L89.2058 189.755H96.2058V192.755H86.6058ZM103.123 192.955C101.869 192.955 100.796 192.668 99.9028 192.095C99.0228 191.522 98.3495 190.702 97.8828 189.635C97.4161 188.555 97.1828 187.262 97.1828 185.755C97.1828 184.248 97.4161 182.962 97.8828 181.895C98.3495 180.815 99.0228 179.988 99.9028 179.415C100.796 178.842 101.869 178.555 103.123 178.555C104.376 178.555 105.449 178.842 106.343 179.415C107.236 179.988 107.916 180.815 108.383 181.895C108.849 182.962 109.083 184.248 109.083 185.755C109.083 187.262 108.849 188.555 108.383 189.635C107.916 190.702 107.236 191.522 106.343 192.095C105.449 192.668 104.376 192.955 103.123 192.955ZM103.123 190.075C103.989 190.075 104.656 189.702 105.123 188.955C105.603 188.208 105.843 187.142 105.843 185.755C105.843 184.328 105.603 183.235 105.123 182.475C104.656 181.702 103.989 181.315 103.123 181.315C102.256 181.315 101.583 181.702 101.103 182.475C100.636 183.235 100.403 184.328 100.403 185.755C100.403 187.142 100.636 188.208 101.103 188.955C101.583 189.702 102.256 190.075 103.123 190.075ZM111.059 192.755L110.399 191.115L114.479 186.655C114.706 186.402 114.952 186.115 115.219 185.795C115.486 185.475 115.746 185.148 115.999 184.815C116.252 184.468 116.452 184.135 116.599 183.815C116.759 183.495 116.839 183.202 116.839 182.935C116.839 182.668 116.779 182.435 116.659 182.235C116.539 182.035 116.366 181.882 116.139 181.775C115.912 181.655 115.626 181.595 115.279 181.595C114.972 181.595 114.679 181.675 114.399 181.835C114.119 181.982 113.852 182.215 113.599 182.535C113.359 182.855 113.132 183.248 112.919 183.715L110.399 182.355C110.679 181.582 111.072 180.902 111.579 180.315C112.099 179.715 112.706 179.255 113.399 178.935C114.092 178.602 114.832 178.435 115.619 178.435C116.446 178.448 117.192 178.628 117.859 178.975C118.526 179.308 119.052 179.782 119.439 180.395C119.839 180.995 120.039 181.702 120.039 182.515C120.039 182.795 120.006 183.088 119.939 183.395C119.872 183.702 119.772 184.022 119.639 184.355C119.506 184.675 119.326 185.022 119.099 185.395C118.886 185.755 118.626 186.135 118.319 186.535C118.012 186.935 117.652 187.362 117.239 187.815L114.059 191.275L113.659 189.755H120.659V192.755H111.059ZM126.576 192.955C125.443 192.955 124.449 192.722 123.596 192.255C122.756 191.775 121.989 190.955 121.296 189.795L123.736 188.215C124.029 188.682 124.329 189.055 124.636 189.335C124.956 189.615 125.283 189.822 125.616 189.955C125.963 190.075 126.323 190.135 126.696 190.135C127.069 190.135 127.409 190.055 127.716 189.895C128.036 189.722 128.289 189.482 128.476 189.175C128.676 188.868 128.776 188.522 128.776 188.135C128.776 187.722 128.689 187.375 128.516 187.095C128.356 186.802 128.116 186.582 127.796 186.435C127.489 186.288 127.116 186.215 126.676 186.215C126.476 186.215 126.263 186.242 126.036 186.295C125.809 186.335 125.569 186.395 125.316 186.475C125.063 186.555 124.803 186.662 124.536 186.795L123.796 184.815L127.196 181.115L128.116 181.615L122.276 181.495V178.635H130.876L131.496 179.875L126.876 184.835L126.076 183.895C126.183 183.842 126.356 183.795 126.596 183.755C126.849 183.702 127.089 183.675 127.316 183.675C127.943 183.675 128.529 183.788 129.076 184.015C129.623 184.242 130.109 184.555 130.536 184.955C130.963 185.355 131.296 185.828 131.536 186.375C131.776 186.908 131.896 187.482 131.896 188.095C131.896 189.028 131.656 189.862 131.176 190.595C130.709 191.315 130.069 191.888 129.256 192.315C128.456 192.742 127.563 192.955 126.576 192.955Z" fill="#3C2415"/>
<path d="M30.88 140.708V126.708H36.5C37.5133 126.708 38.4267 126.875 39.24 127.208C40.0667 127.542 40.7733 128.022 41.36 128.648C41.96 129.275 42.4133 130.015 42.72 130.868C43.04 131.722 43.2 132.668 43.2 133.708C43.2 134.748 43.04 135.702 42.72 136.568C42.4133 137.422 41.9667 138.162 41.38 138.788C40.7933 139.402 40.0867 139.875 39.26 140.208C38.4333 140.542 37.5133 140.708 36.5 140.708H30.88ZM33.48 138.688L33.28 138.308H36.4C37.0533 138.308 37.6333 138.202 38.14 137.988C38.66 137.775 39.1 137.468 39.46 137.068C39.82 136.668 40.0933 136.188 40.28 135.628C40.4667 135.055 40.56 134.415 40.56 133.708C40.56 133.002 40.4667 132.368 40.28 131.808C40.0933 131.235 39.8133 130.748 39.44 130.348C39.08 129.948 38.6467 129.642 38.14 129.428C37.6333 129.215 37.0533 129.108 36.4 129.108H33.22L33.48 128.768V138.688ZM50.5167 140.908C49.4101 140.908 48.4301 140.675 47.5767 140.208C46.7367 139.742 46.0767 139.108 45.5967 138.308C45.1301 137.495 44.8967 136.568 44.8967 135.528C44.8967 134.702 45.0301 133.948 45.2967 133.268C45.5634 132.588 45.9301 132.002 46.3967 131.508C46.8767 131.002 47.4434 130.615 48.0967 130.348C48.7634 130.068 49.4901 129.928 50.2767 129.928C50.9701 129.928 51.6167 130.062 52.2167 130.328C52.8167 130.595 53.3367 130.962 53.7767 131.428C54.2167 131.882 54.5501 132.428 54.7767 133.068C55.0167 133.695 55.1301 134.382 55.1167 135.128L55.0967 135.988H46.5567L46.0967 134.308H53.0367L52.7167 134.648V134.208C52.6767 133.795 52.5434 133.435 52.3167 133.128C52.0901 132.808 51.7967 132.562 51.4367 132.388C51.0901 132.202 50.7034 132.108 50.2767 132.108C49.6234 132.108 49.0701 132.235 48.6167 132.488C48.1767 132.742 47.8434 133.108 47.6167 133.588C47.3901 134.055 47.2767 134.642 47.2767 135.348C47.2767 136.028 47.4167 136.622 47.6967 137.128C47.9901 137.635 48.3967 138.028 48.9167 138.308C49.4501 138.575 50.0701 138.708 50.7767 138.708C51.2701 138.708 51.7234 138.628 52.1367 138.468C52.5501 138.308 52.9967 138.022 53.4767 137.608L54.6967 139.308C54.3367 139.642 53.9234 139.928 53.4567 140.168C53.0034 140.395 52.5234 140.575 52.0167 140.708C51.5101 140.842 51.0101 140.908 50.5167 140.908ZM57.2955 145.108V130.168H59.7155L59.7555 132.568L59.3355 132.388C59.4155 131.975 59.6421 131.588 60.0155 131.228C60.3888 130.855 60.8421 130.555 61.3755 130.328C61.9221 130.102 62.4888 129.988 63.0755 129.988C64.0088 129.988 64.8355 130.222 65.5555 130.688C66.2888 131.155 66.8621 131.795 67.2755 132.608C67.7021 133.422 67.9155 134.362 67.9155 135.428C67.9155 136.482 67.7021 137.422 67.2755 138.248C66.8621 139.062 66.2888 139.708 65.5555 140.188C64.8355 140.655 64.0221 140.888 63.1155 140.888C62.5021 140.888 61.9088 140.768 61.3355 140.528C60.7755 140.288 60.2955 139.975 59.8955 139.588C59.5088 139.202 59.2688 138.795 59.1755 138.368L59.7755 138.088V145.108H57.2955ZM62.6155 138.708C63.1755 138.708 63.6755 138.568 64.1155 138.288C64.5555 138.008 64.8955 137.622 65.1355 137.128C65.3888 136.635 65.5155 136.068 65.5155 135.428C65.5155 134.788 65.3955 134.228 65.1555 133.748C64.9155 133.255 64.5755 132.868 64.1355 132.588C63.6955 132.308 63.1888 132.168 62.6155 132.168C62.0288 132.168 61.5155 132.308 61.0755 132.588C60.6488 132.855 60.3088 133.235 60.0555 133.728C59.8021 134.222 59.6755 134.788 59.6755 135.428C59.6755 136.068 59.8021 136.635 60.0555 137.128C60.3088 137.622 60.6488 138.008 61.0755 138.288C61.5155 138.568 62.0288 138.708 62.6155 138.708ZM74.088 140.908C73.2213 140.908 72.4346 140.668 71.728 140.188C71.0213 139.708 70.4546 139.055 70.028 138.228C69.6013 137.402 69.388 136.462 69.388 135.408C69.388 134.355 69.6013 133.415 70.028 132.588C70.4546 131.762 71.0346 131.115 71.768 130.648C72.5013 130.182 73.328 129.948 74.248 129.948C74.7813 129.948 75.268 130.028 75.708 130.188C76.148 130.335 76.5346 130.548 76.868 130.828C77.2013 131.108 77.4746 131.428 77.688 131.788C77.9146 132.148 78.068 132.535 78.148 132.948L77.608 132.808V130.168H80.088V140.708H77.588V138.188L78.168 138.088C78.0746 138.448 77.9013 138.802 77.648 139.148C77.408 139.482 77.1013 139.782 76.728 140.048C76.368 140.302 75.9613 140.508 75.508 140.668C75.068 140.828 74.5946 140.908 74.088 140.908ZM74.768 138.728C75.3413 138.728 75.848 138.588 76.288 138.308C76.728 138.028 77.068 137.642 77.308 137.148C77.5613 136.642 77.688 136.062 77.688 135.408C77.688 134.768 77.5613 134.202 77.308 133.708C77.068 133.215 76.728 132.828 76.288 132.548C75.848 132.268 75.3413 132.128 74.768 132.128C74.1946 132.128 73.688 132.268 73.248 132.548C72.8213 132.828 72.488 133.215 72.248 133.708C72.008 134.202 71.888 134.768 71.888 135.408C71.888 136.062 72.008 136.642 72.248 137.148C72.488 137.642 72.8213 138.028 73.248 138.308C73.688 138.588 74.1946 138.728 74.768 138.728ZM82.94 140.708V130.168H85.36L85.4 133.528L85.06 132.768C85.2067 132.235 85.46 131.755 85.82 131.328C86.18 130.902 86.5933 130.568 87.06 130.328C87.54 130.075 88.04 129.948 88.56 129.948C88.7867 129.948 89 129.968 89.2 130.008C89.4133 130.048 89.5867 130.095 89.72 130.148L89.06 132.848C88.9133 132.768 88.7333 132.702 88.52 132.648C88.3067 132.595 88.0933 132.568 87.88 132.568C87.5467 132.568 87.2267 132.635 86.92 132.768C86.6267 132.888 86.3667 133.062 86.14 133.288C85.9133 133.515 85.7333 133.782 85.6 134.088C85.48 134.382 85.42 134.715 85.42 135.088V140.708H82.94ZM92.8886 140.708V127.488H95.3486V140.708H92.8886ZM90.8086 132.448V130.168H97.6486V132.448H90.8086Z" fill="#3C2415"/>
<path d="M210.64 167.895C209.587 167.895 208.627 167.682 207.76 167.255C206.907 166.829 206.2 166.215 205.64 165.415L207.46 163.415C208.007 164.015 208.513 164.429 208.98 164.655C209.447 164.869 209.967 164.975 210.54 164.975C210.967 164.975 211.347 164.889 211.68 164.715C212.013 164.542 212.273 164.302 212.46 163.995C212.66 163.675 212.76 163.322 212.76 162.935C212.76 162.535 212.66 162.182 212.46 161.875C212.273 161.555 212.013 161.302 211.68 161.115C211.36 160.929 210.987 160.835 210.56 160.835C210.253 160.835 209.967 160.862 209.7 160.915C209.433 160.969 209.147 161.062 208.84 161.195C208.547 161.315 208.193 161.495 207.78 161.735L206.34 159.815L207.2 153.635H215.24V156.495H208.82L209.7 155.375L209.04 159.815L207.84 159.415C208.093 159.189 208.4 158.989 208.76 158.815C209.133 158.642 209.533 158.502 209.96 158.395C210.387 158.275 210.813 158.215 211.24 158.215C212.12 158.215 212.907 158.422 213.6 158.835C214.307 159.235 214.867 159.795 215.28 160.515C215.693 161.235 215.9 162.062 215.9 162.995C215.9 163.915 215.667 164.749 215.2 165.495C214.733 166.229 214.107 166.815 213.32 167.255C212.533 167.682 211.64 167.895 210.64 167.895ZM219.474 167.975C218.927 167.975 218.501 167.822 218.194 167.515C217.901 167.209 217.754 166.769 217.754 166.195C217.754 165.662 217.914 165.229 218.234 164.895C218.554 164.562 218.967 164.395 219.474 164.395C220.021 164.395 220.447 164.555 220.754 164.875C221.061 165.182 221.214 165.622 221.214 166.195C221.214 166.715 221.054 167.142 220.734 167.475C220.414 167.809 219.994 167.975 219.474 167.975ZM219.474 160.515C218.927 160.515 218.501 160.362 218.194 160.055C217.901 159.749 217.754 159.309 217.754 158.735C217.754 158.202 217.914 157.769 218.234 157.435C218.554 157.102 218.967 156.935 219.474 156.935C220.021 156.935 220.447 157.095 220.754 157.415C221.061 157.722 221.214 158.162 221.214 158.735C221.214 159.255 221.054 159.682 220.734 160.015C220.414 160.349 219.994 160.515 219.474 160.515ZM228.791 167.955C227.537 167.955 226.464 167.669 225.571 167.095C224.691 166.522 224.017 165.702 223.551 164.635C223.084 163.555 222.851 162.262 222.851 160.755C222.851 159.249 223.084 157.962 223.551 156.895C224.017 155.815 224.691 154.989 225.571 154.415C226.464 153.842 227.537 153.555 228.791 153.555C230.044 153.555 231.117 153.842 232.011 154.415C232.904 154.989 233.584 155.815 234.051 156.895C234.517 157.962 234.751 159.249 234.751 160.755C234.751 162.262 234.517 163.555 234.051 164.635C233.584 165.702 232.904 166.522 232.011 167.095C231.117 167.669 230.044 167.955 228.791 167.955ZM228.791 165.075C229.657 165.075 230.324 164.702 230.791 163.955C231.271 163.209 231.511 162.142 231.511 160.755C231.511 159.329 231.271 158.235 230.791 157.475C230.324 156.702 229.657 156.315 228.791 156.315C227.924 156.315 227.251 156.702 226.771 157.475C226.304 158.235 226.071 159.329 226.071 160.755C226.071 162.142 226.304 163.209 226.771 163.955C227.251 164.702 227.924 165.075 228.791 165.075ZM242.287 167.955C241.034 167.955 239.96 167.669 239.067 167.095C238.187 166.522 237.514 165.702 237.047 164.635C236.58 163.555 236.347 162.262 236.347 160.755C236.347 159.249 236.58 157.962 237.047 156.895C237.514 155.815 238.187 154.989 239.067 154.415C239.96 153.842 241.034 153.555 242.287 153.555C243.54 153.555 244.614 153.842 245.507 154.415C246.4 154.989 247.08 155.815 247.547 156.895C248.014 157.962 248.247 159.249 248.247 160.755C248.247 162.262 248.014 163.555 247.547 164.635C247.08 165.702 246.4 166.522 245.507 167.095C244.614 167.669 243.54 167.955 242.287 167.955ZM242.287 165.075C243.154 165.075 243.82 164.702 244.287 163.955C244.767 163.209 245.007 162.142 245.007 160.755C245.007 159.329 244.767 158.235 244.287 157.475C243.82 156.702 243.154 156.315 242.287 156.315C241.42 156.315 240.747 156.702 240.267 157.475C239.8 158.235 239.567 159.329 239.567 160.755C239.567 162.142 239.8 163.209 240.267 163.955C240.747 164.702 241.42 165.075 242.287 165.075ZM250.463 172.155V157.135H253.503L253.623 159.515L253.023 159.335C253.116 158.895 253.343 158.495 253.703 158.135C254.063 157.775 254.516 157.489 255.063 157.275C255.623 157.049 256.21 156.935 256.823 156.935C257.73 156.935 258.536 157.175 259.243 157.655C259.95 158.122 260.503 158.769 260.903 159.595C261.316 160.409 261.523 161.355 261.523 162.435C261.523 163.502 261.316 164.449 260.903 165.275C260.503 166.102 259.943 166.755 259.223 167.235C258.516 167.702 257.703 167.935 256.783 167.935C256.183 167.935 255.61 167.822 255.063 167.595C254.516 167.369 254.056 167.062 253.683 166.675C253.31 166.289 253.063 165.869 252.943 165.415L253.683 165.135V172.155H250.463ZM256.003 165.235C256.483 165.235 256.903 165.122 257.263 164.895C257.623 164.655 257.903 164.329 258.103 163.915C258.303 163.502 258.403 163.009 258.403 162.435C258.403 161.875 258.303 161.389 258.103 160.975C257.903 160.549 257.623 160.222 257.263 159.995C256.916 159.755 256.496 159.635 256.003 159.635C255.51 159.635 255.083 159.749 254.723 159.975C254.363 160.202 254.083 160.529 253.883 160.955C253.683 161.382 253.583 161.875 253.583 162.435C253.583 163.009 253.683 163.502 253.883 163.915C254.083 164.329 254.363 164.655 254.723 164.895C255.083 165.122 255.51 165.235 256.003 165.235ZM263.627 167.755V157.135H266.667L266.767 159.055L266.347 159.075C266.507 158.729 266.707 158.422 266.947 158.155C267.2 157.889 267.48 157.669 267.787 157.495C268.107 157.309 268.433 157.169 268.767 157.075C269.113 156.982 269.46 156.935 269.807 156.935C270.327 156.935 270.8 157.015 271.227 157.175C271.653 157.335 272.027 157.595 272.347 157.955C272.667 158.302 272.92 158.775 273.107 159.375L272.607 159.335L272.767 159.015C272.94 158.695 273.16 158.409 273.427 158.155C273.707 157.889 274.013 157.669 274.347 157.495C274.68 157.309 275.027 157.169 275.387 157.075C275.747 156.982 276.093 156.935 276.427 156.935C277.267 156.935 277.967 157.102 278.527 157.435C279.087 157.755 279.507 158.242 279.787 158.895C280.08 159.549 280.227 160.342 280.227 161.275V167.755H277.007V161.535C277.007 161.109 276.947 160.755 276.827 160.475C276.707 160.195 276.527 159.989 276.287 159.855C276.06 159.709 275.773 159.635 275.427 159.635C275.147 159.635 274.887 159.682 274.647 159.775C274.42 159.869 274.22 159.995 274.047 160.155C273.887 160.315 273.76 160.502 273.667 160.715C273.573 160.929 273.527 161.169 273.527 161.435V167.755H270.307V161.515C270.307 161.115 270.247 160.775 270.127 160.495C270.007 160.215 269.827 160.002 269.587 159.855C269.347 159.709 269.067 159.635 268.747 159.635C268.467 159.635 268.207 159.682 267.967 159.775C267.74 159.869 267.54 159.995 267.367 160.155C267.207 160.315 267.08 160.502 266.987 160.715C266.893 160.929 266.847 161.162 266.847 161.415V167.755H263.627ZM289.631 167.755V153.755H299.391V156.655H292.931V164.855H299.591V167.755H289.631ZM291.231 162.015V159.255H298.491V162.015H291.231ZM305.562 167.755V156.755H301.402V153.755H313.222V156.755H308.962V167.755H305.562ZM210.88 192.755C210.16 192.755 209.48 192.629 208.84 192.375C208.213 192.109 207.667 191.749 207.2 191.295C206.733 190.829 206.36 190.289 206.08 189.675C205.813 189.062 205.68 188.402 205.68 187.695C205.68 187.202 205.733 186.729 205.84 186.275C205.947 185.809 206.093 185.342 206.28 184.875C206.48 184.395 206.713 183.909 206.98 183.415C207.26 182.909 207.567 182.375 207.9 181.815L209.86 178.535H213L213.08 178.735L210.36 183.015C210.013 183.575 209.713 184.102 209.46 184.595C209.207 185.075 208.98 185.555 208.78 186.035C208.58 186.515 208.38 187.022 208.18 187.555L207.54 186.175C207.673 185.709 207.887 185.282 208.18 184.895C208.473 184.495 208.813 184.155 209.2 183.875C209.6 183.582 210.013 183.362 210.44 183.215C210.867 183.055 211.287 182.975 211.7 182.975C212.487 182.975 213.207 183.189 213.86 183.615C214.527 184.029 215.06 184.582 215.46 185.275C215.86 185.969 216.06 186.729 216.06 187.555C216.06 188.542 215.833 189.429 215.38 190.215C214.94 191.002 214.327 191.622 213.54 192.075C212.767 192.529 211.88 192.755 210.88 192.755ZM210.92 189.955C211.347 189.955 211.72 189.862 212.04 189.675C212.373 189.489 212.633 189.229 212.82 188.895C213.007 188.549 213.1 188.155 213.1 187.715C213.1 187.342 213 186.995 212.8 186.675C212.613 186.342 212.353 186.075 212.02 185.875C211.7 185.662 211.34 185.555 210.94 185.555C210.513 185.555 210.127 185.655 209.78 185.855C209.447 186.042 209.187 186.302 209 186.635C208.813 186.955 208.72 187.315 208.72 187.715C208.72 188.142 208.813 188.529 209 188.875C209.187 189.209 209.447 189.475 209.78 189.675C210.113 189.862 210.493 189.955 210.92 189.955ZM216.742 195.595L225.062 178.755H228.242L219.962 195.595H216.742ZM229.051 192.755L228.391 191.115L232.471 186.655C232.698 186.402 232.944 186.115 233.211 185.795C233.478 185.475 233.738 185.149 233.991 184.815C234.244 184.469 234.444 184.135 234.591 183.815C234.751 183.495 234.831 183.202 234.831 182.935C234.831 182.669 234.771 182.435 234.651 182.235C234.531 182.035 234.358 181.882 234.131 181.775C233.904 181.655 233.618 181.595 233.271 181.595C232.964 181.595 232.671 181.675 232.391 181.835C232.111 181.982 231.844 182.215 231.591 182.535C231.351 182.855 231.124 183.249 230.911 183.715L228.391 182.355C228.671 181.582 229.064 180.902 229.571 180.315C230.091 179.715 230.698 179.255 231.391 178.935C232.084 178.602 232.824 178.435 233.611 178.435C234.438 178.449 235.184 178.629 235.851 178.975C236.518 179.309 237.044 179.782 237.431 180.395C237.831 180.995 238.031 181.702 238.031 182.515C238.031 182.795 237.998 183.089 237.931 183.395C237.864 183.702 237.764 184.022 237.631 184.355C237.498 184.675 237.318 185.022 237.091 185.395C236.878 185.755 236.618 186.135 236.311 186.535C236.004 186.935 235.644 187.362 235.231 187.815L232.051 191.275L231.651 189.755H238.651V192.755H229.051ZM244.468 192.895C243.415 192.895 242.455 192.682 241.588 192.255C240.735 191.829 240.028 191.215 239.468 190.415L241.288 188.415C241.835 189.015 242.341 189.429 242.808 189.655C243.275 189.869 243.795 189.975 244.368 189.975C244.795 189.975 245.175 189.889 245.508 189.715C245.841 189.542 246.101 189.302 246.288 188.995C246.488 188.675 246.588 188.322 246.588 187.935C246.588 187.535 246.488 187.182 246.288 186.875C246.101 186.555 245.841 186.302 245.508 186.115C245.188 185.929 244.815 185.835 244.388 185.835C244.081 185.835 243.795 185.862 243.528 185.915C243.261 185.969 242.975 186.062 242.668 186.195C242.375 186.315 242.021 186.495 241.608 186.735L240.168 184.815L241.028 178.635H249.068V181.495H242.648L243.528 180.375L242.868 184.815L241.668 184.415C241.921 184.189 242.228 183.989 242.588 183.815C242.961 183.642 243.361 183.502 243.788 183.395C244.215 183.275 244.641 183.215 245.068 183.215C245.948 183.215 246.735 183.422 247.428 183.835C248.135 184.235 248.695 184.795 249.108 185.515C249.521 186.235 249.728 187.062 249.728 187.995C249.728 188.915 249.495 189.749 249.028 190.495C248.561 191.229 247.935 191.815 247.148 192.255C246.361 192.682 245.468 192.895 244.468 192.895ZM250.101 195.595L258.421 178.755H261.601L253.321 195.595H250.101ZM262.41 192.755L261.75 191.115L265.83 186.655C266.057 186.402 266.304 186.115 266.57 185.795C266.837 185.475 267.097 185.149 267.35 184.815C267.604 184.469 267.804 184.135 267.95 183.815C268.11 183.495 268.19 183.202 268.19 182.935C268.19 182.669 268.13 182.435 268.01 182.235C267.89 182.035 267.717 181.882 267.49 181.775C267.264 181.655 266.977 181.595 266.63 181.595C266.324 181.595 266.03 181.675 265.75 181.835C265.47 181.982 265.204 182.215 264.95 182.535C264.71 182.855 264.484 183.249 264.27 183.715L261.75 182.355C262.03 181.582 262.424 180.902 262.93 180.315C263.45 179.715 264.057 179.255 264.75 178.935C265.444 178.602 266.184 178.435 266.97 178.435C267.797 178.449 268.544 178.629 269.21 178.975C269.877 179.309 270.404 179.782 270.79 180.395C271.19 180.995 271.39 181.702 271.39 182.515C271.39 182.795 271.357 183.089 271.29 183.395C271.224 183.702 271.124 184.022 270.99 184.355C270.857 184.675 270.677 185.022 270.45 185.395C270.237 185.755 269.977 186.135 269.67 186.535C269.364 186.935 269.004 187.362 268.59 187.815L265.41 191.275L265.01 189.755H272.01V192.755H262.41ZM278.928 192.955C277.674 192.955 276.601 192.669 275.708 192.095C274.828 191.522 274.154 190.702 273.688 189.635C273.221 188.555 272.988 187.262 272.988 185.755C272.988 184.249 273.221 182.962 273.688 181.895C274.154 180.815 274.828 179.989 275.708 179.415C276.601 178.842 277.674 178.555 278.928 178.555C280.181 178.555 281.254 178.842 282.148 179.415C283.041 179.989 283.721 180.815 284.188 181.895C284.654 182.962 284.888 184.249 284.888 185.755C284.888 187.262 284.654 188.555 284.188 189.635C283.721 190.702 283.041 191.522 282.148 192.095C281.254 192.669 280.181 192.955 278.928 192.955ZM278.928 190.075C279.794 190.075 280.461 189.702 280.928 188.955C281.408 188.209 281.648 187.142 281.648 185.755C281.648 184.329 281.408 183.235 280.928 182.475C280.461 181.702 279.794 181.315 278.928 181.315C278.061 181.315 277.388 181.702 276.908 182.475C276.441 183.235 276.208 184.329 276.208 185.755C276.208 187.142 276.441 188.209 276.908 188.955C277.388 189.702 278.061 190.075 278.928 190.075ZM286.864 192.755L286.204 191.115L290.284 186.655C290.51 186.402 290.757 186.115 291.024 185.795C291.29 185.475 291.55 185.149 291.804 184.815C292.057 184.469 292.257 184.135 292.404 183.815C292.564 183.495 292.644 183.202 292.644 182.935C292.644 182.669 292.584 182.435 292.464 182.235C292.344 182.035 292.17 181.882 291.944 181.775C291.717 181.655 291.43 181.595 291.084 181.595C290.777 181.595 290.484 181.675 290.204 181.835C289.924 181.982 289.657 182.215 289.404 182.535C289.164 182.855 288.937 183.249 288.724 183.715L286.204 182.355C286.484 181.582 286.877 180.902 287.384 180.315C287.904 179.715 288.51 179.255 289.204 178.935C289.897 178.602 290.637 178.435 291.424 178.435C292.25 178.449 292.997 178.629 293.664 178.975C294.33 179.309 294.857 179.782 295.244 180.395C295.644 180.995 295.844 181.702 295.844 182.515C295.844 182.795 295.81 183.089 295.744 183.395C295.677 183.702 295.577 184.022 295.444 184.355C295.31 184.675 295.13 185.022 294.904 185.395C294.69 185.755 294.43 186.135 294.124 186.535C293.817 186.935 293.457 187.362 293.044 187.815L289.864 191.275L289.464 189.755H296.464V192.755H286.864ZM302.381 192.955C301.247 192.955 300.254 192.722 299.401 192.255C298.561 191.775 297.794 190.955 297.101 189.795L299.541 188.215C299.834 188.682 300.134 189.055 300.441 189.335C300.761 189.615 301.087 189.822 301.421 189.955C301.767 190.075 302.127 190.135 302.501 190.135C302.874 190.135 303.214 190.055 303.521 189.895C303.841 189.722 304.094 189.482 304.281 189.175C304.481 188.869 304.581 188.522 304.581 188.135C304.581 187.722 304.494 187.375 304.321 187.095C304.161 186.802 303.921 186.582 303.601 186.435C303.294 186.289 302.921 186.215 302.481 186.215C302.281 186.215 302.067 186.242 301.841 186.295C301.614 186.335 301.374 186.395 301.121 186.475C300.867 186.555 300.607 186.662 300.341 186.795L299.601 184.815L303.001 181.115L303.921 181.615L298.081 181.495V178.635H306.681L307.301 179.875L302.681 184.835L301.881 183.895C301.987 183.842 302.161 183.795 302.401 183.755C302.654 183.702 302.894 183.675 303.121 183.675C303.747 183.675 304.334 183.789 304.881 184.015C305.427 184.242 305.914 184.555 306.341 184.955C306.767 185.355 307.101 185.829 307.341 186.375C307.581 186.909 307.701 187.482 307.701 188.095C307.701 189.029 307.461 189.862 306.981 190.595C306.514 191.315 305.874 191.889 305.061 192.315C304.261 192.742 303.367 192.955 302.381 192.955Z" fill="#3C2415"/>
<path d="M206.88 140.709V126.709H212.96C213.8 126.709 214.567 126.909 215.26 127.309C215.953 127.695 216.5 128.229 216.9 128.909C217.313 129.575 217.52 130.329 217.52 131.169C217.52 131.969 217.313 132.709 216.9 133.389C216.5 134.055 215.953 134.589 215.26 134.989C214.58 135.375 213.813 135.569 212.96 135.569H209.42V140.709H206.88ZM215 140.709L211.44 134.389L214.12 133.889L218.08 140.729L215 140.709ZM209.42 133.309H212.98C213.367 133.309 213.7 133.222 213.98 133.049C214.273 132.862 214.5 132.609 214.66 132.289C214.82 131.969 214.9 131.615 214.9 131.229C214.9 130.789 214.8 130.409 214.6 130.089C214.4 129.769 214.12 129.515 213.76 129.329C213.4 129.142 212.987 129.049 212.52 129.049H209.42V133.309ZM224.935 140.909C223.828 140.909 222.848 140.675 221.995 140.209C221.155 139.742 220.495 139.109 220.015 138.309C219.548 137.495 219.315 136.569 219.315 135.529C219.315 134.702 219.448 133.949 219.715 133.269C219.981 132.589 220.348 132.002 220.815 131.509C221.295 131.002 221.861 130.615 222.515 130.349C223.181 130.069 223.908 129.929 224.695 129.929C225.388 129.929 226.035 130.062 226.635 130.329C227.235 130.595 227.755 130.962 228.195 131.429C228.635 131.882 228.968 132.429 229.195 133.069C229.435 133.695 229.548 134.382 229.535 135.129L229.515 135.989H220.975L220.515 134.309H227.455L227.135 134.649V134.209C227.095 133.795 226.961 133.435 226.735 133.129C226.508 132.809 226.215 132.562 225.855 132.389C225.508 132.202 225.121 132.109 224.695 132.109C224.041 132.109 223.488 132.235 223.035 132.489C222.595 132.742 222.261 133.109 222.035 133.589C221.808 134.055 221.695 134.642 221.695 135.349C221.695 136.029 221.835 136.622 222.115 137.129C222.408 137.635 222.815 138.029 223.335 138.309C223.868 138.575 224.488 138.709 225.195 138.709C225.688 138.709 226.141 138.629 226.555 138.469C226.968 138.309 227.415 138.022 227.895 137.609L229.115 139.309C228.755 139.642 228.341 139.929 227.875 140.169C227.421 140.395 226.941 140.575 226.435 140.709C225.928 140.842 225.428 140.909 224.935 140.909ZM232.853 140.709V127.489H235.313V140.709H232.853ZM230.773 132.449V130.169H237.613V132.449H230.773ZM243.147 140.909C242.387 140.909 241.727 140.742 241.167 140.409C240.607 140.062 240.18 139.575 239.887 138.949C239.594 138.309 239.447 137.549 239.447 136.669V130.169H241.907V136.149C241.907 136.709 241.994 137.189 242.167 137.589C242.34 137.975 242.594 138.275 242.927 138.489C243.26 138.702 243.66 138.809 244.127 138.809C244.474 138.809 244.787 138.755 245.067 138.649C245.36 138.529 245.614 138.369 245.827 138.169C246.04 137.955 246.207 137.709 246.327 137.429C246.447 137.135 246.507 136.822 246.507 136.489V130.169H248.967V140.709H246.567L246.527 138.509L246.967 138.269C246.807 138.775 246.534 139.229 246.147 139.629C245.774 140.015 245.327 140.329 244.807 140.569C244.287 140.795 243.734 140.909 243.147 140.909ZM251.85 140.709V130.169H254.27L254.31 133.529L253.97 132.769C254.117 132.235 254.37 131.755 254.73 131.329C255.09 130.902 255.503 130.569 255.97 130.329C256.45 130.075 256.95 129.949 257.47 129.949C257.697 129.949 257.91 129.969 258.11 130.009C258.323 130.049 258.497 130.095 258.63 130.149L257.97 132.849C257.823 132.769 257.643 132.702 257.43 132.649C257.217 132.595 257.003 132.569 256.79 132.569C256.457 132.569 256.137 132.635 255.83 132.769C255.537 132.889 255.277 133.062 255.05 133.289C254.823 133.515 254.643 133.782 254.51 134.089C254.39 134.382 254.33 134.715 254.33 135.089V140.709H251.85ZM260.268 140.709V130.169H262.668L262.708 132.329L262.248 132.569C262.381 132.089 262.641 131.655 263.028 131.269C263.415 130.869 263.875 130.549 264.408 130.309C264.941 130.069 265.488 129.949 266.048 129.949C266.848 129.949 267.515 130.109 268.048 130.429C268.595 130.749 269.001 131.229 269.268 131.869C269.548 132.509 269.688 133.309 269.688 134.269V140.709H267.228V134.449C267.228 133.915 267.155 133.475 267.008 133.129C266.861 132.769 266.635 132.509 266.328 132.349C266.021 132.175 265.648 132.095 265.208 132.109C264.848 132.109 264.515 132.169 264.208 132.289C263.915 132.395 263.655 132.555 263.428 132.769C263.215 132.969 263.041 133.202 262.908 133.469C262.788 133.735 262.728 134.029 262.728 134.349V140.709H261.508C261.268 140.709 261.041 140.709 260.828 140.709C260.628 140.709 260.441 140.709 260.268 140.709Z" fill="#3C2415"/>
<path d="M35.42 280.755L29.12 259.755H34.31L37.46 270.795C37.6 271.295 37.72 271.805 37.82 272.325C37.94 272.825 38.03 273.305 38.09 273.765C38.17 274.225 38.23 274.655 38.27 275.055C38.31 275.435 38.35 275.755 38.39 276.015H37.73C37.85 275.275 37.95 274.615 38.03 274.035C38.13 273.455 38.24 272.915 38.36 272.415C38.48 271.895 38.63 271.355 38.81 270.795L41.93 262.485H46.01L49.07 270.795C49.31 271.455 49.51 272.075 49.67 272.655C49.83 273.235 49.95 273.795 50.03 274.335C50.13 274.855 50.21 275.375 50.27 275.895L49.67 275.985C49.71 275.625 49.74 275.295 49.76 274.995C49.78 274.675 49.8 274.375 49.82 274.095C49.86 273.795 49.9 273.485 49.94 273.165C49.98 272.845 50.04 272.495 50.12 272.115C50.2 271.715 50.31 271.265 50.45 270.765L53.57 259.755H58.64L52.34 280.755H48.44L43.46 268.665L44.03 268.725L39.44 280.755H35.42ZM74.4549 280.755V259.755H79.5549V280.755H74.4549ZM61.4349 280.755V259.755H66.5349V280.755H61.4349ZM63.4149 272.565L63.4449 268.005H77.1549V272.565H63.4149ZM83.9438 280.755L82.9538 278.295L89.0738 271.605C89.4138 271.225 89.7838 270.795 90.1838 270.315C90.5838 269.835 90.9738 269.345 91.3538 268.845C91.7338 268.325 92.0338 267.825 92.2538 267.345C92.4938 266.865 92.6138 266.425 92.6138 266.025C92.6138 265.625 92.5238 265.275 92.3438 264.975C92.1638 264.675 91.9038 264.445 91.5638 264.285C91.2238 264.105 90.7938 264.015 90.2738 264.015C89.8138 264.015 89.3738 264.135 88.9538 264.375C88.5338 264.595 88.1338 264.945 87.7538 265.425C87.3938 265.905 87.0538 266.495 86.7338 267.195L82.9538 265.155C83.3738 263.995 83.9638 262.975 84.7238 262.095C85.5038 261.195 86.4138 260.505 87.4538 260.025C88.4938 259.525 89.6038 259.275 90.7838 259.275C92.0238 259.295 93.1438 259.565 94.1438 260.085C95.1438 260.585 95.9338 261.295 96.5138 262.215C97.1138 263.115 97.4138 264.175 97.4138 265.395C97.4138 265.815 97.3638 266.255 97.2638 266.715C97.1638 267.175 97.0138 267.655 96.8138 268.155C96.6138 268.635 96.3438 269.155 96.0038 269.715C95.6838 270.255 95.2938 270.825 94.8338 271.425C94.3738 272.025 93.8338 272.665 93.2138 273.345L88.4438 278.535L87.8438 276.255H98.3438V280.755H83.9438ZM107.219 281.055C105.519 281.055 104.029 280.705 102.749 280.005C101.489 279.285 100.339 278.055 99.2994 276.315L102.959 273.945C103.399 274.645 103.849 275.205 104.309 275.625C104.789 276.045 105.279 276.355 105.779 276.555C106.299 276.735 106.839 276.825 107.399 276.825C107.959 276.825 108.469 276.705 108.929 276.465C109.409 276.205 109.789 275.845 110.069 275.385C110.369 274.925 110.519 274.405 110.519 273.825C110.519 273.205 110.389 272.685 110.129 272.265C109.889 271.825 109.529 271.495 109.049 271.275C108.589 271.055 108.029 270.945 107.369 270.945C107.069 270.945 106.749 270.985 106.409 271.065C106.069 271.125 105.709 271.215 105.329 271.335C104.949 271.455 104.559 271.615 104.159 271.815L103.049 268.845L108.149 263.295L109.529 264.045L100.769 263.865V259.575H113.669L114.599 261.435L107.669 268.875L106.469 267.465C106.629 267.385 106.889 267.315 107.249 267.255C107.629 267.175 107.989 267.135 108.329 267.135C109.269 267.135 110.149 267.305 110.969 267.645C111.789 267.985 112.519 268.455 113.159 269.055C113.799 269.655 114.299 270.365 114.659 271.185C115.019 271.985 115.199 272.845 115.199 273.765C115.199 275.165 114.839 276.415 114.119 277.515C113.419 278.595 112.459 279.455 111.239 280.095C110.039 280.735 108.699 281.055 107.219 281.055Z" fill="#3C2415"/>
<path d="M30.9362 247.755V233.755H33.5362V247.755H30.9362ZM32.1362 242.015V239.655H39.3562V242.015H32.1362ZM32.1362 236.155V233.755H40.2162V236.155H32.1362ZM42.6841 247.755V232.955H45.1641V247.755H42.6841ZM48.3347 247.755V237.215H50.7947V247.755H48.3347ZM49.5347 234.975C49.0414 234.975 48.6547 234.855 48.3747 234.615C48.1081 234.362 47.9747 234.008 47.9747 233.555C47.9747 233.128 48.1147 232.782 48.3947 232.515C48.6747 232.248 49.0547 232.115 49.5347 232.115C50.0414 232.115 50.4281 232.242 50.6947 232.495C50.9747 232.735 51.1147 233.088 51.1147 233.555C51.1147 233.968 50.9747 234.308 50.6947 234.575C50.4147 234.842 50.0281 234.975 49.5347 234.975ZM58.6541 252.355C57.8675 252.355 57.0808 252.235 56.2941 251.995C55.5208 251.755 54.8941 251.442 54.4141 251.055L55.2941 249.235C55.5741 249.435 55.8875 249.608 56.2341 249.755C56.5808 249.902 56.9475 250.015 57.3341 250.095C57.7341 250.175 58.1275 250.215 58.5141 250.215C59.2208 250.215 59.8075 250.102 60.2741 249.875C60.7541 249.662 61.1141 249.328 61.3541 248.875C61.5941 248.435 61.7141 247.882 61.7141 247.215V245.275L62.0741 245.415C61.9941 245.828 61.7741 246.222 61.4141 246.595C61.0541 246.968 60.6008 247.275 60.0541 247.515C59.5075 247.742 58.9475 247.855 58.3741 247.855C57.3741 247.855 56.4875 247.622 55.7141 247.155C54.9541 246.688 54.3475 246.055 53.8941 245.255C53.4541 244.442 53.2341 243.508 53.2341 242.455C53.2341 241.402 53.4541 240.468 53.8941 239.655C54.3341 238.828 54.9341 238.182 55.6941 237.715C56.4675 237.235 57.3341 236.995 58.2941 236.995C58.6941 236.995 59.0808 237.042 59.4541 237.135C59.8275 237.228 60.1675 237.362 60.4741 237.535C60.7941 237.708 61.0808 237.902 61.3341 238.115C61.5875 238.328 61.7941 238.555 61.9541 238.795C62.1141 239.035 62.2141 239.268 62.2541 239.495L61.7341 239.655L61.7741 237.215H64.1941V247.035C64.1941 247.888 64.0675 248.642 63.8141 249.295C63.5608 249.948 63.1941 250.502 62.7141 250.955C62.2341 251.422 61.6541 251.768 60.9741 251.995C60.2941 252.235 59.5208 252.355 58.6541 252.355ZM58.7541 245.755C59.3541 245.755 59.8808 245.615 60.3341 245.335C60.8008 245.055 61.1608 244.668 61.4141 244.175C61.6675 243.682 61.7941 243.115 61.7941 242.475C61.7941 241.822 61.6608 241.248 61.3941 240.755C61.1408 240.248 60.7875 239.855 60.3341 239.575C59.8808 239.295 59.3541 239.155 58.7541 239.155C58.1541 239.155 57.6275 239.302 57.1741 239.595C56.7208 239.875 56.3608 240.268 56.0941 240.775C55.8408 241.268 55.7141 241.835 55.7141 242.475C55.7141 243.102 55.8408 243.668 56.0941 244.175C56.3608 244.668 56.7208 245.055 57.1741 245.335C57.6275 245.615 58.1541 245.755 58.7541 245.755ZM67.0391 247.755V232.955H69.4791V239.375L69.0191 239.615C69.1525 239.135 69.4125 238.702 69.7991 238.315C70.1858 237.915 70.6458 237.595 71.1791 237.355C71.7125 237.115 72.2591 236.995 72.8191 236.995C73.6191 236.995 74.2858 237.155 74.8191 237.475C75.3658 237.795 75.7725 238.275 76.0391 238.915C76.3191 239.555 76.4591 240.355 76.4591 241.315V247.755H73.9991V241.495C73.9991 240.962 73.9258 240.522 73.7791 240.175C73.6325 239.815 73.4058 239.555 73.0991 239.395C72.7925 239.222 72.4191 239.142 71.9791 239.155C71.6191 239.155 71.2858 239.215 70.9791 239.335C70.6858 239.442 70.4258 239.602 70.1991 239.815C69.9858 240.015 69.8125 240.248 69.6791 240.515C69.5591 240.782 69.4991 241.075 69.4991 241.395V247.755H68.2791C68.0391 247.755 67.8125 247.755 67.5991 247.755C67.3991 247.755 67.2125 247.755 67.0391 247.755ZM80.3666 247.755V234.535H82.8266V247.755H80.3666ZM78.2866 239.495V237.215H85.1266V239.495H78.2866ZM98.779 247.755L101.179 233.755H103.359L100.959 247.755H98.779ZM92.179 244.455V242.475H103.919V244.455H92.179ZM93.499 247.755L95.899 233.755H98.059L95.659 247.755H93.499ZM92.939 238.855V236.875H104.659V238.855H92.939Z" fill="#3C2415"/>
<path d="M28.97 72.7085L37.28 51.7085H41.6L49.85 72.7085H44.69L40.73 62.0585C40.57 61.6385 40.41 61.1885 40.25 60.7085C40.09 60.2285 39.93 59.7385 39.77 59.2385C39.61 58.7185 39.45 58.2185 39.29 57.7385C39.15 57.2385 39.03 56.7785 38.93 56.3585L39.83 56.3285C39.71 56.8285 39.57 57.3185 39.41 57.7985C39.27 58.2785 39.12 58.7585 38.96 59.2385C38.82 59.6985 38.66 60.1685 38.48 60.6485C38.3 61.1085 38.13 61.5885 37.97 62.0885L34.01 72.7085H28.97ZM32.93 68.6885L34.52 64.8485H44.18L45.74 68.6885H32.93ZM52.4701 72.7085V51.7085H57.0301L68.0401 66.7085L67.0501 66.5585C66.9501 65.8985 66.8701 65.2685 66.8101 64.6685C66.7501 64.0685 66.6901 63.4785 66.6301 62.8985C66.5901 62.3185 66.5501 61.7285 66.5101 61.1285C66.4901 60.5285 66.4701 59.8785 66.4501 59.1785C66.4501 58.4785 66.4501 57.7185 66.4501 56.8985V51.7085H71.4001V72.7085H66.7801L55.2901 57.2285L56.8201 57.4385C56.9201 58.3985 57.0001 59.2185 57.0601 59.8985C57.1401 60.5585 57.2001 61.1485 57.2401 61.6685C57.3001 62.1885 57.3401 62.6585 57.3601 63.0785C57.3801 63.4985 57.3901 63.9185 57.3901 64.3385C57.4101 64.7385 57.4201 65.1885 57.4201 65.6885V72.7085H52.4701ZM82.0993 72.7085V62.2385L82.3093 63.7085L73.8193 51.7085H79.6093L86.0893 61.0085L83.4493 60.9185L89.2993 51.7085H94.9093L86.7793 64.0385L87.2293 61.9985V72.7085H82.0993ZM32.19 88.7545C31.2953 88.1972 30.6133 87.5005 30.144 86.6645C29.6747 85.8285 29.44 84.8972 29.44 83.8705C29.44 82.8512 29.6747 81.9235 30.144 81.0875C30.6207 80.2442 31.3063 79.5438 32.201 78.9865L33.191 79.9215C32.5163 80.3908 32.0103 80.9702 31.673 81.6595C31.343 82.3488 31.178 83.0858 31.178 83.8705C31.178 84.6552 31.343 85.3922 31.673 86.0815C32.0103 86.7708 32.5163 87.3502 33.191 87.8195L32.19 88.7545ZM33.2751 86.7085L36.3221 79.0085H37.9061L40.9311 86.7085H39.0391L37.5871 82.8035C37.5285 82.6495 37.4698 82.4845 37.4111 82.3085C37.3525 82.1325 37.2938 81.9528 37.2351 81.7695C37.1765 81.5788 37.1178 81.3955 37.0591 81.2195C37.0078 81.0362 36.9638 80.8675 36.9271 80.7135L37.2571 80.7025C37.2131 80.8858 37.1618 81.0655 37.1031 81.2415C37.0518 81.4175 36.9968 81.5935 36.9381 81.7695C36.8868 81.9382 36.8281 82.1105 36.7621 82.2865C36.6961 82.4552 36.6338 82.6312 36.5751 82.8145L35.1231 86.7085H33.2751ZM34.7271 85.2345L35.3101 83.8265H38.8521L39.4241 85.2345H34.7271ZM41.7048 86.7085V80.8675H43.3768L43.4318 82.0555L43.0798 82.1875C43.1605 81.9235 43.3035 81.6852 43.5088 81.4725C43.7215 81.2525 43.9745 81.0765 44.2678 80.9445C44.5612 80.8125 44.8692 80.7465 45.1918 80.7465C45.6318 80.7465 46.0022 80.8382 46.3028 81.0215C46.6035 81.1975 46.8308 81.4652 46.9848 81.8245C47.1388 82.1765 47.2158 82.6092 47.2158 83.1225V86.7085H45.4448V83.2655C45.4448 83.0308 45.4118 82.8365 45.3458 82.6825C45.2798 82.5285 45.1772 82.4148 45.0378 82.3415C44.9058 82.2608 44.7408 82.2242 44.5428 82.2315C44.3888 82.2315 44.2458 82.2572 44.1138 82.3085C43.9818 82.3525 43.8682 82.4222 43.7728 82.5175C43.6775 82.6055 43.6005 82.7082 43.5418 82.8255C43.4905 82.9428 43.4648 83.0712 43.4648 83.2105V86.7085H42.5958C42.3905 86.7085 42.2145 86.7085 42.0678 86.7085C41.9212 86.7085 41.8002 86.7085 41.7048 86.7085ZM49.3705 89.2385L50.7015 86.1035L50.7235 87.0055L47.9075 80.8675H49.8985L51.1305 83.8045C51.1965 83.9512 51.2589 84.1088 51.3175 84.2775C51.3762 84.4462 51.4202 84.6075 51.4495 84.7615L51.2075 84.9045C51.2515 84.7945 51.2992 84.6588 51.3505 84.4975C51.4092 84.3288 51.4715 84.1492 51.5375 83.9585L52.6155 80.8675H54.6175L52.1315 86.7085L51.1195 89.2385H49.3705ZM56.7308 86.7085L54.8058 80.8675H56.6648L57.7428 84.6625L57.5118 84.6185L58.7218 81.6705H59.7558L61.0318 84.6295L60.7788 84.6515L61.8568 80.8675H63.7158L61.7248 86.7085H60.4268L59.1618 83.5735L59.2938 83.5955L58.0288 86.7085H56.7308ZM64.6287 86.7085V78.5685H66.3557V82.0555L66.0037 82.1875C66.0843 81.9235 66.2273 81.6852 66.4327 81.4725C66.6453 81.2525 66.8983 81.0765 67.1917 80.9445C67.485 80.8125 67.793 80.7465 68.1157 80.7465C68.5557 80.7465 68.926 80.8382 69.2267 81.0215C69.5273 81.1975 69.7547 81.4652 69.9087 81.8245C70.0627 82.1765 70.1397 82.6092 70.1397 83.1225V86.7085H68.3687V83.2655C68.3687 83.0308 68.3357 82.8365 68.2697 82.6825C68.2037 82.5285 68.101 82.4148 67.9617 82.3415C67.8297 82.2608 67.6647 82.2242 67.4667 82.2315C67.3127 82.2315 67.1697 82.2572 67.0377 82.3085C66.9057 82.3525 66.792 82.4222 66.6967 82.5175C66.6013 82.6055 66.5243 82.7082 66.4657 82.8255C66.4143 82.9428 66.3887 83.0712 66.3887 83.2105V86.7085H65.5197C65.3143 86.7085 65.1383 86.7085 64.9917 86.7085C64.845 86.7085 64.724 86.7085 64.6287 86.7085ZM74.3941 86.8185C73.7487 86.8185 73.1877 86.6902 72.7111 86.4335C72.2344 86.1695 71.8641 85.8138 71.6001 85.3665C71.3361 84.9118 71.2041 84.3948 71.2041 83.8155C71.2041 83.3682 71.2774 82.9575 71.4241 82.5835C71.5707 82.2095 71.7761 81.8868 72.0401 81.6155C72.3041 81.3368 72.6157 81.1242 72.9751 80.9775C73.3417 80.8235 73.7414 80.7465 74.1741 80.7465C74.5847 80.7465 74.9587 80.8198 75.2961 80.9665C75.6407 81.1132 75.9377 81.3185 76.1871 81.5825C76.4364 81.8465 76.6271 82.1582 76.7591 82.5175C76.8911 82.8768 76.9497 83.2692 76.9351 83.6945L76.9241 84.1675H72.2711L72.0181 83.1775H75.4941L75.3071 83.3865V83.1665C75.2924 82.9832 75.2337 82.8218 75.1311 82.6825C75.0357 82.5358 74.9074 82.4222 74.7461 82.3415C74.5847 82.2608 74.4014 82.2205 74.1961 82.2205C73.9101 82.2205 73.6644 82.2792 73.4591 82.3965C73.2611 82.5065 73.1107 82.6715 73.0081 82.8915C72.9054 83.1042 72.8541 83.3682 72.8541 83.6835C72.8541 84.0062 72.9201 84.2885 73.0521 84.5305C73.1914 84.7652 73.3894 84.9485 73.6461 85.0805C73.9101 85.2125 74.2217 85.2785 74.5811 85.2785C74.8304 85.2785 75.0504 85.2418 75.2411 85.1685C75.4391 85.0952 75.6517 84.9705 75.8791 84.7945L76.7041 85.9605C76.4767 86.1585 76.2347 86.3198 75.9781 86.4445C75.7214 86.5692 75.4574 86.6608 75.1861 86.7195C74.9221 86.7855 74.6581 86.8185 74.3941 86.8185ZM78.0564 86.7085V80.8675H79.7284L79.8054 82.7705L79.4754 82.4075C79.5634 82.0922 79.7064 81.8098 79.9044 81.5605C80.1097 81.3112 80.3481 81.1132 80.6194 80.9665C80.8907 80.8198 81.1804 80.7465 81.4884 80.7465C81.6204 80.7465 81.7414 80.7575 81.8514 80.7795C81.9687 80.8015 82.0751 80.8272 82.1704 80.8565L81.6864 82.8035C81.6057 82.7522 81.4957 82.7118 81.3564 82.6825C81.2244 82.6458 81.0851 82.6275 80.9384 82.6275C80.7771 82.6275 80.6267 82.6568 80.4874 82.7155C80.3481 82.7668 80.2307 82.8438 80.1354 82.9465C80.0401 83.0492 79.9631 83.1702 79.9044 83.3095C79.8531 83.4488 79.8274 83.6065 79.8274 83.7825V86.7085H78.0564ZM85.5982 86.8185C84.9528 86.8185 84.3918 86.6902 83.9152 86.4335C83.4385 86.1695 83.0682 85.8138 82.8042 85.3665C82.5402 84.9118 82.4082 84.3948 82.4082 83.8155C82.4082 83.3682 82.4815 82.9575 82.6282 82.5835C82.7748 82.2095 82.9802 81.8868 83.2442 81.6155C83.5082 81.3368 83.8198 81.1242 84.1792 80.9775C84.5458 80.8235 84.9455 80.7465 85.3782 80.7465C85.7888 80.7465 86.1628 80.8198 86.5002 80.9665C86.8448 81.1132 87.1418 81.3185 87.3912 81.5825C87.6405 81.8465 87.8312 82.1582 87.9632 82.5175C88.0952 82.8768 88.1538 83.2692 88.1392 83.6945L88.1282 84.1675H83.4752L83.2222 83.1775H86.6982L86.5112 83.3865V83.1665C86.4965 82.9832 86.4378 82.8218 86.3352 82.6825C86.2398 82.5358 86.1115 82.4222 85.9502 82.3415C85.7888 82.2608 85.6055 82.2205 85.4002 82.2205C85.1142 82.2205 84.8685 82.2792 84.6632 82.3965C84.4652 82.5065 84.3148 82.6715 84.2122 82.8915C84.1095 83.1042 84.0582 83.3682 84.0582 83.6835C84.0582 84.0062 84.1242 84.2885 84.2562 84.5305C84.3955 84.7652 84.5935 84.9485 84.8502 85.0805C85.1142 85.2125 85.4258 85.2785 85.7852 85.2785C86.0345 85.2785 86.2545 85.2418 86.4452 85.1685C86.6432 85.0952 86.8558 84.9705 87.0832 84.7945L87.9082 85.9605C87.6808 86.1585 87.4388 86.3198 87.1822 86.4445C86.9255 86.5692 86.6615 86.6608 86.3902 86.7195C86.1262 86.7855 85.8622 86.8185 85.5982 86.8185ZM92.8829 86.7085V80.8675H94.6429V86.7085H92.8829ZM93.7629 79.7125C93.4329 79.7125 93.1726 79.6355 92.9819 79.4815C92.7986 79.3202 92.7069 79.0928 92.7069 78.7995C92.7069 78.5355 92.8023 78.3192 92.9929 78.1505C93.1836 77.9818 93.4403 77.8975 93.7629 77.8975C94.0929 77.8975 94.3496 77.9782 94.5329 78.1395C94.7163 78.2935 94.8079 78.5135 94.8079 78.7995C94.8079 79.0708 94.7126 79.2908 94.5219 79.4595C94.3386 79.6282 94.0856 79.7125 93.7629 79.7125ZM96.2966 86.7085V80.8675H97.9686L98.0236 82.0555L97.6716 82.1875C97.7523 81.9235 97.8953 81.6852 98.1006 81.4725C98.3133 81.2525 98.5663 81.0765 98.8596 80.9445C99.153 80.8125 99.461 80.7465 99.7836 80.7465C100.224 80.7465 100.594 80.8382 100.895 81.0215C101.195 81.1975 101.423 81.4652 101.577 81.8245C101.731 82.1765 101.808 82.6092 101.808 83.1225V86.7085H100.037V83.2655C100.037 83.0308 100.004 82.8365 99.9376 82.6825C99.8716 82.5285 99.769 82.4148 99.6296 82.3415C99.4976 82.2608 99.3326 82.2242 99.1346 82.2315C98.9806 82.2315 98.8376 82.2572 98.7056 82.3085C98.5736 82.3525 98.46 82.4222 98.3646 82.5175C98.2693 82.6055 98.1923 82.7082 98.1336 82.8255C98.0823 82.9428 98.0566 83.0712 98.0566 83.2105V86.7085H97.1876C96.9823 86.7085 96.8063 86.7085 96.6596 86.7085C96.513 86.7085 96.392 86.7085 96.2966 86.7085ZM107.286 86.7085V79.3935H109.046V86.7085H107.286ZM106.252 82.4075V80.8675H110.179V82.4075H106.252ZM111.185 86.7085V78.5685H112.912V82.0555L112.56 82.1875C112.641 81.9235 112.784 81.6852 112.989 81.4725C113.202 81.2525 113.455 81.0765 113.748 80.9445C114.042 80.8125 114.35 80.7465 114.672 80.7465C115.112 80.7465 115.483 80.8382 115.783 81.0215C116.084 81.1975 116.311 81.4652 116.465 81.8245C116.619 82.1765 116.696 82.6092 116.696 83.1225V86.7085H114.925V83.2655C114.925 83.0308 114.892 82.8365 114.826 82.6825C114.76 82.5285 114.658 82.4148 114.518 82.3415C114.386 82.2608 114.221 82.2242 114.023 82.2315C113.869 82.2315 113.726 82.2572 113.594 82.3085C113.462 82.3525 113.349 82.4222 113.253 82.5175C113.158 82.6055 113.081 82.7082 113.022 82.8255C112.971 82.9428 112.945 83.0712 112.945 83.2105V86.7085H112.076C111.871 86.7085 111.695 86.7085 111.548 86.7085C111.402 86.7085 111.281 86.7085 111.185 86.7085ZM120.951 86.8185C120.305 86.8185 119.744 86.6902 119.268 86.4335C118.791 86.1695 118.421 85.8138 118.157 85.3665C117.893 84.9118 117.761 84.3948 117.761 83.8155C117.761 83.3682 117.834 82.9575 117.981 82.5835C118.127 82.2095 118.333 81.8868 118.597 81.6155C118.861 81.3368 119.172 81.1242 119.532 80.9775C119.898 80.8235 120.298 80.7465 120.731 80.7465C121.141 80.7465 121.515 80.8198 121.853 80.9665C122.197 81.1132 122.494 81.3185 122.744 81.5825C122.993 81.8465 123.184 82.1582 123.316 82.5175C123.448 82.8768 123.506 83.2692 123.492 83.6945L123.481 84.1675H118.828L118.575 83.1775H122.051L121.864 83.3865V83.1665C121.849 82.9832 121.79 82.8218 121.688 82.6825C121.592 82.5358 121.464 82.4222 121.303 82.3415C121.141 82.2608 120.958 82.2205 120.753 82.2205C120.467 82.2205 120.221 82.2792 120.016 82.3965C119.818 82.5065 119.667 82.6715 119.565 82.8915C119.462 83.1042 119.411 83.3682 119.411 83.6835C119.411 84.0062 119.477 84.2885 119.609 84.5305C119.748 84.7652 119.946 84.9485 120.203 85.0805C120.467 85.2125 120.778 85.2785 121.138 85.2785C121.387 85.2785 121.607 85.2418 121.798 85.1685C121.996 85.0952 122.208 84.9705 122.436 84.7945L123.261 85.9605C123.033 86.1585 122.791 86.3198 122.535 86.4445C122.278 86.5692 122.014 86.6608 121.743 86.7195C121.479 86.7855 121.215 86.8185 120.951 86.8185ZM129.709 86.7085L127.399 79.0085H129.302L130.457 83.0565C130.509 83.2398 130.553 83.4268 130.589 83.6175C130.633 83.8008 130.666 83.9768 130.688 84.1455C130.718 84.3142 130.74 84.4718 130.754 84.6185C130.769 84.7578 130.784 84.8752 130.798 84.9705H130.556C130.6 84.6992 130.637 84.4572 130.666 84.2445C130.703 84.0318 130.743 83.8338 130.787 83.6505C130.831 83.4598 130.886 83.2618 130.952 83.0565L132.096 80.0095H133.592L134.714 83.0565C134.802 83.2985 134.876 83.5258 134.934 83.7385C134.993 83.9512 135.037 84.1565 135.066 84.3545C135.103 84.5452 135.132 84.7358 135.154 84.9265L134.934 84.9595C134.949 84.8275 134.96 84.7065 134.967 84.5965C134.975 84.4792 134.982 84.3692 134.989 84.2665C135.004 84.1565 135.019 84.0428 135.033 83.9255C135.048 83.8082 135.07 83.6798 135.099 83.5405C135.129 83.3938 135.169 83.2288 135.22 83.0455L136.364 79.0085H138.223L135.913 86.7085H134.483L132.657 82.2755L132.866 82.2975L131.183 86.7085H129.709ZM141.532 86.8185C140.923 86.8185 140.381 86.6865 139.904 86.4225C139.435 86.1585 139.061 85.7992 138.782 85.3445C138.511 84.8898 138.375 84.3692 138.375 83.7825C138.375 83.1958 138.511 82.6752 138.782 82.2205C139.061 81.7658 139.435 81.4065 139.904 81.1425C140.381 80.8785 140.923 80.7465 141.532 80.7465C142.141 80.7465 142.68 80.8785 143.149 81.1425C143.626 81.4065 144 81.7658 144.271 82.2205C144.542 82.6752 144.678 83.1958 144.678 83.7825C144.678 84.3692 144.542 84.8898 144.271 85.3445C144 85.7992 143.626 86.1585 143.149 86.4225C142.68 86.6865 142.141 86.8185 141.532 86.8185ZM141.532 85.3005C141.796 85.3005 142.031 85.2345 142.236 85.1025C142.441 84.9705 142.603 84.7908 142.72 84.5635C142.837 84.3362 142.892 84.0758 142.885 83.7825C142.892 83.4892 142.837 83.2288 142.72 83.0015C142.603 82.7668 142.441 82.5835 142.236 82.4515C142.031 82.3195 141.796 82.2535 141.532 82.2535C141.268 82.2535 141.03 82.3195 140.817 82.4515C140.612 82.5835 140.45 82.7668 140.333 83.0015C140.216 83.2288 140.161 83.4892 140.168 83.7825C140.161 84.0758 140.216 84.3362 140.333 84.5635C140.45 84.7908 140.612 84.9705 140.817 85.1025C141.03 85.2345 141.268 85.3005 141.532 85.3005ZM145.829 86.7085V80.8675H147.501L147.578 82.7705L147.248 82.4075C147.336 82.0922 147.479 81.8098 147.677 81.5605C147.882 81.3112 148.121 81.1132 148.392 80.9665C148.663 80.8198 148.953 80.7465 149.261 80.7465C149.393 80.7465 149.514 80.7575 149.624 80.7795C149.741 80.8015 149.848 80.8272 149.943 80.8565L149.459 82.8035C149.378 82.7522 149.268 82.7118 149.129 82.6825C148.997 82.6458 148.858 82.6275 148.711 82.6275C148.55 82.6275 148.399 82.6568 148.26 82.7155C148.121 82.7668 148.003 82.8438 147.908 82.9465C147.813 83.0492 147.736 83.1702 147.677 83.3095C147.626 83.4488 147.6 83.6065 147.6 83.7825V86.7085H145.829ZM150.846 86.7085V78.5685H152.606V86.7085H150.846ZM156.279 86.8295C155.773 86.8295 155.322 86.7012 154.926 86.4445C154.537 86.1805 154.229 85.8212 154.002 85.3665C153.775 84.9045 153.661 84.3802 153.661 83.7935C153.661 83.2068 153.775 82.6862 154.002 82.2315C154.229 81.7695 154.541 81.4065 154.937 81.1425C155.333 80.8785 155.788 80.7465 156.301 80.7465C156.565 80.7465 156.818 80.7868 157.06 80.8675C157.302 80.9482 157.522 81.0582 157.72 81.1975C157.918 81.3368 158.079 81.4982 158.204 81.6815C158.329 81.8575 158.402 82.0408 158.424 82.2315L158.006 82.3305V78.5685H159.777V86.7085H158.138L158.039 85.3775L158.391 85.4325C158.369 85.6158 158.296 85.7918 158.171 85.9605C158.054 86.1292 157.9 86.2795 157.709 86.4115C157.518 86.5362 157.298 86.6352 157.049 86.7085C156.807 86.7892 156.55 86.8295 156.279 86.8295ZM156.73 85.3665C157.001 85.3665 157.236 85.3005 157.434 85.1685C157.632 85.0365 157.782 84.8532 157.885 84.6185C157.995 84.3838 158.05 84.1088 158.05 83.7935C158.05 83.4708 157.995 83.1922 157.885 82.9575C157.782 82.7228 157.632 82.5395 157.434 82.4075C157.236 82.2755 157.001 82.2095 156.73 82.2095C156.459 82.2095 156.224 82.2755 156.026 82.4075C155.835 82.5395 155.685 82.7228 155.575 82.9575C155.465 83.1922 155.41 83.4708 155.41 83.7935C155.41 84.1088 155.465 84.3838 155.575 84.6185C155.685 84.8532 155.835 85.0365 156.026 85.1685C156.224 85.3005 156.459 85.3665 156.73 85.3665ZM161.573 88.7545L160.583 87.8195C161.258 87.3502 161.76 86.7708 162.09 86.0815C162.42 85.3922 162.585 84.6552 162.585 83.8705C162.585 83.0858 162.42 82.3488 162.09 81.6595C161.76 80.9702 161.258 80.3908 160.583 79.9215L161.584 78.9865C162.479 79.5438 163.161 80.2405 163.63 81.0765C164.1 81.9125 164.334 82.8438 164.334 83.8705C164.334 84.8898 164.096 85.8212 163.619 86.6645C163.15 87.5005 162.468 88.1972 161.573 88.7545Z" fill="#3C2415"/>
<path d="M30.8871 48V34H33.4871V48H30.8871ZM32.0871 42.26V39.9H39.3071V42.26H32.0871ZM32.0871 36.4V34H40.1671V36.4H32.0871ZM42.4393 48V37.46H44.8593L44.8993 40.82L44.5593 40.06C44.7059 39.5267 44.9593 39.0467 45.3193 38.62C45.6793 38.1933 46.0926 37.86 46.5593 37.62C47.0393 37.3667 47.5393 37.24 48.0593 37.24C48.2859 37.24 48.4993 37.26 48.6993 37.3C48.9126 37.34 49.0859 37.3867 49.2193 37.44L48.5593 40.14C48.4126 40.06 48.2326 39.9933 48.0193 39.94C47.8059 39.8867 47.5926 39.86 47.3793 39.86C47.0459 39.86 46.7259 39.9267 46.4193 40.06C46.1259 40.18 45.8659 40.3533 45.6393 40.58C45.4126 40.8067 45.2326 41.0733 45.0993 41.38C44.9793 41.6733 44.9193 42.0067 44.9193 42.38V48H42.4393ZM55.228 48.2C54.1747 48.2 53.2347 47.9667 52.408 47.5C51.5814 47.02 50.928 46.3667 50.448 45.54C49.968 44.7133 49.728 43.7733 49.728 42.72C49.728 41.6667 49.968 40.7267 50.448 39.9C50.928 39.0733 51.5814 38.4267 52.408 37.96C53.2347 37.48 54.1747 37.24 55.228 37.24C56.268 37.24 57.2014 37.48 58.028 37.96C58.8547 38.4267 59.5014 39.0733 59.968 39.9C60.448 40.7267 60.688 41.6667 60.688 42.72C60.688 43.7733 60.448 44.7133 59.968 45.54C59.5014 46.3667 58.8547 47.02 58.028 47.5C57.2014 47.9667 56.268 48.2 55.228 48.2ZM55.228 46.02C55.8014 46.02 56.308 45.8733 56.748 45.58C57.2014 45.2867 57.5547 44.8933 57.808 44.4C58.0747 43.9067 58.2014 43.3467 58.188 42.72C58.2014 42.08 58.0747 41.5133 57.808 41.02C57.5547 40.5267 57.2014 40.14 56.748 39.86C56.308 39.5667 55.8014 39.42 55.228 39.42C54.6547 39.42 54.1347 39.5667 53.668 39.86C53.2147 40.14 52.8614 40.5333 52.608 41.04C52.3547 41.5333 52.228 42.0933 52.228 42.72C52.228 43.3467 52.3547 43.9067 52.608 44.4C52.8614 44.8933 53.2147 45.2867 53.668 45.58C54.1347 45.8733 54.6547 46.02 55.228 46.02ZM62.8485 48V37.46H65.2685L65.3085 39.58L64.9085 39.74C65.0285 39.3933 65.2085 39.0733 65.4485 38.78C65.6885 38.4733 65.9752 38.2133 66.3085 38C66.6418 37.7733 66.9952 37.6 67.3685 37.48C67.7418 37.3467 68.1218 37.28 68.5085 37.28C69.0818 37.28 69.5885 37.3733 70.0285 37.56C70.4818 37.7333 70.8552 38.0133 71.1485 38.4C71.4552 38.7867 71.6818 39.28 71.8285 39.88L71.4485 39.8L71.6085 39.48C71.7552 39.16 71.9618 38.8733 72.2285 38.62C72.4952 38.3533 72.7952 38.12 73.1285 37.92C73.4618 37.7067 73.8085 37.5467 74.1685 37.44C74.5418 37.3333 74.9085 37.28 75.2685 37.28C76.0685 37.28 76.7352 37.44 77.2685 37.76C77.8018 38.08 78.2018 38.5667 78.4685 39.22C78.7352 39.8733 78.8685 40.68 78.8685 41.64V48H76.3885V41.8C76.3885 41.2667 76.3152 40.8267 76.1685 40.48C76.0352 40.1333 75.8218 39.88 75.5285 39.72C75.2485 39.5467 74.8952 39.46 74.4685 39.46C74.1352 39.46 73.8152 39.52 73.5085 39.64C73.2152 39.7467 72.9618 39.9067 72.7485 40.12C72.5352 40.32 72.3685 40.5533 72.2485 40.82C72.1285 41.0867 72.0685 41.38 72.0685 41.7V48H69.5885V41.78C69.5885 41.2733 69.5152 40.8533 69.3685 40.52C69.2218 40.1733 69.0085 39.9133 68.7285 39.74C68.4485 39.5533 68.1085 39.46 67.7085 39.46C67.3752 39.46 67.0618 39.52 66.7685 39.64C66.4752 39.7467 66.2218 39.9 66.0085 40.1C65.7952 40.3 65.6285 40.5333 65.5085 40.8C65.3885 41.0667 65.3285 41.36 65.3285 41.68V48H62.8485Z" fill="#3C2415"/>
<path d="M211.757 72.7086L205.457 51.7086H210.647L213.797 62.7486C213.937 63.2486 214.057 63.7586 214.157 64.2786C214.277 64.7786 214.367 65.2586 214.427 65.7186C214.507 66.1786 214.567 66.6086 214.607 67.0086C214.647 67.3886 214.687 67.7086 214.727 67.9686H214.067C214.187 67.2286 214.287 66.5686 214.367 65.9886C214.467 65.4086 214.577 64.8686 214.697 64.3686C214.817 63.8486 214.967 63.3086 215.147 62.7486L218.267 54.4386H222.347L225.407 62.7486C225.647 63.4086 225.847 64.0286 226.007 64.6086C226.167 65.1886 226.287 65.7486 226.367 66.2886C226.467 66.8086 226.547 67.3286 226.607 67.8486L226.007 67.9386C226.047 67.5786 226.077 67.2486 226.097 66.9486C226.117 66.6286 226.137 66.3286 226.157 66.0486C226.197 65.7486 226.237 65.4386 226.277 65.1186C226.317 64.7986 226.377 64.4486 226.457 64.0686C226.537 63.6686 226.647 63.2186 226.787 62.7186L229.907 51.7086H234.977L228.677 72.7086H224.777L219.797 60.6186L220.367 60.6786L215.777 72.7086H211.757ZM237.772 72.7086V51.7086H242.872V72.7086H237.772ZM240.142 64.6686V60.4086H251.002V64.6686H240.142ZM240.142 56.2086V51.7086H252.232V56.2086H240.142ZM256.317 72.7086V51.7086H265.377C266.697 51.7086 267.867 52.0086 268.887 52.6086C269.927 53.2086 270.747 54.0286 271.347 55.0686C271.967 56.1086 272.277 57.2786 272.277 58.5786C272.277 59.9386 271.967 61.1586 271.347 62.2386C270.747 63.2986 269.927 64.1386 268.887 64.7586C267.867 65.3786 266.697 65.6886 265.377 65.6886H261.417V72.7086H256.317ZM261.327 61.2186H264.657C265.097 61.2186 265.497 61.1086 265.857 60.8886C266.217 60.6686 266.507 60.3686 266.727 59.9886C266.947 59.6086 267.057 59.1686 267.057 58.6686C267.057 58.1486 266.947 57.7086 266.727 57.3486C266.507 56.9886 266.217 56.7086 265.857 56.5086C265.497 56.3086 265.097 56.2086 264.657 56.2086H261.327V61.2186ZM208.527 88.7546C207.632 88.1972 206.95 87.5006 206.481 86.6646C206.012 85.8286 205.777 84.8972 205.777 83.8706C205.777 82.8512 206.012 81.9236 206.481 81.0876C206.958 80.2442 207.643 79.5439 208.538 78.9866L209.528 79.9216C208.853 80.3909 208.347 80.9702 208.01 81.6596C207.68 82.3489 207.515 83.0859 207.515 83.8706C207.515 84.6552 207.68 85.3922 208.01 86.0816C208.347 86.7709 208.853 87.3502 209.528 87.8196L208.527 88.7546ZM211.977 86.7086L209.667 79.0086H211.57L212.725 83.0566C212.777 83.2399 212.821 83.4269 212.857 83.6176C212.901 83.8009 212.934 83.9769 212.956 84.1456C212.986 84.3142 213.008 84.4719 213.022 84.6186C213.037 84.7579 213.052 84.8752 213.066 84.9706H212.824C212.868 84.6992 212.905 84.4572 212.934 84.2446C212.971 84.0319 213.011 83.8339 213.055 83.6506C213.099 83.4599 213.154 83.2619 213.22 83.0566L214.364 80.0096H215.86L216.982 83.0566C217.07 83.2986 217.144 83.5259 217.202 83.7386C217.261 83.9512 217.305 84.1566 217.334 84.3546C217.371 84.5452 217.4 84.7359 217.422 84.9266L217.202 84.9596C217.217 84.8276 217.228 84.7066 217.235 84.5966C217.243 84.4792 217.25 84.3692 217.257 84.2666C217.272 84.1566 217.287 84.0429 217.301 83.9256C217.316 83.8082 217.338 83.6799 217.367 83.5406C217.397 83.3939 217.437 83.2289 217.488 83.0456L218.632 79.0086H220.491L218.181 86.7086H216.751L214.925 82.2756L215.134 82.2976L213.451 86.7086H211.977ZM223.206 86.8076C222.714 86.8076 222.274 86.6792 221.886 86.4226C221.504 86.1586 221.2 85.7992 220.973 85.3446C220.745 84.8826 220.632 84.3619 220.632 83.7826C220.632 83.1886 220.745 82.6642 220.973 82.2096C221.2 81.7549 221.512 81.3992 221.908 81.1426C222.304 80.8786 222.755 80.7466 223.261 80.7466C223.539 80.7466 223.792 80.7869 224.02 80.8676C224.254 80.9482 224.46 81.0619 224.636 81.2086C224.812 81.3479 224.962 81.5129 225.087 81.7036C225.211 81.8869 225.303 82.0849 225.362 82.2976L224.999 82.2536V80.8676H226.748V86.7086H224.966V85.3006L225.362 85.2896C225.303 85.4949 225.208 85.6892 225.076 85.8726C224.944 86.0559 224.782 86.2172 224.592 86.3566C224.401 86.4959 224.188 86.6059 223.954 86.6866C223.719 86.7672 223.47 86.8076 223.206 86.8076ZM223.69 85.3226C223.961 85.3226 224.196 85.2602 224.394 85.1356C224.592 85.0109 224.746 84.8349 224.856 84.6076C224.966 84.3729 225.021 84.0979 225.021 83.7826C225.021 83.4672 224.966 83.1959 224.856 82.9686C224.746 82.7339 224.592 82.5542 224.394 82.4296C224.196 82.2976 223.961 82.2316 223.69 82.2316C223.426 82.2316 223.195 82.2976 222.997 82.4296C222.806 82.5542 222.656 82.7339 222.546 82.9686C222.436 83.1959 222.381 83.4672 222.381 83.7826C222.381 84.0979 222.436 84.3729 222.546 84.6076C222.656 84.8349 222.806 85.0109 222.997 85.1356C223.195 85.2602 223.426 85.3226 223.69 85.3226ZM228.664 86.7086V80.5816C228.664 80.2002 228.744 79.8556 228.906 79.5476C229.074 79.2396 229.305 78.9976 229.599 78.8216C229.899 78.6382 230.248 78.5466 230.644 78.5466C230.922 78.5466 231.179 78.5869 231.414 78.6676C231.648 78.7482 231.857 78.8619 232.041 79.0086L231.535 80.2956C231.439 80.2442 231.348 80.2039 231.26 80.1746C231.172 80.1452 231.091 80.1306 231.018 80.1306C230.886 80.1306 230.776 80.1526 230.688 80.1966C230.6 80.2406 230.534 80.3102 230.49 80.4056C230.453 80.4936 230.435 80.6036 230.435 80.7356V86.7086H229.555C229.357 86.7086 229.181 86.7086 229.027 86.7086C228.88 86.7086 228.759 86.7086 228.664 86.7086ZM227.817 82.4846V81.0326H231.634V82.4846H227.817ZM232.987 86.7086V80.5816C232.987 80.2002 233.067 79.8556 233.229 79.5476C233.397 79.2396 233.628 78.9976 233.922 78.8216C234.222 78.6382 234.571 78.5466 234.967 78.5466C235.245 78.5466 235.502 78.5869 235.737 78.6676C235.971 78.7482 236.18 78.8619 236.364 79.0086L235.858 80.2956C235.762 80.2442 235.671 80.2039 235.583 80.1746C235.495 80.1452 235.414 80.1306 235.341 80.1306C235.209 80.1306 235.099 80.1526 235.011 80.1966C234.923 80.2406 234.857 80.3102 234.813 80.4056C234.776 80.4936 234.758 80.6036 234.758 80.7356V86.7086H233.878C233.68 86.7086 233.504 86.7086 233.35 86.7086C233.203 86.7086 233.082 86.7086 232.987 86.7086ZM232.14 82.4846V81.0326H235.957V82.4846H232.14ZM236.958 86.7086V78.5686H238.718V86.7086H236.958ZM242.965 86.8186C242.319 86.8186 241.758 86.6902 241.282 86.4336C240.805 86.1696 240.435 85.8139 240.171 85.3666C239.907 84.9119 239.775 84.3949 239.775 83.8156C239.775 83.3682 239.848 82.9576 239.995 82.5836C240.141 82.2096 240.347 81.8869 240.611 81.6156C240.875 81.3369 241.186 81.1242 241.546 80.9776C241.912 80.8236 242.312 80.7466 242.745 80.7466C243.155 80.7466 243.529 80.8199 243.867 80.9666C244.211 81.1132 244.508 81.3186 244.758 81.5826C245.007 81.8466 245.198 82.1582 245.33 82.5176C245.462 82.8769 245.52 83.2692 245.506 83.6946L245.495 84.1676H240.842L240.589 83.1776H244.065L243.878 83.3866V83.1666C243.863 82.9832 243.804 82.8219 243.702 82.6826C243.606 82.5359 243.478 82.4222 243.317 82.3416C243.155 82.2609 242.972 82.2206 242.767 82.2206C242.481 82.2206 242.235 82.2792 242.03 82.3966C241.832 82.5066 241.681 82.6716 241.579 82.8916C241.476 83.1042 241.425 83.3682 241.425 83.6836C241.425 84.0062 241.491 84.2886 241.623 84.5306C241.762 84.7652 241.96 84.9486 242.217 85.0806C242.481 85.2126 242.792 85.2786 243.152 85.2786C243.401 85.2786 243.621 85.2419 243.812 85.1686C244.01 85.0952 244.222 84.9706 244.45 84.7946L245.275 85.9606C245.047 86.1586 244.805 86.3199 244.549 86.4446C244.292 86.5692 244.028 86.6609 243.757 86.7196C243.493 86.7856 243.229 86.8186 242.965 86.8186ZM250.337 86.7086V79.0086H253.659C254.143 79.0086 254.572 79.1186 254.946 79.3386C255.328 79.5586 255.628 79.8592 255.848 80.2406C256.076 80.6219 256.189 81.0509 256.189 81.5276C256.189 82.0262 256.076 82.4736 255.848 82.8696C255.628 83.2582 255.328 83.5662 254.946 83.7936C254.572 84.0209 254.143 84.1346 253.659 84.1346H252.207V86.7086H250.337ZM252.174 82.4956H253.395C253.557 82.4956 253.703 82.4552 253.835 82.3746C253.967 82.2939 254.074 82.1839 254.154 82.0446C254.235 81.9052 254.275 81.7439 254.275 81.5606C254.275 81.3699 254.235 81.2086 254.154 81.0766C254.074 80.9446 253.967 80.8419 253.835 80.7686C253.703 80.6952 253.557 80.6586 253.395 80.6586H252.174V82.4956ZM259.482 86.8076C258.991 86.8076 258.551 86.6792 258.162 86.4226C257.781 86.1586 257.476 85.7992 257.249 85.3446C257.022 84.8826 256.908 84.3619 256.908 83.7826C256.908 83.1886 257.022 82.6642 257.249 82.2096C257.476 81.7549 257.788 81.3992 258.184 81.1426C258.58 80.8786 259.031 80.7466 259.537 80.7466C259.816 80.7466 260.069 80.7869 260.296 80.8676C260.531 80.9482 260.736 81.0619 260.912 81.2086C261.088 81.3479 261.238 81.5129 261.363 81.7036C261.488 81.8869 261.579 82.0849 261.638 82.2976L261.275 82.2536V80.8676H263.024V86.7086H261.242V85.3006L261.638 85.2896C261.579 85.4949 261.484 85.6892 261.352 85.8726C261.22 86.0559 261.059 86.2172 260.868 86.3566C260.677 86.4959 260.465 86.6059 260.23 86.6866C259.995 86.7672 259.746 86.8076 259.482 86.8076ZM259.966 85.3226C260.237 85.3226 260.472 85.2602 260.67 85.1356C260.868 85.0109 261.022 84.8349 261.132 84.6076C261.242 84.3729 261.297 84.0979 261.297 83.7826C261.297 83.4672 261.242 83.1959 261.132 82.9686C261.022 82.7339 260.868 82.5542 260.67 82.4296C260.472 82.2976 260.237 82.2316 259.966 82.2316C259.702 82.2316 259.471 82.2976 259.273 82.4296C259.082 82.5542 258.932 82.7339 258.822 82.9686C258.712 83.1959 258.657 83.4672 258.657 83.7826C258.657 84.0979 258.712 84.3729 258.822 84.6076C258.932 84.8349 259.082 85.0109 259.273 85.1356C259.471 85.2602 259.702 85.3226 259.966 85.3226ZM264.577 86.7086V80.8676H266.249L266.326 82.7706L265.996 82.4076C266.084 82.0922 266.227 81.8099 266.425 81.5606C266.63 81.3112 266.869 81.1132 267.14 80.9666C267.411 80.8199 267.701 80.7466 268.009 80.7466C268.141 80.7466 268.262 80.7576 268.372 80.7796C268.489 80.8016 268.596 80.8272 268.691 80.8566L268.207 82.8036C268.126 82.7522 268.016 82.7119 267.877 82.6826C267.745 82.6459 267.606 82.6276 267.459 82.6276C267.298 82.6276 267.147 82.6569 267.008 82.7156C266.869 82.7669 266.751 82.8439 266.656 82.9466C266.561 83.0492 266.484 83.1702 266.425 83.3096C266.374 83.4489 266.348 83.6066 266.348 83.7826V86.7086H264.577ZM271.492 86.8076C271.001 86.8076 270.561 86.6792 270.172 86.4226C269.791 86.1586 269.486 85.7992 269.259 85.3446C269.032 84.8826 268.918 84.3619 268.918 83.7826C268.918 83.1886 269.032 82.6642 269.259 82.2096C269.486 81.7549 269.798 81.3992 270.194 81.1426C270.59 80.8786 271.041 80.7466 271.547 80.7466C271.826 80.7466 272.079 80.7869 272.306 80.8676C272.541 80.9482 272.746 81.0619 272.922 81.2086C273.098 81.3479 273.248 81.5129 273.373 81.7036C273.498 81.8869 273.589 82.0849 273.648 82.2976L273.285 82.2536V80.8676H275.034V86.7086H273.252V85.3006L273.648 85.2896C273.589 85.4949 273.494 85.6892 273.362 85.8726C273.23 86.0559 273.069 86.2172 272.878 86.3566C272.687 86.4959 272.475 86.6059 272.24 86.6866C272.005 86.7672 271.756 86.8076 271.492 86.8076ZM271.976 85.3226C272.247 85.3226 272.482 85.2602 272.68 85.1356C272.878 85.0109 273.032 84.8349 273.142 84.6076C273.252 84.3729 273.307 84.0979 273.307 83.7826C273.307 83.4672 273.252 83.1959 273.142 82.9686C273.032 82.7339 272.878 82.5542 272.68 82.4296C272.482 82.2976 272.247 82.2316 271.976 82.2316C271.712 82.2316 271.481 82.2976 271.283 82.4296C271.092 82.5542 270.942 82.7339 270.832 82.9686C270.722 83.1959 270.667 83.4672 270.667 83.7826C270.667 84.0979 270.722 84.3729 270.832 84.6076C270.942 84.8349 271.092 85.0109 271.283 85.1356C271.481 85.2602 271.712 85.3226 271.976 85.3226ZM278.798 86.8296C278.292 86.8296 277.841 86.7012 277.445 86.4446C277.056 86.1806 276.748 85.8212 276.521 85.3666C276.294 84.9046 276.18 84.3802 276.18 83.7936C276.18 83.2069 276.294 82.6862 276.521 82.2316C276.748 81.7696 277.06 81.4066 277.456 81.1426C277.852 80.8786 278.307 80.7466 278.82 80.7466C279.084 80.7466 279.337 80.7869 279.579 80.8676C279.821 80.9482 280.041 81.0582 280.239 81.1976C280.437 81.3369 280.598 81.4982 280.723 81.6816C280.848 81.8576 280.921 82.0409 280.943 82.2316L280.525 82.3306V78.5686H282.296V86.7086H280.657L280.558 85.3776L280.91 85.4326C280.888 85.6159 280.815 85.7919 280.69 85.9606C280.573 86.1292 280.419 86.2796 280.228 86.4116C280.037 86.5362 279.817 86.6352 279.568 86.7086C279.326 86.7892 279.069 86.8296 278.798 86.8296ZM279.249 85.3666C279.52 85.3666 279.755 85.3006 279.953 85.1686C280.151 85.0366 280.301 84.8532 280.404 84.6186C280.514 84.3839 280.569 84.1089 280.569 83.7936C280.569 83.4709 280.514 83.1922 280.404 82.9576C280.301 82.7229 280.151 82.5396 279.953 82.4076C279.755 82.2756 279.52 82.2096 279.249 82.2096C278.978 82.2096 278.743 82.2756 278.545 82.4076C278.354 82.5396 278.204 82.7229 278.094 82.9576C277.984 83.1922 277.929 83.4709 277.929 83.7936C277.929 84.1089 277.984 84.3839 278.094 84.6186C278.204 84.8532 278.354 85.0366 278.545 85.1686C278.743 85.3006 278.978 85.3666 279.249 85.3666ZM283.883 86.7086V80.8676H285.643V86.7086H283.883ZM284.763 79.7126C284.433 79.7126 284.173 79.6356 283.982 79.4816C283.799 79.3202 283.707 79.0929 283.707 78.7996C283.707 78.5356 283.803 78.3192 283.993 78.1506C284.184 77.9819 284.441 77.8976 284.763 77.8976C285.093 77.8976 285.35 77.9782 285.533 78.1396C285.717 78.2936 285.808 78.5136 285.808 78.7996C285.808 79.0709 285.713 79.2909 285.522 79.4596C285.339 79.6282 285.086 79.7126 284.763 79.7126ZM289.266 86.8186C288.694 86.8186 288.188 86.7269 287.748 86.5436C287.315 86.3602 286.971 86.1146 286.714 85.8066L287.781 84.8826C288.008 85.1099 288.265 85.2786 288.551 85.3886C288.837 85.4912 289.108 85.5426 289.365 85.5426C289.468 85.5426 289.559 85.5316 289.64 85.5096C289.721 85.4876 289.787 85.4582 289.838 85.4216C289.897 85.3776 289.941 85.3299 289.97 85.2786C289.999 85.2199 290.014 85.1539 290.014 85.0806C290.014 84.9339 289.948 84.8202 289.816 84.7396C289.75 84.7029 289.64 84.6589 289.486 84.6076C289.332 84.5562 289.134 84.4976 288.892 84.4316C288.547 84.3436 288.247 84.2409 287.99 84.1236C287.741 83.9989 287.535 83.8559 287.374 83.6946C287.227 83.5406 287.114 83.3719 287.033 83.1886C286.952 82.9979 286.912 82.7852 286.912 82.5506C286.912 82.2792 286.974 82.0336 287.099 81.8136C287.231 81.5936 287.403 81.4029 287.616 81.2416C287.836 81.0802 288.085 80.9592 288.364 80.8786C288.65 80.7906 288.943 80.7466 289.244 80.7466C289.567 80.7466 289.875 80.7832 290.168 80.8566C290.461 80.9299 290.733 81.0326 290.982 81.1646C291.239 81.2966 291.466 81.4542 291.664 81.6376L290.74 82.6716C290.608 82.5469 290.458 82.4369 290.289 82.3416C290.128 82.2389 289.959 82.1582 289.783 82.0996C289.607 82.0409 289.446 82.0116 289.299 82.0116C289.189 82.0116 289.09 82.0226 289.002 82.0446C288.921 82.0592 288.852 82.0886 288.793 82.1326C288.734 82.1692 288.69 82.2169 288.661 82.2756C288.632 82.3269 288.617 82.3892 288.617 82.4626C288.617 82.5359 288.635 82.6056 288.672 82.6716C288.716 82.7376 288.775 82.7926 288.848 82.8366C288.921 82.8806 289.039 82.9319 289.2 82.9906C289.361 83.0419 289.581 83.1079 289.86 83.1886C290.205 83.2839 290.502 83.3902 290.751 83.5076C291 83.6249 291.198 83.7642 291.345 83.9256C291.462 84.0502 291.55 84.1969 291.609 84.3656C291.668 84.5269 291.697 84.7029 291.697 84.8936C291.697 85.2676 291.591 85.6012 291.378 85.8946C291.173 86.1806 290.887 86.4079 290.52 86.5766C290.153 86.7379 289.735 86.8186 289.266 86.8186ZM295.526 86.8186C294.881 86.8186 294.32 86.6902 293.843 86.4336C293.366 86.1696 292.996 85.8139 292.732 85.3666C292.468 84.9119 292.336 84.3949 292.336 83.8156C292.336 83.3682 292.409 82.9576 292.556 82.5836C292.703 82.2096 292.908 81.8869 293.172 81.6156C293.436 81.3369 293.748 81.1242 294.107 80.9776C294.474 80.8236 294.873 80.7466 295.306 80.7466C295.717 80.7466 296.091 80.8199 296.428 80.9666C296.773 81.1132 297.07 81.3186 297.319 81.5826C297.568 81.8466 297.759 82.1582 297.891 82.5176C298.023 82.8769 298.082 83.2692 298.067 83.6946L298.056 84.1676H293.403L293.15 83.1776H296.626L296.439 83.3866V83.1666C296.424 82.9832 296.366 82.8219 296.263 82.6826C296.168 82.5359 296.039 82.4222 295.878 82.3416C295.717 82.2609 295.533 82.2206 295.328 82.2206C295.042 82.2206 294.796 82.2792 294.591 82.3966C294.393 82.5066 294.243 82.6716 294.14 82.8916C294.037 83.1042 293.986 83.3682 293.986 83.6836C293.986 84.0062 294.052 84.2886 294.184 84.5306C294.323 84.7652 294.521 84.9486 294.778 85.0806C295.042 85.2126 295.354 85.2786 295.713 85.2786C295.962 85.2786 296.182 85.2419 296.373 85.1686C296.571 85.0952 296.784 84.9706 297.011 84.7946L297.836 85.9606C297.609 86.1586 297.367 86.3199 297.11 86.4446C296.853 86.5692 296.589 86.6609 296.318 86.7196C296.054 86.7856 295.79 86.8186 295.526 86.8186ZM299.496 88.7546L298.506 87.8196C299.181 87.3502 299.683 86.7709 300.013 86.0816C300.343 85.3922 300.508 84.6552 300.508 83.8706C300.508 83.0859 300.343 82.3489 300.013 81.6596C299.683 80.9702 299.181 80.3909 298.506 79.9216L299.507 78.9866C300.402 79.5439 301.084 80.2406 301.553 81.0766C302.023 81.9126 302.257 82.8439 302.257 83.8706C302.257 84.8899 302.019 85.8212 301.542 86.6646C301.073 87.5006 300.391 88.1972 299.496 88.7546Z" fill="#3C2415"/>
<path d="M209.68 48V36.4H205.68V34H216.4V36.4H212.28V48H209.68ZM221.358 48.2C220.304 48.2 219.364 47.9667 218.538 47.5C217.711 47.02 217.058 46.3667 216.578 45.54C216.098 44.7133 215.858 43.7733 215.858 42.72C215.858 41.6667 216.098 40.7267 216.578 39.9C217.058 39.0733 217.711 38.4267 218.538 37.96C219.364 37.48 220.304 37.24 221.358 37.24C222.398 37.24 223.331 37.48 224.158 37.96C224.984 38.4267 225.631 39.0733 226.098 39.9C226.578 40.7267 226.818 41.6667 226.818 42.72C226.818 43.7733 226.578 44.7133 226.098 45.54C225.631 46.3667 224.984 47.02 224.158 47.5C223.331 47.9667 222.398 48.2 221.358 48.2ZM221.358 46.02C221.931 46.02 222.438 45.8733 222.878 45.58C223.331 45.2867 223.684 44.8933 223.938 44.4C224.204 43.9067 224.331 43.3467 224.318 42.72C224.331 42.08 224.204 41.5133 223.938 41.02C223.684 40.5267 223.331 40.14 222.878 39.86C222.438 39.5667 221.931 39.42 221.358 39.42C220.784 39.42 220.264 39.5667 219.798 39.86C219.344 40.14 218.991 40.5333 218.738 41.04C218.484 41.5333 218.358 42.0933 218.358 42.72C218.358 43.3467 218.484 43.9067 218.738 44.4C218.991 44.8933 219.344 45.2867 219.798 45.58C220.264 45.8733 220.784 46.02 221.358 46.02Z" fill="#3C2415"/>
<g clip-path="url(#clip0_499_622)">
<g opacity="0.78">
<path d="M260.082 227.755H210.135V231.302H260.082V227.755Z" fill="#CE7C35"/>
<path d="M260.082 288.059H210.135V291.606H260.082V288.059Z" fill="#CE7C35"/>
<path d="M267.217 234.85H263.65V284.512H267.217V234.85Z" fill="#CE7C35"/>
<path d="M206.568 234.85H203V284.512H206.568V234.85Z" fill="#CE7C35"/>
<path d="M210.135 231.302H206.568V234.85H210.135V231.302Z" fill="#CE7C35"/>
<path d="M263.649 231.302H260.082V234.85H263.649V231.302Z" fill="#CE7C35"/>
<path d="M263.649 284.512H260.082V288.059H263.649V284.512Z" fill="#CE7C35"/>
<path d="M210.135 284.512H206.568V288.059H210.135V284.512Z" fill="#CE7C35"/>
<path d="M270.785 234.85H267.217V284.512H270.785V234.85Z" fill="#E2A93F"/>
<path d="M267.217 231.302H263.65V234.85H267.217V231.302Z" fill="#E2A93F"/>
<path d="M263.649 227.755H260.082V231.302H263.649V227.755Z" fill="#E2A93F"/>
<path d="M267.217 284.512H263.65V288.059H267.217V284.512Z" fill="#E2A93F"/>
<path d="M263.649 288.059H260.082V291.606H263.649V288.059Z" fill="#E2A93F"/>
<path d="M263.65 234.85H206.568V284.512H263.65V234.85Z" fill="#F7D046"/>
<path d="M260.082 231.302H210.135V288.059H260.082V231.302Z" fill="#F7D046"/>
<path d="M260.082 270.323H245.812V284.512H260.082V270.323Z" fill="#CE7C35"/>
<path d="M256.514 273.87H249.379V280.964H256.514V273.87Z" fill="#E2A93F"/>
<path d="M256.514 277.417H252.947V280.964H256.514V277.417Z" fill="#F7D046"/>
<path d="M242.244 270.323H227.973V284.512H242.244V270.323Z" fill="#CE7C35"/>
<path d="M238.676 273.87H231.541V280.964H238.676V273.87Z" fill="#E2A93F"/>
<path d="M238.676 277.417H235.109V280.964H238.676V277.417Z" fill="#F7D046"/>
<path d="M224.406 270.323H210.135V284.512H224.406V270.323Z" fill="#CE7C35"/>
<path d="M220.838 273.87H213.703V280.964H220.838V273.87Z" fill="#E2A93F"/>
<path d="M220.838 277.417H217.271V280.964H220.838V277.417Z" fill="#F7D046"/>
<path d="M260.082 252.586H245.812V266.775H260.082V252.586Z" fill="#CE7C35"/>
<path d="M256.514 256.133H249.379V263.228H256.514V256.133Z" fill="#E2A93F"/>
<path d="M256.514 259.681H252.947V263.228H256.514V259.681Z" fill="#F7D046"/>
<path d="M242.244 252.586H227.973V266.775H242.244V252.586Z" fill="#CE7C35"/>
<path d="M238.676 256.133H231.541V263.228H238.676V256.133Z" fill="#E2A93F"/>
<path d="M238.676 259.681H235.109V263.228H238.676V259.681Z" fill="#F7D046"/>
<path d="M224.406 252.586H210.135V266.775H224.406V252.586Z" fill="#CE7C35"/>
<path d="M220.838 256.133H213.703V263.228H220.838V256.133Z" fill="#E2A93F"/>
<path d="M220.838 259.681H217.271V263.228H220.838V259.681Z" fill="#F7D046"/>
<path d="M260.082 234.85H245.812V249.039H260.082V234.85Z" fill="#CE7C35"/>
<path d="M256.514 238.397H249.379V245.492H256.514V238.397Z" fill="#E2A93F"/>
<path d="M256.514 241.944H252.947V245.492H256.514V241.944Z" fill="#F7D046"/>
<path d="M242.244 234.85H227.973V249.039H242.244V234.85Z" fill="#CE7C35"/>
<path d="M238.676 238.397H231.541V245.492H238.676V238.397Z" fill="#E2A93F"/>
<path d="M238.676 241.944H235.109V245.492H238.676V241.944Z" fill="#F7D046"/>
<path d="M224.406 234.85H210.135V249.039H224.406V234.85Z" fill="#CE7C35"/>
<path d="M220.838 238.397H213.703V245.492H220.838V238.397Z" fill="#E2A93F"/>
<path d="M220.838 241.944H217.271V245.492H220.838V241.944Z" fill="#F7D046"/>
<path d="M249.379 263.228H220.838V273.87H249.379V263.228Z" fill="#763E30"/>
<path d="M245.811 273.87H224.406V277.417H245.811V273.87Z" fill="#763E30"/>
<path d="M242.244 277.417H227.973V280.964H242.244V277.417Z" fill="#763E30"/>
<path d="M245.811 266.775H224.406V273.87H245.811V266.775Z" fill="#DF809E"/>
<path d="M242.244 273.87H227.973V277.417H242.244V273.87Z" fill="#DF809E"/>
<path d="M252.947 252.586H242.244V259.681H252.947V252.586Z" fill="#763E30"/>
<path d="M252.947 249.039H245.812V252.586H252.947V249.039Z" fill="#763E30"/>
<path d="M227.973 252.586H217.271V259.681H227.973V252.586Z" fill="#763E30"/>
<path d="M227.973 249.039H220.838V252.586H227.973V249.039Z" fill="#763E30"/>
</g>
<path d="M264.512 257.773L259.488 241.122H263.627L266.139 249.875C266.251 250.272 266.346 250.676 266.426 251.089C266.522 251.485 266.593 251.866 266.641 252.23C266.705 252.595 266.753 252.936 266.785 253.253C266.817 253.555 266.849 253.808 266.881 254.014H266.354C266.45 253.428 266.53 252.904 266.593 252.444C266.673 251.985 266.761 251.556 266.857 251.16C266.952 250.748 267.072 250.319 267.215 249.875L269.704 243.286H272.957L275.398 249.875C275.589 250.399 275.748 250.89 275.876 251.35C276.004 251.81 276.099 252.254 276.163 252.682C276.243 253.095 276.307 253.507 276.354 253.919L275.876 253.991C275.908 253.705 275.932 253.444 275.948 253.206C275.964 252.952 275.98 252.714 275.996 252.492C276.028 252.254 276.059 252.008 276.091 251.755C276.123 251.501 276.171 251.223 276.235 250.922C276.299 250.605 276.386 250.248 276.498 249.852L278.986 241.122H283.029L278.005 257.773H274.895L270.924 248.186L271.378 248.234L267.718 257.773H264.512ZM288.933 257.987C287.864 257.987 286.907 257.709 286.062 257.154C285.233 256.584 284.571 255.806 284.076 254.823C283.582 253.824 283.335 252.698 283.335 251.445C283.335 250.161 283.582 249.027 284.076 248.044C284.571 247.061 285.249 246.291 286.11 245.736C286.971 245.165 287.952 244.88 289.052 244.88C289.659 244.88 290.209 244.967 290.703 245.142C291.214 245.316 291.66 245.562 292.043 245.879C292.426 246.18 292.753 246.537 293.024 246.95C293.295 247.346 293.494 247.774 293.622 248.234L292.832 248.139V245.142H296.636V257.773H292.761V254.728L293.622 254.704C293.494 255.148 293.287 255.569 293 255.965C292.713 256.362 292.362 256.71 291.947 257.012C291.533 257.313 291.07 257.551 290.56 257.725C290.049 257.9 289.507 257.987 288.933 257.987ZM289.985 254.776C290.576 254.776 291.086 254.641 291.517 254.371C291.947 254.102 292.282 253.721 292.521 253.229C292.761 252.722 292.88 252.127 292.88 251.445C292.88 250.763 292.761 250.177 292.521 249.685C292.282 249.178 291.947 248.789 291.517 248.52C291.086 248.234 290.576 248.091 289.985 248.091C289.411 248.091 288.909 248.234 288.478 248.52C288.064 248.789 287.737 249.178 287.497 249.685C287.258 250.177 287.139 250.763 287.139 251.445C287.139 252.127 287.258 252.722 287.497 253.229C287.737 253.721 288.064 254.102 288.478 254.371C288.909 254.641 289.411 254.776 289.985 254.776ZM300.804 257.773V244.523C300.804 243.699 300.979 242.953 301.33 242.287C301.697 241.621 302.199 241.098 302.837 240.717C303.491 240.321 304.249 240.122 305.11 240.122C305.716 240.122 306.274 240.21 306.785 240.384C307.295 240.559 307.75 240.804 308.148 241.122L307.048 243.905C306.841 243.794 306.641 243.706 306.45 243.643C306.258 243.58 306.083 243.548 305.923 243.548C305.636 243.548 305.397 243.595 305.206 243.691C305.014 243.786 304.871 243.936 304.775 244.143C304.695 244.333 304.655 244.571 304.655 244.856V257.773H302.742C302.311 257.773 301.928 257.773 301.593 257.773C301.274 257.773 301.011 257.773 300.804 257.773ZM298.962 248.638V245.498H307.263V248.638H298.962ZM310.206 257.773V244.523C310.206 243.699 310.381 242.953 310.732 242.287C311.099 241.621 311.601 241.098 312.239 240.717C312.893 240.321 313.651 240.122 314.512 240.122C315.118 240.122 315.677 240.21 316.187 240.384C316.697 240.559 317.152 240.804 317.551 241.122L316.45 243.905C316.243 243.794 316.043 243.706 315.852 243.643C315.661 243.58 315.485 243.548 315.326 243.548C315.039 243.548 314.799 243.595 314.608 243.691C314.417 243.786 314.273 243.936 314.177 244.143C314.098 244.333 314.058 244.571 314.058 244.856V257.773H312.144C311.713 257.773 311.33 257.773 310.995 257.773C310.676 257.773 310.413 257.773 310.206 257.773ZM308.364 248.638V245.498H316.665V248.638H308.364ZM318.842 257.773V240.17H322.67V257.773H318.842ZM331.907 258.011C330.503 258.011 329.283 257.733 328.246 257.178C327.21 256.607 326.404 255.838 325.83 254.871C325.256 253.888 324.969 252.77 324.969 251.517C324.969 250.549 325.128 249.661 325.447 248.853C325.766 248.044 326.213 247.346 326.787 246.759C327.361 246.157 328.039 245.697 328.82 245.38C329.618 245.047 330.487 244.88 331.428 244.88C332.321 244.88 333.135 245.039 333.868 245.356C334.618 245.673 335.264 246.117 335.806 246.688C336.349 247.259 336.763 247.933 337.05 248.71C337.337 249.487 337.465 250.335 337.433 251.255L337.409 252.278H327.289L326.739 250.137H334.299L333.892 250.589V250.113C333.86 249.717 333.733 249.368 333.51 249.067C333.302 248.749 333.023 248.504 332.672 248.329C332.321 248.155 331.923 248.068 331.476 248.068C330.854 248.068 330.32 248.194 329.873 248.448C329.443 248.686 329.116 249.043 328.892 249.519C328.669 249.978 328.557 250.549 328.557 251.231C328.557 251.929 328.701 252.54 328.988 253.063C329.291 253.57 329.722 253.967 330.28 254.252C330.854 254.538 331.532 254.681 332.313 254.681C332.856 254.681 333.334 254.601 333.749 254.443C334.179 254.284 334.642 254.014 335.136 253.634L336.931 256.155C336.436 256.584 335.91 256.932 335.352 257.202C334.794 257.472 334.219 257.67 333.629 257.797C333.055 257.939 332.481 258.011 331.907 258.011ZM259.368 279.295L265.995 262.644H269.44L276.02 279.295H271.905L268.747 270.85C268.619 270.517 268.491 270.161 268.364 269.78C268.236 269.399 268.109 269.011 267.981 268.614C267.853 268.202 267.726 267.806 267.598 267.425C267.487 267.029 267.391 266.664 267.311 266.331L268.029 266.307C267.933 266.703 267.822 267.092 267.694 267.473C267.582 267.853 267.463 268.234 267.335 268.614C267.223 268.979 267.096 269.352 266.952 269.732C266.809 270.097 266.673 270.478 266.546 270.874L263.388 279.295H259.368ZM262.526 276.107L263.794 273.063H271.498L272.742 276.107H262.526ZM277.918 279.295V266.664H281.745V279.295H277.918ZM279.831 264.166C279.114 264.166 278.548 264 278.133 263.667C277.734 263.318 277.535 262.826 277.535 262.192C277.535 261.621 277.742 261.153 278.157 260.788C278.571 260.424 279.13 260.241 279.831 260.241C280.549 260.241 281.107 260.416 281.506 260.764C281.905 261.098 282.104 261.573 282.104 262.192C282.104 262.778 281.897 263.254 281.482 263.619C281.083 263.984 280.533 264.166 279.831 264.166ZM285.342 279.295V266.664H288.978L289.146 270.779L288.428 269.994C288.62 269.312 288.931 268.702 289.361 268.162C289.808 267.623 290.326 267.195 290.916 266.878C291.506 266.561 292.136 266.402 292.806 266.402C293.093 266.402 293.357 266.426 293.596 266.474C293.851 266.521 294.082 266.577 294.29 266.64L293.237 270.85C293.061 270.739 292.822 270.652 292.519 270.589C292.232 270.509 291.929 270.47 291.61 270.47C291.259 270.47 290.932 270.533 290.629 270.66C290.326 270.771 290.071 270.938 289.864 271.16C289.656 271.382 289.489 271.643 289.361 271.945C289.25 272.246 289.194 272.587 289.194 272.968V279.295H285.342Z" fill="#3C2415"/>
</g>
<defs>
<clipPath id="clip0_499_622">
<rect width="135" height="64" fill="white" transform="translate(203 227.755)"/>
</clipPath>
</defs>
</svg>
