<svg width="676" height="383" viewBox="0 0 676 383" fill="none" xmlns="http://www.w3.org/2000/svg">
<rect x="2.5" y="2.5" width="671" height="378" fill="#0C4820" stroke="black" stroke-width="5"/>
<path d="M243.951 229.977V240.971H232.958C227.127 240.971 221.534 238.654 217.411 234.531C213.288 230.408 210.971 224.815 210.971 218.984V207.99H221.965C227.796 207.99 233.388 210.307 237.511 214.43C241.634 218.553 243.951 224.146 243.951 229.977Z" fill="#9DCC6B"/>
<path d="M243.951 229.977H232.958C227.127 229.977 221.534 227.661 217.411 223.537C213.288 219.414 210.971 213.822 210.971 207.99H221.965C227.796 207.99 233.388 210.307 237.511 214.43C241.634 218.553 243.951 224.146 243.951 229.977Z" fill="#B5E08C"/>
<path d="M331.896 218.984V229.977H320.902C315.071 229.977 309.479 227.661 305.356 223.537C301.233 219.414 298.916 213.822 298.916 207.99V196.997H309.909C315.74 196.997 321.333 199.313 325.456 203.437C329.579 207.56 331.896 213.152 331.896 218.984Z" fill="#9DCC6B"/>
<path d="M331.896 218.984H320.902C315.071 218.984 309.479 216.667 305.356 212.544C301.233 208.421 298.916 202.828 298.916 196.997H309.909C315.74 196.997 321.333 199.313 325.456 203.437C329.579 207.56 331.896 213.152 331.896 218.984Z" fill="#B5E08C"/>
<path d="M364.875 175.01V186.003C364.875 191.834 362.559 197.427 358.435 201.55C354.312 205.674 348.72 207.99 342.889 207.99H331.896V196.997C331.896 191.165 334.212 185.573 338.335 181.45C342.458 177.326 348.051 175.01 353.882 175.01H364.875Z" fill="#9DCC6B"/>
<path d="M364.875 175.01C364.875 180.841 362.559 186.433 358.435 190.557C354.312 194.68 348.72 196.997 342.889 196.997H331.896C331.896 191.165 334.212 185.573 338.335 181.45C342.458 177.326 348.051 175.01 353.882 175.01H364.875Z" fill="#B5E08C"/>
<path d="M419.84 213.487V224.48H408.847C403.016 224.48 397.424 222.164 393.301 218.041C389.177 213.917 386.861 208.325 386.861 202.493V191.5H397.854C403.685 191.5 409.278 193.816 413.401 197.94C417.524 202.063 419.84 207.656 419.84 213.487Z" fill="#9DCC6B"/>
<path d="M419.84 213.487H408.847C403.016 213.487 397.424 211.17 393.301 207.047C389.177 202.924 386.861 197.331 386.861 191.5H397.854C403.685 191.5 409.278 193.816 413.401 197.94C417.524 202.063 419.84 207.656 419.84 213.487Z" fill="#B5E08C"/>
<path d="M452.82 169.513V180.506C452.82 186.338 450.503 191.93 446.38 196.054C442.257 200.177 436.665 202.493 430.834 202.493H419.84V191.5C419.84 185.669 422.157 180.076 426.28 175.953C430.403 171.829 435.996 169.513 441.827 169.513H452.82Z" fill="#9DCC6B"/>
<path d="M452.82 169.513C452.82 175.344 450.503 180.937 446.38 185.06C442.257 189.183 436.665 191.5 430.834 191.5H419.84C419.84 185.669 422.157 180.076 426.28 175.953C430.403 171.829 435.996 169.513 441.827 169.513H452.82Z" fill="#B5E08C"/>
<path d="M414.344 262.958V153.023C414.344 151.565 414.923 150.167 415.954 149.136C416.985 148.105 418.383 147.526 419.84 147.526C421.298 147.526 422.696 148.105 423.727 149.136C424.758 150.167 425.337 151.565 425.337 153.023V262.958C425.337 264.416 424.758 265.814 423.727 266.845C422.696 267.875 421.298 268.455 419.84 268.455C418.383 268.455 416.985 267.875 415.954 266.845C414.923 265.814 414.344 264.416 414.344 262.958Z" fill="#CC734C"/>
<path d="M463.813 290.442V317.925H210.971V290.442C225.208 272.632 230.044 262.958 243.951 262.958C257.857 262.958 262.034 271.863 270.059 281.867C272.207 284.539 274.927 286.695 278.019 288.176C281.11 289.657 284.495 290.427 287.923 290.427C291.351 290.427 294.736 289.657 297.827 288.176C300.919 286.695 303.639 284.539 305.787 281.867C313.812 271.753 318.759 262.958 331.896 262.958C345.032 262.958 349.979 271.863 358.004 281.867C360.152 284.539 362.872 286.695 365.964 288.176C369.055 289.657 372.44 290.427 375.868 290.427C379.296 290.427 382.681 289.657 385.772 288.176C388.864 286.695 391.584 284.539 393.732 281.867C401.757 271.753 406.704 262.958 419.84 262.958C442.706 262.958 440.892 290.442 463.813 290.442Z" fill="#A87E6B"/>
<path d="M238.454 262.958C238.454 235.914 235.486 214.202 256.538 193.094C257.05 192.581 257.659 192.175 258.328 191.898C258.998 191.62 259.716 191.477 260.44 191.477C261.165 191.477 261.883 191.62 262.552 191.898C263.222 192.175 263.83 192.581 264.343 193.094C264.855 193.606 265.262 194.215 265.539 194.885C265.817 195.554 265.959 196.272 265.959 196.997C265.959 197.721 265.817 198.439 265.539 199.109C265.262 199.778 264.855 200.387 264.343 200.899C246.534 218.984 249.447 236.848 249.447 262.958C249.447 264.416 248.868 265.814 247.837 266.845C246.807 267.875 245.408 268.455 243.951 268.455C242.493 268.455 241.095 267.875 240.064 266.845C239.033 265.814 238.454 264.416 238.454 262.958ZM326.399 262.958V169.513C326.399 168.055 326.978 166.657 328.009 165.626C329.04 164.595 330.438 164.016 331.896 164.016C333.353 164.016 334.751 164.595 335.782 165.626C336.813 166.657 337.392 168.055 337.392 169.513V262.958C337.392 264.416 336.813 265.814 335.782 266.845C334.751 267.875 333.353 268.455 331.896 268.455C330.438 268.455 329.04 267.875 328.009 266.845C326.978 265.814 326.399 264.416 326.399 262.958Z" fill="#CC734C"/>
<path d="M430.833 109.049C430.865 110.753 430.499 112.441 429.766 113.98C429.032 115.519 427.951 116.866 426.608 117.915C425.264 118.964 423.695 119.687 422.024 120.025C420.354 120.363 418.627 120.309 416.981 119.865C415.335 119.421 413.815 118.601 412.541 117.469C411.267 116.337 410.273 114.923 409.639 113.341C409.004 111.759 408.747 110.051 408.886 108.352C409.025 106.653 409.558 105.01 410.441 103.552C411.676 101.514 413.54 99.9329 415.751 99.0462C417.963 98.1596 420.403 98.0154 422.703 98.6355C425.004 99.2557 427.041 100.606 428.507 102.484C429.973 104.363 430.79 106.666 430.833 109.049Z" fill="#DB5669"/>
<path d="M422.699 119.657C421.603 119.461 420.557 119.05 419.621 118.448C417.783 117.321 416.318 115.679 415.406 113.726C414.494 111.773 414.177 109.595 414.493 107.463C414.81 105.331 415.746 103.339 417.185 101.735C418.624 100.13 420.503 98.9846 422.589 98.4398C424.921 99.0606 426.984 100.432 428.46 102.341C429.935 104.251 430.742 106.593 430.754 109.007C430.767 111.42 429.985 113.77 428.529 115.695C427.073 117.62 425.024 119.012 422.699 119.657Z" fill="#F26674"/>
<path d="M441.827 78.7614C441.827 85.1377 433.417 98.6047 429.24 103.552C428.26 101.936 426.88 100.601 425.234 99.6737C423.587 98.7468 421.73 98.2598 419.84 98.2598C417.951 98.2598 416.094 98.7468 414.447 99.6737C412.801 100.601 411.421 101.936 410.441 103.552C406.264 98.5498 397.854 85.0827 397.854 78.7614C397.869 75.1359 399.315 71.663 401.879 69.0993C404.442 66.5356 407.915 65.089 411.541 65.0745H428.03C429.839 65.0526 431.634 65.3909 433.31 66.0696C434.987 66.7483 436.512 67.7538 437.796 69.0277C439.08 70.3016 440.097 71.8183 440.789 73.4894C441.481 75.1605 441.834 76.9527 441.827 78.7614Z" fill="#FFDE76"/>
<path d="M408.847 78.7614C408.862 75.1359 410.308 71.6629 412.872 69.0993C415.436 66.5356 418.908 65.0889 422.534 65.0745C412.31 65.0745 406.924 64.0301 401.867 69.0871C399.915 71.0433 398.597 73.5427 398.088 76.2589C397.578 78.9752 397.899 81.7821 399.009 84.3131C401.902 91.2285 405.751 97.7044 410.441 103.552C411.249 102.281 412.301 101.184 413.538 100.326C414.774 99.4667 416.169 98.863 417.642 98.5497C414.894 94.2073 408.847 84.1482 408.847 78.7614Z" fill="#FFCC66"/>
<path d="M441.827 139.336C441.812 142.961 440.366 146.434 437.802 148.998C435.238 151.561 431.766 153.008 428.14 153.023H411.651C409.842 153.044 408.047 152.706 406.371 152.028C404.694 151.349 403.169 150.343 401.885 149.069C400.601 147.795 399.584 146.279 398.891 144.608C398.199 142.937 397.847 141.144 397.854 139.336C397.854 132.959 406.264 119.492 410.441 114.765C411.421 116.381 412.801 117.716 414.447 118.643C416.094 119.57 417.951 120.057 419.84 120.057C421.73 120.057 423.587 119.57 425.234 118.643C426.88 117.716 428.26 116.381 429.24 114.765C433.417 119.492 441.827 133.014 441.827 139.336Z" fill="#FFDE76"/>
<path d="M408.847 139.336C409.423 134.539 411.159 129.954 413.904 125.979C418.796 116.854 418.741 121.196 413.904 118.448C412.417 117.511 411.158 116.253 410.222 114.765C406.044 119.547 397.634 133.014 397.634 139.336C397.627 141.154 397.983 142.955 398.682 144.634C399.381 146.312 400.408 147.834 401.704 149.109C403 150.385 404.538 151.388 406.227 152.06C407.916 152.732 409.723 153.059 411.541 153.023H422.534C420.734 153.03 418.951 152.681 417.288 151.996C415.624 151.31 414.112 150.302 412.84 149.03C411.567 147.758 410.56 146.246 409.874 144.582C409.189 142.918 408.84 141.135 408.847 139.336Z" fill="#FFCC66"/>
<path d="M410.441 114.545C407.541 117.927 405.016 121.613 402.911 125.539C394.721 130.046 387.081 133.784 379.881 126.583C374.824 121.526 375.868 117.624 375.868 100.309C375.864 98.0271 376.431 95.7808 377.517 93.774C378.602 91.7672 380.172 90.0637 382.084 88.8183C383.996 87.5729 386.188 86.8252 388.463 86.6432C390.737 86.4612 393.021 86.8507 395.106 87.7761C397.415 88.8755 400.053 90.0848 402.911 91.6788C405.016 95.605 407.541 99.2911 410.441 102.672C409.305 104.444 408.701 106.504 408.701 108.609C408.701 110.714 409.305 112.774 410.441 114.545Z" fill="#FFDE76"/>
<path d="M386.861 100.748C386.847 98.0866 387.616 95.4795 389.073 93.2513C390.529 91.023 392.608 89.272 395.051 88.2159C392.968 87.3024 390.69 86.9225 388.424 87.1104C386.157 87.2983 383.973 88.0481 382.069 89.2921C380.165 90.5361 378.601 92.235 377.518 94.2352C376.436 96.2355 375.868 98.474 375.868 100.748V117.239C375.878 119.515 376.454 121.754 377.543 123.752C378.633 125.751 380.201 127.448 382.109 128.691C384.016 129.934 386.202 130.683 388.471 130.871C390.74 131.06 393.02 130.682 395.106 129.771C384.772 125.539 386.861 115.865 386.861 100.748Z" fill="#FFCC66"/>
<path d="M463.813 100.748V117.239C463.835 119.047 463.496 120.842 462.818 122.519C462.139 124.195 461.134 125.72 459.86 127.004C458.586 128.288 457.069 129.306 455.398 129.998C453.727 130.69 451.935 131.043 450.126 131.036C445.33 130.46 440.745 128.724 436.77 125.979C434.665 122.052 432.14 118.366 429.24 114.985C430.288 113.263 430.843 111.285 430.843 109.268C430.843 107.252 430.288 105.274 429.24 103.552C432.14 100.171 434.665 96.4845 436.77 92.5583C440.704 89.6581 445.291 87.7704 450.126 87.0615C453.752 87.076 457.225 88.5227 459.788 91.0863C462.352 93.65 463.798 97.1229 463.813 100.748Z" fill="#FFDE76"/>
<path d="M463.813 290.442V306.932H264.398C254.602 306.932 245.207 303.04 238.28 296.113C231.353 289.186 227.461 279.79 227.461 269.994C229.719 267.652 232.45 265.818 235.471 264.614C238.492 263.409 241.736 262.861 244.985 263.007C248.235 263.152 251.416 263.988 254.318 265.458C257.219 266.928 259.775 268.999 261.815 271.533C269.839 281.647 274.786 290.442 287.923 290.442C301.06 290.442 306.007 281.537 314.032 271.533C316.18 268.861 318.9 266.705 321.991 265.223C325.083 263.742 328.467 262.973 331.896 262.973C335.324 262.973 338.708 263.742 341.8 265.223C344.891 266.705 347.611 268.861 349.759 271.533C357.784 281.647 362.731 290.442 375.868 290.442C389.005 290.442 393.952 281.537 401.977 271.533C404.125 268.861 406.844 266.705 409.936 265.223C413.028 263.742 416.412 262.973 419.84 262.973C423.269 262.973 426.653 263.742 429.745 265.223C432.836 266.705 435.556 268.861 437.704 271.533C445.729 281.647 450.676 290.442 463.813 290.442Z" fill="#BE927C"/>
<path d="M40.6998 54.5981C39.0438 54.5981 37.5438 54.4061 36.1998 54.0221C34.8798 53.6141 33.7038 53.0381 32.6718 52.2941C31.6398 51.5261 30.7158 50.6261 29.8998 49.5941L33.6078 45.3821C34.8078 46.9901 36.0078 48.0701 37.2078 48.6221C38.4318 49.1741 39.6918 49.4501 40.9878 49.4501C41.6358 49.4501 42.2238 49.3661 42.7518 49.1981C43.2798 49.0301 43.6878 48.7901 43.9758 48.4781C44.2638 48.1421 44.4078 47.7341 44.4078 47.2541C44.4078 46.8941 44.3118 46.5701 44.1198 46.2821C43.9518 45.9941 43.7118 45.7421 43.3998 45.5261C43.0878 45.3101 42.7158 45.1181 42.2838 44.9501C41.8518 44.7581 41.3958 44.6021 40.9158 44.4821C40.4358 44.3381 39.9438 44.2181 39.4398 44.1221C38.0478 43.8101 36.8358 43.4261 35.8038 42.9701C34.7718 42.5141 33.9078 41.9621 33.2118 41.3141C32.5398 40.6421 32.0358 39.8861 31.6998 39.0461C31.3638 38.1821 31.1958 37.2221 31.1958 36.1661C31.1958 35.0381 31.4478 34.0061 31.9518 33.0701C32.4798 32.1101 33.1758 31.2941 34.0398 30.6221C34.9278 29.9261 35.9478 29.3981 37.0998 29.0381C38.2518 28.6541 39.4518 28.4621 40.6998 28.4621C42.3558 28.4621 43.7718 28.6421 44.9478 29.0021C46.1478 29.3381 47.1678 29.8301 48.0078 30.4781C48.8718 31.1261 49.6038 31.9061 50.2038 32.8181L46.4238 36.4541C45.9198 35.8301 45.3678 35.3141 44.7678 34.9061C44.1918 34.4981 43.5678 34.1861 42.8958 33.9701C42.2478 33.7541 41.5758 33.6461 40.8798 33.6461C40.1598 33.6461 39.5358 33.7421 39.0078 33.9341C38.5038 34.1021 38.1078 34.3541 37.8198 34.6901C37.5318 35.0021 37.3878 35.3861 37.3878 35.8421C37.3878 36.2501 37.5078 36.5981 37.7478 36.8861C37.9878 37.1741 38.3118 37.4381 38.7198 37.6781C39.1278 37.8941 39.5958 38.0861 40.1238 38.2541C40.6518 38.3981 41.2038 38.5181 41.7798 38.6141C43.0998 38.8781 44.2878 39.2261 45.3438 39.6581C46.4238 40.0901 47.3478 40.6181 48.1158 41.2421C48.9078 41.8661 49.5078 42.6101 49.9158 43.4741C50.3478 44.3141 50.5638 45.2981 50.5638 46.4261C50.5638 48.1781 50.1318 49.6661 49.2678 50.8901C48.4278 52.0901 47.2638 53.0141 45.7758 53.6621C44.3118 54.2861 42.6198 54.5981 40.6998 54.5981ZM61.0682 54.6341C59.6522 54.6341 58.4402 54.3341 57.4322 53.7341C56.4482 53.1101 55.6802 52.2221 55.1282 51.0701C54.6002 49.9181 54.3362 48.5381 54.3362 46.9301V35.1221H60.1322V46.1381C60.1322 46.9061 60.2522 47.5661 60.4922 48.1181C60.7322 48.6701 61.0922 49.1021 61.5722 49.4141C62.0522 49.7021 62.6282 49.8461 63.3002 49.8461C63.8042 49.8461 64.2602 49.7621 64.6682 49.5941C65.1002 49.4261 65.4602 49.1981 65.7482 48.9101C66.0602 48.5981 66.3002 48.2501 66.4682 47.8661C66.6362 47.4581 66.7202 47.0141 66.7202 46.5341V35.1221H72.5162V54.2381H67.0802L66.8282 50.3141L67.9082 49.8821C67.6202 50.7941 67.1402 51.6101 66.4682 52.3301C65.7962 53.0261 64.9922 53.5901 64.0562 54.0221C63.1202 54.4301 62.1242 54.6341 61.0682 54.6341ZM84.0939 54.5981C82.2219 54.5981 80.5659 54.2981 79.1259 53.6981C77.7099 53.0981 76.5819 52.2941 75.7419 51.2861L79.2339 48.2621C79.9779 49.0061 80.8179 49.5581 81.7539 49.9181C82.6899 50.2541 83.5779 50.4221 84.4179 50.4221C84.7539 50.4221 85.0539 50.3861 85.3179 50.3141C85.5819 50.2421 85.7979 50.1461 85.9659 50.0261C86.1579 49.8821 86.3019 49.7261 86.3979 49.5581C86.4939 49.3661 86.5419 49.1501 86.5419 48.9101C86.5419 48.4301 86.3259 48.0581 85.8939 47.7941C85.6779 47.6741 85.3179 47.5301 84.8139 47.3621C84.3099 47.1941 83.6619 47.0021 82.8699 46.7861C81.7419 46.4981 80.7579 46.1621 79.9179 45.7781C79.1019 45.3701 78.4299 44.9021 77.9019 44.3741C77.4219 43.8701 77.0499 43.3181 76.7859 42.7181C76.5219 42.0941 76.3899 41.3981 76.3899 40.6301C76.3899 39.7421 76.5939 38.9381 77.0019 38.2181C77.4339 37.4981 77.9979 36.8741 78.6939 36.3461C79.4139 35.8181 80.2299 35.4221 81.1419 35.1581C82.0779 34.8701 83.0379 34.7261 84.0219 34.7261C85.0779 34.7261 86.0859 34.8461 87.0459 35.0861C88.0059 35.3261 88.8939 35.6621 89.7099 36.0941C90.5499 36.5261 91.2939 37.0421 91.9419 37.6421L88.9179 41.0261C88.4859 40.6181 87.9939 40.2581 87.4419 39.9461C86.9139 39.6101 86.3619 39.3461 85.7859 39.1541C85.2099 38.9621 84.6819 38.8661 84.2019 38.8661C83.8419 38.8661 83.5179 38.9021 83.2299 38.9741C82.9659 39.0221 82.7379 39.1181 82.5459 39.2621C82.3539 39.3821 82.2099 39.5381 82.1139 39.7301C82.0179 39.8981 81.9699 40.1021 81.9699 40.3421C81.9699 40.5821 82.0299 40.8101 82.1499 41.0261C82.2939 41.2421 82.4859 41.4221 82.7259 41.5661C82.9659 41.7101 83.3499 41.8781 83.8779 42.0701C84.4059 42.2381 85.1259 42.4541 86.0379 42.7181C87.1659 43.0301 88.1379 43.3781 88.9539 43.7621C89.7699 44.1461 90.4179 44.6021 90.8979 45.1301C91.2819 45.5381 91.5699 46.0181 91.7619 46.5701C91.9539 47.0981 92.0499 47.6741 92.0499 48.2981C92.0499 49.5221 91.7019 50.6141 91.0059 51.5741C90.3339 52.5101 89.3979 53.2541 88.1979 53.8061C86.9979 54.3341 85.6299 54.5981 84.0939 54.5981ZM97.0581 54.2381V30.2981H102.818V54.2381H97.0581ZM93.6741 40.1621V35.1221H106.526V40.1621H93.6741ZM116.698 54.5621C115.09 54.5621 113.65 54.1421 112.378 53.3021C111.13 52.4381 110.134 51.2621 109.39 49.7741C108.646 48.2621 108.274 46.5581 108.274 44.6621C108.274 42.7181 108.646 41.0021 109.39 39.5141C110.134 38.0261 111.154 36.8621 112.45 36.0221C113.746 35.1581 115.222 34.7261 116.878 34.7261C117.79 34.7261 118.618 34.8581 119.362 35.1221C120.13 35.3861 120.802 35.7581 121.378 36.2381C121.954 36.6941 122.446 37.2341 122.854 37.8581C123.262 38.4581 123.562 39.1061 123.754 39.8021L122.566 39.6581V35.1221H128.29V54.2381H122.458V49.6301L123.754 49.5941C123.562 50.2661 123.25 50.9021 122.818 51.5021C122.386 52.1021 121.858 52.6301 121.234 53.0861C120.61 53.5421 119.914 53.9021 119.146 54.1661C118.378 54.4301 117.562 54.5621 116.698 54.5621ZM118.282 49.7021C119.17 49.7021 119.938 49.4981 120.586 49.0901C121.234 48.6821 121.738 48.1061 122.098 47.3621C122.458 46.5941 122.638 45.6941 122.638 44.6621C122.638 43.6301 122.458 42.7421 122.098 41.9981C121.738 41.2301 121.234 40.6421 120.586 40.2341C119.938 39.8021 119.17 39.5861 118.282 39.5861C117.418 39.5861 116.662 39.8021 116.014 40.2341C115.39 40.6421 114.898 41.2301 114.538 41.9981C114.178 42.7421 113.998 43.6301 113.998 44.6621C113.998 45.6941 114.178 46.5941 114.538 47.3621C114.898 48.1061 115.39 48.6821 116.014 49.0901C116.662 49.4981 117.418 49.7021 118.282 49.7021ZM133.697 54.2381V35.1221H139.457V54.2381H133.697ZM136.577 31.3421C135.497 31.3421 134.645 31.0901 134.021 30.5861C133.421 30.0581 133.121 29.3141 133.121 28.3541C133.121 27.4901 133.433 26.7821 134.057 26.2301C134.681 25.6781 135.521 25.4021 136.577 25.4021C137.657 25.4021 138.497 25.6661 139.097 26.1941C139.697 26.6981 139.997 27.4181 139.997 28.3541C139.997 29.2421 139.685 29.9621 139.061 30.5141C138.461 31.0661 137.633 31.3421 136.577 31.3421ZM144.869 54.2381V35.1221H150.341L150.521 39.0101L149.369 39.4421C149.633 38.5781 150.101 37.7981 150.773 37.1021C151.469 36.3821 152.297 35.8061 153.257 35.3741C154.217 34.9421 155.225 34.7261 156.281 34.7261C157.721 34.7261 158.933 35.0261 159.917 35.6261C160.901 36.2021 161.645 37.0781 162.149 38.2541C162.653 39.4061 162.905 40.8221 162.905 42.5021V54.2381H157.109V42.9701C157.109 42.2021 157.001 41.5661 156.785 41.0621C156.569 40.5581 156.233 40.1861 155.777 39.9461C155.345 39.6821 154.805 39.5621 154.157 39.5861C153.653 39.5861 153.185 39.6701 152.753 39.8381C152.321 39.9821 151.949 40.2101 151.637 40.5221C151.325 40.8101 151.073 41.1461 150.881 41.5301C150.713 41.9141 150.629 42.3341 150.629 42.7901V54.2381H147.785C147.113 54.2381 146.537 54.2381 146.057 54.2381C145.577 54.2381 145.181 54.2381 144.869 54.2381ZM174.776 54.5621C173.168 54.5621 171.728 54.1421 170.456 53.3021C169.208 52.4381 168.212 51.2621 167.468 49.7741C166.724 48.2621 166.352 46.5581 166.352 44.6621C166.352 42.7181 166.724 41.0021 167.468 39.5141C168.212 38.0261 169.232 36.8621 170.528 36.0221C171.824 35.1581 173.3 34.7261 174.956 34.7261C175.868 34.7261 176.696 34.8581 177.44 35.1221C178.208 35.3861 178.88 35.7581 179.456 36.2381C180.032 36.6941 180.524 37.2341 180.932 37.8581C181.34 38.4581 181.64 39.1061 181.832 39.8021L180.644 39.6581V35.1221H186.368V54.2381H180.536V49.6301L181.832 49.5941C181.64 50.2661 181.328 50.9021 180.896 51.5021C180.464 52.1021 179.936 52.6301 179.312 53.0861C178.688 53.5421 177.992 53.9021 177.224 54.1661C176.456 54.4301 175.64 54.5621 174.776 54.5621ZM176.36 49.7021C177.248 49.7021 178.016 49.4981 178.664 49.0901C179.312 48.6821 179.816 48.1061 180.176 47.3621C180.536 46.5941 180.716 45.6941 180.716 44.6621C180.716 43.6301 180.536 42.7421 180.176 41.9981C179.816 41.2301 179.312 40.6421 178.664 40.2341C178.016 39.8021 177.248 39.5861 176.36 39.5861C175.496 39.5861 174.74 39.8021 174.092 40.2341C173.468 40.6421 172.976 41.2301 172.616 41.9981C172.256 42.7421 172.076 43.6301 172.076 44.6621C172.076 45.6941 172.256 46.5941 172.616 47.3621C172.976 48.1061 173.468 48.6821 174.092 49.0901C174.74 49.4981 175.496 49.7021 176.36 49.7021ZM202.935 54.6341C202.071 54.6341 201.243 54.5141 200.451 54.2741C199.659 54.0341 198.939 53.7101 198.291 53.3021C197.667 52.8941 197.139 52.4261 196.707 51.8981C196.299 51.3461 196.023 50.7821 195.879 50.2061L197.139 49.7741L196.815 54.2021H191.451V27.5981H197.247V39.6941L196.059 39.2621C196.203 38.6381 196.479 38.0621 196.887 37.5341C197.295 36.9821 197.811 36.5021 198.435 36.0941C199.059 35.6621 199.743 35.3261 200.487 35.0861C201.231 34.8461 201.999 34.7261 202.791 34.7261C204.447 34.7261 205.911 35.1581 207.183 36.0221C208.479 36.8621 209.499 38.0381 210.243 39.5501C210.987 41.0381 211.359 42.7421 211.359 44.6621C211.359 46.6061 210.987 48.3341 210.243 49.8461C209.523 51.3341 208.527 52.5101 207.255 53.3741C205.983 54.2141 204.543 54.6341 202.935 54.6341ZM201.423 49.7741C202.287 49.7741 203.043 49.5581 203.691 49.1261C204.339 48.6941 204.831 48.1061 205.167 47.3621C205.527 46.5941 205.707 45.6941 205.707 44.6621C205.707 43.6541 205.527 42.7661 205.167 41.9981C204.831 41.2301 204.339 40.6421 203.691 40.2341C203.043 39.8261 202.287 39.6221 201.423 39.6221C200.535 39.6221 199.767 39.8261 199.119 40.2341C198.471 40.6421 197.967 41.2301 197.607 41.9981C197.247 42.7661 197.067 43.6541 197.067 44.6621C197.067 45.6941 197.247 46.5941 197.607 47.3621C197.967 48.1061 198.471 48.6941 199.119 49.1261C199.767 49.5581 200.535 49.7741 201.423 49.7741ZM215.47 54.2381V35.1221H221.23V54.2381H215.47ZM218.35 31.3421C217.27 31.3421 216.418 31.0901 215.794 30.5861C215.194 30.0581 214.894 29.3141 214.894 28.3541C214.894 27.4901 215.206 26.7821 215.83 26.2301C216.454 25.6781 217.294 25.4021 218.35 25.4021C219.43 25.4021 220.27 25.6661 220.87 26.1941C221.47 26.6981 221.77 27.4181 221.77 28.3541C221.77 29.2421 221.458 29.9621 220.834 30.5141C220.234 31.0661 219.406 31.3421 218.35 31.3421ZM226.678 54.2381V27.5981H232.438V54.2381H226.678ZM237.9 54.2381V35.1221H243.66V54.2381H237.9ZM240.78 31.3421C239.7 31.3421 238.848 31.0901 238.224 30.5861C237.624 30.0581 237.324 29.3141 237.324 28.3541C237.324 27.4901 237.636 26.7821 238.26 26.2301C238.884 25.6781 239.724 25.4021 240.78 25.4021C241.86 25.4021 242.7 25.6661 243.3 26.1941C243.9 26.6981 244.2 27.4181 244.2 28.3541C244.2 29.2421 243.888 29.9621 243.264 30.5141C242.664 31.0661 241.836 31.3421 240.78 31.3421ZM250.656 54.2381V30.2981H256.416V54.2381H250.656ZM247.272 40.1621V35.1221H260.124V40.1621H247.272ZM265.827 62.5181L270.183 52.2581L270.255 55.2101L261.039 35.1221H267.555L271.587 44.7341C271.803 45.2141 272.007 45.7301 272.199 46.2821C272.391 46.8341 272.535 47.3621 272.631 47.8661L271.839 48.3341C271.983 47.9741 272.139 47.5301 272.307 47.0021C272.499 46.4501 272.703 45.8621 272.919 45.2381L276.447 35.1221H282.999L274.863 54.2381L271.551 62.5181H265.827Z" fill="white"/>
</svg>