<svg width="676" height="383" viewBox="0 0 676 383" fill="none" xmlns="http://www.w3.org/2000/svg">
<rect x="2.5" y="2.5" width="671" height="378" fill="#0C2C48" stroke="black" stroke-width="5"/>
<g clip-path="url(#clip0_135_1120)">
<path d="M338.165 324.968C411.448 324.968 470.855 265.559 470.855 192.273C470.855 118.987 411.448 59.5778 338.165 59.5778C264.882 59.5778 205.475 118.987 205.475 192.273C205.475 265.559 264.882 324.968 338.165 324.968Z" fill="#0C2C48"/>
<path d="M338.825 275.455C386.222 275.455 424.645 237.031 424.645 189.632C424.645 142.234 386.222 103.81 338.825 103.81C291.428 103.81 253.006 142.234 253.006 189.632C253.006 237.031 291.428 275.455 338.825 275.455Z" fill="#81CAFF"/>
<mask id="mask0_135_1120" style="mask-type:alpha" maskUnits="userSpaceOnUse" x="253" y="103" width="172" height="173">
<path d="M338.825 275.455C386.222 275.455 424.645 237.031 424.645 189.632C424.645 142.234 386.222 103.81 338.825 103.81C291.428 103.81 253.006 142.234 253.006 189.632C253.006 237.031 291.428 275.455 338.825 275.455Z" fill="white"/>
</mask>
<g mask="url(#mask0_135_1120)">
<path d="M305.158 178.409L333.544 185.011L351.698 206.137L331.564 220L317.37 236.835L315.39 262.252L299.216 233.534L290.964 201.846L305.158 178.409Z" fill="#55AB99"/>
</g>
<mask id="mask1_135_1120" style="mask-type:alpha" maskUnits="userSpaceOnUse" x="253" y="103" width="172" height="173">
<path d="M338.825 275.455C386.222 275.455 424.645 237.031 424.645 189.632C424.645 142.234 386.222 103.81 338.825 103.81C291.428 103.81 253.006 142.234 253.006 189.632C253.006 237.031 291.428 275.455 338.825 275.455Z" fill="white"/>
</mask>
<g mask="url(#mask1_135_1120)">
<path d="M303.837 185.011L300.206 169.167L311.099 168.177L312.089 157.614L326.612 149.362L340.806 136.488L337.175 126.586L327.273 125.595L326.612 118.994L295.255 82.6839L273.47 93.9069L258.947 136.818L303.837 185.011Z" fill="#55AB99"/>
</g>
<mask id="mask2_135_1120" style="mask-type:alpha" maskUnits="userSpaceOnUse" x="253" y="103" width="172" height="173">
<path d="M338.825 275.455C386.222 275.455 424.645 237.031 424.645 189.632C424.645 142.234 386.222 103.81 338.825 103.81C291.428 103.81 253.006 142.234 253.006 189.632C253.006 237.031 291.428 275.455 338.825 275.455Z" fill="white"/>
</mask>
<g mask="url(#mask2_135_1120)">
<path d="M317.7 124.275L322.982 133.187L330.243 133.847L341.466 115.693L331.234 115.032L317.7 124.275ZM383.715 172.468L375.464 180.06L358.3 168.837L359.62 159.264L366.552 154.313L381.075 153.323L375.464 140.119L366.552 132.857L379.755 104.8L439.828 140.449L435.537 233.534L374.473 289.649L367.872 202.176L376.784 188.972L388.006 179.73L406.491 172.468L403.52 163.555L383.715 172.468ZM355.659 156.293L339.485 166.856L338.495 155.303L350.708 134.178L358.63 131.207L355.659 156.293Z" fill="#55AB99"/>
</g>
<path d="M420.354 151.012L313.409 122.294C306.808 120.644 295.255 123.945 293.275 131.207C291.624 138.139 300.536 146.391 307.138 148.041L415.403 170.817L420.354 151.012Z" fill="white"/>
<path d="M346.747 151.342C347.407 154.643 362.921 215.049 362.921 215.049L383.385 221.981L380.084 158.604L346.747 151.342ZM351.038 133.847C353.018 131.207 394.278 84.3343 394.278 84.3343L415.733 87.6352L383.715 142.76L351.038 133.847ZM440.158 162.235C441.148 162.565 441.808 163.555 441.478 164.546C441.148 165.536 440.158 166.196 439.168 166.196L406.821 158.604C405.83 158.274 405.17 157.284 405.5 156.293C405.83 155.303 406.821 154.643 407.811 154.643L440.158 162.235Z" fill="white"/>
<path d="M404.18 156.954C405.17 157.944 422.664 182.04 422.664 182.04L438.508 186.331L429.596 162.565L404.18 156.954ZM406.16 155.303C407.481 154.973 434.217 141.439 434.217 141.439L450.39 144.74L431.576 161.905L406.16 155.303Z" fill="white"/>
</g>
<path d="M39.0358 60.3175V40.5175H31.5478V35.1175H52.8238V40.5175H45.1558V60.3175H39.0358ZM54.3971 60.3175V41.2015H59.8691L60.1211 47.4295L59.0411 46.2415C59.3291 45.2095 59.7971 44.2855 60.4451 43.4695C61.1171 42.6535 61.8971 42.0055 62.7851 41.5255C63.6731 41.0455 64.6211 40.8055 65.6291 40.8055C66.0611 40.8055 66.4571 40.8415 66.8171 40.9135C67.2011 40.9855 67.5491 41.0695 67.8611 41.1655L66.2771 47.5375C66.0131 47.3695 65.6531 47.2375 65.1971 47.1415C64.7651 47.0215 64.3091 46.9615 63.8291 46.9615C63.3011 46.9615 62.8091 47.0575 62.3531 47.2495C61.8971 47.4175 61.5131 47.6695 61.2011 48.0055C60.8891 48.3415 60.6371 48.7375 60.4451 49.1935C60.2771 49.6495 60.1931 50.1655 60.1931 50.7415V60.3175H54.3971ZM77.0273 60.6415C75.4193 60.6415 73.9793 60.2215 72.7073 59.3815C71.4593 58.5175 70.4633 57.3415 69.7193 55.8535C68.9753 54.3415 68.6033 52.6375 68.6033 50.7415C68.6033 48.7975 68.9753 47.0815 69.7193 45.5935C70.4633 44.1055 71.4833 42.9415 72.7793 42.1015C74.0753 41.2375 75.5513 40.8055 77.2073 40.8055C78.1193 40.8055 78.9473 40.9375 79.6913 41.2015C80.4593 41.4655 81.1313 41.8375 81.7073 42.3175C82.2833 42.7735 82.7753 43.3135 83.1833 43.9375C83.5913 44.5375 83.8913 45.1855 84.0833 45.8815L82.8953 45.7375V41.2015H88.6193V60.3175H82.7873V55.7095L84.0833 55.6735C83.8913 56.3455 83.5793 56.9815 83.1473 57.5815C82.7153 58.1815 82.1873 58.7095 81.5633 59.1655C80.9393 59.6215 80.2433 59.9815 79.4753 60.2455C78.7073 60.5095 77.8913 60.6415 77.0273 60.6415ZM78.6113 55.7815C79.4993 55.7815 80.2673 55.5775 80.9153 55.1695C81.5633 54.7615 82.0673 54.1855 82.4273 53.4415C82.7873 52.6735 82.9673 51.7735 82.9673 50.7415C82.9673 49.7095 82.7873 48.8215 82.4273 48.0775C82.0673 47.3095 81.5633 46.7215 80.9153 46.3135C80.2673 45.8815 79.4993 45.6655 78.6113 45.6655C77.7473 45.6655 76.9913 45.8815 76.3433 46.3135C75.7193 46.7215 75.2273 47.3095 74.8673 48.0775C74.5073 48.8215 74.3273 49.7095 74.3273 50.7415C74.3273 51.7735 74.5073 52.6735 74.8673 53.4415C75.2273 54.1855 75.7193 54.7615 76.3433 55.1695C76.9913 55.5775 77.7473 55.7815 78.6113 55.7815ZM99.1479 60.3175L91.1559 41.2015H97.5279L102.28 55.4935L100.876 55.6375L105.772 41.2015H112.072L103.684 60.3175H99.1479ZM123.657 60.6775C121.545 60.6775 119.709 60.2575 118.149 59.4175C116.589 58.5535 115.377 57.3895 114.513 55.9255C113.649 54.4375 113.217 52.7455 113.217 50.8495C113.217 49.3855 113.457 48.0415 113.937 46.8175C114.417 45.5935 115.089 44.5375 115.953 43.6495C116.817 42.7375 117.837 42.0415 119.013 41.5615C120.213 41.0575 121.521 40.8055 122.937 40.8055C124.281 40.8055 125.505 41.0455 126.609 41.5255C127.737 42.0055 128.709 42.6775 129.525 43.5415C130.341 44.4055 130.965 45.4255 131.397 46.6015C131.829 47.7775 132.021 49.0615 131.973 50.4535L131.937 52.0015H116.709L115.881 48.7615H127.257L126.645 49.4455V48.7255C126.597 48.1255 126.405 47.5975 126.069 47.1415C125.757 46.6615 125.337 46.2895 124.809 46.0255C124.281 45.7615 123.681 45.6295 123.009 45.6295C122.073 45.6295 121.269 45.8215 120.597 46.2055C119.949 46.5655 119.457 47.1055 119.121 47.8255C118.785 48.5215 118.617 49.3855 118.617 50.4175C118.617 51.4735 118.833 52.3975 119.265 53.1895C119.721 53.9575 120.369 54.5575 121.209 54.9895C122.073 55.4215 123.093 55.6375 124.269 55.6375C125.085 55.6375 125.805 55.5175 126.429 55.2775C127.077 55.0375 127.773 54.6295 128.517 54.0535L131.217 57.8695C130.473 58.5175 129.681 59.0455 128.841 59.4535C128.001 59.8615 127.137 60.1615 126.249 60.3535C125.385 60.5695 124.521 60.6775 123.657 60.6775ZM135.679 60.3175V33.6775H141.439V60.3175H135.679Z" fill="white"/>
<defs>
<clipPath id="clip0_135_1120">
<rect width="265.05" height="265.06" fill="white" transform="translate(205.475 59.5778)"/>
</clipPath>
</defs>
</svg>