<svg width="57" height="82" viewBox="0 0 57 82" fill="none" xmlns="http://www.w3.org/2000/svg">
<path d="M21.3497 53.3791V79.3224C21.3497 80.2545 22.1053 81.0101 23.0374 81.0101H33.9624C34.8945 81.0101 35.6501 80.2545 35.6501 79.3224V53.3902C33.1917 53.5239 30.7302 53.5848 28.2848 53.5848C25.9796 53.5848 23.663 53.5173 21.3497 53.3791ZM29.6491 0.456971L46.1884 15.9046C46.4076 16.0824 46.5785 16.3125 46.6853 16.5737C47.0392 17.436 46.6271 18.422 45.7648 18.7759L45.7627 18.7708C44.6643 19.2216 43.3435 19.6065 41.8653 19.9248C41.381 20.0287 40.8949 20.1235 40.407 20.2091L49.8181 28.999C50.0376 29.1769 50.2087 29.4073 50.3156 29.6688C50.6695 30.5311 50.2573 31.5171 49.395 31.871L49.3929 31.8658C48.2366 32.3403 46.8813 32.7527 45.3782 33.1027C44.8492 33.2258 44.2961 33.3425 43.7213 33.4526L56.3757 45.2718C56.5952 45.4497 56.7663 45.68 56.8732 45.9416C57.2271 46.8039 56.815 47.7899 55.9526 48.1437L55.9505 48.1385C49.9453 50.603 39.0971 51.8971 28.2847 51.8971C17.8801 51.8971 7.4042 50.6996 1.18916 48.195C0.908098 48.1084 0.654691 47.9496 0.454264 47.7343C-0.181898 47.0532 -0.145453 45.9852 0.535696 45.349L1.68767 46.5824L0.540548 45.3496L13.262 33.4678C12.7044 33.3594 12.1658 33.2443 11.6487 33.1224C10.2104 32.7834 8.8944 32.3835 7.74148 31.9206C7.4625 31.8337 7.21101 31.6754 7.01186 31.4616C6.37565 30.7804 6.41209 29.7124 7.0933 29.0762L8.24527 30.3096L7.09815 29.0768L16.576 20.2245C16.1008 20.1401 15.6273 20.0467 15.1557 19.9443C13.7538 19.6388 12.4761 19.2668 11.3736 18.8262C11.0939 18.7394 10.8417 18.5809 10.6421 18.3666C10.0059 17.6854 10.0423 16.6174 10.7235 15.9812L11.8754 17.2146L10.7283 15.9818L27.2688 0.533075C27.9053 -0.145543 28.9714 -0.181089 29.6516 0.454281L29.6491 0.457022L29.6491 0.456971Z" fill="#2A7844"/>
</svg>