<svg width="37" height="40" viewBox="0 0 37 40" fill="none" xmlns="http://www.w3.org/2000/svg">
<path d="M8.53853 9.88708V0.914673H5.69178C2.56327 0.914673 0 3.60729 0 6.89568V9.88708H8.53853ZM28.4623 9.88708H37V6.89568C37 3.60729 34.4376 0.914673 31.3074 0.914673H28.4623V9.88708ZM28.4623 30.8224V39.7948H31.3074C34.4376 39.7948 37 37.1022 37 33.8129V30.8224H28.4623ZM8.53853 30.8224H0V33.8129C0 37.1022 2.56327 39.7948 5.69178 39.7948H8.53853V30.8224ZM14.2303 0.914673H22.7688V9.88708H14.2303V0.914673ZM14.2303 15.8681H22.7688V24.8405H14.2303V15.8681ZM14.2303 30.8224H22.7688V39.7948H14.2303V30.8224ZM0 15.8681H8.53853V24.8405H0V15.8681ZM28.4623 15.8681H37V24.8405H28.4623V15.8681Z" fill="#875D1D"/>
</svg>