<svg width="114" height="43" viewBox="0 0 114 43" fill="none" xmlns="http://www.w3.org/2000/svg">
<path d="M94.0783 21.0937C94.7175 16.7548 98.2665 13.4344 102.549 13.4344C106.832 13.4344 110.38 16.7548 111.02 21.0937H94.0783ZM111.02 23.9063H112.968H113.92C113.971 23.4447 114 22.9759 114 22.5C114 15.8132 108.873 10.3927 102.549 10.3927C96.2249 10.3927 91.098 15.8132 91.098 22.5C91.098 29.1868 96.2249 34.6077 102.549 34.6077C107.215 34.6077 111.226 31.6555 113.01 27.4226H109.742C108.214 29.9141 105.566 31.5656 102.549 31.5656C98.2665 31.5656 94.7175 28.2452 94.0783 23.9063H102.804H111.02ZM58.8927 31.167H64.8522V34.0253H58.8927H56.1894H50.2304V31.167H56.1894V14.7723C56.1894 14.2534 55.7918 13.833 55.301 13.833H50.2304V10.9747H55.301C57.2847 10.9747 58.8927 12.6749 58.8927 14.7723V31.167ZM86.131 19.2127V34.0253H83.4277V19.2127C83.4277 15.9201 80.903 13.251 77.7889 13.251C74.6753 13.251 72.1506 15.9201 72.1506 19.2127V34.0253H69.4473V19.2127C69.4473 14.3416 73.1819 10.3927 77.7889 10.3927C82.3963 10.3927 86.131 14.3416 86.131 19.2127ZM42.22 10.9747H44.9233V25.7873C44.9233 30.6589 41.1886 34.6077 36.5817 34.6077C31.9747 34.6077 28.24 30.6589 28.24 25.7873V10.9747H30.9433V25.7873C30.9433 29.0799 33.4676 31.7494 36.5817 31.7494C39.6957 31.7494 42.22 29.0799 42.22 25.7873V10.9747ZM18.8383 27.9607L14.1619 23.0162L6.65748 15.0814C8.10261 13.9546 9.88829 13.2877 11.8216 13.2877C16.6338 13.2877 20.5347 17.4123 20.5347 22.5C20.5347 24.5442 19.9039 26.4323 18.8383 27.9607ZM11.8216 31.7123C7.00988 31.7123 3.10897 27.5881 3.10897 22.5C3.10897 20.4558 3.73973 18.5677 4.80538 17.0397L16.9862 29.9186C15.541 31.0454 13.7554 31.7123 11.8216 31.7123ZM21.8326 31.1268L20.7898 30.0242C22.3428 27.9576 23.2726 25.3444 23.2726 22.5C23.2726 15.8132 18.1462 10.3927 11.8216 10.3927C9.13188 10.3927 6.66002 11.3759 4.70597 13.018L6.22978 14.6292L1.85167 10L0 11.9583L2.85387 14.9758C1.30087 17.0424 0.371011 19.6556 0.371011 22.5C0.371011 29.1868 5.49749 34.6077 11.8216 34.6077C14.5118 34.6077 16.9832 33.6241 18.9377 31.9825L21.7915 35L23.6436 33.0417L21.8326 31.1268Z" fill="black"/>
</svg>
