<svg width="314" height="291" viewBox="0 0 314 291" fill="none" xmlns="http://www.w3.org/2000/svg">
<path d="M201.857 291H22.4286C16.4801 291 10.7754 288.642 6.56918 284.444C2.36301 280.246 0 274.552 0 268.615C0 262.679 2.36301 256.985 6.56918 252.787C10.7754 248.589 16.4801 246.231 22.4286 246.231H201.857C219.702 246.231 236.817 239.156 249.435 226.562C262.054 213.968 269.143 196.887 269.143 179.077C269.143 161.267 262.054 144.186 249.435 131.592C236.817 118.998 219.702 111.923 201.857 111.923H76.4814L105.639 140.799C109.862 145.015 112.235 150.731 112.235 156.692C112.235 162.654 109.862 168.37 105.639 172.586C101.415 176.801 95.6871 179.169 89.7143 179.169C83.7415 179.169 78.0134 176.801 73.79 172.586C0 99.1641 4.03714 103.865 1.79428 98.0449C0.0767168 93.9684 -0.392543 89.4755 0.445705 85.1331C1.28395 80.7908 3.39215 76.7935 6.50428 73.6457C76.4814 4.0296 76.7057 0.000377655 89.7143 0.000377655C94.1692 -0.0254787 98.5308 1.27332 102.243 3.73117C105.956 6.18902 108.85 9.69456 110.559 13.8009C112.267 17.9072 112.711 22.4282 111.835 26.7876C110.959 31.1469 108.802 35.1471 105.639 38.278L76.4814 67.1541H201.857C231.599 67.1541 260.123 78.946 281.154 99.9356C302.185 120.925 314 149.393 314 179.077C314 208.761 302.185 237.229 281.154 258.219C260.123 279.208 231.599 291 201.857 291Z" fill="white"/>
</svg>
