<svg width="163" height="247" viewBox="0 0 163 247" fill="none" xmlns="http://www.w3.org/2000/svg">
<path d="M0.500016 225.683C0.500016 224.709 0.980037 223.704 2.00942 222.675C3.04013 221.644 4.58649 220.625 6.6225 219.64C10.6923 217.67 16.6136 215.882 23.9711 214.376C38.6778 211.366 59.0176 209.5 81.5 209.5C103.982 209.5 124.322 211.366 139.029 214.376C146.386 215.882 152.308 217.67 156.377 219.64C158.413 220.625 159.96 221.644 160.991 222.675C162.02 223.704 162.5 224.709 162.5 225.683L162.5 230.317C162.5 231.291 162.02 232.296 160.991 233.325C159.96 234.356 158.413 235.375 156.377 236.36C152.308 238.33 146.386 240.118 139.029 241.624C124.322 244.634 103.982 246.5 81.5 246.5C59.0176 246.5 38.6778 244.634 23.9711 241.624C16.6136 240.118 10.6923 238.33 6.62249 236.36C4.58648 235.375 3.04011 234.356 2.00941 233.325C0.980022 232.296 0.5 231.291 0.5 230.317L0.500016 225.683Z" fill="#9F9F9F" stroke="black"/>
<path d="M2.50002 25.5C2.50002 24.5359 2.96846 23.5428 3.97122 22.5257C4.97555 21.5071 6.48267 20.5004 8.46778 19.5263C12.436 17.5791 18.2104 15.8117 25.3866 14.3223C39.7309 11.3452 59.5702 9.5 81.5 9.5C103.43 9.5 123.269 11.3452 137.613 14.3223C144.79 15.8117 150.564 17.5791 154.532 19.5263C156.517 20.5004 158.024 21.5071 159.029 22.5257C160.032 23.5428 160.5 24.5359 160.5 25.5L160.5 227.005C160.5 227.969 160.032 228.962 159.029 229.979C158.024 230.998 156.517 232.005 154.532 232.979C150.564 234.926 144.79 236.693 137.613 238.183C123.269 241.16 103.43 243.005 81.5 243.005C59.5702 243.005 39.7309 241.16 25.3866 238.183C18.2104 236.693 12.436 234.926 8.46776 232.979C6.48265 232.005 4.97553 230.998 3.9712 229.979C2.96844 228.962 2.5 227.969 2.5 227.005L2.50002 25.5Z" fill="#C03236" stroke="black"/>
<path d="M0.500016 17.41C0.500016 16.4172 0.982448 15.3961 2.01185 14.352C3.04282 13.3063 4.58923 12.2736 6.62494 11.2747C10.6944 9.27787 16.6152 7.46572 23.9724 5.93876C38.6786 2.88653 59.0179 0.994881 81.4999 0.994881C103.982 0.994881 124.321 2.88653 139.027 5.93876C146.385 7.46572 152.305 9.27787 156.375 11.2747C158.411 12.2736 159.957 13.3063 160.988 14.352C162.017 15.3961 162.5 16.4172 162.5 17.41L162.5 29.2044C162.5 30.1972 162.017 31.2183 160.988 32.2624C159.957 33.3081 158.411 34.3408 156.375 35.3397C152.305 37.3365 146.385 39.1487 139.027 40.6756C124.321 43.7279 103.982 45.6195 81.4999 45.6195C59.0179 45.6195 38.6785 43.7279 23.9724 40.6756C16.6152 39.1487 10.6943 37.3365 6.62493 35.3397C4.58921 34.3408 3.04281 33.3081 2.01184 32.2624C0.982433 31.2183 0.5 30.1972 0.5 29.2044L0.500016 17.41Z" fill="#D1CFCF" stroke="black"/>
<path d="M162.5 17.4277C162.5 18.4611 162.013 19.5184 160.983 20.5943C159.951 21.6723 158.405 22.7362 156.37 23.7651C152.301 25.822 146.381 27.6888 139.025 29.262C124.32 32.4064 103.981 34.3553 81.5 34.3553C59.0187 34.3553 38.6804 32.4064 23.9754 29.262C16.6187 27.6888 10.6989 25.822 6.63027 23.7651C4.59518 22.7362 3.04864 21.6723 2.01704 20.5943C0.987463 19.5184 0.5 18.4611 0.5 17.4277C0.5 16.3942 0.987463 15.337 2.01704 14.2611C3.04864 13.1831 4.59518 12.1191 6.63027 11.0903C10.6989 9.03331 16.6187 7.1665 23.9754 5.59339C38.6804 2.44892 59.0187 0.5 81.5 0.5C103.981 0.5 124.32 2.44892 139.025 5.59339C146.381 7.1665 152.301 9.03331 156.37 11.0903C158.405 12.1191 159.951 13.1831 160.983 14.2611C162.013 15.337 162.5 16.3942 162.5 17.4277Z" fill="#DBDADA" stroke="black"/>
<path d="M25.8504 118.049L26.8259 100.622L33.8036 101.012C35.0857 101.084 36.1444 101.334 36.9797 101.762C37.8151 102.19 38.4294 102.753 38.8228 103.453C39.2164 104.146 39.3888 104.93 39.3399 105.803C39.3018 106.484 39.1322 107.075 38.831 107.576C38.5301 108.071 38.1322 108.47 37.6372 108.773C37.1483 109.07 36.5965 109.269 35.9819 109.371L35.9723 109.542C36.6345 109.607 37.2452 109.829 37.8045 110.207C38.3694 110.586 38.816 111.098 39.1441 111.742C39.4726 112.381 39.6128 113.128 39.5649 113.985C39.5131 114.91 39.2372 115.722 38.737 116.423C38.2428 117.118 37.5387 117.65 36.6245 118.02C35.7104 118.39 34.6009 118.539 33.2961 118.466L25.8504 118.049ZM29.7036 115.243L32.7074 115.411C33.7342 115.468 34.494 115.315 34.9868 114.949C35.4798 114.579 35.7448 114.064 35.7816 113.406C35.8086 112.924 35.7161 112.492 35.5042 112.11C35.2922 111.729 34.9766 111.421 34.5572 111.187C34.1435 110.953 33.6416 110.82 33.0516 110.787L29.9627 110.614L29.7036 115.243ZM30.1023 108.12L32.8338 108.273C33.3387 108.302 33.7917 108.239 34.193 108.085C34.6003 107.925 34.9266 107.688 35.1719 107.371C35.4229 107.055 35.5613 106.667 35.587 106.208C35.6223 105.578 35.4266 105.058 35 104.647C34.5791 104.237 33.9602 104.009 33.1433 103.963L30.3437 103.806L30.1023 108.12Z" fill="white"/>
<path d="M49.8937 119.239L45.9412 119.112L52.5266 101.86L57.2798 102.014L62.7308 119.653L58.7783 119.526L54.8427 105.926L54.7064 105.921L49.8937 119.239ZM49.868 112.374L59.204 112.675L59.1111 115.554L49.775 115.253L49.868 112.374Z" fill="white"/>
<path d="M69.9428 119.782L70.0836 102.328L73.7738 102.358L73.7118 110.054L73.9419 110.056L80.285 102.41L84.7081 102.446L78.168 110.209L84.6441 119.901L80.2294 119.865L75.5062 112.651L73.6731 114.852L73.6331 119.812L69.9428 119.782Z" fill="white"/>
<path d="M95.504 102.349L95.6823 119.803L91.9921 119.84L91.8138 102.387L95.504 102.349Z" fill="white"/>
<path d="M118.129 101.822L118.636 119.269L115.45 119.362L107.54 108.601L107.412 108.605L107.731 119.586L104.042 119.693L103.536 102.246L106.773 102.152L114.623 112.906L114.776 112.901L114.457 101.928L118.129 101.822Z" fill="white"/>
<path d="M138.014 106.504C137.872 106.096 137.685 105.739 137.452 105.433C137.219 105.122 136.94 104.864 136.616 104.659C136.297 104.449 135.936 104.295 135.533 104.198C135.135 104.1 134.697 104.064 134.221 104.09C133.33 104.138 132.559 104.402 131.908 104.881C131.263 105.36 130.776 106.032 130.447 106.898C130.119 107.758 129.987 108.795 130.053 110.009C130.119 111.223 130.36 112.246 130.775 113.077C131.19 113.908 131.747 114.529 132.446 114.941C133.146 115.347 133.955 115.524 134.874 115.475C135.708 115.429 136.412 115.243 136.986 114.916C137.565 114.583 137.996 114.135 138.279 113.574C138.567 113.012 138.691 112.359 138.65 111.616L139.405 111.686L134.912 111.93L134.761 109.156L142.054 108.76L142.173 110.955C142.257 112.487 142.005 113.821 141.418 114.957C140.831 116.087 139.986 116.981 138.884 117.638C137.781 118.29 136.498 118.655 135.034 118.735C133.4 118.824 131.945 118.541 130.669 117.888C129.393 117.229 128.372 116.252 127.608 114.956C126.848 113.655 126.419 112.085 126.319 110.246C126.242 108.834 126.378 107.563 126.726 106.435C127.08 105.3 127.608 104.327 128.309 103.515C129.01 102.703 129.843 102.069 130.809 101.612C131.774 101.156 132.832 100.896 133.984 100.834C134.971 100.78 135.898 100.875 136.765 101.118C137.631 101.355 138.408 101.717 139.094 102.203C139.787 102.689 140.362 103.281 140.821 103.979C141.28 104.671 141.592 105.445 141.758 106.3L138.014 106.504Z" fill="white"/>
<path d="M18.8458 149.049L19.8078 131.621L26.6836 132C28.0055 132.073 29.1177 132.388 30.0202 132.944C30.9231 133.495 31.5939 134.229 32.0326 135.146C32.4773 136.059 32.6677 137.093 32.6038 138.251C32.54 139.408 32.234 140.415 31.6859 141.273C31.1378 142.13 30.3764 142.78 29.4018 143.221C28.4328 143.663 27.2788 143.846 25.94 143.773L21.5574 143.531L21.7204 140.578L25.5073 140.787C26.2164 140.826 26.8075 140.736 27.2805 140.518C27.7595 140.294 28.1245 139.97 28.3755 139.545C28.6325 139.116 28.7769 138.614 28.8085 138.041C28.8404 137.463 28.752 136.951 28.5432 136.507C28.3404 136.058 28.0129 135.701 27.5609 135.437C27.1092 135.168 26.5259 135.013 25.8111 134.974L23.3262 134.836L22.5305 149.252L18.8458 149.049Z" fill="white"/>
<path d="M56.2024 141.965C56.1375 143.867 55.7217 145.473 54.955 146.783C54.1939 148.093 53.1824 149.079 51.9205 149.741C50.6644 150.397 49.267 150.699 47.7281 150.647C46.1778 150.594 44.7986 150.194 43.5904 149.448C42.3822 148.702 41.4431 147.649 40.7732 146.291C40.1032 144.932 39.8006 143.304 39.8653 141.407C39.9302 139.505 40.3432 137.899 41.1042 136.589C41.8653 135.279 42.8738 134.296 44.1299 133.639C45.3862 132.977 46.7894 132.673 48.3397 132.725C49.8785 132.778 51.2521 133.177 52.4603 133.923C53.6744 134.664 54.6164 135.714 55.2863 137.073C55.962 138.432 56.2673 140.063 56.2024 141.965ZM52.4631 141.837C52.5052 140.605 52.3561 139.56 52.0158 138.701C51.6813 137.842 51.1893 137.183 50.5398 136.723C49.8903 136.263 49.1198 136.018 48.2283 135.988C47.3368 135.957 46.5514 136.149 45.8721 136.564C45.1928 136.979 44.6541 137.603 44.2561 138.436C43.8638 139.27 43.6467 140.303 43.6046 141.535C43.5626 142.767 43.7088 143.813 44.0434 144.671C44.3836 145.53 44.8785 146.189 45.5279 146.649C46.1774 147.109 46.9479 147.354 47.8394 147.385C48.7309 147.415 49.5163 147.223 50.1957 146.808C50.875 146.394 51.4108 145.77 51.8031 144.936C52.201 144.102 52.4211 143.07 52.4631 141.837Z" fill="white"/>
<path d="M67.8598 150.931L63.0206 133.433L67.0517 133.469L69.8331 145.622L69.978 145.623L73.2731 133.524L76.7246 133.555L79.7956 145.736L79.949 145.737L82.946 133.61L86.9771 133.646L81.828 151.055L78.2315 151.023L75.0091 139.582L74.8727 139.581L71.4562 150.963L67.8598 150.931Z" fill="white"/>
<path d="M100.184 150.921L93.9975 151.02L93.7202 133.567L99.958 133.468C101.713 133.44 103.23 133.766 104.508 134.444C105.786 135.117 106.776 136.099 107.479 137.389C108.187 138.679 108.555 140.23 108.584 142.043C108.613 143.861 108.294 145.428 107.627 146.746C106.966 148.063 106.002 149.082 104.735 149.801C103.474 150.52 101.957 150.893 100.184 150.921ZM97.6371 147.8L99.9806 147.762C101.071 147.745 101.986 147.537 102.724 147.139C103.468 146.735 104.02 146.121 104.382 145.297C104.75 144.467 104.923 143.402 104.903 142.101C104.882 140.811 104.675 139.761 104.281 138.949C103.893 138.136 103.324 137.543 102.574 137.169C101.824 136.794 100.903 136.616 99.8123 136.633L97.4603 136.67L97.6371 147.8Z" fill="white"/>
<path d="M117.048 150.557L116.42 133.114L128.173 132.691L128.283 135.732L120.217 136.022L120.367 140.178L127.828 139.91L127.937 142.95L120.476 143.219L120.626 147.384L128.726 147.092L128.835 150.133L117.048 150.557Z" fill="white"/>
<path d="M137.083 149.763L136.121 132.335L142.997 131.956C144.313 131.883 145.45 132.057 146.406 132.476C147.368 132.89 148.116 133.511 148.651 134.341C149.192 135.165 149.494 136.152 149.557 137.304C149.621 138.461 149.427 139.471 148.973 140.332C148.52 141.188 147.832 141.863 146.909 142.358C145.991 142.853 144.863 143.137 143.524 143.211L138.921 143.465L138.757 140.504L142.765 140.282C143.469 140.243 144.048 140.115 144.502 139.896C144.957 139.678 145.287 139.369 145.493 138.971C145.704 138.572 145.794 138.086 145.762 137.513C145.73 136.935 145.587 136.453 145.332 136.069C145.084 135.684 144.718 135.403 144.236 135.225C143.759 135.041 143.166 134.968 142.457 135.007L139.972 135.144L140.768 149.56L137.083 149.763ZM146.057 141.313L150.826 149.005L146.759 149.229L142.083 141.532L146.057 141.313Z" fill="white"/>
</svg>
