<svg width="66" height="103" viewBox="0 0 66 103" fill="none" xmlns="http://www.w3.org/2000/svg">
<g clip-path="url(#clip0_823_395)">
<path d="M17.2429 52.2143L65.7625 30.4095V98.7083C65.7625 100.947 63.9553 102.762 61.7265 102.762H16.7405C15.0667 102.762 13.4707 102.052 12.3457 100.807L1.53129 88.8418C0.698597 87.9205 0.237305 86.7207 0.237305 85.4766V44.3201L11.0276 51.6669C12.8651 52.9181 15.2165 53.1251 17.2429 52.2143Z" fill="url(#paint0_linear_823_395)" stroke="black"/>
<path d="M66 31.2338L17.146 53.189C15.1947 54.0659 12.9304 53.8666 11.1609 52.6616L0 45.0625V40.5324L11.1609 48.1315C12.9304 49.3365 15.1947 49.5358 17.146 48.6589L66 26.7037V31.2338Z" fill="url(#paint1_linear_823_395)"/>
<path d="M65.7625 27.3749L17.0489 49.2669C15.1726 50.11 12.9955 49.9183 11.294 48.76L0.237305 41.2317V2.01788C0.237305 1.09515 0.977245 0.349891 1.89314 0.354617C3.32077 0.361985 5.03845 0.375709 6.98431 0.391256C15.1431 0.456443 27.314 0.553685 38.9393 0.348858C45.7076 0.229607 50.7738 0.170262 54.57 0.36349C58.3733 0.557085 60.8647 1.00345 62.5062 1.87122C64.122 2.72521 64.933 3.99789 65.3446 5.92734C65.7611 7.87867 65.7625 10.4712 65.7625 13.9392V27.3749Z" fill="url(#paint2_linear_823_395)" stroke="black"/>
<path d="M34.8947 55.7883C34.5171 55.9609 34.1551 56.0739 33.8087 56.1259C33.4653 56.1703 33.1373 56.1612 32.8246 56.0987C32.5095 56.0305 32.2052 55.9209 31.9119 55.7697L32.3198 54.4178C32.7605 54.661 33.1464 54.7831 33.4774 54.784C33.8139 54.7831 34.1299 54.7144 34.4254 54.5795C34.5732 54.5118 34.6985 54.4312 34.8015 54.3377C34.9044 54.2438 34.9725 54.1465 35.0058 54.0449C35.0366 53.9376 35.027 53.8294 34.9771 53.7192C34.9397 53.6372 34.8841 53.5728 34.8104 53.5271C34.7422 53.4784 34.6613 53.446 34.5677 53.4288C34.4741 53.4121 34.3693 53.4069 34.2533 53.4136C34.1348 53.4145 34.0146 53.4264 33.8927 53.4489C33.7683 53.466 33.6436 53.4899 33.5187 53.5209C33.1689 53.5943 32.8526 53.6329 32.5699 53.6363C32.2872 53.6396 32.0327 53.6034 31.8067 53.5275C31.5836 53.4441 31.3901 53.3235 31.2262 53.1661C31.0598 53.003 30.9217 52.8008 30.812 52.5591C30.6947 52.3006 30.645 52.0383 30.6627 51.7713C30.6833 51.4962 30.7572 51.2367 30.8844 50.9926C31.0145 50.7403 31.1923 50.5134 31.4176 50.3107C31.6404 50.1023 31.8941 49.933 32.1786 49.8029C32.5563 49.6302 32.8979 49.5234 33.2035 49.4834C33.512 49.4347 33.7958 49.4409 34.0546 49.502C34.319 49.5601 34.567 49.6622 34.7986 49.8086L34.3144 51.0355C34.1347 50.9454 33.9552 50.8848 33.776 50.8538C33.6022 50.8209 33.4275 50.8143 33.2518 50.8352C33.0816 50.8534 32.9171 50.8987 32.7584 50.9711C32.5942 51.0465 32.4619 51.1337 32.3615 51.2325C32.264 51.3235 32.1999 51.4227 32.1691 51.5295C32.1359 51.6311 32.1429 51.7341 32.1903 51.8385C32.2327 51.932 32.2963 51.9992 32.3809 52.0402C32.4656 52.0813 32.5669 52.1075 32.6849 52.1199C32.8003 52.127 32.927 52.1223 33.0649 52.1056C33.2002 52.0832 33.3386 52.0531 33.4799 52.015C33.8084 51.9377 34.1154 51.8934 34.4011 51.8824C34.6923 51.8686 34.9579 51.8929 35.1978 51.9558C35.4433 52.0159 35.6575 52.1237 35.8403 52.2791C36.0261 52.426 36.1776 52.6292 36.2948 52.8871C36.4769 53.2886 36.533 53.6744 36.4632 54.0449C36.3963 54.4073 36.227 54.7407 35.955 55.0444C35.686 55.3401 35.3326 55.588 34.8947 55.7883ZM39.5432 53.6706C39.2203 53.8184 38.9127 53.8761 38.6205 53.8442C38.3313 53.8041 38.0639 53.6806 37.8183 53.4746C37.5782 53.2658 37.3746 52.9773 37.2074 52.6091L35.9804 49.9049L37.3021 49.2998L38.4469 51.8228C38.5267 51.9988 38.6226 52.1375 38.7347 52.2386C38.8468 52.3402 38.9738 52.4012 39.1157 52.4227C39.255 52.4384 39.4014 52.4112 39.5546 52.3411C39.6695 52.2887 39.7648 52.2219 39.8404 52.1409C39.9214 52.0574 39.9798 51.9673 40.0156 51.8714C40.0543 51.7675 40.0729 51.6626 40.0713 51.5572C40.0672 51.4461 40.0402 51.3359 39.9903 51.2258L38.8043 48.6126L40.1261 48.0075L42.1126 52.3855L40.873 52.9525L40.4078 52.0803L40.6091 51.8686C40.6382 52.1075 40.6136 52.3445 40.5352 52.5796C40.4542 52.8089 40.3295 53.0221 40.161 53.2185C39.9899 53.4098 39.784 53.5604 39.5432 53.6706ZM46.0584 52.8695C45.7027 53.0321 45.3232 53.1427 44.9201 53.2014C44.5225 53.2572 44.1768 53.2529 43.8831 53.188L43.9238 52.0541C44.0736 52.0784 44.2294 52.087 44.3912 52.0793C44.5609 52.0746 44.7299 52.0536 44.8981 52.0164C45.0663 51.9792 45.2298 51.9244 45.3884 51.8519C45.6676 51.7241 45.876 51.5791 46.0137 51.4165C46.1514 51.2539 46.2254 51.067 46.2357 50.8567C46.2484 50.6517 46.1974 50.4228 46.0827 50.17L45.7497 49.4362L46.0229 49.3608C46.0669 49.5601 46.046 49.7685 45.96 49.9874C45.8796 50.2034 45.7512 50.408 45.5747 50.6016C45.3957 50.7899 45.183 50.9401 44.9367 51.0532C44.5426 51.2334 44.1485 51.304 43.7542 51.2654C43.363 51.2191 43.0035 51.0746 42.6757 50.8333C42.3509 50.5835 42.0912 50.2444 41.8967 49.8157C41.6972 49.3761 41.6089 48.9483 41.6319 48.533C41.6524 48.1119 41.7723 47.7352 41.9914 47.4027C42.2081 47.0645 42.508 46.8078 42.8911 46.6325C43.0553 46.5574 43.22 46.5052 43.3852 46.4761C43.5559 46.4444 43.7192 46.4327 43.875 46.441C44.0338 46.4414 44.1824 46.463 44.3208 46.5059C44.4622 46.5407 44.5854 46.5938 44.6905 46.6652C44.8011 46.7341 44.891 46.8157 44.9603 46.9101L44.7193 47.1001L44.3196 46.0882L45.5674 45.5171L47.3931 49.5406C47.5551 49.8977 47.6439 50.2387 47.6591 50.5634C47.6823 50.8915 47.6339 51.1991 47.5128 51.4866C47.4003 51.7775 47.2214 52.0383 46.9762 52.2701C46.731 52.5018 46.4251 52.7016 46.0584 52.8695ZM44.7519 49.903C44.9654 49.8052 45.1275 49.6746 45.2383 49.511C45.3522 49.3394 45.4115 49.1496 45.4162 48.9417C45.4265 48.7314 45.3792 48.5106 45.2745 48.2798C45.1697 48.049 45.0349 47.8683 44.87 47.7381C44.7081 47.5997 44.5266 47.5202 44.3255 47.4994C44.1274 47.4706 43.9216 47.505 43.7081 47.6027C43.5002 47.698 43.342 47.8301 43.2337 47.9989C43.1228 48.1625 43.0635 48.3523 43.0557 48.5683C43.051 48.7762 43.101 48.9955 43.2057 49.2263C43.3105 49.4576 43.4426 49.6393 43.602 49.7719C43.7669 49.9025 43.9484 49.9822 44.1465 50.0108C44.3421 50.0341 44.544 49.9979 44.7519 49.903ZM50.3375 48.7109C49.9705 48.8782 49.5987 48.9326 49.2212 48.873C48.8471 48.8053 48.4976 48.6398 48.1733 48.3771C47.8466 48.1081 47.5845 47.7567 47.3876 47.3226C47.1855 46.8774 47.092 46.4456 47.1071 46.0272C47.1221 45.6088 47.2337 45.2358 47.4419 44.9081C47.6477 44.575 47.9392 44.322 48.3172 44.1492C48.5251 44.054 48.7274 43.9978 48.9245 43.9806C49.1272 43.9609 49.319 43.976 49.5004 44.0258C49.679 44.0701 49.8475 44.1424 50.0052 44.2428C50.1604 44.3376 50.2962 44.4547 50.4126 44.594L50.1267 44.685L49.6552 43.6462L50.9605 43.0488L52.9471 47.4266L51.6172 48.0352L51.1381 46.98L51.4301 46.8365C51.4562 47.0105 51.451 47.1887 51.4149 47.3711C51.3788 47.5536 51.3133 47.7295 51.2183 47.8993C51.1234 48.0685 51.0023 48.224 50.8546 48.3647C50.7069 48.5049 50.5346 48.6203 50.3375 48.7109ZM50.1937 47.4323C50.3959 47.3396 50.5498 47.2128 50.6552 47.0517C50.7606 46.8906 50.8157 46.7061 50.8204 46.4982C50.8228 46.2847 50.7701 46.0598 50.6633 45.8235C50.556 45.5872 50.4225 45.4026 50.263 45.2698C50.1011 45.1315 49.9249 45.0494 49.735 45.0236C49.5422 44.9923 49.3447 45.023 49.1424 45.1156C48.9454 45.2058 48.7953 45.3342 48.6923 45.5007C48.5926 45.6593 48.5413 45.8453 48.5389 46.0588C48.5342 46.2667 48.5855 46.4889 48.6928 46.7252C48.8001 46.9615 48.9344 47.1489 49.0964 47.2872C49.2559 47.42 49.4283 47.5006 49.6125 47.5289C49.8029 47.5547 49.9966 47.5225 50.1937 47.4323ZM54.1062 46.8962L52.1195 42.5184L53.3674 41.9473L54.072 43.3473L53.7021 43.1879C53.6608 42.9215 53.6712 42.6611 53.7344 42.4066C53.8028 42.1496 53.9134 41.9198 54.0658 41.7172C54.2187 41.5145 54.4096 41.3607 54.6394 41.2555C54.7382 41.2104 54.8322 41.1773 54.9219 41.1562C55.0169 41.1326 55.1047 41.1155 55.1859 41.105L55.487 42.7295C55.4096 42.7186 55.3137 42.7259 55.1997 42.7516C55.0886 42.7692 54.9784 42.803 54.8687 42.8531C54.7486 42.9082 54.6465 42.9815 54.5625 43.0731C54.4756 43.1592 54.4143 43.257 54.3783 43.3665C54.3417 43.476 54.3256 43.593 54.3293 43.7175C54.3384 43.8394 54.3726 43.9663 54.4324 44.0983L55.4276 46.2913L54.1062 46.8962Z" fill="black"/>
</g>
<defs>
<linearGradient id="paint0_linear_823_395" x1="-0.000105402" y1="41.4861" x2="65.9999" y2="41.4861" gradientUnits="userSpaceOnUse">
<stop stop-color="#C4B54D"/>
<stop offset="0.260417" stop-color="#F3E15D"/>
<stop offset="0.984375" stop-color="#F3E15D"/>
</linearGradient>
<linearGradient id="paint1_linear_823_395" x1="0" y1="47.4467" x2="66" y2="47.4467" gradientUnits="userSpaceOnUse">
<stop stop-color="#081133"/>
<stop offset="0.260417" stop-color="#0F1F5A"/>
<stop offset="0.984375" stop-color="#0F1F5A"/>
</linearGradient>
<linearGradient id="paint2_linear_823_395" x1="-0.000105402" y1="57.8097" x2="65.9999" y2="57.8097" gradientUnits="userSpaceOnUse">
<stop stop-color="#795C47"/>
<stop offset="0.260417" stop-color="#A8846A"/>
<stop offset="0.984375" stop-color="#A8846A"/>
</linearGradient>
<clipPath id="clip0_823_395">
<rect width="66" height="103" fill="white"/>
</clipPath>
</defs>
</svg>
