<svg width="129" height="76" viewBox="0 0 129 76" fill="none" xmlns="http://www.w3.org/2000/svg">
<path d="M119.888 44.5012L12.7737 1.22423C12.4672 1.10039 12.119 1.247 11.9959 1.55168L1.22266 28.2163C1.09955 28.521 1.24824 28.8684 1.55476 28.9922L108.669 72.2691C108.975 72.393 109.324 72.2464 109.447 71.9417L120.22 45.2771C120.343 44.9724 120.194 44.625 119.888 44.5012Z" fill="#F3E5B8" stroke="black"/>
<path d="M8.12596 15.3901L113.575 57.9942" stroke="#013995"/>
<path d="M20.0769 20.4323L25.7979 6.27246" stroke="#013995"/>
<path d="M101.106 53.1703L106.827 39.0104" stroke="#013995"/>
<path d="M87.6013 47.7139L93.3223 33.5541" stroke="#013995"/>
<path d="M74.0964 42.2576L79.8174 28.0978" stroke="#013995"/>
<path d="M60.5916 36.8012L66.3125 22.6414" stroke="#013995"/>
<path d="M47.0867 31.3449L52.8076 17.1851" stroke="#013995"/>
<path d="M33.5818 25.8886L39.3027 11.7288" stroke="#013995"/>
<path d="M60.0353 37.646L7.68066 16.4933L6.71479 18.884L59.0694 40.0366L60.0353 37.646Z" fill="#013995"/>
<path d="M113.129 59.0976L60.5898 37.8702L59.624 40.2609L112.164 61.4882L113.129 59.0976Z" fill="#013995"/>
<path d="M122.282 26.1255L8.51039 46.1865C8.18482 46.2439 7.96652 46.5491 8.0228 46.8683L12.9479 74.7999C13.0042 75.1191 13.3137 75.3313 13.6393 75.2739L127.411 55.2129C127.736 55.1555 127.954 54.8503 127.898 54.5311L122.973 26.5995C122.917 26.2803 122.607 26.0681 122.282 26.1255Z" fill="#F3E5B8" stroke="black"/>
<path d="M12.041 60.4607L124.044 40.7115" stroke="#013995"/>
<path d="M24.8468 58.4012L22.2314 43.5685" stroke="#013995"/>
<path d="M110.912 43.2255L108.297 28.3929" stroke="#013995"/>
<path d="M96.5675 45.7548L93.9521 30.9222" stroke="#013995"/>
<path d="M82.2238 48.2841L79.6084 33.4514" stroke="#013995"/>
<path d="M67.8791 50.8134L65.2637 35.9807" stroke="#013995"/>
<path d="M53.5353 53.3427L50.9199 38.51" stroke="#013995"/>
<path d="M39.1906 55.8719L36.5752 41.0392" stroke="#013995"/>
<path d="M67.8525 51.8112L12.2441 61.6165L12.6857 64.1207L68.2941 54.3154L67.8525 51.8112Z" fill="#013995"/>
<path d="M124.247 41.8673L68.4424 51.7072L68.8839 54.2114L124.689 44.3715L124.247 41.8673Z" fill="#013995"/>
</svg>