<svg width="66" height="104" viewBox="0 0 66 104" fill="none" xmlns="http://www.w3.org/2000/svg">
<g clip-path="url(#clip0_823_411)">
<path d="M18.7915 51.6009L65.6485 30.5605V96.5744C65.6485 99.8816 62.9764 102.563 59.6804 102.563H18.0487C15.5736 102.563 13.2136 101.514 11.55 99.6752L2.26404 89.4099C1.03271 88.0487 0.350586 86.276 0.350586 84.4378V44.4988L9.60084 50.7918C12.3181 52.6403 15.7951 52.9464 18.7915 51.6009Z" fill="url(#paint0_linear_823_411)" stroke="black"/>
<path d="M66 31.2082L18.6487 52.4705C15.7631 53.7662 12.4149 53.4715 9.79833 51.6913L0 45.0255V40.4991L11.1609 48.092C12.9304 49.2958 15.1947 49.4951 17.146 48.6189L66 26.6818V31.2082Z" fill="url(#paint1_linear_823_411)"/>
<path d="M65.6485 27.2785L17.0022 49.1224C15.1618 49.9488 13.0263 49.7608 11.3574 48.6255L0.350586 41.1374V2.92863C0.350586 1.5662 1.44907 0.465112 2.804 0.473687C4.03186 0.481458 5.43532 0.492662 6.98324 0.50502C15.142 0.570154 27.314 0.667327 38.9409 0.462642C45.7103 0.343471 50.7721 0.2843 54.5638 0.477133C58.3661 0.670506 60.835 1.11618 62.4529 1.97065C64.0322 2.80474 64.827 4.04363 65.2334 5.94642C65.6466 7.8815 65.6485 10.4575 65.6485 13.9278V27.2785Z" fill="url(#paint2_linear_823_411)" stroke="black"/>
<path d="M34.4713 55.2722C34.1187 55.4335 33.7806 55.5386 33.4571 55.5874C33.1364 55.6288 32.83 55.6202 32.538 55.5617C32.2437 55.4981 31.9595 55.3958 31.6856 55.2546L32.0665 53.9934C32.4781 54.2201 32.8385 54.3341 33.1477 54.3352C33.4619 54.3339 33.7571 54.2702 34.0331 54.144C34.171 54.0809 34.2881 54.0057 34.3843 53.9184C34.4804 53.831 34.544 53.74 34.575 53.6453C34.6037 53.5454 34.5948 53.4442 34.5483 53.3416C34.5133 53.2647 34.4614 53.2048 34.3926 53.162C34.3289 53.1167 34.2533 53.0863 34.1659 53.0705C34.0785 53.0547 33.9806 53.05 33.8723 53.0561C33.7617 53.0571 33.6494 53.0682 33.5355 53.0893C33.4193 53.1053 33.3029 53.1276 33.1862 53.1561C32.8595 53.225 32.5641 53.261 32.3001 53.2641C32.0361 53.2672 31.7985 53.2333 31.5873 53.1626C31.379 53.0845 31.1983 52.972 31.0452 52.8252C30.8898 52.6733 30.7609 52.4845 30.6584 52.2588C30.5489 52.0177 30.5024 51.7727 30.5188 51.5235C30.5382 51.2669 30.6072 51.0248 30.726 50.797C30.8475 50.5618 31.0135 50.3496 31.2239 50.1605C31.432 49.9663 31.6689 49.8084 31.9347 49.6868C32.2874 49.5255 32.6064 49.4261 32.8918 49.3885C33.18 49.3434 33.445 49.3492 33.6868 49.4059C33.9336 49.4603 34.1653 49.5556 34.3815 49.6921L33.9294 50.8373C33.7615 50.753 33.5939 50.6965 33.4265 50.6677C33.2642 50.6366 33.1011 50.6307 32.937 50.65C32.778 50.6669 32.6244 50.7094 32.4762 50.7771C32.3228 50.8472 32.1992 50.9285 32.1054 51.021C32.0144 51.1059 31.9546 51.1984 31.9258 51.2982C31.8947 51.393 31.9013 51.4891 31.9456 51.5865C31.9852 51.6737 32.0446 51.7364 32.1236 51.7746C32.2027 51.8128 32.2973 51.8376 32.4075 51.8492C32.5153 51.8556 32.6336 51.851 32.7624 51.8355C32.8888 51.8149 33.018 51.7868 33.15 51.7512C33.4568 51.679 33.7436 51.6377 34.0104 51.6272C34.2823 51.6143 34.5303 51.6372 34.7544 51.6957C34.9837 51.752 35.1837 51.8525 35.3544 51.9974C35.528 52.1348 35.6694 52.3241 35.779 52.5651C35.949 52.9395 36.0014 53.2996 35.9362 53.6454C35.8738 53.9836 35.7156 54.2944 35.4615 54.5778C35.2103 54.8537 34.8802 55.0852 34.4713 55.2722ZM38.8127 53.2962C38.5112 53.4341 38.2239 53.488 37.951 53.458C37.6809 53.4205 37.4311 53.3055 37.2018 53.1131C36.9775 52.9183 36.7873 52.6491 36.6313 52.3054L35.4852 49.782L36.7196 49.2175L37.7887 51.5717C37.8633 51.7358 37.9529 51.8652 38.0576 51.9598C38.1623 52.0544 38.2809 52.1116 38.4134 52.1316C38.5436 52.1464 38.6802 52.1211 38.8233 52.0556C38.9307 52.0065 39.0196 51.9442 39.0902 51.8685C39.1659 51.7906 39.2205 51.7068 39.2539 51.6172C39.29 51.5201 39.3074 51.4224 39.3058 51.3239C39.302 51.2204 39.2768 51.1173 39.2303 51.0147L38.1227 48.5759L39.357 48.0115L41.2123 52.0966L40.0546 52.6261L39.6201 51.8121L39.8082 51.6145C39.8354 51.8375 39.8123 52.0586 39.7391 52.2779C39.6636 52.4921 39.5471 52.6909 39.3897 52.8744C39.2299 53.0528 39.0376 53.1933 38.8127 53.2962ZM44.8974 52.5484C44.5653 52.7003 44.2109 52.8036 43.8343 52.858C43.463 52.9102 43.1401 52.9061 42.8658 52.8457L42.9038 51.7877C43.0437 51.8104 43.1893 51.8182 43.3404 51.8111C43.4989 51.8067 43.6567 51.7872 43.8138 51.7525C43.9708 51.7179 44.1235 51.6666 44.2718 51.5988C44.5324 51.4796 44.7271 51.3442 44.8557 51.1924C44.9843 51.0407 45.0534 50.8666 45.063 50.6702C45.0749 50.479 45.0273 50.2653 44.9201 50.0295L44.6091 49.3447L44.8643 49.2745C44.9054 49.4601 44.8858 49.6549 44.8056 49.8588C44.7305 50.0604 44.6105 50.2515 44.4456 50.4323C44.2784 50.6078 44.0799 50.7482 43.8499 50.8534C43.4819 51.0216 43.1137 51.0878 42.7456 51.0518C42.3801 51.0082 42.0443 50.8738 41.7382 50.6483C41.4349 50.4153 41.1924 50.0989 41.0107 49.6988C40.8244 49.2885 40.7419 48.8895 40.7634 48.5019C40.7825 48.1091 40.8945 47.7574 41.0991 47.4471C41.3016 47.1315 41.5816 46.892 41.9394 46.7284C42.0927 46.6582 42.2465 46.6096 42.4009 46.5823C42.5603 46.5528 42.7128 46.5419 42.8583 46.5497C43.0066 46.55 43.1453 46.5702 43.2746 46.6101C43.4067 46.6427 43.5218 46.6923 43.6199 46.7589C43.7232 46.8231 43.8072 46.8993 43.8719 46.9874L43.6468 47.1647L43.2736 46.2204L44.4389 45.6875L46.144 49.4419C46.2954 49.7753 46.3782 50.0935 46.3925 50.3967C46.4142 50.7027 46.3687 50.9899 46.2559 51.2582C46.1507 51.5293 45.9836 51.773 45.7546 51.9892C45.5256 52.2054 45.2399 52.3918 44.8974 52.5484ZM43.6773 49.7801C43.8766 49.689 44.0281 49.5671 44.1316 49.4145C44.2379 49.2544 44.2933 49.0773 44.2977 48.8832C44.3073 48.6868 44.2631 48.4809 44.1653 48.2655C44.0674 48.0501 43.9416 47.8816 43.7876 47.76C43.6363 47.6309 43.4668 47.5567 43.279 47.5372C43.0939 47.5104 42.9018 47.5425 42.7024 47.6337C42.5082 47.7225 42.3605 47.8458 42.2593 48.0036C42.1558 48.1562 42.1004 48.3333 42.0932 48.5348C42.0887 48.7289 42.1354 48.9336 42.2332 49.1491C42.3311 49.3644 42.4544 49.5341 42.6033 49.658C42.7573 49.7796 42.9268 49.8539 43.1119 49.8807C43.2945 49.9025 43.4831 49.869 43.6773 49.7801ZM48.8937 48.6676C48.5512 48.8242 48.2038 48.8747 47.8514 48.819C47.5017 48.7559 47.1755 48.6016 46.8726 48.3561C46.5674 48.1054 46.3228 47.7775 46.1388 47.3723C45.9501 46.9569 45.8628 46.5539 45.8768 46.1635C45.8908 45.773 45.9951 45.4249 46.1896 45.1192C46.3817 44.8084 46.6542 44.5723 47.0068 44.411C47.201 44.3222 47.3902 44.2697 47.5743 44.2537C47.7634 44.2353 47.9427 44.2494 48.1119 44.2959C48.2789 44.3372 48.436 44.4047 48.5835 44.4983C48.7286 44.5868 48.8554 44.6961 48.9639 44.8261L48.6969 44.911L48.2566 43.9416L49.4757 43.3842L51.331 47.4694L50.089 48.0373L49.6417 47.0526L49.9142 46.9187C49.9386 47.081 49.9339 47.2473 49.9001 47.4176C49.8663 47.5879 49.8051 47.7521 49.7165 47.9104C49.6278 48.0686 49.5146 48.2133 49.3766 48.3445C49.2387 48.4758 49.0777 48.5834 48.8937 48.6676ZM48.7593 47.4747C48.9484 47.3882 49.0922 47.2698 49.1906 47.1195C49.289 46.9692 49.3404 46.797 49.3449 46.603C49.347 46.4038 49.298 46.1939 49.1979 45.9734C49.0977 45.7528 48.9732 45.5806 48.8243 45.4567C48.6731 45.3276 48.5087 45.251 48.3311 45.2269C48.1512 45.1977 47.9666 45.2264 47.7775 45.3128C47.5935 45.397 47.4535 45.5168 47.3574 45.6722C47.2641 45.8202 47.2164 45.9938 47.2142 46.193C47.2098 46.387 47.2576 46.5943 47.3578 46.8149C47.458 47.0354 47.5836 47.2102 47.7349 47.3393C47.8837 47.4632 48.0444 47.5384 48.217 47.5648C48.3945 47.5889 48.5753 47.5589 48.7593 47.4747ZM52.4134 46.9744L50.5581 42.8892L51.7234 42.3563L52.3815 43.6627L52.0362 43.514C51.9974 43.2654 52.0075 43.0223 52.0662 42.7849C52.1301 42.5451 52.2334 42.3306 52.3759 42.1415C52.5185 41.9525 52.697 41.8089 52.9117 41.7107C53.0037 41.6686 53.0915 41.6377 53.1752 41.6181C53.264 41.596 53.3462 41.5801 53.422 41.5703L53.7031 43.0862C53.6306 43.076 53.5411 43.0829 53.4347 43.1068C53.331 43.1232 53.228 43.1548 53.1259 43.2016C53.0134 43.253 52.9179 43.3214 52.8395 43.4069C52.7587 43.4872 52.7013 43.5784 52.6675 43.6806C52.6336 43.7828 52.6184 43.892 52.6217 44.0081C52.6302 44.1219 52.6625 44.2404 52.7184 44.3635L53.6478 46.4099L52.4134 46.9744Z" fill="black"/>
</g>
<defs>
<linearGradient id="paint0_linear_823_411" x1="-0.000477892" y1="41.452" x2="65.9995" y2="41.452" gradientUnits="userSpaceOnUse">
<stop stop-color="#C4B54D"/>
<stop offset="0.260417" stop-color="#F3E15D"/>
<stop offset="0.984375" stop-color="#F3E15D"/>
</linearGradient>
<linearGradient id="paint1_linear_823_411" x1="0" y1="47.4077" x2="66" y2="47.4077" gradientUnits="userSpaceOnUse">
<stop stop-color="#081133"/>
<stop offset="0.260417" stop-color="#0F1F5A"/>
<stop offset="0.984375" stop-color="#0F1F5A"/>
</linearGradient>
<linearGradient id="paint2_linear_823_411" x1="-0.000477892" y1="57.7621" x2="65.9995" y2="57.7621" gradientUnits="userSpaceOnUse">
<stop stop-color="#D1D1D1"/>
<stop offset="0.260417" stop-color="white"/>
<stop offset="0.984375" stop-color="white"/>
</linearGradient>
<clipPath id="clip0_823_411">
<rect width="66" height="103.569" fill="white"/>
</clipPath>
</defs>
</svg>