<svg width="120" height="156" viewBox="0 0 120 156" fill="none" xmlns="http://www.w3.org/2000/svg">
<path d="M0 0V155.188H119.375V0H0Z" fill="#94C1FF"/>
<path d="M13.2707 80.0156V72.3156H16.2847C16.732 72.3156 17.1354 72.422 17.4947 72.6346C17.8614 72.84 18.151 73.1223 18.3637 73.4816C18.5764 73.841 18.6827 74.248 18.6827 74.7026C18.6827 75.128 18.58 75.513 18.3747 75.8576C18.1694 76.2023 17.8907 76.4773 17.5387 76.6826C17.1867 76.8806 16.7907 76.9796 16.3507 76.9796H14.1287V80.0156H13.2707ZM17.9677 80.0156L16.0317 76.6276L16.8567 76.3416L18.9907 80.0156H17.9677ZM14.1287 76.1436H16.4277C16.699 76.1436 16.9374 76.0813 17.1427 75.9566C17.348 75.832 17.5094 75.6633 17.6267 75.4506C17.744 75.2306 17.8027 74.9813 17.8027 74.7026C17.8027 74.402 17.733 74.1343 17.5937 73.8996C17.4544 73.665 17.26 73.4816 17.0107 73.3496C16.7687 73.2176 16.49 73.1516 16.1747 73.1516H14.1287V76.1436ZM22.5176 80.1256C21.9456 80.1256 21.4359 80.001 20.9886 79.7516C20.5486 79.5023 20.2039 79.154 19.9546 78.7066C19.7052 78.2593 19.5806 77.746 19.5806 77.1666C19.5806 76.7193 19.6502 76.316 19.7896 75.9566C19.9289 75.59 20.1232 75.271 20.3726 74.9996C20.6292 74.7283 20.9336 74.5193 21.2856 74.3726C21.6376 74.2186 22.0189 74.1416 22.4296 74.1416C22.8182 74.1416 23.1702 74.2113 23.4856 74.3506C23.8082 74.49 24.0832 74.6843 24.3106 74.9336C24.5452 75.1756 24.7212 75.4653 24.8386 75.8026C24.9559 76.14 25.0072 76.5103 24.9926 76.9136L24.9816 77.2986H20.1966L20.0756 76.6056H24.3546L24.1566 76.7926V76.5286C24.1419 76.2646 24.0649 76.0116 23.9256 75.7696C23.7862 75.5203 23.5882 75.3186 23.3316 75.1646C23.0822 75.0106 22.7816 74.9336 22.4296 74.9336C22.0189 74.9336 21.6632 75.018 21.3626 75.1866C21.0619 75.348 20.8309 75.59 20.6696 75.9126C20.5082 76.2353 20.4276 76.635 20.4276 77.1116C20.4276 77.5663 20.5156 77.9623 20.6916 78.2996C20.8676 78.6296 21.1169 78.8863 21.4396 79.0696C21.7696 79.253 22.1656 79.3446 22.6276 79.3446C22.8989 79.3446 23.1666 79.3006 23.4306 79.2126C23.7019 79.1173 23.9989 78.934 24.3216 78.6626L24.7506 79.2566C24.5819 79.4253 24.3802 79.5756 24.1456 79.7076C23.9109 79.8323 23.6542 79.935 23.3756 80.0156C23.0969 80.089 22.8109 80.1256 22.5176 80.1256ZM28.5843 80.1256C28.0417 80.1256 27.5577 79.9973 27.1323 79.7406C26.707 79.4766 26.3697 79.121 26.1203 78.6736C25.8783 78.219 25.7573 77.7056 25.7573 77.1336C25.7573 76.5616 25.8783 76.052 26.1203 75.6046C26.3697 75.15 26.707 74.7943 27.1323 74.5376C27.5577 74.281 28.0453 74.1526 28.5953 74.1526C29.0867 74.1526 29.534 74.2516 29.9373 74.4496C30.3407 74.6403 30.6633 74.908 30.9053 75.2526L30.4213 75.8466C30.282 75.6633 30.1133 75.502 29.9153 75.3626C29.7247 75.2233 29.5157 75.117 29.2883 75.0436C29.0683 74.963 28.8483 74.9226 28.6283 74.9226C28.2397 74.9226 27.8913 75.0216 27.5833 75.2196C27.2753 75.4103 27.0297 75.6706 26.8463 76.0006C26.6703 76.3306 26.5823 76.7083 26.5823 77.1336C26.5823 77.559 26.6703 77.9403 26.8463 78.2776C27.0297 78.6076 27.2753 78.868 27.5833 79.0586C27.8913 79.2493 28.236 79.3446 28.6173 79.3446C28.8373 79.3446 29.0537 79.3116 29.2663 79.2456C29.479 79.1723 29.6807 79.0696 29.8713 78.9376C30.062 78.8056 30.238 78.6406 30.3993 78.4426L30.8833 79.0366C30.634 79.3666 30.3003 79.6306 29.8823 79.8286C29.4643 80.0266 29.0317 80.1256 28.5843 80.1256ZM32.1744 80.0156V74.2736H32.9994V80.0156H32.1744ZM32.5814 73.0306C32.376 73.0306 32.2184 72.9793 32.1084 72.8766C32.0057 72.7666 31.9544 72.62 31.9544 72.4366C31.9544 72.2533 32.0094 72.1066 32.1194 71.9966C32.2294 71.8866 32.3834 71.8316 32.5814 71.8316C32.7794 71.8316 32.9334 71.8866 33.0434 71.9966C33.1534 72.0993 33.2084 72.246 33.2084 72.4366C33.2084 72.6126 33.1534 72.7556 33.0434 72.8656C32.9334 72.9756 32.7794 73.0306 32.5814 73.0306ZM34.801 82.4356V74.2736H35.626L35.648 75.6706L35.494 75.6926C35.56 75.414 35.703 75.161 35.923 74.9336C36.143 74.699 36.4107 74.512 36.726 74.3726C37.0414 74.2333 37.375 74.1636 37.727 74.1636C38.2404 74.1636 38.6987 74.292 39.102 74.5486C39.5127 74.8053 39.839 75.1573 40.081 75.6046C40.323 76.052 40.444 76.5653 40.444 77.1446C40.444 77.7166 40.3267 78.2263 40.092 78.6736C39.8574 79.121 39.5347 79.4766 39.124 79.7406C38.7134 79.9973 38.2514 80.1256 37.738 80.1256C37.3787 80.1256 37.0377 80.0523 36.715 79.9056C36.3924 79.759 36.1174 79.5683 35.89 79.3336C35.6627 79.0916 35.5124 78.8313 35.439 78.5526H35.637V82.4356H34.801ZM37.606 79.3336C37.9947 79.3336 38.3394 79.2383 38.64 79.0476C38.9407 78.857 39.179 78.5966 39.355 78.2666C39.531 77.9366 39.619 77.5626 39.619 77.1446C39.619 76.7193 39.531 76.3416 39.355 76.0116C39.179 75.6816 38.9407 75.4213 38.64 75.2306C38.3394 75.04 37.9947 74.9446 37.606 74.9446C37.2174 74.9446 36.869 75.04 36.561 75.2306C36.2604 75.414 36.022 75.6706 35.846 76.0006C35.67 76.3306 35.582 76.7083 35.582 77.1336C35.582 77.559 35.67 77.9366 35.846 78.2666C36.022 78.5966 36.2604 78.857 36.561 79.0476C36.869 79.2383 37.2174 79.3336 37.606 79.3336ZM44.1738 80.1256C43.6018 80.1256 43.0922 80.001 42.6448 79.7516C42.2048 79.5023 41.8602 79.154 41.6108 78.7066C41.3615 78.2593 41.2368 77.746 41.2368 77.1666C41.2368 76.7193 41.3065 76.316 41.4458 75.9566C41.5852 75.59 41.7795 75.271 42.0288 74.9996C42.2855 74.7283 42.5898 74.5193 42.9418 74.3726C43.2938 74.2186 43.6752 74.1416 44.0858 74.1416C44.4745 74.1416 44.8265 74.2113 45.1418 74.3506C45.4645 74.49 45.7395 74.6843 45.9668 74.9336C46.2015 75.1756 46.3775 75.4653 46.4948 75.8026C46.6122 76.14 46.6635 76.5103 46.6488 76.9136L46.6378 77.2986H41.8528L41.7318 76.6056H46.0108L45.8128 76.7926V76.5286C45.7982 76.2646 45.7212 76.0116 45.5818 75.7696C45.4425 75.5203 45.2445 75.3186 44.9878 75.1646C44.7385 75.0106 44.4378 74.9336 44.0858 74.9336C43.6752 74.9336 43.3195 75.018 43.0188 75.1866C42.7182 75.348 42.4872 75.59 42.3258 75.9126C42.1645 76.2353 42.0838 76.635 42.0838 77.1116C42.0838 77.5663 42.1718 77.9623 42.3478 78.2996C42.5238 78.6296 42.7732 78.8863 43.0958 79.0696C43.4258 79.253 43.8218 79.3446 44.2838 79.3446C44.5552 79.3446 44.8228 79.3006 45.0868 79.2126C45.3582 79.1173 45.6552 78.934 45.9778 78.6626L46.4068 79.2566C46.2382 79.4253 46.0365 79.5756 45.8018 79.7076C45.5672 79.8323 45.3105 79.935 45.0318 80.0156C44.7532 80.089 44.4672 80.1256 44.1738 80.1256ZM49.7016 80.1256C49.2102 80.1256 48.7702 80.034 48.3816 79.8506C47.9929 79.6673 47.6849 79.4253 47.4576 79.1246L48.0406 78.6186C48.2532 78.8753 48.5026 79.0696 48.7886 79.2016C49.0819 79.3336 49.4082 79.3996 49.7676 79.3996C49.9509 79.3996 50.1159 79.3813 50.2626 79.3446C50.4092 79.3006 50.5376 79.2383 50.6476 79.1576C50.7576 79.077 50.8419 78.9816 50.9006 78.8716C50.9592 78.7616 50.9886 78.6406 50.9886 78.5086C50.9886 78.2666 50.8822 78.065 50.6696 77.9036C50.5742 77.8376 50.4386 77.7716 50.2626 77.7056C50.0866 77.6323 49.8739 77.5626 49.6246 77.4966C49.2139 77.3793 48.8729 77.262 48.6016 77.1446C48.3302 77.02 48.1176 76.877 47.9636 76.7156C47.8536 76.5836 47.7692 76.4406 47.7106 76.2866C47.6592 76.1326 47.6336 75.964 47.6336 75.7806C47.6336 75.546 47.6812 75.3296 47.7766 75.1316C47.8792 74.9336 48.0186 74.7613 48.1946 74.6146C48.3779 74.4606 48.5906 74.347 48.8326 74.2736C49.0819 74.193 49.3496 74.1526 49.6356 74.1526C49.9069 74.1526 50.1746 74.1893 50.4386 74.2626C50.7026 74.336 50.9482 74.4423 51.1756 74.5816C51.4029 74.721 51.5972 74.886 51.7586 75.0766L51.2526 75.6266C51.1132 75.48 50.9592 75.348 50.7906 75.2306C50.6219 75.1133 50.4422 75.0216 50.2516 74.9556C50.0682 74.8896 49.8776 74.8566 49.6796 74.8566C49.5036 74.8566 49.3386 74.8786 49.1846 74.9226C49.0379 74.9666 48.9096 75.029 48.7996 75.1096C48.6969 75.183 48.6162 75.2746 48.5576 75.3846C48.5062 75.4946 48.4806 75.6156 48.4806 75.7476C48.4806 75.8576 48.5026 75.9566 48.5466 76.0446C48.5906 76.1326 48.6529 76.2096 48.7336 76.2756C48.8362 76.3563 48.9792 76.4333 49.1626 76.5066C49.3532 76.5726 49.5879 76.6423 49.8666 76.7156C50.1892 76.8036 50.4606 76.8953 50.6806 76.9906C50.9079 77.0786 51.0949 77.185 51.2416 77.3096C51.4396 77.4563 51.5789 77.625 51.6596 77.8156C51.7476 78.0063 51.7916 78.2226 51.7916 78.4646C51.7916 78.7873 51.6999 79.0733 51.5166 79.3226C51.3406 79.572 51.0949 79.77 50.7796 79.9166C50.4642 80.056 50.1049 80.1256 49.7016 80.1256ZM58.7083 80.1256C58.1363 80.1256 57.6266 79.9973 57.1793 79.7406C56.7393 79.484 56.3909 79.1283 56.1343 78.6736C55.8849 78.219 55.7603 77.702 55.7603 77.1226C55.7603 76.5506 55.8849 76.041 56.1343 75.5936C56.3909 75.1463 56.7393 74.7943 57.1793 74.5376C57.6266 74.281 58.1363 74.1526 58.7083 74.1526C59.2729 74.1526 59.7753 74.281 60.2153 74.5376C60.6626 74.7943 61.0109 75.1463 61.2603 75.5936C61.5169 76.041 61.6453 76.5506 61.6453 77.1226C61.6453 77.702 61.5169 78.219 61.2603 78.6736C61.0109 79.1283 60.6626 79.484 60.2153 79.7406C59.7753 79.9973 59.2729 80.1256 58.7083 80.1256ZM58.7083 79.3446C59.1116 79.3446 59.4709 79.2493 59.7863 79.0586C60.1016 78.8606 60.3473 78.5966 60.5233 78.2666C60.6993 77.9293 60.7873 77.548 60.7873 77.1226C60.7873 76.6973 60.6993 76.3196 60.5233 75.9896C60.3473 75.6596 60.1016 75.403 59.7863 75.2196C59.4709 75.029 59.1116 74.9336 58.7083 74.9336C58.3049 74.9336 57.9419 75.029 57.6193 75.2196C57.3039 75.403 57.0546 75.6633 56.8713 76.0006C56.6953 76.3306 56.6109 76.7046 56.6183 77.1226C56.6109 77.548 56.6953 77.9293 56.8713 78.2666C57.0546 78.5966 57.3039 78.8606 57.6193 79.0586C57.9419 79.2493 58.3049 79.3446 58.7083 79.3446ZM63.2941 80.0156V73.3826C63.2941 73.0966 63.3564 72.8436 63.4811 72.6236C63.6057 72.4036 63.7817 72.2313 64.0091 72.1066C64.2437 71.9746 64.5151 71.9086 64.8231 71.9086C65.0577 71.9086 65.2667 71.9526 65.4501 72.0406C65.6407 72.1213 65.7984 72.235 65.9231 72.3816L65.6371 73.0306C65.5197 72.906 65.3914 72.818 65.2521 72.7666C65.1201 72.708 64.9917 72.6786 64.8671 72.6786C64.7057 72.6786 64.5701 72.708 64.4601 72.7666C64.3501 72.818 64.2657 72.8986 64.2071 73.0086C64.1557 73.1113 64.1301 73.236 64.1301 73.3826V80.0156H63.7451C63.6644 80.0156 63.5874 80.0156 63.5141 80.0156C63.4407 80.0156 63.3674 80.0156 63.2941 80.0156ZM62.2711 75.0876V74.3176H65.5931V75.0876H62.2711ZM71.2273 80.0156L69.2363 74.2736L70.1163 74.2626L71.6673 78.9376L71.3923 78.9156L73.0753 75.1536H73.5703L75.2643 78.9156L74.9343 78.9376L76.5183 74.2736H77.3873L75.3963 80.0156H74.9123L73.1303 75.9236L73.4603 75.9456L71.7333 80.0156H71.2273ZM80.4435 80.1256C79.9448 80.1256 79.4938 79.9973 79.0905 79.7406C78.6872 79.4766 78.3682 79.121 78.1335 78.6736C77.8988 78.219 77.7815 77.7056 77.7815 77.1336C77.7815 76.5543 77.9025 76.041 78.1445 75.5936C78.3865 75.1463 78.7092 74.7943 79.1125 74.5376C79.5232 74.281 79.9815 74.1526 80.4875 74.1526C80.7882 74.1526 81.0668 74.1966 81.3235 74.2846C81.5802 74.3726 81.8075 74.4973 82.0055 74.6586C82.2108 74.8126 82.3795 74.996 82.5115 75.2086C82.6508 75.414 82.7462 75.6376 82.7975 75.8796L82.5555 75.7586L82.5885 74.2736H83.4135V80.0156H82.5775V78.6076L82.7975 78.4646C82.7462 78.6846 82.6472 78.8973 82.5005 79.1026C82.3538 79.3006 82.1742 79.4766 81.9615 79.6306C81.7562 79.7846 81.5215 79.9056 81.2575 79.9936C81.0008 80.0816 80.7295 80.1256 80.4435 80.1256ZM80.6305 79.3336C81.0118 79.3336 81.3528 79.242 81.6535 79.0586C81.9542 78.868 82.1888 78.6076 82.3575 78.2776C82.5335 77.9403 82.6215 77.559 82.6215 77.1336C82.6215 76.7083 82.5335 76.3306 82.3575 76.0006C82.1888 75.6706 81.9542 75.4103 81.6535 75.2196C81.3528 75.029 81.0118 74.9336 80.6305 74.9336C80.2418 74.9336 79.8972 75.029 79.5965 75.2196C79.3032 75.4103 79.0685 75.6706 78.8925 76.0006C78.7238 76.3306 78.6395 76.7083 78.6395 77.1336C78.6395 77.5516 78.7238 77.9293 78.8925 78.2666C79.0612 78.5966 79.2958 78.857 79.5965 79.0476C79.8972 79.2383 80.2418 79.3336 80.6305 79.3336ZM85.6808 80.0156V73.3826C85.6808 73.0966 85.7431 72.8436 85.8678 72.6236C85.9924 72.4036 86.1684 72.2313 86.3958 72.1066C86.6304 71.9746 86.9018 71.9086 87.2098 71.9086C87.4444 71.9086 87.6534 71.9526 87.8368 72.0406C88.0274 72.1213 88.1851 72.235 88.3098 72.3816L88.0238 73.0306C87.9064 72.906 87.7781 72.818 87.6388 72.7666C87.5068 72.708 87.3784 72.6786 87.2538 72.6786C87.0924 72.6786 86.9568 72.708 86.8468 72.7666C86.7368 72.818 86.6524 72.8986 86.5938 73.0086C86.5424 73.1113 86.5168 73.236 86.5168 73.3826V80.0156H86.1318C86.0511 80.0156 85.9741 80.0156 85.9008 80.0156C85.8274 80.0156 85.7541 80.0156 85.6808 80.0156ZM84.6578 75.0876V74.3176H87.9798V75.0876H84.6578ZM89.8388 80.0156V73.3826C89.8388 73.0966 89.9011 72.8436 90.0258 72.6236C90.1504 72.4036 90.3264 72.2313 90.5538 72.1066C90.7884 71.9746 91.0598 71.9086 91.3678 71.9086C91.6024 71.9086 91.8114 71.9526 91.9948 72.0406C92.1854 72.1213 92.3431 72.235 92.4678 72.3816L92.1818 73.0306C92.0644 72.906 91.9361 72.818 91.7968 72.7666C91.6648 72.708 91.5364 72.6786 91.4118 72.6786C91.2504 72.6786 91.1148 72.708 91.0048 72.7666C90.8948 72.818 90.8104 72.8986 90.7518 73.0086C90.7004 73.1113 90.6748 73.236 90.6748 73.3826V80.0156H90.2898C90.2091 80.0156 90.1321 80.0156 90.0588 80.0156C89.9854 80.0156 89.9121 80.0156 89.8388 80.0156ZM88.8158 75.0876V74.3176H92.1378V75.0876H88.8158ZM93.3588 80.0156V71.8756H94.1838V80.0156H93.3588ZM98.2393 80.1256C97.6673 80.1256 97.1576 80.001 96.7103 79.7516C96.2703 79.5023 95.9256 79.154 95.6763 78.7066C95.4269 78.2593 95.3023 77.746 95.3023 77.1666C95.3023 76.7193 95.3719 76.316 95.5113 75.9566C95.6506 75.59 95.8449 75.271 96.0943 74.9996C96.3509 74.7283 96.6553 74.5193 97.0073 74.3726C97.3593 74.2186 97.7406 74.1416 98.1513 74.1416C98.5399 74.1416 98.8919 74.2113 99.2073 74.3506C99.5299 74.49 99.8049 74.6843 100.032 74.9336C100.267 75.1756 100.443 75.4653 100.56 75.8026C100.678 76.14 100.729 76.5103 100.714 76.9136L100.703 77.2986H95.9183L95.7973 76.6056H100.076L99.8783 76.7926V76.5286C99.8636 76.2646 99.7866 76.0116 99.6473 75.7696C99.5079 75.5203 99.3099 75.3186 99.0533 75.1646C98.8039 75.0106 98.5033 74.9336 98.1513 74.9336C97.7406 74.9336 97.3849 75.018 97.0843 75.1866C96.7836 75.348 96.5526 75.59 96.3913 75.9126C96.2299 76.2353 96.1493 76.635 96.1493 77.1116C96.1493 77.5663 96.2373 77.9623 96.4133 78.2996C96.5893 78.6296 96.8386 78.8863 97.1613 79.0696C97.4913 79.253 97.8873 79.3446 98.3493 79.3446C98.6206 79.3446 98.8883 79.3006 99.1523 79.2126C99.4236 79.1173 99.7206 78.934 100.043 78.6626L100.472 79.2566C100.304 79.4253 100.102 79.5756 99.8673 79.7076C99.6326 79.8323 99.3759 79.935 99.0973 80.0156C98.8186 80.089 98.5326 80.1256 98.2393 80.1256ZM103.767 80.1256C103.276 80.1256 102.836 80.034 102.447 79.8506C102.058 79.6673 101.75 79.4253 101.523 79.1246L102.106 78.6186C102.319 78.8753 102.568 79.0696 102.854 79.2016C103.147 79.3336 103.474 79.3996 103.833 79.3996C104.016 79.3996 104.181 79.3813 104.328 79.3446C104.475 79.3006 104.603 79.2383 104.713 79.1576C104.823 79.077 104.907 78.9816 104.966 78.8716C105.025 78.7616 105.054 78.6406 105.054 78.5086C105.054 78.2666 104.948 78.065 104.735 77.9036C104.64 77.8376 104.504 77.7716 104.328 77.7056C104.152 77.6323 103.939 77.5626 103.69 77.4966C103.279 77.3793 102.938 77.262 102.667 77.1446C102.396 77.02 102.183 76.877 102.029 76.7156C101.919 76.5836 101.835 76.4406 101.776 76.2866C101.725 76.1326 101.699 75.964 101.699 75.7806C101.699 75.546 101.747 75.3296 101.842 75.1316C101.945 74.9336 102.084 74.7613 102.26 74.6146C102.443 74.4606 102.656 74.347 102.898 74.2736C103.147 74.193 103.415 74.1526 103.701 74.1526C103.972 74.1526 104.24 74.1893 104.504 74.2626C104.768 74.336 105.014 74.4423 105.241 74.5816C105.468 74.721 105.663 74.886 105.824 75.0766L105.318 75.6266C105.179 75.48 105.025 75.348 104.856 75.2306C104.687 75.1133 104.508 75.0216 104.317 74.9556C104.134 74.8896 103.943 74.8566 103.745 74.8566C103.569 74.8566 103.404 74.8786 103.25 74.9226C103.103 74.9666 102.975 75.029 102.865 75.1096C102.762 75.183 102.682 75.2746 102.623 75.3846C102.572 75.4946 102.546 75.6156 102.546 75.7476C102.546 75.8576 102.568 75.9566 102.612 76.0446C102.656 76.1326 102.718 76.2096 102.799 76.2756C102.902 76.3563 103.045 76.4333 103.228 76.5066C103.419 76.5726 103.653 76.6423 103.932 76.7156C104.255 76.8036 104.526 76.8953 104.746 76.9906C104.973 77.0786 105.16 77.185 105.307 77.3096C105.505 77.4563 105.644 77.625 105.725 77.8156C105.813 78.0063 105.857 78.2226 105.857 78.4646C105.857 78.7873 105.765 79.0733 105.582 79.3226C105.406 79.572 105.16 79.77 104.845 79.9166C104.53 80.056 104.17 80.1256 103.767 80.1256ZM18.4991 94.0156V87.3826C18.4991 87.0966 18.5615 86.8436 18.6861 86.6236C18.8108 86.4036 18.9868 86.2313 19.2141 86.1066C19.4488 85.9746 19.7201 85.9086 20.0281 85.9086C20.2628 85.9086 20.4718 85.9526 20.6551 86.0406C20.8458 86.1213 21.0035 86.235 21.1281 86.3816L20.8421 87.0306C20.7248 86.906 20.5965 86.818 20.4571 86.7666C20.3251 86.708 20.1968 86.6786 20.0721 86.6786C19.9108 86.6786 19.7751 86.708 19.6651 86.7666C19.5551 86.818 19.4708 86.8986 19.4121 87.0086C19.3608 87.1113 19.3351 87.236 19.3351 87.3826V94.0156H18.9501C18.8695 94.0156 18.7925 94.0156 18.7191 94.0156C18.6458 94.0156 18.5725 94.0156 18.4991 94.0156ZM17.4761 89.0876V88.3176H20.7981V89.0876H17.4761ZM21.9964 94.0156V88.2736H22.8214L22.8434 89.8026L22.7554 89.5936C22.836 89.337 22.9644 89.0986 23.1404 88.8786C23.3237 88.6586 23.54 88.4826 23.7894 88.3506C24.0387 88.2186 24.3137 88.1526 24.6144 88.1526C24.739 88.1526 24.8564 88.1636 24.9664 88.1856C25.0764 88.2003 25.168 88.2223 25.2414 88.2516L25.0104 89.1756C24.915 89.1316 24.816 89.1023 24.7134 89.0876C24.618 89.0656 24.5264 89.0546 24.4384 89.0546C24.189 89.0546 23.9654 89.0986 23.7674 89.1866C23.5694 89.2746 23.4007 89.3993 23.2614 89.5606C23.122 89.7146 23.0157 89.8943 22.9424 90.0996C22.869 90.305 22.8324 90.525 22.8324 90.7596V94.0156H21.9964ZM28.3938 94.1256C27.8218 94.1256 27.3121 93.9973 26.8648 93.7406C26.4248 93.484 26.0765 93.1283 25.8198 92.6736C25.5705 92.219 25.4458 91.702 25.4458 91.1226C25.4458 90.5506 25.5705 90.041 25.8198 89.5936C26.0765 89.1463 26.4248 88.7943 26.8648 88.5376C27.3121 88.281 27.8218 88.1526 28.3938 88.1526C28.9585 88.1526 29.4608 88.281 29.9008 88.5376C30.3481 88.7943 30.6965 89.1463 30.9458 89.5936C31.2025 90.041 31.3308 90.5506 31.3308 91.1226C31.3308 91.702 31.2025 92.219 30.9458 92.6736C30.6965 93.1283 30.3481 93.484 29.9008 93.7406C29.4608 93.9973 28.9585 94.1256 28.3938 94.1256ZM28.3938 93.3446C28.7971 93.3446 29.1565 93.2493 29.4718 93.0586C29.7871 92.8606 30.0328 92.5966 30.2088 92.2666C30.3848 91.9293 30.4728 91.548 30.4728 91.1226C30.4728 90.6973 30.3848 90.3196 30.2088 89.9896C30.0328 89.6596 29.7871 89.403 29.4718 89.2196C29.1565 89.029 28.7971 88.9336 28.3938 88.9336C27.9905 88.9336 27.6275 89.029 27.3048 89.2196C26.9895 89.403 26.7401 89.6633 26.5568 90.0006C26.3808 90.3306 26.2965 90.7046 26.3038 91.1226C26.2965 91.548 26.3808 91.9293 26.5568 92.2666C26.7401 92.5966 26.9895 92.8606 27.3048 93.0586C27.6275 93.2493 27.9905 93.3446 28.3938 93.3446ZM32.5234 94.0156V88.2736H33.3484L33.3704 89.5826L33.2054 89.6376C33.2641 89.4176 33.3594 89.2196 33.4914 89.0436C33.6308 88.8603 33.7958 88.7026 33.9864 88.5706C34.1771 88.4386 34.3861 88.3396 34.6134 88.2736C34.8408 88.2003 35.0791 88.1636 35.3284 88.1636C35.6291 88.1636 35.8968 88.215 36.1314 88.3176C36.3734 88.413 36.5751 88.5816 36.7364 88.8236C36.9051 89.0583 37.0334 89.37 37.1214 89.7586L36.9234 89.6596L37.0004 89.4726C37.0738 89.304 37.1801 89.1426 37.3194 88.9886C37.4661 88.8273 37.6311 88.6843 37.8144 88.5596C38.0051 88.435 38.2104 88.3396 38.4304 88.2736C38.6578 88.2003 38.8888 88.1636 39.1234 88.1636C39.5268 88.1636 39.8678 88.2516 40.1464 88.4276C40.4251 88.5963 40.6341 88.8566 40.7734 89.2086C40.9201 89.5606 40.9934 90.008 40.9934 90.5506V94.0156H40.1464V90.5946C40.1464 90.2133 40.0988 89.9016 40.0034 89.6596C39.9081 89.4176 39.7651 89.238 39.5744 89.1206C39.3911 88.996 39.1564 88.9336 38.8704 88.9336C38.6211 88.9336 38.3901 88.9776 38.1774 89.0656C37.9721 89.1463 37.7924 89.2636 37.6384 89.4176C37.4918 89.5643 37.3744 89.733 37.2864 89.9236C37.2058 90.1143 37.1654 90.3196 37.1654 90.5396V94.0156H36.3294V90.5836C36.3294 90.217 36.2781 89.9126 36.1754 89.6706C36.0801 89.4286 35.9371 89.2453 35.7464 89.1206C35.5558 88.996 35.3211 88.9336 35.0424 88.9336C34.8004 88.9336 34.5768 88.9776 34.3714 89.0656C34.1661 89.1463 33.9864 89.26 33.8324 89.4066C33.6858 89.5533 33.5684 89.722 33.4804 89.9126C33.3998 90.1033 33.3594 90.3086 33.3594 90.5286V94.0156H32.5234ZM47.8839 94.1256C47.3852 94.1256 46.9342 93.9973 46.5309 93.7406C46.1276 93.4766 45.8086 93.121 45.5739 92.6736C45.3392 92.219 45.2219 91.7056 45.2219 91.1336C45.2219 90.5543 45.3429 90.041 45.5849 89.5936C45.8269 89.1463 46.1496 88.7943 46.5529 88.5376C46.9636 88.281 47.4219 88.1526 47.9279 88.1526C48.2286 88.1526 48.5072 88.1966 48.7639 88.2846C49.0206 88.3726 49.2479 88.4973 49.4459 88.6586C49.6512 88.8126 49.8199 88.996 49.9519 89.2086C50.0912 89.414 50.1866 89.6376 50.2379 89.8796L49.9959 89.7586L50.0289 88.2736H50.8539V94.0156H50.0179V92.6076L50.2379 92.4646C50.1866 92.6846 50.0876 92.8973 49.9409 93.1026C49.7942 93.3006 49.6146 93.4766 49.4019 93.6306C49.1966 93.7846 48.9619 93.9056 48.6979 93.9936C48.4412 94.0816 48.1699 94.1256 47.8839 94.1256ZM48.0709 93.3336C48.4522 93.3336 48.7932 93.242 49.0939 93.0586C49.3946 92.868 49.6292 92.6076 49.7979 92.2776C49.9739 91.9403 50.0619 91.559 50.0619 91.1336C50.0619 90.7083 49.9739 90.3306 49.7979 90.0006C49.6292 89.6706 49.3946 89.4103 49.0939 89.2196C48.7932 89.029 48.4522 88.9336 48.0709 88.9336C47.6822 88.9336 47.3376 89.029 47.0369 89.2196C46.7436 89.4103 46.5089 89.6706 46.3329 90.0006C46.1642 90.3306 46.0799 90.7083 46.0799 91.1336C46.0799 91.5516 46.1642 91.9293 46.3329 92.2666C46.5016 92.5966 46.7362 92.857 47.0369 93.0476C47.3376 93.2383 47.6822 93.3336 48.0709 93.3336ZM52.4612 94.0156V88.2736H53.2862L53.3082 89.8026L53.2202 89.5936C53.3009 89.337 53.4292 89.0986 53.6052 88.8786C53.7885 88.6586 54.0049 88.4826 54.2542 88.3506C54.5035 88.2186 54.7785 88.1526 55.0792 88.1526C55.2039 88.1526 55.3212 88.1636 55.4312 88.1856C55.5412 88.2003 55.6329 88.2223 55.7062 88.2516L55.4752 89.1756C55.3799 89.1316 55.2809 89.1023 55.1782 89.0876C55.0829 89.0656 54.9912 89.0546 54.9032 89.0546C54.6539 89.0546 54.4302 89.0986 54.2322 89.1866C54.0342 89.2746 53.8655 89.3993 53.7262 89.5606C53.5869 89.7146 53.4805 89.8943 53.4072 90.0996C53.3339 90.305 53.2972 90.525 53.2972 90.7596V94.0156H52.4612ZM58.8586 94.1256C58.2866 94.1256 57.777 93.9973 57.3296 93.7406C56.8896 93.484 56.5413 93.1283 56.2846 92.6736C56.0353 92.219 55.9106 91.702 55.9106 91.1226C55.9106 90.5506 56.0353 90.041 56.2846 89.5936C56.5413 89.1463 56.8896 88.7943 57.3296 88.5376C57.777 88.281 58.2866 88.1526 58.8586 88.1526C59.4233 88.1526 59.9256 88.281 60.3656 88.5376C60.813 88.7943 61.1613 89.1463 61.4106 89.5936C61.6673 90.041 61.7956 90.5506 61.7956 91.1226C61.7956 91.702 61.6673 92.219 61.4106 92.6736C61.1613 93.1283 60.813 93.484 60.3656 93.7406C59.9256 93.9973 59.4233 94.1256 58.8586 94.1256ZM58.8586 93.3446C59.262 93.3446 59.6213 93.2493 59.9366 93.0586C60.252 92.8606 60.4976 92.5966 60.6736 92.2666C60.8496 91.9293 60.9376 91.548 60.9376 91.1226C60.9376 90.6973 60.8496 90.3196 60.6736 89.9896C60.4976 89.6596 60.252 89.403 59.9366 89.2196C59.6213 89.029 59.262 88.9336 58.8586 88.9336C58.4553 88.9336 58.0923 89.029 57.7696 89.2196C57.4543 89.403 57.205 89.6633 57.0216 90.0006C56.8456 90.3306 56.7613 90.7046 56.7686 91.1226C56.7613 91.548 56.8456 91.9293 57.0216 92.2666C57.205 92.5966 57.4543 92.8606 57.7696 93.0586C58.0923 93.2493 58.4553 93.3446 58.8586 93.3446ZM65.0343 94.1256C64.5943 94.1256 64.2203 94.0376 63.9123 93.8616C63.6116 93.6783 63.3806 93.4143 63.2193 93.0696C63.0653 92.725 62.9883 92.296 62.9883 91.7826V88.2736H63.8243V91.6176C63.8243 92.0063 63.8756 92.3326 63.9783 92.5966C64.0883 92.8533 64.2496 93.0476 64.4623 93.1796C64.6823 93.3116 64.95 93.3776 65.2653 93.3776C65.5073 93.3776 65.731 93.3373 65.9363 93.2566C66.1416 93.1686 66.3213 93.0513 66.4753 92.9046C66.6293 92.758 66.7503 92.5856 66.8383 92.3876C66.9263 92.1896 66.9703 91.9806 66.9703 91.7606V88.2736H67.7953V94.0156H66.9813L66.9483 92.8056L67.0803 92.7396C66.9923 92.9963 66.8456 93.231 66.6403 93.4436C66.435 93.649 66.1893 93.814 65.9033 93.9386C65.6246 94.0633 65.335 94.1256 65.0343 94.1256ZM69.4016 94.0156V88.2736H70.2156L70.2486 89.4726L70.1166 89.5276C70.19 89.2783 70.333 89.051 70.5456 88.8456C70.7583 88.6403 71.0113 88.4753 71.3046 88.3506C71.6053 88.2186 71.9133 88.1526 72.2286 88.1526C72.654 88.1526 73.0096 88.237 73.2956 88.4056C73.5816 88.5743 73.798 88.8346 73.9446 89.1866C74.0913 89.5386 74.1646 89.986 74.1646 90.5286V94.0156H73.3286V90.5726C73.3286 90.1913 73.2773 89.8796 73.1746 89.6376C73.0793 89.3883 72.929 89.205 72.7236 89.0876C72.5183 88.9703 72.2653 88.9153 71.9646 88.9226C71.7153 88.9226 71.4843 88.9666 71.2716 89.0546C71.059 89.1353 70.8756 89.249 70.7216 89.3956C70.5676 89.5423 70.4466 89.711 70.3586 89.9016C70.2706 90.0923 70.2266 90.2976 70.2266 90.5176V94.0156H69.8196C69.7683 94.0156 69.7096 94.0156 69.6436 94.0156C69.5776 94.0156 69.497 94.0156 69.4016 94.0156ZM78.0715 94.1256C77.5509 94.1256 77.0815 93.9973 76.6635 93.7406C76.2529 93.484 75.9265 93.132 75.6845 92.6846C75.4499 92.23 75.3325 91.7166 75.3325 91.1446C75.3325 90.5653 75.4535 90.052 75.6955 89.6046C75.9375 89.15 76.2639 88.7943 76.6745 88.5376C77.0852 88.281 77.5472 88.1526 78.0605 88.1526C78.3465 88.1526 78.6215 88.1966 78.8855 88.2846C79.1569 88.3726 79.3989 88.4973 79.6115 88.6586C79.8242 88.8126 80.0002 88.9923 80.1395 89.1976C80.2789 89.3956 80.3632 89.6046 80.3925 89.8246L80.1395 89.7366V85.8756H80.9645V94.0156H80.1505L80.1285 92.5856L80.3375 92.5086C80.3082 92.714 80.2239 92.9156 80.0845 93.1136C79.9525 93.3043 79.7839 93.4766 79.5785 93.6306C79.3732 93.7846 79.1385 93.9056 78.8745 93.9936C78.6179 94.0816 78.3502 94.1256 78.0715 94.1256ZM78.1925 93.3666C78.5739 93.3666 78.9149 93.2713 79.2155 93.0806C79.5162 92.89 79.7509 92.626 79.9195 92.2886C80.0955 91.9513 80.1835 91.5663 80.1835 91.1336C80.1835 90.701 80.0955 90.3196 79.9195 89.9896C79.7509 89.6523 79.5162 89.3883 79.2155 89.1976C78.9149 88.9996 78.5739 88.9006 78.1925 88.9006C77.7965 88.9006 77.4482 88.9996 77.1475 89.1976C76.8542 89.3883 76.6195 89.6523 76.4435 89.9896C76.2749 90.3196 76.1905 90.701 76.1905 91.1336C76.1905 91.559 76.2749 91.9403 76.4435 92.2776C76.6122 92.615 76.8469 92.8826 77.1475 93.0806C77.4482 93.2713 77.7965 93.3666 78.1925 93.3666ZM86.4466 94.0156V86.7666H87.2716V94.0156H86.4466ZM85.1486 89.0656V88.2736H88.7236V89.0656H85.1486ZM89.7366 94.0156V85.8756H90.5616V89.5276L90.3966 89.6926C90.4773 89.392 90.6276 89.128 90.8476 88.9006C91.0676 88.666 91.3243 88.4826 91.6176 88.3506C91.9183 88.2186 92.2226 88.1526 92.5306 88.1526C92.9706 88.1526 93.3373 88.237 93.6306 88.4056C93.9239 88.5743 94.1403 88.8346 94.2796 89.1866C94.4263 89.5386 94.4996 89.986 94.4996 90.5286V94.0156H93.6636V90.5726C93.6636 90.1913 93.6123 89.8796 93.5096 89.6376C93.4143 89.3883 93.2639 89.205 93.0586 89.0876C92.8533 88.9703 92.5966 88.9153 92.2886 88.9226C92.0466 88.9226 91.8193 88.9666 91.6066 89.0546C91.3939 89.1353 91.2106 89.249 91.0566 89.3956C90.9026 89.5423 90.7816 89.711 90.6936 89.9016C90.6056 90.0923 90.5616 90.2976 90.5616 90.5176V94.0156H90.1546C90.1033 94.0156 90.0446 94.0156 89.9786 94.0156C89.9126 94.0156 89.8319 94.0156 89.7366 94.0156ZM98.6045 94.1256C98.0325 94.1256 97.5228 94.001 97.0755 93.7516C96.6355 93.5023 96.2908 93.154 96.0415 92.7066C95.7922 92.2593 95.6675 91.746 95.6675 91.1666C95.6675 90.7193 95.7372 90.316 95.8765 89.9566C96.0158 89.59 96.2102 89.271 96.4595 88.9996C96.7162 88.7283 97.0205 88.5193 97.3725 88.3726C97.7245 88.2186 98.1058 88.1416 98.5165 88.1416C98.9052 88.1416 99.2572 88.2113 99.5725 88.3506C99.8952 88.49 100.17 88.6843 100.397 88.9336C100.632 89.1756 100.808 89.4653 100.925 89.8026C101.043 90.14 101.094 90.5103 101.079 90.9136L101.068 91.2986H96.2835L96.1625 90.6056H100.441L100.243 90.7926V90.5286C100.229 90.2646 100.152 90.0116 100.012 89.7696C99.8732 89.5203 99.6752 89.3186 99.4185 89.1646C99.1692 89.0106 98.8685 88.9336 98.5165 88.9336C98.1058 88.9336 97.7502 89.018 97.4495 89.1866C97.1488 89.348 96.9178 89.59 96.7565 89.9126C96.5952 90.2353 96.5145 90.635 96.5145 91.1116C96.5145 91.5663 96.6025 91.9623 96.7785 92.2996C96.9545 92.6296 97.2038 92.8863 97.5265 93.0696C97.8565 93.253 98.2525 93.3446 98.7145 93.3446C98.9858 93.3446 99.2535 93.3006 99.5175 93.2126C99.7888 93.1173 100.086 92.934 100.408 92.6626L100.837 93.2566C100.669 93.4253 100.467 93.5756 100.232 93.7076C99.9978 93.8323 99.7412 93.935 99.4625 94.0156C99.1838 94.089 98.8978 94.1256 98.6045 94.1256ZM47.2454 108.016L45.2544 102.274L46.1344 102.263L47.6854 106.938L47.4104 106.916L49.0934 103.154H49.5884L51.2824 106.916L50.9524 106.938L52.5364 102.274H53.4054L51.4144 108.016H50.9304L49.1484 103.924L49.4784 103.946L47.7514 108.016H47.2454ZM56.7586 108.126C56.1866 108.126 55.6769 107.997 55.2296 107.741C54.7896 107.484 54.4412 107.128 54.1846 106.674C53.9352 106.219 53.8106 105.702 53.8106 105.123C53.8106 104.551 53.9352 104.041 54.1846 103.594C54.4412 103.146 54.7896 102.794 55.2296 102.538C55.6769 102.281 56.1866 102.153 56.7586 102.153C57.3232 102.153 57.8256 102.281 58.2656 102.538C58.7129 102.794 59.0612 103.146 59.3106 103.594C59.5672 104.041 59.6956 104.551 59.6956 105.123C59.6956 105.702 59.5672 106.219 59.3106 106.674C59.0612 107.128 58.7129 107.484 58.2656 107.741C57.8256 107.997 57.3232 108.126 56.7586 108.126ZM56.7586 107.345C57.1619 107.345 57.5212 107.249 57.8366 107.059C58.1519 106.861 58.3976 106.597 58.5736 106.267C58.7496 105.929 58.8376 105.548 58.8376 105.123C58.8376 104.697 58.7496 104.32 58.5736 103.99C58.3976 103.66 58.1519 103.403 57.8366 103.22C57.5212 103.029 57.1619 102.934 56.7586 102.934C56.3552 102.934 55.9922 103.029 55.6696 103.22C55.3542 103.403 55.1049 103.663 54.9216 104.001C54.7456 104.331 54.6612 104.705 54.6686 105.123C54.6612 105.548 54.7456 105.929 54.9216 106.267C55.1049 106.597 55.3542 106.861 55.6696 107.059C55.9922 107.249 56.3552 107.345 56.7586 107.345ZM60.8992 108.016V102.274H61.7242L61.7462 103.803L61.6582 103.594C61.7389 103.337 61.8672 103.099 62.0432 102.879C62.2265 102.659 62.4429 102.483 62.6922 102.351C62.9415 102.219 63.2165 102.153 63.5172 102.153C63.6419 102.153 63.7592 102.164 63.8692 102.186C63.9792 102.2 64.0709 102.222 64.1442 102.252L63.9132 103.176C63.8179 103.132 63.7189 103.102 63.6162 103.088C63.5209 103.066 63.4292 103.055 63.3412 103.055C63.0919 103.055 62.8682 103.099 62.6702 103.187C62.4722 103.275 62.3035 103.399 62.1642 103.561C62.0249 103.715 61.9185 103.894 61.8452 104.1C61.7719 104.305 61.7352 104.525 61.7352 104.76V108.016H60.8992ZM65.0247 108.016V99.8756H65.8497V108.016H65.0247ZM69.698 108.126C69.1773 108.126 68.708 107.997 68.29 107.741C67.8793 107.484 67.553 107.132 67.311 106.685C67.0763 106.23 66.959 105.717 66.959 105.145C66.959 104.565 67.08 104.052 67.322 103.605C67.564 103.15 67.8903 102.794 68.301 102.538C68.7117 102.281 69.1737 102.153 69.687 102.153C69.973 102.153 70.248 102.197 70.512 102.285C70.7833 102.373 71.0253 102.497 71.238 102.659C71.4507 102.813 71.6267 102.992 71.766 103.198C71.9053 103.396 71.9897 103.605 72.019 103.825L71.766 103.737V99.8756H72.591V108.016H71.777L71.755 106.586L71.964 106.509C71.9347 106.714 71.8503 106.916 71.711 107.114C71.579 107.304 71.4103 107.477 71.205 107.631C70.9997 107.785 70.765 107.906 70.501 107.994C70.2443 108.082 69.9767 108.126 69.698 108.126ZM69.819 107.367C70.2003 107.367 70.5413 107.271 70.842 107.081C71.1427 106.89 71.3773 106.626 71.546 106.289C71.722 105.951 71.81 105.566 71.81 105.134C71.81 104.701 71.722 104.32 71.546 103.99C71.3773 103.652 71.1427 103.388 70.842 103.198C70.5413 103 70.2003 102.901 69.819 102.901C69.423 102.901 69.0747 103 68.774 103.198C68.4807 103.388 68.246 103.652 68.07 103.99C67.9013 104.32 67.817 104.701 67.817 105.134C67.817 105.559 67.9013 105.94 68.07 106.278C68.2387 106.615 68.4733 106.883 68.774 107.081C69.0747 107.271 69.423 107.367 69.819 107.367Z" fill="black"/>
<path d="M7.77514 147.016V140.716H10.3311C10.6971 140.716 11.0121 140.782 11.2761 140.914C11.5461 141.04 11.7531 141.223 11.8971 141.463C12.0411 141.697 12.1131 141.976 12.1131 142.3C12.1131 142.648 12.0141 142.948 11.8161 143.2C11.6181 143.446 11.3481 143.617 11.0061 143.713L10.9881 143.542C11.2821 143.596 11.5371 143.701 11.7531 143.857C11.9691 144.007 12.1371 144.193 12.2571 144.415C12.3831 144.637 12.4461 144.886 12.4461 145.162C12.4461 145.444 12.3981 145.699 12.3021 145.927C12.2061 146.155 12.0681 146.35 11.8881 146.512C11.7141 146.674 11.5011 146.8 11.2491 146.89C11.0031 146.974 10.7271 147.016 10.4211 147.016H7.77514ZM8.47714 146.332H10.3671C10.6371 146.332 10.8711 146.287 11.0691 146.197C11.2731 146.101 11.4291 145.966 11.5371 145.792C11.6511 145.618 11.7081 145.417 11.7081 145.189C11.7081 144.973 11.6481 144.784 11.5281 144.622C11.4141 144.46 11.2521 144.334 11.0421 144.244C10.8381 144.154 10.5981 144.109 10.3221 144.109H8.47714V146.332ZM8.47714 143.425H10.2771C10.4931 143.425 10.6851 143.383 10.8531 143.299C11.0211 143.209 11.1531 143.089 11.2491 142.939C11.3451 142.783 11.3931 142.609 11.3931 142.417C11.3931 142.111 11.2881 141.865 11.0781 141.679C10.8741 141.493 10.5861 141.4 10.2141 141.4H8.47714V143.425ZM14.3352 149.086L15.2442 146.872L15.3072 147.511L12.9492 142.318H13.7142L15.3252 145.918C15.3732 146.014 15.4212 146.128 15.4692 146.26C15.5172 146.386 15.5622 146.512 15.6042 146.638L15.3522 146.611C15.3942 146.509 15.4332 146.404 15.4692 146.296C15.5112 146.188 15.5502 146.083 15.5862 145.981L16.9992 142.318H17.7732L15.8742 147.016L15.0642 149.086H14.3352ZM22.4721 147.016L20.5731 140.716H21.3291L22.5441 144.874C22.5921 145.018 22.6311 145.156 22.6611 145.288C22.6971 145.414 22.7271 145.537 22.7511 145.657C22.7751 145.771 22.7991 145.888 22.8231 146.008C22.8471 146.122 22.8711 146.242 22.8951 146.368L22.7421 146.359C22.8201 146.083 22.8831 145.864 22.9311 145.702C22.9851 145.54 23.0361 145.396 23.0841 145.27C23.1321 145.144 23.1861 145 23.2461 144.838L24.3081 142.165H24.9651L26.0361 144.865C26.1081 145.033 26.1711 145.192 26.2251 145.342C26.2791 145.492 26.3301 145.645 26.3781 145.801C26.4321 145.957 26.4831 146.131 26.5311 146.323L26.3871 146.35C26.4171 146.2 26.4411 146.077 26.4591 145.981C26.4771 145.885 26.4951 145.801 26.5131 145.729C26.5311 145.651 26.5491 145.576 26.5671 145.504C26.5851 145.426 26.6091 145.336 26.6391 145.234C26.6691 145.126 26.7081 144.991 26.7561 144.829L27.9711 140.716H28.7271L26.8101 147.016H26.2251L24.5241 142.966L24.6861 142.993L23.0481 147.016H22.4721ZM31.2083 147.106C30.8003 147.106 30.4313 147.001 30.1013 146.791C29.7713 146.575 29.5103 146.284 29.3183 145.918C29.1263 145.546 29.0303 145.126 29.0303 144.658C29.0303 144.184 29.1293 143.764 29.3273 143.398C29.5253 143.032 29.7893 142.744 30.1193 142.534C30.4553 142.324 30.8303 142.219 31.2443 142.219C31.4903 142.219 31.7183 142.255 31.9283 142.327C32.1383 142.399 32.3243 142.501 32.4863 142.633C32.6543 142.759 32.7923 142.909 32.9003 143.083C33.0143 143.251 33.0923 143.434 33.1343 143.632L32.9363 143.533L32.9633 142.318H33.6383V147.016H32.9543V145.864L33.1343 145.747C33.0923 145.927 33.0113 146.101 32.8913 146.269C32.7713 146.431 32.6243 146.575 32.4503 146.701C32.2823 146.827 32.0903 146.926 31.8743 146.998C31.6643 147.07 31.4423 147.106 31.2083 147.106ZM31.3613 146.458C31.6733 146.458 31.9523 146.383 32.1983 146.233C32.4443 146.077 32.6363 145.864 32.7743 145.594C32.9183 145.318 32.9903 145.006 32.9903 144.658C32.9903 144.31 32.9183 144.001 32.7743 143.731C32.6363 143.461 32.4443 143.248 32.1983 143.092C31.9523 142.936 31.6733 142.858 31.3613 142.858C31.0433 142.858 30.7613 142.936 30.5153 143.092C30.2753 143.248 30.0833 143.461 29.9393 143.731C29.8013 144.001 29.7323 144.31 29.7323 144.658C29.7323 145 29.8013 145.309 29.9393 145.585C30.0773 145.855 30.2693 146.068 30.5153 146.224C30.7613 146.38 31.0433 146.458 31.3613 146.458ZM36.0077 147.016L34.3787 142.318L35.0987 142.309L36.3677 146.134L36.1427 146.116L37.5197 143.038H37.9247L39.3107 146.116L39.0407 146.134L40.3367 142.318H41.0477L39.4187 147.016H39.0227L37.5647 143.668L37.8347 143.686L36.4217 147.016H36.0077ZM43.5482 147.106C43.1402 147.106 42.7712 147.001 42.4412 146.791C42.1112 146.575 41.8502 146.284 41.6582 145.918C41.4662 145.546 41.3702 145.126 41.3702 144.658C41.3702 144.184 41.4692 143.764 41.6672 143.398C41.8652 143.032 42.1292 142.744 42.4592 142.534C42.7952 142.324 43.1702 142.219 43.5842 142.219C43.8302 142.219 44.0582 142.255 44.2682 142.327C44.4782 142.399 44.6642 142.501 44.8262 142.633C44.9942 142.759 45.1322 142.909 45.2402 143.083C45.3542 143.251 45.4322 143.434 45.4742 143.632L45.2762 143.533L45.3032 142.318H45.9782V147.016H45.2942V145.864L45.4742 145.747C45.4322 145.927 45.3512 146.101 45.2312 146.269C45.1112 146.431 44.9642 146.575 44.7902 146.701C44.6222 146.827 44.4302 146.926 44.2142 146.998C44.0042 147.07 43.7822 147.106 43.5482 147.106ZM43.7012 146.458C44.0132 146.458 44.2922 146.383 44.5382 146.233C44.7842 146.077 44.9762 145.864 45.1142 145.594C45.2582 145.318 45.3302 145.006 45.3302 144.658C45.3302 144.31 45.2582 144.001 45.1142 143.731C44.9762 143.461 44.7842 143.248 44.5382 143.092C44.2922 142.936 44.0132 142.858 43.7012 142.858C43.3832 142.858 43.1012 142.936 42.8552 143.092C42.6152 143.248 42.4232 143.461 42.2792 143.731C42.1412 144.001 42.0722 144.31 42.0722 144.658C42.0722 145 42.1412 145.309 42.2792 145.585C42.4172 145.855 42.6092 146.068 42.8552 146.224C43.1012 146.38 43.3832 146.458 43.7012 146.458Z" fill="black"/>
<path d="M19.5668 32.0156L15.1568 17.3156H18.7898L20.9948 25.0436C21.0928 25.3936 21.1768 25.7506 21.2468 26.1146C21.3308 26.4646 21.3938 26.8006 21.4358 27.1226C21.4918 27.4446 21.5338 27.7456 21.5618 28.0256C21.5898 28.2916 21.6178 28.5156 21.6458 28.6976H21.1838C21.2678 28.1796 21.3378 27.7176 21.3938 27.3116C21.4638 26.9056 21.5408 26.5276 21.6248 26.1776C21.7088 25.8136 21.8138 25.4356 21.9398 25.0436L24.1238 19.2266H26.9798L29.1218 25.0436C29.2898 25.5056 29.4298 25.9396 29.5418 26.3456C29.6538 26.7516 29.7378 27.1436 29.7938 27.5216C29.8638 27.8856 29.9198 28.2496 29.9618 28.6136L29.5418 28.6766C29.5698 28.4246 29.5908 28.1936 29.6048 27.9836C29.6188 27.7596 29.6328 27.5496 29.6468 27.3536C29.6748 27.1436 29.7028 26.9266 29.7308 26.7026C29.7588 26.4786 29.8008 26.2336 29.8568 25.9676C29.9128 25.6876 29.9898 25.3726 30.0878 25.0226L32.2718 17.3156H35.8208L31.4108 32.0156H28.6808L25.1948 23.5526L25.5938 23.5946L22.3808 32.0156H19.5668ZM42.137 32.2256C40.975 32.2256 39.939 31.9736 39.029 31.4696C38.133 30.9656 37.419 30.2796 36.887 29.4116C36.369 28.5436 36.11 27.5496 36.11 26.4296C36.11 25.3096 36.369 24.3156 36.887 23.4476C37.419 22.5796 38.133 21.8936 39.029 21.3896C39.939 20.8856 40.975 20.6336 42.137 20.6336C43.299 20.6336 44.328 20.8856 45.224 21.3896C46.134 21.8936 46.848 22.5796 47.366 23.4476C47.884 24.3156 48.143 25.3096 48.143 26.4296C48.143 27.5496 47.884 28.5436 47.366 29.4116C46.848 30.2796 46.134 30.9656 45.224 31.4696C44.328 31.9736 43.299 32.2256 42.137 32.2256ZM42.137 29.3276C42.641 29.3276 43.089 29.2016 43.481 28.9496C43.873 28.6976 44.181 28.3546 44.405 27.9206C44.629 27.4866 44.734 26.9896 44.72 26.4296C44.734 25.8696 44.629 25.3726 44.405 24.9386C44.181 24.4906 43.873 24.1406 43.481 23.8886C43.089 23.6366 42.641 23.5106 42.137 23.5106C41.633 23.5106 41.178 23.6366 40.772 23.8886C40.38 24.1406 40.072 24.4906 39.848 24.9386C39.624 25.3726 39.519 25.8696 39.533 26.4296C39.519 26.9896 39.624 27.4866 39.848 27.9206C40.072 28.3546 40.38 28.6976 40.772 28.9496C41.178 29.2016 41.633 29.3276 42.137 29.3276ZM50.3401 32.0156V20.8646H53.5321L53.6791 24.4976L53.0491 23.8046C53.2171 23.2026 53.4901 22.6636 53.8681 22.1876C54.2601 21.7116 54.7151 21.3336 55.2331 21.0536C55.7511 20.7736 56.3041 20.6336 56.8921 20.6336C57.1441 20.6336 57.3751 20.6546 57.5851 20.6966C57.8091 20.7386 58.0121 20.7876 58.1941 20.8436L57.2701 24.5606C57.1161 24.4626 56.9061 24.3856 56.6401 24.3296C56.3881 24.2596 56.1221 24.2246 55.8421 24.2246C55.5341 24.2246 55.2471 24.2806 54.9811 24.3926C54.7151 24.4906 54.4911 24.6376 54.3091 24.8336C54.1271 25.0296 53.9801 25.2606 53.8681 25.5266C53.7701 25.7926 53.7211 26.0936 53.7211 26.4296V32.0156H50.3401ZM59.9178 32.0156V16.4756H63.2778V32.0156H59.9178ZM70.2906 32.2466C69.3246 32.2466 68.4636 32.0016 67.7076 31.5116C66.9656 31.0076 66.3776 30.3216 65.9436 29.4536C65.5096 28.5716 65.2926 27.5706 65.2926 26.4506C65.2926 25.3306 65.5096 24.3366 65.9436 23.4686C66.3776 22.5866 66.9726 21.8936 67.7286 21.3896C68.4846 20.8856 69.3526 20.6336 70.3326 20.6336C70.8366 20.6336 71.3196 20.7106 71.7816 20.8646C72.2436 21.0186 72.6636 21.2286 73.0416 21.4946C73.4196 21.7606 73.7276 22.0686 73.9656 22.4186C74.2036 22.7546 74.3436 23.1046 74.3856 23.4686L73.5876 23.6576V16.4756H76.9686V32.0156H73.8396L73.6506 29.4746L74.3226 29.5796C74.2806 29.9296 74.1406 30.2656 73.9026 30.5876C73.6786 30.9096 73.3846 31.1966 73.0206 31.4486C72.6566 31.6866 72.2366 31.8756 71.7606 32.0156C71.2986 32.1696 70.8086 32.2466 70.2906 32.2466ZM71.1516 29.4536C71.6696 29.4536 72.1176 29.3276 72.4956 29.0756C72.8736 28.8236 73.1606 28.4736 73.3566 28.0256C73.5666 27.5776 73.6716 27.0526 73.6716 26.4506C73.6716 25.8346 73.5666 25.3026 73.3566 24.8546C73.1606 24.4066 72.8736 24.0566 72.4956 23.8046C72.1176 23.5526 71.6696 23.4266 71.1516 23.4266C70.6336 23.4266 70.1856 23.5526 69.8076 23.8046C69.4436 24.0566 69.1566 24.4066 68.9466 24.8546C68.7366 25.3026 68.6316 25.8346 68.6316 26.4506C68.6316 27.0526 68.7366 27.5776 68.9466 28.0256C69.1566 28.4736 69.4436 28.8236 69.8076 29.0756C70.1856 29.3276 70.6336 29.4536 71.1516 29.4536ZM79.8308 32.0156V16.4756H83.1908V32.0156H79.8308ZM87.2872 36.8456L89.8282 30.8606L89.8702 32.5826L84.4942 20.8646H88.2952L90.6472 26.4716C90.7732 26.7516 90.8922 27.0526 91.0042 27.3746C91.1162 27.6966 91.2002 28.0046 91.2562 28.2986L90.7942 28.5716C90.8782 28.3616 90.9692 28.1026 91.0672 27.7946C91.1792 27.4726 91.2982 27.1296 91.4242 26.7656L93.4822 20.8646H97.3042L92.5582 32.0156L90.6262 36.8456H87.2872ZM20.9613 58.0156L16.5513 43.3156H20.1843L22.3893 51.0436C22.4873 51.3936 22.5713 51.7506 22.6413 52.1146C22.7253 52.4646 22.7883 52.8006 22.8303 53.1226C22.8863 53.4446 22.9283 53.7456 22.9563 54.0256C22.9843 54.2916 23.0123 54.5156 23.0403 54.6976H22.5783C22.6623 54.1796 22.7323 53.7176 22.7883 53.3116C22.8583 52.9056 22.9353 52.5276 23.0193 52.1776C23.1033 51.8136 23.2083 51.4356 23.3343 51.0436L25.5183 45.2266H28.3743L30.5163 51.0436C30.6843 51.5056 30.8243 51.9396 30.9363 52.3456C31.0483 52.7516 31.1323 53.1436 31.1883 53.5216C31.2583 53.8856 31.3143 54.2496 31.3563 54.6136L30.9363 54.6766C30.9643 54.4246 30.9853 54.1936 30.9993 53.9836C31.0133 53.7596 31.0273 53.5496 31.0413 53.3536C31.0693 53.1436 31.0973 52.9266 31.1253 52.7026C31.1533 52.4786 31.1953 52.2336 31.2513 51.9676C31.3073 51.6876 31.3843 51.3726 31.4823 51.0226L33.6663 43.3156H37.2153L32.8053 58.0156H30.0753L26.5893 49.5526L26.9883 49.5946L23.7753 58.0156H20.9613ZM42.3975 58.2046C41.4595 58.2046 40.6195 57.9596 39.8775 57.4696C39.1495 56.9656 38.5685 56.2796 38.1345 55.4116C37.7005 54.5296 37.4835 53.5356 37.4835 52.4296C37.4835 51.2956 37.7005 50.2946 38.1345 49.4266C38.5685 48.5586 39.1635 47.8796 39.9195 47.3896C40.6755 46.8856 41.5365 46.6336 42.5025 46.6336C43.0345 46.6336 43.5175 46.7106 43.9515 46.8646C44.3995 47.0186 44.7915 47.2356 45.1275 47.5156C45.4635 47.7816 45.7505 48.0966 45.9885 48.4606C46.2265 48.8106 46.4015 49.1886 46.5135 49.5946L45.8205 49.5106V46.8646H49.1595V58.0156H45.7575V55.3276L46.5135 55.3066C46.4015 55.6986 46.2195 56.0696 45.9675 56.4196C45.7155 56.7696 45.4075 57.0776 45.0435 57.3436C44.6795 57.6096 44.2735 57.8196 43.8255 57.9736C43.3775 58.1276 42.9015 58.2046 42.3975 58.2046ZM43.3215 55.3696C43.8395 55.3696 44.2875 55.2506 44.6655 55.0126C45.0435 54.7746 45.3375 54.4386 45.5475 54.0046C45.7575 53.5566 45.8625 53.0316 45.8625 52.4296C45.8625 51.8276 45.7575 51.3096 45.5475 50.8756C45.3375 50.4276 45.0435 50.0846 44.6655 49.8466C44.2875 49.5946 43.8395 49.4686 43.3215 49.4686C42.8175 49.4686 42.3765 49.5946 41.9985 49.8466C41.6345 50.0846 41.3475 50.4276 41.1375 50.8756C40.9275 51.3096 40.8225 51.8276 40.8225 52.4296C40.8225 53.0316 40.9275 53.5566 41.1375 54.0046C41.3475 54.4386 41.6345 54.7746 41.9985 55.0126C42.3765 55.2506 42.8175 55.3696 43.3215 55.3696ZM52.8173 58.0156V46.3186C52.8173 45.5906 52.9713 44.9326 53.2793 44.3446C53.6013 43.7566 54.0423 43.2946 54.6023 42.9586C55.1763 42.6086 55.8413 42.4336 56.5973 42.4336C57.1293 42.4336 57.6193 42.5106 58.0673 42.6646C58.5153 42.8186 58.9143 43.0356 59.2643 43.3156L58.2983 45.7726C58.1163 45.6746 57.9413 45.5976 57.7733 45.5416C57.6053 45.4856 57.4513 45.4576 57.3113 45.4576C57.0593 45.4576 56.8493 45.4996 56.6813 45.5836C56.5133 45.6676 56.3873 45.8006 56.3033 45.9826C56.2333 46.1506 56.1983 46.3606 56.1983 46.6126V58.0156H54.5183C54.1403 58.0156 53.8043 58.0156 53.5103 58.0156C53.2303 58.0156 52.9993 58.0156 52.8173 58.0156ZM51.2003 49.9516V47.1796H58.4873V49.9516H51.2003ZM61.0703 58.0156V46.3186C61.0703 45.5906 61.2243 44.9326 61.5323 44.3446C61.8543 43.7566 62.2953 43.2946 62.8553 42.9586C63.4293 42.6086 64.0943 42.4336 64.8503 42.4336C65.3823 42.4336 65.8723 42.5106 66.3203 42.6646C66.7683 42.8186 67.1673 43.0356 67.5173 43.3156L66.5513 45.7726C66.3693 45.6746 66.1943 45.5976 66.0263 45.5416C65.8583 45.4856 65.7043 45.4576 65.5643 45.4576C65.3123 45.4576 65.1023 45.4996 64.9343 45.5836C64.7663 45.6676 64.6403 45.8006 64.5563 45.9826C64.4863 46.1506 64.4513 46.3606 64.4513 46.6126V58.0156H62.7713C62.3933 58.0156 62.0573 58.0156 61.7633 58.0156C61.4833 58.0156 61.2523 58.0156 61.0703 58.0156ZM59.4533 49.9516V47.1796H66.7403V49.9516H59.4533ZM68.6513 58.0156V42.4756H72.0113V58.0156H68.6513ZM80.1189 58.2256C78.8869 58.2256 77.8159 57.9806 76.9059 57.4906C75.9959 56.9866 75.2889 56.3076 74.7849 55.4536C74.2809 54.5856 74.0289 53.5986 74.0289 52.4926C74.0289 51.6386 74.1689 50.8546 74.4489 50.1406C74.7289 49.4266 75.1209 48.8106 75.6249 48.2926C76.1289 47.7606 76.7239 47.3546 77.4099 47.0746C78.1099 46.7806 78.8729 46.6336 79.6989 46.6336C80.4829 46.6336 81.1969 46.7736 81.8409 47.0536C82.4989 47.3336 83.0659 47.7256 83.5419 48.2296C84.0179 48.7336 84.3819 49.3286 84.6339 50.0146C84.8859 50.7006 84.9979 51.4496 84.9699 52.2616L84.9489 53.1646H76.0659L75.5829 51.2746H82.2189L81.8619 51.6736V51.2536C81.8339 50.9036 81.7219 50.5956 81.5259 50.3296C81.3439 50.0496 81.0989 49.8326 80.7909 49.6786C80.4829 49.5246 80.1329 49.4476 79.7409 49.4476C79.1949 49.4476 78.7259 49.5596 78.3339 49.7836C77.9559 49.9936 77.6689 50.3086 77.4729 50.7286C77.2769 51.1346 77.1789 51.6386 77.1789 52.2406C77.1789 52.8566 77.3049 53.3956 77.5569 53.8576C77.8229 54.3056 78.2009 54.6556 78.6909 54.9076C79.1949 55.1596 79.7899 55.2856 80.4759 55.2856C80.9519 55.2856 81.3719 55.2156 81.7359 55.0756C82.1139 54.9356 82.5199 54.6976 82.9539 54.3616L84.5289 56.5876C84.0949 56.9656 83.6329 57.2736 83.1429 57.5116C82.6529 57.7496 82.1489 57.9246 81.6309 58.0366C81.1269 58.1626 80.6229 58.2256 80.1189 58.2256ZM90.8696 58.2256C89.7776 58.2256 88.8116 58.0506 87.9716 57.7006C87.1456 57.3506 86.4876 56.8816 85.9976 56.2936L88.0346 54.5296C88.4686 54.9636 88.9586 55.2856 89.5046 55.4956C90.0506 55.6916 90.5686 55.7896 91.0586 55.7896C91.2546 55.7896 91.4296 55.7686 91.5836 55.7266C91.7376 55.6846 91.8636 55.6286 91.9616 55.5586C92.0736 55.4746 92.1576 55.3836 92.2136 55.2856C92.2696 55.1736 92.2976 55.0476 92.2976 54.9076C92.2976 54.6276 92.1716 54.4106 91.9196 54.2566C91.7936 54.1866 91.5836 54.1026 91.2896 54.0046C90.9956 53.9066 90.6176 53.7946 90.1556 53.6686C89.4976 53.5006 88.9236 53.3046 88.4336 53.0806C87.9576 52.8426 87.5656 52.5696 87.2576 52.2616C86.9776 51.9676 86.7606 51.6456 86.6066 51.2956C86.4526 50.9316 86.3756 50.5256 86.3756 50.0776C86.3756 49.5596 86.4946 49.0906 86.7326 48.6706C86.9846 48.2506 87.3136 47.8866 87.7196 47.5786C88.1396 47.2706 88.6156 47.0396 89.1476 46.8856C89.6936 46.7176 90.2536 46.6336 90.8276 46.6336C91.4436 46.6336 92.0316 46.7036 92.5916 46.8436C93.1516 46.9836 93.6696 47.1796 94.1456 47.4316C94.6356 47.6836 95.0696 47.9846 95.4476 48.3346L93.6836 50.3086C93.4316 50.0706 93.1446 49.8606 92.8226 49.6786C92.5146 49.4826 92.1926 49.3286 91.8566 49.2166C91.5206 49.1046 91.2126 49.0486 90.9326 49.0486C90.7226 49.0486 90.5336 49.0696 90.3656 49.1116C90.2116 49.1396 90.0786 49.1956 89.9666 49.2796C89.8546 49.3496 89.7706 49.4406 89.7146 49.5526C89.6586 49.6506 89.6306 49.7696 89.6306 49.9096C89.6306 50.0496 89.6656 50.1826 89.7356 50.3086C89.8196 50.4346 89.9316 50.5396 90.0716 50.6236C90.2116 50.7076 90.4356 50.8056 90.7436 50.9176C91.0516 51.0156 91.4716 51.1416 92.0036 51.2956C92.6616 51.4776 93.2286 51.6806 93.7046 51.9046C94.1806 52.1286 94.5586 52.3946 94.8386 52.7026C95.0626 52.9406 95.2306 53.2206 95.3426 53.5426C95.4546 53.8506 95.5106 54.1866 95.5106 54.5506C95.5106 55.2646 95.3076 55.9016 94.9016 56.4616C94.5096 57.0076 93.9636 57.4416 93.2636 57.7636C92.5636 58.0716 91.7656 58.2256 90.8696 58.2256Z" fill="black"/>
</svg>
