<svg width="570" height="960" viewBox="0 0 570 960" fill="none" xmlns="http://www.w3.org/2000/svg">
<rect x="60" y="420" width="420" height="30" fill="#CE7C35"/>
<rect x="60" y="930" width="420" height="30" fill="#CE7C35"/>
<rect x="510" y="480" width="30" height="420" fill="#CE7C35"/>
<rect y="480" width="30" height="420" fill="#CE7C35"/>
<rect x="30" y="450" width="30" height="30" fill="#CE7C35"/>
<rect x="480" y="450" width="30" height="30" fill="#CE7C35"/>
<rect x="480" y="900" width="30" height="30" fill="#CE7C35"/>
<rect x="30" y="900" width="30" height="30" fill="#CE7C35"/>
<rect x="540" y="480" width="30" height="420" fill="#E2A93F"/>
<rect x="510" y="450" width="30" height="30" fill="#E2A93F"/>
<rect x="480" y="420" width="30" height="30" fill="#E2A93F"/>
<rect x="510" y="900" width="30" height="30" fill="#E2A93F"/>
<rect x="480" y="930" width="30" height="30" fill="#E2A93F"/>
<rect x="30" y="480" width="480" height="420" fill="#F7D046"/>
<rect x="60" y="450" width="420" height="480" fill="#F7D046"/>
<rect x="360" y="780" width="120" height="120" fill="#CE7C35"/>
<rect x="390" y="810" width="60" height="60" fill="#E2A93F"/>
<rect x="420" y="840" width="30" height="30" fill="#F7D046"/>
<rect x="210" y="780" width="120" height="120" fill="#CE7C35"/>
<rect x="240" y="810" width="60" height="60" fill="#E2A93F"/>
<rect x="270" y="840" width="30" height="30" fill="#F7D046"/>
<rect x="60" y="780" width="120" height="120" fill="#CE7C35"/>
<rect x="90" y="810" width="60" height="60" fill="#E2A93F"/>
<rect x="120" y="840" width="30" height="30" fill="#F7D046"/>
<rect x="360" y="630" width="120" height="120" fill="#CE7C35"/>
<rect x="390" y="660" width="60" height="60" fill="#E2A93F"/>
<rect x="420" y="690" width="30" height="30" fill="#F7D046"/>
<rect x="210" y="630" width="120" height="120" fill="#CE7C35"/>
<rect x="240" y="660" width="60" height="60" fill="#E2A93F"/>
<rect x="270" y="690" width="30" height="30" fill="#F7D046"/>
<rect x="60" y="630" width="120" height="120" fill="#CE7C35"/>
<rect x="90" y="660" width="60" height="60" fill="#E2A93F"/>
<rect x="120" y="690" width="30" height="30" fill="#F7D046"/>
<rect x="360" y="480" width="120" height="120" fill="#CE7C35"/>
<rect x="390" y="510" width="60" height="60" fill="#E2A93F"/>
<rect x="420" y="540" width="30" height="30" fill="#F7D046"/>
<rect x="210" y="480" width="120" height="120" fill="#CE7C35"/>
<rect x="240" y="510" width="60" height="60" fill="#E2A93F"/>
<rect x="270" y="540" width="30" height="30" fill="#F7D046"/>
<rect x="60" y="480" width="120" height="120" fill="#CE7C35"/>
<rect x="90" y="510" width="60" height="60" fill="#E2A93F"/>
<rect x="120" y="540" width="30" height="30" fill="#F7D046"/>
<rect x="150" y="720" width="240" height="90" fill="#763E30"/>
<rect x="180" y="810" width="180" height="30" fill="#763E30"/>
<rect x="210" y="840" width="120" height="30" fill="#763E30"/>
<rect x="180" y="750" width="180" height="60" fill="#DF809E"/>
<rect x="210" y="780" width="120" height="60" fill="#DF809E"/>
<rect x="330" y="630" width="90" height="60" fill="#763E30"/>
<rect x="360" y="600" width="60" height="60" fill="#763E30"/>
<rect x="120" y="630" width="90" height="60" fill="#763E30"/>
<rect x="150" y="600" width="60" height="60" fill="#763E30"/>
<rect x="120" y="390" width="300" height="30" fill="black"/>
<rect x="150" y="120" width="240" height="180" fill="white"/>
<rect x="90" y="120" width="360" height="120" fill="white"/>
<rect x="180" y="60" width="180" height="90" fill="white"/>
<rect x="210" y="30" width="120" height="60" fill="white"/>
<rect x="60" y="150" width="420" height="60" fill="white"/>
<rect x="195" y="180" width="30" height="60" fill="black"/>
<rect x="255" y="180" width="30" height="60" fill="black"/>
<rect x="315" y="180" width="30" height="60" fill="black"/>
<rect x="60" y="210" width="30" height="30" fill="black"/>
<rect x="90" y="240" width="60" height="30" fill="black"/>
<rect x="450" y="210" width="30" height="30" fill="black"/>
<rect x="390" y="240" width="60" height="30" fill="black"/>
<rect x="60" y="120" width="30" height="30" fill="black"/>
<rect x="90" y="90" width="90" height="30" fill="black"/>
<rect x="450" y="120" width="30" height="30" fill="black"/>
<rect x="180" y="30" width="30" height="30" fill="black"/>
<rect x="330" y="30" width="30" height="30" fill="black"/>
<rect x="30" y="150" width="30" height="60" fill="black"/>
<rect x="480" y="150" width="30" height="60" fill="black"/>
<rect x="150" y="60" width="30" height="60" fill="black"/>
<rect x="360" y="60" width="30" height="60" fill="black"/>
<rect x="120" y="300" width="300" height="30" fill="black"/>
<rect x="360" y="90" width="90" height="30" fill="black"/>
<rect x="210" width="120" height="30" fill="black"/>
<rect x="150" y="330" width="240" height="60" fill="#E2E2E2"/>
<rect x="120" y="240" width="30" height="180" fill="black"/>
<rect x="390" y="240" width="30" height="180" fill="black"/>
</svg>
