<svg width="80" height="79" viewBox="0 0 80 79" fill="none" xmlns="http://www.w3.org/2000/svg">
<path d="M77.2347 30.4836L8.54008 65.1997C8.54008 65.1997 6.38698 66.9496 4.76685 61.7925C3.01019 56.2018 68.8262 22.8399 69.5005 23.2214C73.4628 25.4631 66.0736 17.3254 67.9164 15.3923C69.7823 13.4353 0.918531 48.6045 1.99591 52.4891C3.07254 56.3716 4.96202 62.4992 4.96202 62.4992C4.96202 62.4992 7.83338 68.3409 9.14738 67.5966C10.4615 66.8522 77.2333 30.4848 77.2333 30.4848L77.2347 30.4836Z" fill="#803300"/>
<path d="M66.7421 17.3623L62.1204 21.843L66.1909 20.1811L56.1025 26.5773L67.3039 22.2716L70.3283 23.5653L66.7421 17.3623Z" fill="#431B00"/>
<path d="M66.7006 21.9836C65.1889 21.7793 73.0428 32.5036 76.7658 30.4852C79.7837 28.8489 74.9387 20.0616 72.1249 17.6384C69.311 15.2149 65.4333 15.1753 67.1312 18.3643C68.8294 21.5535 71.5115 26.9886 72.8881 27.2565C74.2648 27.5243 74.9534 27.6584 74.3968 24.5126C73.8401 21.3669 70.7566 17.6402 70.1287 19.3941C69.5006 21.148 72.0964 23.8863 72.0964 23.8863" fill="#431B00"/>
<path d="M66.7006 21.9836C65.1889 21.7793 73.0428 32.5036 76.7658 30.4852C79.7837 28.8489 74.9387 20.0616 72.1249 17.6384C69.311 15.2149 65.4333 15.1753 67.1312 18.3643C68.8294 21.5535 71.5115 26.9886 72.8881 27.2565C74.2648 27.5243 74.9534 27.6584 74.3968 24.5126C73.8401 21.3669 70.7566 17.6402 70.1287 19.3941C69.5006 21.148 72.0964 23.8863 72.0964 23.8863" stroke="#6A3910" stroke-width="1.81481" stroke-linecap="round" stroke-linejoin="bevel"/>
<path d="M76.7814 31.0444C76.7814 31.0444 70.4372 30.7951 66.206 22.4223C64.4193 18.8866 -0.586076 57.5062 1.8118 62.9855C8.05144 77.2465 7.48494 64.6401 76.7814 31.0444Z" fill="#552200"/>
<path d="M69.3598 28.9646C70.5541 31.549 28.4222 52.1634 26.9167 50.8639C26.9167 50.8639 36.7079 48.6818 36.3021 48.6612C35.8965 48.6404 11.7861 63.5906 11.7861 63.5906L73.7858 31.4694L65.1013 34.2775L71.978 30.238L69.3598 28.9646Z" fill="#4B3A2C"/>
<path d="M3.92786 53.5068C3.02333 50.7065 30.8146 35.7679 31.3183 36.4486L21.4149 43.9933L24.1377 43.238C17.1193 46.742 10.1828 50.4341 4.11893 56.1203L3.92786 53.5068Z" fill="#854B23"/>
<path d="M59.6986 11.9041L14.8074 74.4163C14.8074 74.4163 13.7059 76.9626 9.88726 73.1357C5.7474 68.9871 48.7113 9.00504 49.4854 9.03214C54.0349 9.19164 43.7233 5.38373 44.4651 2.81803C45.216 0.220456 0.383708 63.2129 3.13323 66.1617C5.88108 69.1089 10.3868 73.6728 10.3868 73.6728C10.3868 73.6728 15.6313 77.5291 16.4529 76.2624C17.2743 74.9952 59.698 11.9057 59.698 11.9057L59.6986 11.9041Z" fill="#803300"/>
<path d="M44.3326 5.10742L42.3029 11.2162L45.1455 7.8625L39.1523 18.1945L47.098 9.2033L50.3778 8.9546L44.3326 5.10742Z" fill="#431B00"/>
<path d="M46.4294 9.22659C44.9941 9.74329 56.9125 15.6314 59.2823 12.122C61.2031 9.27699 52.8479 3.71823 49.2333 2.86755C45.6184 2.0167 42.161 3.77175 45.1397 5.81698C48.1185 7.86209 53.0074 11.4457 54.3521 11.0479C55.6967 10.6498 56.3691 10.4508 54.4227 7.91709C52.4763 5.38334 48.0207 3.50093 48.2737 5.34677C48.5266 7.19269 52.0935 8.42349 52.0935 8.42349" fill="#431B00"/>
<path d="M46.4294 9.22659C44.9941 9.74329 56.9125 15.6314 59.2823 12.122C61.2031 9.27699 52.8479 3.71823 49.2333 2.86755C45.6184 2.0167 42.161 3.77175 45.1397 5.81698C48.1185 7.86209 53.0074 11.4457 54.3521 11.0479C55.6967 10.6498 56.3691 10.4508 54.4227 7.91709C52.4763 5.38334 48.0207 3.50093 48.2737 5.34677C48.5266 7.19269 52.0935 8.42349 52.0935 8.42349" stroke="#6A3910" stroke-width="1.81481" stroke-linecap="round" stroke-linejoin="bevel"/>
<path d="M59.5552 12.6106C59.5552 12.6106 53.8135 15.3184 46.194 9.84396C42.9763 7.53216 3.15979 71.8044 7.81677 75.5581C19.937 85.3289 13.6121 74.4067 59.5552 12.6106Z" fill="#552200"/>
<path d="M52.0127 14.192C54.2654 15.9333 26.4194 53.6721 24.4843 53.2144C24.4843 53.2144 32.1601 46.7584 31.7907 46.9271C31.4212 47.0961 16.9424 71.4901 16.9424 71.4901L57.0945 14.3707L50.6892 20.8712L54.9227 14.1129L52.0127 14.192Z" fill="#4B3A2C"/>
<path d="M5.31635 66.1727C3.22088 64.1058 20.9695 38.0227 21.7305 38.3942L16.4317 49.6592L18.4977 47.7324C13.8913 54.081 9.44455 60.5588 6.69272 68.4027L5.31635 66.1727Z" fill="#854B23"/>
</svg>