<svg width="191" height="191" viewBox="0 0 191 191" fill="none" xmlns="http://www.w3.org/2000/svg">
<path d="M46.2578 2.98438V158.172H40.2891C32.0522 158.172 25.3672 164.857 25.3672 173.094V17.9062C25.3672 9.66937 32.0522 2.98438 40.2891 2.98438H46.2578ZM165.633 158.172V188.016H153.695V158.172H165.633Z" fill="#5C9EFF"/>
<path d="M153.695 173.094V188.016H40.2891C32.0522 188.016 25.3672 181.331 25.3672 173.094C25.3672 164.857 32.0522 158.172 40.2891 158.172H153.695V173.094Z" fill="white"/>
<path d="M46.2578 2.98438V158.172H165.633V2.98438H46.2578Z" fill="#94C1FF"/>
<path d="M59.5285 83V75.3H62.5425C62.9898 75.3 63.3932 75.4063 63.7525 75.619C64.1192 75.8243 64.4088 76.1067 64.6215 76.466C64.8342 76.8253 64.9405 77.2323 64.9405 77.687C64.9405 78.1123 64.8378 78.4973 64.6325 78.842C64.4272 79.1867 64.1485 79.4617 63.7965 79.667C63.4445 79.865 63.0485 79.964 62.6085 79.964H60.3865V83H59.5285ZM64.2255 83L62.2895 79.612L63.1145 79.326L65.2485 83H64.2255ZM60.3865 79.128H62.6855C62.9568 79.128 63.1952 79.0657 63.4005 78.941C63.6058 78.8163 63.7672 78.6477 63.8845 78.435C64.0018 78.215 64.0605 77.9657 64.0605 77.687C64.0605 77.3863 63.9908 77.1187 63.8515 76.884C63.7122 76.6493 63.5178 76.466 63.2685 76.334C63.0265 76.202 62.7478 76.136 62.4325 76.136H60.3865V79.128ZM68.7754 83.11C68.2034 83.11 67.6937 82.9853 67.2464 82.736C66.8064 82.4867 66.4617 82.1383 66.2124 81.691C65.963 81.2437 65.8384 80.7303 65.8384 80.151C65.8384 79.7037 65.908 79.3003 66.0474 78.941C66.1867 78.5743 66.381 78.2553 66.6304 77.984C66.887 77.7127 67.1914 77.5037 67.5434 77.357C67.8954 77.203 68.2767 77.126 68.6874 77.126C69.076 77.126 69.428 77.1957 69.7434 77.335C70.066 77.4743 70.341 77.6687 70.5684 77.918C70.803 78.16 70.979 78.4497 71.0964 78.787C71.2137 79.1243 71.265 79.4947 71.2504 79.898L71.2394 80.283H66.4544L66.3334 79.59H70.6124L70.4144 79.777V79.513C70.3997 79.249 70.3227 78.996 70.1834 78.754C70.044 78.5047 69.846 78.303 69.5894 78.149C69.34 77.995 69.0394 77.918 68.6874 77.918C68.2767 77.918 67.921 78.0023 67.6204 78.171C67.3197 78.3323 67.0887 78.5743 66.9274 78.897C66.766 79.2197 66.6854 79.6193 66.6854 80.096C66.6854 80.5507 66.7734 80.9467 66.9494 81.284C67.1254 81.614 67.3747 81.8707 67.6974 82.054C68.0274 82.2373 68.4234 82.329 68.8854 82.329C69.1567 82.329 69.4244 82.285 69.6884 82.197C69.9597 82.1017 70.2567 81.9183 70.5794 81.647L71.0084 82.241C70.8397 82.4097 70.638 82.56 70.4034 82.692C70.1687 82.8167 69.912 82.9193 69.6334 83C69.3547 83.0733 69.0687 83.11 68.7754 83.11ZM74.8421 83.11C74.2995 83.11 73.8155 82.9817 73.3901 82.725C72.9648 82.461 72.6275 82.1053 72.3781 81.658C72.1361 81.2033 72.0151 80.69 72.0151 80.118C72.0151 79.546 72.1361 79.0363 72.3781 78.589C72.6275 78.1343 72.9648 77.7787 73.3901 77.522C73.8155 77.2653 74.3031 77.137 74.8531 77.137C75.3445 77.137 75.7918 77.236 76.1951 77.434C76.5985 77.6247 76.9211 77.8923 77.1631 78.237L76.6791 78.831C76.5398 78.6477 76.3711 78.4863 76.1731 78.347C75.9825 78.2077 75.7735 78.1013 75.5461 78.028C75.3261 77.9473 75.1061 77.907 74.8861 77.907C74.4975 77.907 74.1491 78.006 73.8411 78.204C73.5331 78.3947 73.2875 78.655 73.1041 78.985C72.9281 79.315 72.8401 79.6927 72.8401 80.118C72.8401 80.5433 72.9281 80.9247 73.1041 81.262C73.2875 81.592 73.5331 81.8523 73.8411 82.043C74.1491 82.2337 74.4938 82.329 74.8751 82.329C75.0951 82.329 75.3115 82.296 75.5241 82.23C75.7368 82.1567 75.9385 82.054 76.1291 81.922C76.3198 81.79 76.4958 81.625 76.6571 81.427L77.1411 82.021C76.8918 82.351 76.5581 82.615 76.1401 82.813C75.7221 83.011 75.2895 83.11 74.8421 83.11ZM78.4322 83V77.258H79.2572V83H78.4322ZM78.8392 76.015C78.6338 76.015 78.4762 75.9637 78.3662 75.861C78.2635 75.751 78.2122 75.6043 78.2122 75.421C78.2122 75.2377 78.2672 75.091 78.3772 74.981C78.4872 74.871 78.6412 74.816 78.8392 74.816C79.0372 74.816 79.1912 74.871 79.3012 74.981C79.4112 75.0837 79.4662 75.2303 79.4662 75.421C79.4662 75.597 79.4112 75.74 79.3012 75.85C79.1912 75.96 79.0372 76.015 78.8392 76.015ZM81.0589 85.42V77.258H81.8839L81.9059 78.655L81.7519 78.677C81.8179 78.3983 81.9609 78.1453 82.1809 77.918C82.4009 77.6833 82.6685 77.4963 82.9839 77.357C83.2992 77.2177 83.6329 77.148 83.9849 77.148C84.4982 77.148 84.9565 77.2763 85.3599 77.533C85.7705 77.7897 86.0969 78.1417 86.3389 78.589C86.5809 79.0363 86.7019 79.5497 86.7019 80.129C86.7019 80.701 86.5845 81.2107 86.3499 81.658C86.1152 82.1053 85.7925 82.461 85.3819 82.725C84.9712 82.9817 84.5092 83.11 83.9959 83.11C83.6365 83.11 83.2955 83.0367 82.9729 82.89C82.6502 82.7433 82.3752 82.5527 82.1479 82.318C81.9205 82.076 81.7702 81.8157 81.6969 81.537H81.8949V85.42H81.0589ZM83.8639 82.318C84.2525 82.318 84.5972 82.2227 84.8979 82.032C85.1985 81.8413 85.4369 81.581 85.6129 81.251C85.7889 80.921 85.8769 80.547 85.8769 80.129C85.8769 79.7037 85.7889 79.326 85.6129 78.996C85.4369 78.666 85.1985 78.4057 84.8979 78.215C84.5972 78.0243 84.2525 77.929 83.8639 77.929C83.4752 77.929 83.1269 78.0243 82.8189 78.215C82.5182 78.3983 82.2799 78.655 82.1039 78.985C81.9279 79.315 81.8399 79.6927 81.8399 80.118C81.8399 80.5433 81.9279 80.921 82.1039 81.251C82.2799 81.581 82.5182 81.8413 82.8189 82.032C83.1269 82.2227 83.4752 82.318 83.8639 82.318ZM90.4316 83.11C89.8596 83.11 89.35 82.9853 88.9026 82.736C88.4626 82.4867 88.118 82.1383 87.8686 81.691C87.6193 81.2437 87.4946 80.7303 87.4946 80.151C87.4946 79.7037 87.5643 79.3003 87.7036 78.941C87.843 78.5743 88.0373 78.2553 88.2866 77.984C88.5433 77.7127 88.8476 77.5037 89.1996 77.357C89.5516 77.203 89.933 77.126 90.3436 77.126C90.7323 77.126 91.0843 77.1957 91.3996 77.335C91.7223 77.4743 91.9973 77.6687 92.2246 77.918C92.4593 78.16 92.6353 78.4497 92.7526 78.787C92.87 79.1243 92.9213 79.4947 92.9066 79.898L92.8956 80.283H88.1106L87.9896 79.59H92.2686L92.0706 79.777V79.513C92.056 79.249 91.979 78.996 91.8396 78.754C91.7003 78.5047 91.5023 78.303 91.2456 78.149C90.9963 77.995 90.6956 77.918 90.3436 77.918C89.933 77.918 89.5773 78.0023 89.2766 78.171C88.976 78.3323 88.745 78.5743 88.5836 78.897C88.4223 79.2197 88.3416 79.6193 88.3416 80.096C88.3416 80.5507 88.4296 80.9467 88.6056 81.284C88.7816 81.614 89.031 81.8707 89.3536 82.054C89.6836 82.2373 90.0796 82.329 90.5416 82.329C90.813 82.329 91.0806 82.285 91.3446 82.197C91.616 82.1017 91.913 81.9183 92.2356 81.647L92.6646 82.241C92.496 82.4097 92.2943 82.56 92.0596 82.692C91.825 82.8167 91.5683 82.9193 91.2896 83C91.011 83.0733 90.725 83.11 90.4316 83.11ZM95.9594 83.11C95.4681 83.11 95.0281 83.0183 94.6394 82.835C94.2507 82.6517 93.9427 82.4097 93.7154 82.109L94.2984 81.603C94.5111 81.8597 94.7604 82.054 95.0464 82.186C95.3397 82.318 95.6661 82.384 96.0254 82.384C96.2087 82.384 96.3737 82.3657 96.5204 82.329C96.6671 82.285 96.7954 82.2227 96.9054 82.142C97.0154 82.0613 97.0997 81.966 97.1584 81.856C97.2171 81.746 97.2464 81.625 97.2464 81.493C97.2464 81.251 97.1401 81.0493 96.9274 80.888C96.8321 80.822 96.6964 80.756 96.5204 80.69C96.3444 80.6167 96.1317 80.547 95.8824 80.481C95.4717 80.3637 95.1307 80.2463 94.8594 80.129C94.5881 80.0043 94.3754 79.8613 94.2214 79.7C94.1114 79.568 94.0271 79.425 93.9684 79.271C93.9171 79.117 93.8914 78.9483 93.8914 78.765C93.8914 78.5303 93.9391 78.314 94.0344 78.116C94.1371 77.918 94.2764 77.7457 94.4524 77.599C94.6357 77.445 94.8484 77.3313 95.0904 77.258C95.3397 77.1773 95.6074 77.137 95.8934 77.137C96.1647 77.137 96.4324 77.1737 96.6964 77.247C96.9604 77.3203 97.2061 77.4267 97.4334 77.566C97.6607 77.7053 97.8551 77.8703 98.0164 78.061L97.5104 78.611C97.3711 78.4643 97.2171 78.3323 97.0484 78.215C96.8797 78.0977 96.7001 78.006 96.5094 77.94C96.3261 77.874 96.1354 77.841 95.9374 77.841C95.7614 77.841 95.5964 77.863 95.4424 77.907C95.2957 77.951 95.1674 78.0133 95.0574 78.094C94.9547 78.1673 94.8741 78.259 94.8154 78.369C94.7641 78.479 94.7384 78.6 94.7384 78.732C94.7384 78.842 94.7604 78.941 94.8044 79.029C94.8484 79.117 94.9107 79.194 94.9914 79.26C95.0941 79.3407 95.2371 79.4177 95.4204 79.491C95.6111 79.557 95.8457 79.6267 96.1244 79.7C96.4471 79.788 96.7184 79.8797 96.9384 79.975C97.1657 80.063 97.3527 80.1693 97.4994 80.294C97.6974 80.4407 97.8367 80.6093 97.9174 80.8C98.0054 80.9907 98.0494 81.207 98.0494 81.449C98.0494 81.7717 97.9577 82.0577 97.7744 82.307C97.5984 82.5563 97.3527 82.7543 97.0374 82.901C96.7221 83.0403 96.3627 83.11 95.9594 83.11ZM104.966 83.11C104.394 83.11 103.884 82.9817 103.437 82.725C102.997 82.4683 102.649 82.1127 102.392 81.658C102.143 81.2033 102.018 80.6863 102.018 80.107C102.018 79.535 102.143 79.0253 102.392 78.578C102.649 78.1307 102.997 77.7787 103.437 77.522C103.884 77.2653 104.394 77.137 104.966 77.137C105.531 77.137 106.033 77.2653 106.473 77.522C106.92 77.7787 107.269 78.1307 107.518 78.578C107.775 79.0253 107.903 79.535 107.903 80.107C107.903 80.6863 107.775 81.2033 107.518 81.658C107.269 82.1127 106.92 82.4683 106.473 82.725C106.033 82.9817 105.531 83.11 104.966 83.11ZM104.966 82.329C105.369 82.329 105.729 82.2337 106.044 82.043C106.359 81.845 106.605 81.581 106.781 81.251C106.957 80.9137 107.045 80.5323 107.045 80.107C107.045 79.6817 106.957 79.304 106.781 78.974C106.605 78.644 106.359 78.3873 106.044 78.204C105.729 78.0133 105.369 77.918 104.966 77.918C104.563 77.918 104.2 78.0133 103.877 78.204C103.562 78.3873 103.312 78.6477 103.129 78.985C102.953 79.315 102.869 79.689 102.876 80.107C102.869 80.5323 102.953 80.9137 103.129 81.251C103.312 81.581 103.562 81.845 103.877 82.043C104.2 82.2337 104.563 82.329 104.966 82.329ZM109.552 83V76.367C109.552 76.081 109.614 75.828 109.739 75.608C109.864 75.388 110.04 75.2157 110.267 75.091C110.502 74.959 110.773 74.893 111.081 74.893C111.316 74.893 111.525 74.937 111.708 75.025C111.899 75.1057 112.056 75.2193 112.181 75.366L111.895 76.015C111.778 75.8903 111.649 75.8023 111.51 75.751C111.378 75.6923 111.25 75.663 111.125 75.663C110.964 75.663 110.828 75.6923 110.718 75.751C110.608 75.8023 110.524 75.883 110.465 75.993C110.414 76.0957 110.388 76.2203 110.388 76.367V83H110.003C109.922 83 109.845 83 109.772 83C109.699 83 109.625 83 109.552 83ZM108.529 78.072V77.302H111.851V78.072H108.529ZM117.485 83L115.494 77.258L116.374 77.247L117.925 81.922L117.65 81.9L119.333 78.138H119.828L121.522 81.9L121.192 81.922L122.776 77.258H123.645L121.654 83H121.17L119.388 78.908L119.718 78.93L117.991 83H117.485ZM126.701 83.11C126.203 83.11 125.752 82.9817 125.348 82.725C124.945 82.461 124.626 82.1053 124.391 81.658C124.157 81.2033 124.039 80.69 124.039 80.118C124.039 79.5387 124.16 79.0253 124.402 78.578C124.644 78.1307 124.967 77.7787 125.37 77.522C125.781 77.2653 126.239 77.137 126.745 77.137C127.046 77.137 127.325 77.181 127.581 77.269C127.838 77.357 128.065 77.4817 128.263 77.643C128.469 77.797 128.637 77.9803 128.769 78.193C128.909 78.3983 129.004 78.622 129.055 78.864L128.813 78.743L128.846 77.258H129.671V83H128.835V81.592L129.055 81.449C129.004 81.669 128.905 81.8817 128.758 82.087C128.612 82.285 128.432 82.461 128.219 82.615C128.014 82.769 127.779 82.89 127.515 82.978C127.259 83.066 126.987 83.11 126.701 83.11ZM126.888 82.318C127.27 82.318 127.611 82.2263 127.911 82.043C128.212 81.8523 128.447 81.592 128.615 81.262C128.791 80.9247 128.879 80.5433 128.879 80.118C128.879 79.6927 128.791 79.315 128.615 78.985C128.447 78.655 128.212 78.3947 127.911 78.204C127.611 78.0133 127.27 77.918 126.888 77.918C126.5 77.918 126.155 78.0133 125.854 78.204C125.561 78.3947 125.326 78.655 125.15 78.985C124.982 79.315 124.897 79.6927 124.897 80.118C124.897 80.536 124.982 80.9137 125.15 81.251C125.319 81.581 125.554 81.8413 125.854 82.032C126.155 82.2227 126.5 82.318 126.888 82.318ZM131.939 83V76.367C131.939 76.081 132.001 75.828 132.126 75.608C132.25 75.388 132.426 75.2157 132.654 75.091C132.888 74.959 133.16 74.893 133.468 74.893C133.702 74.893 133.911 74.937 134.095 75.025C134.285 75.1057 134.443 75.2193 134.568 75.366L134.282 76.015C134.164 75.8903 134.036 75.8023 133.897 75.751C133.765 75.6923 133.636 75.663 133.512 75.663C133.35 75.663 133.215 75.6923 133.105 75.751C132.995 75.8023 132.91 75.883 132.852 75.993C132.8 76.0957 132.775 76.2203 132.775 76.367V83H132.39C132.309 83 132.232 83 132.159 83C132.085 83 132.012 83 131.939 83ZM130.916 78.072V77.302H134.238V78.072H130.916ZM136.097 83V76.367C136.097 76.081 136.159 75.828 136.284 75.608C136.408 75.388 136.584 75.2157 136.812 75.091C137.046 74.959 137.318 74.893 137.626 74.893C137.86 74.893 138.069 74.937 138.253 75.025C138.443 75.1057 138.601 75.2193 138.726 75.366L138.44 76.015C138.322 75.8903 138.194 75.8023 138.055 75.751C137.923 75.6923 137.794 75.663 137.67 75.663C137.508 75.663 137.373 75.6923 137.263 75.751C137.153 75.8023 137.068 75.883 137.01 75.993C136.958 76.0957 136.933 76.2203 136.933 76.367V83H136.548C136.467 83 136.39 83 136.317 83C136.243 83 136.17 83 136.097 83ZM135.074 78.072V77.302H138.396V78.072H135.074ZM139.617 83V74.86H140.442V83H139.617ZM144.497 83.11C143.925 83.11 143.415 82.9853 142.968 82.736C142.528 82.4867 142.183 82.1383 141.934 81.691C141.685 81.2437 141.56 80.7303 141.56 80.151C141.56 79.7037 141.63 79.3003 141.769 78.941C141.908 78.5743 142.103 78.2553 142.352 77.984C142.609 77.7127 142.913 77.5037 143.265 77.357C143.617 77.203 143.998 77.126 144.409 77.126C144.798 77.126 145.15 77.1957 145.465 77.335C145.788 77.4743 146.063 77.6687 146.29 77.918C146.525 78.16 146.701 78.4497 146.818 78.787C146.935 79.1243 146.987 79.4947 146.972 79.898L146.961 80.283H142.176L142.055 79.59H146.334L146.136 79.777V79.513C146.121 79.249 146.044 78.996 145.905 78.754C145.766 78.5047 145.568 78.303 145.311 78.149C145.062 77.995 144.761 77.918 144.409 77.918C143.998 77.918 143.643 78.0023 143.342 78.171C143.041 78.3323 142.81 78.5743 142.649 78.897C142.488 79.2197 142.407 79.6193 142.407 80.096C142.407 80.5507 142.495 80.9467 142.671 81.284C142.847 81.614 143.096 81.8707 143.419 82.054C143.749 82.2373 144.145 82.329 144.607 82.329C144.878 82.329 145.146 82.285 145.41 82.197C145.681 82.1017 145.978 81.9183 146.301 81.647L146.73 82.241C146.561 82.4097 146.36 82.56 146.125 82.692C145.89 82.8167 145.634 82.9193 145.355 83C145.076 83.0733 144.79 83.11 144.497 83.11ZM150.025 83.11C149.533 83.11 149.093 83.0183 148.705 82.835C148.316 82.6517 148.008 82.4097 147.781 82.109L148.364 81.603C148.576 81.8597 148.826 82.054 149.112 82.186C149.405 82.318 149.731 82.384 150.091 82.384C150.274 82.384 150.439 82.3657 150.586 82.329C150.732 82.285 150.861 82.2227 150.971 82.142C151.081 82.0613 151.165 81.966 151.224 81.856C151.282 81.746 151.312 81.625 151.312 81.493C151.312 81.251 151.205 81.0493 150.993 80.888C150.897 80.822 150.762 80.756 150.586 80.69C150.41 80.6167 150.197 80.547 149.948 80.481C149.537 80.3637 149.196 80.2463 148.925 80.129C148.653 80.0043 148.441 79.8613 148.287 79.7C148.177 79.568 148.092 79.425 148.034 79.271C147.982 79.117 147.957 78.9483 147.957 78.765C147.957 78.5303 148.004 78.314 148.1 78.116C148.202 77.918 148.342 77.7457 148.518 77.599C148.701 77.445 148.914 77.3313 149.156 77.258C149.405 77.1773 149.673 77.137 149.959 77.137C150.23 77.137 150.498 77.1737 150.762 77.247C151.026 77.3203 151.271 77.4267 151.499 77.566C151.726 77.7053 151.92 77.8703 152.082 78.061L151.576 78.611C151.436 78.4643 151.282 78.3323 151.114 78.215C150.945 78.0977 150.765 78.006 150.575 77.94C150.391 77.874 150.201 77.841 150.003 77.841C149.827 77.841 149.662 77.863 149.508 77.907C149.361 77.951 149.233 78.0133 149.123 78.094C149.02 78.1673 148.939 78.259 148.881 78.369C148.829 78.479 148.804 78.6 148.804 78.732C148.804 78.842 148.826 78.941 148.87 79.029C148.914 79.117 148.976 79.194 149.057 79.26C149.159 79.3407 149.302 79.4177 149.486 79.491C149.676 79.557 149.911 79.6267 150.19 79.7C150.512 79.788 150.784 79.8797 151.004 79.975C151.231 80.063 151.418 80.1693 151.565 80.294C151.763 80.4407 151.902 80.6093 151.983 80.8C152.071 80.9907 152.115 81.207 152.115 81.449C152.115 81.7717 152.023 82.0577 151.84 82.307C151.664 82.5563 151.418 82.7543 151.103 82.901C150.787 83.0403 150.428 83.11 150.025 83.11ZM64.7569 97V90.367C64.7569 90.081 64.8193 89.828 64.9439 89.608C65.0686 89.388 65.2446 89.2157 65.4719 89.091C65.7066 88.959 65.9779 88.893 66.2859 88.893C66.5206 88.893 66.7296 88.937 66.9129 89.025C67.1036 89.1057 67.2613 89.2193 67.3859 89.366L67.0999 90.015C66.9826 89.8903 66.8543 89.8023 66.7149 89.751C66.5829 89.6923 66.4546 89.663 66.3299 89.663C66.1686 89.663 66.0329 89.6923 65.9229 89.751C65.8129 89.8023 65.7286 89.883 65.6699 89.993C65.6186 90.0957 65.5929 90.2203 65.5929 90.367V97H65.2079C65.1273 97 65.0503 97 64.9769 97C64.9036 97 64.8303 97 64.7569 97ZM63.7339 92.072V91.302H67.0559V92.072H63.7339ZM68.2542 97V91.258H69.0792L69.1012 92.787L69.0132 92.578C69.0938 92.3213 69.2222 92.083 69.3982 91.863C69.5815 91.643 69.7978 91.467 70.0472 91.335C70.2965 91.203 70.5715 91.137 70.8722 91.137C70.9968 91.137 71.1142 91.148 71.2242 91.17C71.3342 91.1847 71.4258 91.2067 71.4992 91.236L71.2682 92.16C71.1728 92.116 71.0738 92.0867 70.9712 92.072C70.8758 92.05 70.7842 92.039 70.6962 92.039C70.4468 92.039 70.2232 92.083 70.0252 92.171C69.8272 92.259 69.6585 92.3837 69.5192 92.545C69.3798 92.699 69.2735 92.8787 69.2002 93.084C69.1268 93.2893 69.0902 93.5093 69.0902 93.744V97H68.2542ZM74.6516 97.11C74.0796 97.11 73.57 96.9817 73.1226 96.725C72.6826 96.4683 72.3343 96.1127 72.0776 95.658C71.8283 95.2033 71.7036 94.6863 71.7036 94.107C71.7036 93.535 71.8283 93.0253 72.0776 92.578C72.3343 92.1307 72.6826 91.7787 73.1226 91.522C73.57 91.2653 74.0796 91.137 74.6516 91.137C75.2163 91.137 75.7186 91.2653 76.1586 91.522C76.606 91.7787 76.9543 92.1307 77.2036 92.578C77.4603 93.0253 77.5886 93.535 77.5886 94.107C77.5886 94.6863 77.4603 95.2033 77.2036 95.658C76.9543 96.1127 76.606 96.4683 76.1586 96.725C75.7186 96.9817 75.2163 97.11 74.6516 97.11ZM74.6516 96.329C75.055 96.329 75.4143 96.2337 75.7296 96.043C76.045 95.845 76.2906 95.581 76.4666 95.251C76.6426 94.9137 76.7306 94.5323 76.7306 94.107C76.7306 93.6817 76.6426 93.304 76.4666 92.974C76.2906 92.644 76.045 92.3873 75.7296 92.204C75.4143 92.0133 75.055 91.918 74.6516 91.918C74.2483 91.918 73.8853 92.0133 73.5626 92.204C73.2473 92.3873 72.998 92.6477 72.8146 92.985C72.6386 93.315 72.5543 93.689 72.5616 94.107C72.5543 94.5323 72.6386 94.9137 72.8146 95.251C72.998 95.581 73.2473 95.845 73.5626 96.043C73.8853 96.2337 74.2483 96.329 74.6516 96.329ZM78.7813 97V91.258H79.6063L79.6283 92.567L79.4633 92.622C79.5219 92.402 79.6173 92.204 79.7493 92.028C79.8886 91.8447 80.0536 91.687 80.2443 91.555C80.4349 91.423 80.6439 91.324 80.8713 91.258C81.0986 91.1847 81.3369 91.148 81.5863 91.148C81.8869 91.148 82.1546 91.1993 82.3893 91.302C82.6313 91.3973 82.8329 91.566 82.9943 91.808C83.1629 92.0427 83.2913 92.3543 83.3793 92.743L83.1813 92.644L83.2583 92.457C83.3316 92.2883 83.4379 92.127 83.5773 91.973C83.7239 91.8117 83.8889 91.6687 84.0723 91.544C84.2629 91.4193 84.4683 91.324 84.6883 91.258C84.9156 91.1847 85.1466 91.148 85.3813 91.148C85.7846 91.148 86.1256 91.236 86.4043 91.412C86.6829 91.5807 86.8919 91.841 87.0313 92.193C87.1779 92.545 87.2513 92.9923 87.2513 93.535V97H86.4043V93.579C86.4043 93.1977 86.3566 92.886 86.2613 92.644C86.1659 92.402 86.0229 92.2223 85.8323 92.105C85.6489 91.9803 85.4143 91.918 85.1283 91.918C84.8789 91.918 84.6479 91.962 84.4353 92.05C84.2299 92.1307 84.0503 92.248 83.8963 92.402C83.7496 92.5487 83.6323 92.7173 83.5443 92.908C83.4636 93.0987 83.4233 93.304 83.4233 93.524V97H82.5873V93.568C82.5873 93.2013 82.5359 92.897 82.4333 92.655C82.3379 92.413 82.1949 92.2297 82.0043 92.105C81.8136 91.9803 81.5789 91.918 81.3003 91.918C81.0583 91.918 80.8346 91.962 80.6293 92.05C80.4239 92.1307 80.2443 92.2443 80.0903 92.391C79.9436 92.5377 79.8263 92.7063 79.7383 92.897C79.6576 93.0877 79.6173 93.293 79.6173 93.513V97H78.7813ZM94.1417 97.11C93.6431 97.11 93.1921 96.9817 92.7887 96.725C92.3854 96.461 92.0664 96.1053 91.8317 95.658C91.5971 95.2033 91.4797 94.69 91.4797 94.118C91.4797 93.5387 91.6007 93.0253 91.8427 92.578C92.0847 92.1307 92.4074 91.7787 92.8107 91.522C93.2214 91.2653 93.6797 91.137 94.1857 91.137C94.4864 91.137 94.7651 91.181 95.0217 91.269C95.2784 91.357 95.5057 91.4817 95.7037 91.643C95.9091 91.797 96.0777 91.9803 96.2097 92.193C96.3491 92.3983 96.4444 92.622 96.4957 92.864L96.2537 92.743L96.2867 91.258H97.1117V97H96.2757V95.592L96.4957 95.449C96.4444 95.669 96.3454 95.8817 96.1987 96.087C96.0521 96.285 95.8724 96.461 95.6597 96.615C95.4544 96.769 95.2197 96.89 94.9557 96.978C94.6991 97.066 94.4277 97.11 94.1417 97.11ZM94.3287 96.318C94.7101 96.318 95.0511 96.2263 95.3517 96.043C95.6524 95.8523 95.8871 95.592 96.0557 95.262C96.2317 94.9247 96.3197 94.5433 96.3197 94.118C96.3197 93.6927 96.2317 93.315 96.0557 92.985C95.8871 92.655 95.6524 92.3947 95.3517 92.204C95.0511 92.0133 94.7101 91.918 94.3287 91.918C93.9401 91.918 93.5954 92.0133 93.2947 92.204C93.0014 92.3947 92.7667 92.655 92.5907 92.985C92.4221 93.315 92.3377 93.6927 92.3377 94.118C92.3377 94.536 92.4221 94.9137 92.5907 95.251C92.7594 95.581 92.9941 95.8413 93.2947 96.032C93.5954 96.2227 93.9401 96.318 94.3287 96.318ZM98.719 97V91.258H99.544L99.566 92.787L99.478 92.578C99.5587 92.3213 99.687 92.083 99.863 91.863C100.046 91.643 100.263 91.467 100.512 91.335C100.761 91.203 101.036 91.137 101.337 91.137C101.462 91.137 101.579 91.148 101.689 91.17C101.799 91.1847 101.891 91.2067 101.964 91.236L101.733 92.16C101.638 92.116 101.539 92.0867 101.436 92.072C101.341 92.05 101.249 92.039 101.161 92.039C100.912 92.039 100.688 92.083 100.49 92.171C100.292 92.259 100.123 92.3837 99.984 92.545C99.8447 92.699 99.7383 92.8787 99.665 93.084C99.5917 93.2893 99.555 93.5093 99.555 93.744V97H98.719ZM105.116 97.11C104.544 97.11 104.035 96.9817 103.587 96.725C103.147 96.4683 102.799 96.1127 102.542 95.658C102.293 95.2033 102.168 94.6863 102.168 94.107C102.168 93.535 102.293 93.0253 102.542 92.578C102.799 92.1307 103.147 91.7787 103.587 91.522C104.035 91.2653 104.544 91.137 105.116 91.137C105.681 91.137 106.183 91.2653 106.623 91.522C107.071 91.7787 107.419 92.1307 107.668 92.578C107.925 93.0253 108.053 93.535 108.053 94.107C108.053 94.6863 107.925 95.2033 107.668 95.658C107.419 96.1127 107.071 96.4683 106.623 96.725C106.183 96.9817 105.681 97.11 105.116 97.11ZM105.116 96.329C105.52 96.329 105.879 96.2337 106.194 96.043C106.51 95.845 106.755 95.581 106.931 95.251C107.107 94.9137 107.195 94.5323 107.195 94.107C107.195 93.6817 107.107 93.304 106.931 92.974C106.755 92.644 106.51 92.3873 106.194 92.204C105.879 92.0133 105.52 91.918 105.116 91.918C104.713 91.918 104.35 92.0133 104.027 92.204C103.712 92.3873 103.463 92.6477 103.279 92.985C103.103 93.315 103.019 93.689 103.026 94.107C103.019 94.5323 103.103 94.9137 103.279 95.251C103.463 95.581 103.712 95.845 104.027 96.043C104.35 96.2337 104.713 96.329 105.116 96.329ZM111.292 97.11C110.852 97.11 110.478 97.022 110.17 96.846C109.869 96.6627 109.638 96.3987 109.477 96.054C109.323 95.7093 109.246 95.2803 109.246 94.767V91.258H110.082V94.602C110.082 94.9907 110.133 95.317 110.236 95.581C110.346 95.8377 110.507 96.032 110.72 96.164C110.94 96.296 111.208 96.362 111.523 96.362C111.765 96.362 111.989 96.3217 112.194 96.241C112.399 96.153 112.579 96.0357 112.733 95.889C112.887 95.7423 113.008 95.57 113.096 95.372C113.184 95.174 113.228 94.965 113.228 94.745V91.258H114.053V97H113.239L113.206 95.79L113.338 95.724C113.25 95.9807 113.103 96.2153 112.898 96.428C112.693 96.6333 112.447 96.7983 112.161 96.923C111.882 97.0477 111.593 97.11 111.292 97.11ZM115.659 97V91.258H116.473L116.506 92.457L116.374 92.512C116.448 92.2627 116.591 92.0353 116.803 91.83C117.016 91.6247 117.269 91.4597 117.562 91.335C117.863 91.203 118.171 91.137 118.486 91.137C118.912 91.137 119.267 91.2213 119.553 91.39C119.839 91.5587 120.056 91.819 120.202 92.171C120.349 92.523 120.422 92.9703 120.422 93.513V97H119.586V93.557C119.586 93.1757 119.535 92.864 119.432 92.622C119.337 92.3727 119.187 92.1893 118.981 92.072C118.776 91.9547 118.523 91.8997 118.222 91.907C117.973 91.907 117.742 91.951 117.529 92.039C117.317 92.1197 117.133 92.2333 116.979 92.38C116.825 92.5267 116.704 92.6953 116.616 92.886C116.528 93.0767 116.484 93.282 116.484 93.502V97H116.077C116.026 97 115.967 97 115.901 97C115.835 97 115.755 97 115.659 97ZM124.329 97.11C123.809 97.11 123.339 96.9817 122.921 96.725C122.511 96.4683 122.184 96.1163 121.942 95.669C121.708 95.2143 121.59 94.701 121.59 94.129C121.59 93.5497 121.711 93.0363 121.953 92.589C122.195 92.1343 122.522 91.7787 122.932 91.522C123.343 91.2653 123.805 91.137 124.318 91.137C124.604 91.137 124.879 91.181 125.143 91.269C125.415 91.357 125.657 91.4817 125.869 91.643C126.082 91.797 126.258 91.9767 126.397 92.182C126.537 92.38 126.621 92.589 126.65 92.809L126.397 92.721V88.86H127.222V97H126.408L126.386 95.57L126.595 95.493C126.566 95.6983 126.482 95.9 126.342 96.098C126.21 96.2887 126.042 96.461 125.836 96.615C125.631 96.769 125.396 96.89 125.132 96.978C124.876 97.066 124.608 97.11 124.329 97.11ZM124.45 96.351C124.832 96.351 125.173 96.2557 125.473 96.065C125.774 95.8743 126.009 95.6103 126.177 95.273C126.353 94.9357 126.441 94.5507 126.441 94.118C126.441 93.6853 126.353 93.304 126.177 92.974C126.009 92.6367 125.774 92.3727 125.473 92.182C125.173 91.984 124.832 91.885 124.45 91.885C124.054 91.885 123.706 91.984 123.405 92.182C123.112 92.3727 122.877 92.6367 122.701 92.974C122.533 93.304 122.448 93.6853 122.448 94.118C122.448 94.5433 122.533 94.9247 122.701 95.262C122.87 95.5993 123.105 95.867 123.405 96.065C123.706 96.2557 124.054 96.351 124.45 96.351ZM132.704 97V89.751H133.529V97H132.704ZM131.406 92.05V91.258H134.981V92.05H131.406ZM135.994 97V88.86H136.819V92.512L136.654 92.677C136.735 92.3763 136.885 92.1123 137.105 91.885C137.325 91.6503 137.582 91.467 137.875 91.335C138.176 91.203 138.48 91.137 138.788 91.137C139.228 91.137 139.595 91.2213 139.888 91.39C140.182 91.5587 140.398 91.819 140.537 92.171C140.684 92.523 140.757 92.9703 140.757 93.513V97H139.921V93.557C139.921 93.1757 139.87 92.864 139.767 92.622C139.672 92.3727 139.522 92.1893 139.316 92.072C139.111 91.9547 138.854 91.8997 138.546 91.907C138.304 91.907 138.077 91.951 137.864 92.039C137.652 92.1197 137.468 92.2333 137.314 92.38C137.16 92.5267 137.039 92.6953 136.951 92.886C136.863 93.0767 136.819 93.282 136.819 93.502V97H136.412C136.361 97 136.302 97 136.236 97C136.17 97 136.09 97 135.994 97ZM144.862 97.11C144.29 97.11 143.781 96.9853 143.333 96.736C142.893 96.4867 142.549 96.1383 142.299 95.691C142.05 95.2437 141.925 94.7303 141.925 94.151C141.925 93.7037 141.995 93.3003 142.134 92.941C142.274 92.5743 142.468 92.2553 142.717 91.984C142.974 91.7127 143.278 91.5037 143.63 91.357C143.982 91.203 144.364 91.126 144.774 91.126C145.163 91.126 145.515 91.1957 145.83 91.335C146.153 91.4743 146.428 91.6687 146.655 91.918C146.89 92.16 147.066 92.4497 147.183 92.787C147.301 93.1243 147.352 93.4947 147.337 93.898L147.326 94.283H142.541L142.42 93.59H146.699L146.501 93.777V93.513C146.487 93.249 146.41 92.996 146.27 92.754C146.131 92.5047 145.933 92.303 145.676 92.149C145.427 91.995 145.126 91.918 144.774 91.918C144.364 91.918 144.008 92.0023 143.707 92.171C143.407 92.3323 143.176 92.5743 143.014 92.897C142.853 93.2197 142.772 93.6193 142.772 94.096C142.772 94.5507 142.86 94.9467 143.036 95.284C143.212 95.614 143.462 95.8707 143.784 96.054C144.114 96.2373 144.51 96.329 144.972 96.329C145.244 96.329 145.511 96.285 145.775 96.197C146.047 96.1017 146.344 95.9183 146.666 95.647L147.095 96.241C146.927 96.4097 146.725 96.56 146.49 96.692C146.256 96.8167 145.999 96.9193 145.72 97C145.442 97.0733 145.156 97.11 144.862 97.11ZM93.5032 111L91.5122 105.258L92.3922 105.247L93.9432 109.922L93.6682 109.9L95.3512 106.138H95.8462L97.5402 109.9L97.2102 109.922L98.7942 105.258H99.6632L97.6722 111H97.1882L95.4062 106.908L95.7362 106.93L94.0092 111H93.5032ZM103.016 111.11C102.444 111.11 101.935 110.982 101.487 110.725C101.047 110.468 100.699 110.113 100.442 109.658C100.193 109.203 100.068 108.686 100.068 108.107C100.068 107.535 100.193 107.025 100.442 106.578C100.699 106.131 101.047 105.779 101.487 105.522C101.935 105.265 102.444 105.137 103.016 105.137C103.581 105.137 104.083 105.265 104.523 105.522C104.971 105.779 105.319 106.131 105.568 106.578C105.825 107.025 105.953 107.535 105.953 108.107C105.953 108.686 105.825 109.203 105.568 109.658C105.319 110.113 104.971 110.468 104.523 110.725C104.083 110.982 103.581 111.11 103.016 111.11ZM103.016 110.329C103.42 110.329 103.779 110.234 104.094 110.043C104.41 109.845 104.655 109.581 104.831 109.251C105.007 108.914 105.095 108.532 105.095 108.107C105.095 107.682 105.007 107.304 104.831 106.974C104.655 106.644 104.41 106.387 104.094 106.204C103.779 106.013 103.42 105.918 103.016 105.918C102.613 105.918 102.25 106.013 101.927 106.204C101.612 106.387 101.363 106.648 101.179 106.985C101.003 107.315 100.919 107.689 100.926 108.107C100.919 108.532 101.003 108.914 101.179 109.251C101.363 109.581 101.612 109.845 101.927 110.043C102.25 110.234 102.613 110.329 103.016 110.329ZM107.157 111V105.258H107.982L108.004 106.787L107.916 106.578C107.997 106.321 108.125 106.083 108.301 105.863C108.484 105.643 108.701 105.467 108.95 105.335C109.199 105.203 109.474 105.137 109.775 105.137C109.9 105.137 110.017 105.148 110.127 105.17C110.237 105.185 110.329 105.207 110.402 105.236L110.171 106.16C110.076 106.116 109.977 106.087 109.874 106.072C109.779 106.05 109.687 106.039 109.599 106.039C109.35 106.039 109.126 106.083 108.928 106.171C108.73 106.259 108.561 106.384 108.422 106.545C108.283 106.699 108.176 106.879 108.103 107.084C108.03 107.289 107.993 107.509 107.993 107.744V111H107.157ZM111.283 111V102.86H112.108V111H111.283ZM115.956 111.11C115.435 111.11 114.966 110.982 114.548 110.725C114.137 110.468 113.811 110.116 113.569 109.669C113.334 109.214 113.217 108.701 113.217 108.129C113.217 107.55 113.338 107.036 113.58 106.589C113.822 106.134 114.148 105.779 114.559 105.522C114.969 105.265 115.431 105.137 115.945 105.137C116.231 105.137 116.506 105.181 116.77 105.269C117.041 105.357 117.283 105.482 117.496 105.643C117.708 105.797 117.884 105.977 118.024 106.182C118.163 106.38 118.247 106.589 118.277 106.809L118.024 106.721V102.86H118.849V111H118.035L118.013 109.57L118.222 109.493C118.192 109.698 118.108 109.9 117.969 110.098C117.837 110.289 117.668 110.461 117.463 110.615C117.257 110.769 117.023 110.89 116.759 110.978C116.502 111.066 116.234 111.11 115.956 111.11ZM116.077 110.351C116.458 110.351 116.799 110.256 117.1 110.065C117.4 109.874 117.635 109.61 117.804 109.273C117.98 108.936 118.068 108.551 118.068 108.118C118.068 107.685 117.98 107.304 117.804 106.974C117.635 106.637 117.4 106.373 117.1 106.182C116.799 105.984 116.458 105.885 116.077 105.885C115.681 105.885 115.332 105.984 115.032 106.182C114.738 106.373 114.504 106.637 114.328 106.974C114.159 107.304 114.075 107.685 114.075 108.118C114.075 108.543 114.159 108.925 114.328 109.262C114.496 109.599 114.731 109.867 115.032 110.065C115.332 110.256 115.681 110.351 116.077 110.351Z" fill="black"/>
<path d="M54.033 150V143.7H56.589C56.955 143.7 57.27 143.766 57.534 143.898C57.804 144.024 58.011 144.207 58.155 144.447C58.299 144.681 58.371 144.96 58.371 145.284C58.371 145.632 58.272 145.932 58.074 146.184C57.876 146.43 57.606 146.601 57.264 146.697L57.246 146.526C57.54 146.58 57.795 146.685 58.011 146.841C58.227 146.991 58.395 147.177 58.515 147.399C58.641 147.621 58.704 147.87 58.704 148.146C58.704 148.428 58.656 148.683 58.56 148.911C58.464 149.139 58.326 149.334 58.146 149.496C57.972 149.658 57.759 149.784 57.507 149.874C57.261 149.958 56.985 150 56.679 150H54.033ZM54.735 149.316H56.625C56.895 149.316 57.129 149.271 57.327 149.181C57.531 149.085 57.687 148.95 57.795 148.776C57.909 148.602 57.966 148.401 57.966 148.173C57.966 147.957 57.906 147.768 57.786 147.606C57.672 147.444 57.51 147.318 57.3 147.228C57.096 147.138 56.856 147.093 56.58 147.093H54.735V149.316ZM54.735 146.409H56.535C56.751 146.409 56.943 146.367 57.111 146.283C57.279 146.193 57.411 146.073 57.507 145.923C57.603 145.767 57.651 145.593 57.651 145.401C57.651 145.095 57.546 144.849 57.336 144.663C57.132 144.477 56.844 144.384 56.472 144.384H54.735V146.409ZM60.593 152.07L61.502 149.856L61.565 150.495L59.207 145.302H59.972L61.583 148.902C61.631 148.998 61.679 149.112 61.727 149.244C61.775 149.37 61.82 149.496 61.862 149.622L61.61 149.595C61.652 149.493 61.691 149.388 61.727 149.28C61.769 149.172 61.808 149.067 61.844 148.965L63.257 145.302H64.031L62.132 150L61.322 152.07H60.593ZM68.73 150L66.831 143.7H67.587L68.802 147.858C68.85 148.002 68.889 148.14 68.919 148.272C68.955 148.398 68.985 148.521 69.009 148.641C69.033 148.755 69.057 148.872 69.081 148.992C69.105 149.106 69.129 149.226 69.153 149.352L69 149.343C69.078 149.067 69.141 148.848 69.189 148.686C69.243 148.524 69.294 148.38 69.342 148.254C69.39 148.128 69.444 147.984 69.504 147.822L70.566 145.149H71.223L72.294 147.849C72.366 148.017 72.429 148.176 72.483 148.326C72.537 148.476 72.588 148.629 72.636 148.785C72.69 148.941 72.741 149.115 72.789 149.307L72.645 149.334C72.675 149.184 72.699 149.061 72.717 148.965C72.735 148.869 72.753 148.785 72.771 148.713C72.789 148.635 72.807 148.56 72.825 148.488C72.843 148.41 72.867 148.32 72.897 148.218C72.927 148.11 72.966 147.975 73.014 147.813L74.229 143.7H74.985L73.068 150H72.483L70.782 145.95L70.944 145.977L69.306 150H68.73ZM77.4661 150.09C77.0581 150.09 76.6891 149.985 76.3591 149.775C76.0291 149.559 75.7681 149.268 75.5761 148.902C75.3841 148.53 75.2881 148.11 75.2881 147.642C75.2881 147.168 75.3871 146.748 75.5851 146.382C75.7831 146.016 76.0471 145.728 76.3771 145.518C76.7131 145.308 77.0881 145.203 77.5021 145.203C77.7481 145.203 77.9761 145.239 78.1861 145.311C78.3961 145.383 78.5821 145.485 78.7441 145.617C78.9121 145.743 79.0501 145.893 79.1581 146.067C79.2721 146.235 79.3501 146.418 79.3921 146.616L79.1941 146.517L79.2211 145.302H79.8961V150H79.2121V148.848L79.3921 148.731C79.3501 148.911 79.2691 149.085 79.1491 149.253C79.0291 149.415 78.8821 149.559 78.7081 149.685C78.5401 149.811 78.3481 149.91 78.1321 149.982C77.9221 150.054 77.7001 150.09 77.4661 150.09ZM77.6191 149.442C77.9311 149.442 78.2101 149.367 78.4561 149.217C78.7021 149.061 78.8941 148.848 79.0321 148.578C79.1761 148.302 79.2481 147.99 79.2481 147.642C79.2481 147.294 79.1761 146.985 79.0321 146.715C78.8941 146.445 78.7021 146.232 78.4561 146.076C78.2101 145.92 77.9311 145.842 77.6191 145.842C77.3011 145.842 77.0191 145.92 76.7731 146.076C76.5331 146.232 76.3411 146.445 76.1971 146.715C76.0591 146.985 75.9901 147.294 75.9901 147.642C75.9901 147.984 76.0591 148.293 76.1971 148.569C76.3351 148.839 76.5271 149.052 76.7731 149.208C77.0191 149.364 77.3011 149.442 77.6191 149.442ZM82.2655 150L80.6365 145.302L81.3565 145.293L82.6255 149.118L82.4005 149.1L83.7775 146.022H84.1825L85.5685 149.1L85.2985 149.118L86.5945 145.302H87.3055L85.6765 150H85.2805L83.8225 146.652L84.0925 146.67L82.6795 150H82.2655ZM89.806 150.09C89.398 150.09 89.029 149.985 88.699 149.775C88.369 149.559 88.108 149.268 87.916 148.902C87.724 148.53 87.628 148.11 87.628 147.642C87.628 147.168 87.727 146.748 87.925 146.382C88.123 146.016 88.387 145.728 88.717 145.518C89.053 145.308 89.428 145.203 89.842 145.203C90.088 145.203 90.316 145.239 90.526 145.311C90.736 145.383 90.922 145.485 91.084 145.617C91.252 145.743 91.39 145.893 91.498 146.067C91.612 146.235 91.69 146.418 91.732 146.616L91.534 146.517L91.561 145.302H92.236V150H91.552V148.848L91.732 148.731C91.69 148.911 91.609 149.085 91.489 149.253C91.369 149.415 91.222 149.559 91.048 149.685C90.88 149.811 90.688 149.91 90.472 149.982C90.262 150.054 90.04 150.09 89.806 150.09ZM89.959 149.442C90.271 149.442 90.55 149.367 90.796 149.217C91.042 149.061 91.234 148.848 91.372 148.578C91.516 148.302 91.588 147.99 91.588 147.642C91.588 147.294 91.516 146.985 91.372 146.715C91.234 146.445 91.042 146.232 90.796 146.076C90.55 145.92 90.271 145.842 89.959 145.842C89.641 145.842 89.359 145.92 89.113 146.076C88.873 146.232 88.681 146.445 88.537 146.715C88.399 146.985 88.33 147.294 88.33 147.642C88.33 147.984 88.399 148.293 88.537 148.569C88.675 148.839 88.867 149.052 89.113 149.208C89.359 149.364 89.641 149.442 89.959 149.442Z" fill="black"/>
<path d="M40.2891 191C30.4138 191 22.3828 182.969 22.3828 173.094C22.3828 163.218 30.4138 155.188 40.2891 155.188C41.0806 155.188 41.8397 155.502 42.3993 156.062C42.959 156.621 43.2734 157.38 43.2734 158.172C43.2734 158.963 42.959 159.722 42.3993 160.282C41.8397 160.842 41.0806 161.156 40.2891 161.156C33.7055 161.156 28.3516 166.51 28.3516 173.094C28.3516 179.677 33.7055 185.031 40.2891 185.031C41.0806 185.031 41.8397 185.346 42.3993 185.905C42.959 186.465 43.2734 187.224 43.2734 188.016C43.2734 188.807 42.959 189.566 42.3993 190.126C41.8397 190.686 41.0806 191 40.2891 191Z" fill="#116FFF"/>
<path d="M165.633 161.156H40.2891C39.4976 161.156 38.7385 160.842 38.1788 160.282C37.6191 159.722 37.3047 158.963 37.3047 158.172C37.3047 157.38 37.6191 156.621 38.1788 156.062C38.7385 155.502 39.4976 155.188 40.2891 155.188H165.633C166.424 155.188 167.183 155.502 167.743 156.062C168.303 156.621 168.617 157.38 168.617 158.172C168.617 158.963 168.303 159.722 167.743 160.282C167.183 160.842 166.424 161.156 165.633 161.156ZM165.633 191H40.2891C39.4976 191 38.7385 190.686 38.1788 190.126C37.6191 189.566 37.3047 188.807 37.3047 188.016C37.3047 187.224 37.6191 186.465 38.1788 185.905C38.7385 185.346 39.4976 185.031 40.2891 185.031H165.633C166.424 185.031 167.183 185.346 167.743 185.905C168.303 186.465 168.617 187.224 168.617 188.016C168.617 188.807 168.303 189.566 167.743 190.126C167.183 190.686 166.424 191 165.633 191ZM25.3672 20.8906C24.5757 20.8906 23.8166 20.5762 23.2569 20.0165C22.6972 19.4568 22.3828 18.6978 22.3828 17.9062C22.3828 8.03095 30.4138 0 40.2891 0C41.0806 0 41.8397 0.314424 42.3993 0.874103C42.959 1.43378 43.2734 2.19287 43.2734 2.98438C43.2734 3.77588 42.959 4.53497 42.3993 5.09465C41.8397 5.65433 41.0806 5.96875 40.2891 5.96875C33.7055 5.96875 28.3516 11.3227 28.3516 17.9062C28.3516 18.6978 28.0371 19.4568 27.4775 20.0165C26.9178 20.5762 26.1587 20.8906 25.3672 20.8906Z" fill="#116FFF"/>
<path d="M25.3672 176.078C24.5757 176.078 23.8166 175.764 23.2569 175.204C22.6972 174.644 22.3828 173.885 22.3828 173.094V17.9062C22.3828 17.1147 22.6972 16.3557 23.2569 15.796C23.8166 15.2363 24.5757 14.9219 25.3672 14.9219C26.1587 14.9219 26.9178 15.2363 27.4775 15.796C28.0371 16.3557 28.3516 17.1147 28.3516 17.9062V173.094C28.3516 173.885 28.0371 174.644 27.4775 175.204C26.9178 175.764 26.1587 176.078 25.3672 176.078ZM165.633 5.96875H40.2891C39.4976 5.96875 38.7385 5.65433 38.1788 5.09465C37.6191 4.53497 37.3047 3.77588 37.3047 2.98438C37.3047 2.19287 37.6191 1.43378 38.1788 0.874103C38.7385 0.314424 39.4976 0 40.2891 0L165.633 0C166.424 0 167.183 0.314424 167.743 0.874103C168.303 1.43378 168.617 2.19287 168.617 2.98438C168.617 3.77588 168.303 4.53497 167.743 5.09465C167.183 5.65433 166.424 5.96875 165.633 5.96875Z" fill="#116FFF"/>
<path d="M165.633 161.156C164.841 161.156 164.082 160.842 163.523 160.282C162.963 159.722 162.648 158.963 162.648 158.172V2.98438C162.648 2.19287 162.963 1.43378 163.523 0.874103C164.082 0.314424 164.841 0 165.633 0C166.424 0 167.183 0.314424 167.743 0.874103C168.303 1.43378 168.617 2.19287 168.617 2.98438V158.172C168.617 158.963 168.303 159.722 167.743 160.282C167.183 160.842 166.424 161.156 165.633 161.156Z" fill="#116FFF"/>
<path d="M165.633 191C164.841 191 164.082 190.686 163.523 190.126C162.963 189.566 162.648 188.807 162.648 188.016V158.172C162.648 157.38 162.963 156.621 163.523 156.062C164.082 155.502 164.841 155.188 165.633 155.188C166.424 155.188 167.183 155.502 167.743 156.062C168.303 156.621 168.617 157.38 168.617 158.172V188.016C168.617 188.807 168.303 189.566 167.743 190.126C167.183 190.686 166.424 191 165.633 191ZM46.2578 161.156C45.4663 161.156 44.7072 160.842 44.1475 160.282C43.5879 159.722 43.2734 158.963 43.2734 158.172V2.98438C43.2734 2.19287 43.5879 1.43378 44.1475 0.874103C44.7072 0.314424 45.4663 0 46.2578 0C47.0493 0 47.8084 0.314424 48.3681 0.874103C48.9278 1.43378 49.2422 2.19287 49.2422 2.98438V158.172C49.2422 158.963 48.9278 159.722 48.3681 160.282C47.8084 160.842 47.0493 161.156 46.2578 161.156ZM153.695 176.084H40.2891C39.4976 176.084 38.7385 175.77 38.1788 175.21C37.6191 174.65 37.3047 173.891 37.3047 173.1C37.3047 172.308 37.6191 171.549 38.1788 170.989C38.7385 170.43 39.4976 170.115 40.2891 170.115H153.695C154.487 170.115 155.246 170.43 155.806 170.989C156.365 171.549 156.68 172.308 156.68 173.1C156.68 173.891 156.365 174.65 155.806 175.21C155.246 175.77 154.487 176.084 153.695 176.084Z" fill="#116FFF"/>
<path d="M65.8246 35L61.4146 20.3H65.0476L67.2526 28.028C67.3506 28.378 67.4346 28.735 67.5046 29.099C67.5886 29.449 67.6516 29.785 67.6936 30.107C67.7496 30.429 67.7916 30.73 67.8196 31.01C67.8476 31.276 67.8756 31.5 67.9036 31.682H67.4416C67.5256 31.164 67.5956 30.702 67.6516 30.296C67.7216 29.89 67.7986 29.512 67.8826 29.162C67.9666 28.798 68.0716 28.42 68.1976 28.028L70.3816 22.211H73.2376L75.3796 28.028C75.5476 28.49 75.6876 28.924 75.7996 29.33C75.9116 29.736 75.9956 30.128 76.0516 30.506C76.1216 30.87 76.1776 31.234 76.2196 31.598L75.7996 31.661C75.8276 31.409 75.8486 31.178 75.8626 30.968C75.8766 30.744 75.8906 30.534 75.9046 30.338C75.9326 30.128 75.9606 29.911 75.9886 29.687C76.0166 29.463 76.0586 29.218 76.1146 28.952C76.1706 28.672 76.2476 28.357 76.3456 28.007L78.5296 20.3H82.0786L77.6686 35H74.9386L71.4526 26.537L71.8516 26.579L68.6386 35H65.8246ZM88.3948 35.21C87.2328 35.21 86.1968 34.958 85.2868 34.454C84.3908 33.95 83.6768 33.264 83.1448 32.396C82.6268 31.528 82.3678 30.534 82.3678 29.414C82.3678 28.294 82.6268 27.3 83.1448 26.432C83.6768 25.564 84.3908 24.878 85.2868 24.374C86.1968 23.87 87.2328 23.618 88.3948 23.618C89.5568 23.618 90.5858 23.87 91.4818 24.374C92.3918 24.878 93.1058 25.564 93.6238 26.432C94.1418 27.3 94.4008 28.294 94.4008 29.414C94.4008 30.534 94.1418 31.528 93.6238 32.396C93.1058 33.264 92.3918 33.95 91.4818 34.454C90.5858 34.958 89.5568 35.21 88.3948 35.21ZM88.3948 32.312C88.8988 32.312 89.3468 32.186 89.7388 31.934C90.1308 31.682 90.4388 31.339 90.6628 30.905C90.8868 30.471 90.9918 29.974 90.9778 29.414C90.9918 28.854 90.8868 28.357 90.6628 27.923C90.4388 27.475 90.1308 27.125 89.7388 26.873C89.3468 26.621 88.8988 26.495 88.3948 26.495C87.8908 26.495 87.4358 26.621 87.0298 26.873C86.6378 27.125 86.3298 27.475 86.1058 27.923C85.8818 28.357 85.7768 28.854 85.7908 29.414C85.7768 29.974 85.8818 30.471 86.1058 30.905C86.3298 31.339 86.6378 31.682 87.0298 31.934C87.4358 32.186 87.8908 32.312 88.3948 32.312ZM96.5979 35V23.849H99.7899L99.9369 27.482L99.3069 26.789C99.4749 26.187 99.7479 25.648 100.126 25.172C100.518 24.696 100.973 24.318 101.491 24.038C102.009 23.758 102.562 23.618 103.15 23.618C103.402 23.618 103.633 23.639 103.843 23.681C104.067 23.723 104.27 23.772 104.452 23.828L103.528 27.545C103.374 27.447 103.164 27.37 102.898 27.314C102.646 27.244 102.38 27.209 102.1 27.209C101.792 27.209 101.505 27.265 101.239 27.377C100.973 27.475 100.749 27.622 100.567 27.818C100.385 28.014 100.238 28.245 100.126 28.511C100.028 28.777 99.9789 29.078 99.9789 29.414V35H96.5979ZM106.176 35V19.46H109.536V35H106.176ZM116.548 35.231C115.582 35.231 114.721 34.986 113.965 34.496C113.223 33.992 112.635 33.306 112.201 32.438C111.767 31.556 111.55 30.555 111.55 29.435C111.55 28.315 111.767 27.321 112.201 26.453C112.635 25.571 113.23 24.878 113.986 24.374C114.742 23.87 115.61 23.618 116.59 23.618C117.094 23.618 117.577 23.695 118.039 23.849C118.501 24.003 118.921 24.213 119.299 24.479C119.677 24.745 119.985 25.053 120.223 25.403C120.461 25.739 120.601 26.089 120.643 26.453L119.845 26.642V19.46H123.226V35H120.097L119.908 32.459L120.58 32.564C120.538 32.914 120.398 33.25 120.16 33.572C119.936 33.894 119.642 34.181 119.278 34.433C118.914 34.671 118.494 34.86 118.018 35C117.556 35.154 117.066 35.231 116.548 35.231ZM117.409 32.438C117.927 32.438 118.375 32.312 118.753 32.06C119.131 31.808 119.418 31.458 119.614 31.01C119.824 30.562 119.929 30.037 119.929 29.435C119.929 28.819 119.824 28.287 119.614 27.839C119.418 27.391 119.131 27.041 118.753 26.789C118.375 26.537 117.927 26.411 117.409 26.411C116.891 26.411 116.443 26.537 116.065 26.789C115.701 27.041 115.414 27.391 115.204 27.839C114.994 28.287 114.889 28.819 114.889 29.435C114.889 30.037 114.994 30.562 115.204 31.01C115.414 31.458 115.701 31.808 116.065 32.06C116.443 32.312 116.891 32.438 117.409 32.438ZM126.089 35V19.46H129.449V35H126.089ZM133.545 39.83L136.086 33.845L136.128 35.567L130.752 23.849H134.553L136.905 29.456C137.031 29.736 137.15 30.037 137.262 30.359C137.374 30.681 137.458 30.989 137.514 31.283L137.052 31.556C137.136 31.346 137.227 31.087 137.325 30.779C137.437 30.457 137.556 30.114 137.682 29.75L139.74 23.849H143.562L138.816 35L136.884 39.83H133.545ZM67.2191 61L62.8091 46.3H66.4421L68.6471 54.028C68.7451 54.378 68.8291 54.735 68.8991 55.099C68.9831 55.449 69.0461 55.785 69.0881 56.107C69.1441 56.429 69.1861 56.73 69.2141 57.01C69.2421 57.276 69.2701 57.5 69.2981 57.682H68.8361C68.9201 57.164 68.9901 56.702 69.0461 56.296C69.1161 55.89 69.1931 55.512 69.2771 55.162C69.3611 54.798 69.4661 54.42 69.5921 54.028L71.7761 48.211H74.6321L76.7741 54.028C76.9421 54.49 77.0821 54.924 77.1941 55.33C77.3061 55.736 77.3901 56.128 77.4461 56.506C77.5161 56.87 77.5721 57.234 77.6141 57.598L77.1941 57.661C77.2221 57.409 77.2431 57.178 77.2571 56.968C77.2711 56.744 77.2851 56.534 77.2991 56.338C77.3271 56.128 77.3551 55.911 77.3831 55.687C77.4111 55.463 77.4531 55.218 77.5091 54.952C77.5651 54.672 77.6421 54.357 77.7401 54.007L79.9241 46.3H83.4731L79.0631 61H76.3331L72.8471 52.537L73.2461 52.579L70.0331 61H67.2191ZM88.6553 61.189C87.7173 61.189 86.8773 60.944 86.1353 60.454C85.4073 59.95 84.8263 59.264 84.3923 58.396C83.9583 57.514 83.7413 56.52 83.7413 55.414C83.7413 54.28 83.9583 53.279 84.3923 52.411C84.8263 51.543 85.4213 50.864 86.1773 50.374C86.9333 49.87 87.7943 49.618 88.7603 49.618C89.2923 49.618 89.7753 49.695 90.2093 49.849C90.6573 50.003 91.0493 50.22 91.3853 50.5C91.7213 50.766 92.0083 51.081 92.2463 51.445C92.4843 51.795 92.6593 52.173 92.7713 52.579L92.0783 52.495V49.849H95.4173V61H92.0153V58.312L92.7713 58.291C92.6593 58.683 92.4773 59.054 92.2253 59.404C91.9733 59.754 91.6653 60.062 91.3013 60.328C90.9373 60.594 90.5313 60.804 90.0833 60.958C89.6353 61.112 89.1593 61.189 88.6553 61.189ZM89.5793 58.354C90.0973 58.354 90.5453 58.235 90.9233 57.997C91.3013 57.759 91.5953 57.423 91.8053 56.989C92.0153 56.541 92.1203 56.016 92.1203 55.414C92.1203 54.812 92.0153 54.294 91.8053 53.86C91.5953 53.412 91.3013 53.069 90.9233 52.831C90.5453 52.579 90.0973 52.453 89.5793 52.453C89.0753 52.453 88.6343 52.579 88.2563 52.831C87.8923 53.069 87.6053 53.412 87.3953 53.86C87.1853 54.294 87.0803 54.812 87.0803 55.414C87.0803 56.016 87.1853 56.541 87.3953 56.989C87.6053 57.423 87.8923 57.759 88.2563 57.997C88.6343 58.235 89.0753 58.354 89.5793 58.354ZM99.0751 61V49.303C99.0751 48.575 99.2291 47.917 99.5371 47.329C99.8591 46.741 100.3 46.279 100.86 45.943C101.434 45.593 102.099 45.418 102.855 45.418C103.387 45.418 103.877 45.495 104.325 45.649C104.773 45.803 105.172 46.02 105.522 46.3L104.556 48.757C104.374 48.659 104.199 48.582 104.031 48.526C103.863 48.47 103.709 48.442 103.569 48.442C103.317 48.442 103.107 48.484 102.939 48.568C102.771 48.652 102.645 48.785 102.561 48.967C102.491 49.135 102.456 49.345 102.456 49.597V61H100.776C100.398 61 100.062 61 99.7681 61C99.4881 61 99.2571 61 99.0751 61ZM97.4581 52.936V50.164H104.745V52.936H97.4581ZM107.328 61V49.303C107.328 48.575 107.482 47.917 107.79 47.329C108.112 46.741 108.553 46.279 109.113 45.943C109.687 45.593 110.352 45.418 111.108 45.418C111.64 45.418 112.13 45.495 112.578 45.649C113.026 45.803 113.425 46.02 113.775 46.3L112.809 48.757C112.627 48.659 112.452 48.582 112.284 48.526C112.116 48.47 111.962 48.442 111.822 48.442C111.57 48.442 111.36 48.484 111.192 48.568C111.024 48.652 110.898 48.785 110.814 48.967C110.744 49.135 110.709 49.345 110.709 49.597V61H109.029C108.651 61 108.315 61 108.021 61C107.741 61 107.51 61 107.328 61ZM105.711 52.936V50.164H112.998V52.936H105.711ZM114.909 61V45.46H118.269V61H114.909ZM126.377 61.21C125.145 61.21 124.074 60.965 123.164 60.475C122.254 59.971 121.547 59.292 121.043 58.438C120.539 57.57 120.287 56.583 120.287 55.477C120.287 54.623 120.427 53.839 120.707 53.125C120.987 52.411 121.379 51.795 121.883 51.277C122.387 50.745 122.982 50.339 123.668 50.059C124.368 49.765 125.131 49.618 125.957 49.618C126.741 49.618 127.455 49.758 128.099 50.038C128.757 50.318 129.324 50.71 129.8 51.214C130.276 51.718 130.64 52.313 130.892 52.999C131.144 53.685 131.256 54.434 131.228 55.246L131.207 56.149H122.324L121.841 54.259H128.477L128.12 54.658V54.238C128.092 53.888 127.98 53.58 127.784 53.314C127.602 53.034 127.357 52.817 127.049 52.663C126.741 52.509 126.391 52.432 125.999 52.432C125.453 52.432 124.984 52.544 124.592 52.768C124.214 52.978 123.927 53.293 123.731 53.713C123.535 54.119 123.437 54.623 123.437 55.225C123.437 55.841 123.563 56.38 123.815 56.842C124.081 57.29 124.459 57.64 124.949 57.892C125.453 58.144 126.048 58.27 126.734 58.27C127.21 58.27 127.63 58.2 127.994 58.06C128.372 57.92 128.778 57.682 129.212 57.346L130.787 59.572C130.353 59.95 129.891 60.258 129.401 60.496C128.911 60.734 128.407 60.909 127.889 61.021C127.385 61.147 126.881 61.21 126.377 61.21ZM137.127 61.21C136.035 61.21 135.069 61.035 134.229 60.685C133.403 60.335 132.745 59.866 132.255 59.278L134.292 57.514C134.726 57.948 135.216 58.27 135.762 58.48C136.308 58.676 136.826 58.774 137.316 58.774C137.512 58.774 137.687 58.753 137.841 58.711C137.995 58.669 138.121 58.613 138.219 58.543C138.331 58.459 138.415 58.368 138.471 58.27C138.527 58.158 138.555 58.032 138.555 57.892C138.555 57.612 138.429 57.395 138.177 57.241C138.051 57.171 137.841 57.087 137.547 56.989C137.253 56.891 136.875 56.779 136.413 56.653C135.755 56.485 135.181 56.289 134.691 56.065C134.215 55.827 133.823 55.554 133.515 55.246C133.235 54.952 133.018 54.63 132.864 54.28C132.71 53.916 132.633 53.51 132.633 53.062C132.633 52.544 132.752 52.075 132.99 51.655C133.242 51.235 133.571 50.871 133.977 50.563C134.397 50.255 134.873 50.024 135.405 49.87C135.951 49.702 136.511 49.618 137.085 49.618C137.701 49.618 138.289 49.688 138.849 49.828C139.409 49.968 139.927 50.164 140.403 50.416C140.893 50.668 141.327 50.969 141.705 51.319L139.941 53.293C139.689 53.055 139.402 52.845 139.08 52.663C138.772 52.467 138.45 52.313 138.114 52.201C137.778 52.089 137.47 52.033 137.19 52.033C136.98 52.033 136.791 52.054 136.623 52.096C136.469 52.124 136.336 52.18 136.224 52.264C136.112 52.334 136.028 52.425 135.972 52.537C135.916 52.635 135.888 52.754 135.888 52.894C135.888 53.034 135.923 53.167 135.993 53.293C136.077 53.419 136.189 53.524 136.329 53.608C136.469 53.692 136.693 53.79 137.001 53.902C137.309 54 137.729 54.126 138.261 54.28C138.919 54.462 139.486 54.665 139.962 54.889C140.438 55.113 140.816 55.379 141.096 55.687C141.32 55.925 141.488 56.205 141.6 56.527C141.712 56.835 141.768 57.171 141.768 57.535C141.768 58.249 141.565 58.886 141.159 59.446C140.767 59.992 140.221 60.426 139.521 60.748C138.821 61.056 138.023 61.21 137.127 61.21Z" fill="black"/>
</svg>