<svg width="67" height="60" viewBox="0 0 67 60" fill="none" xmlns="http://www.w3.org/2000/svg">
<path d="M5.1123 9.76048V30.4573L8.87537 31.8685L11.2273 20.1089L18.7534 16.8162L25.8092 21.0497L28.6315 31.8685H37.5688L42.2726 18.6978L48.3876 16.8162L54.5026 18.6978L58.2656 30.4573L61.5583 31.8685V14.9347L59.2064 6.93818L50.2691 1.29358L17.8127 2.23435L11.2273 3.17511L5.1123 9.76048Z" fill="white" stroke="black"/>
<path d="M63.9096 31.8685H3.70055L1.34863 35.6316L6.05247 38.4539L11.6971 58.21H28.1605L31.9236 48.3319H35.2162L39.4497 58.21H54.9723L60.6169 39.3947L64.8504 35.6316L63.9096 31.8685Z" fill="white" stroke="black"/>
<path d="M8.4043 24.8127V31.3981H28.1604L27.2196 23.872L21.1046 16.8162L14.0489 17.757L8.4043 24.8127Z" fill="url(#paint0_linear_822_363)" stroke="black"/>
<path d="M39.9209 22.4608L38.5098 31.3981H58.7363L55.914 21.52L47.9174 16.3458L39.9209 22.4608Z" fill="url(#paint1_linear_822_363)"/>
<path d="M66.6536 34.9848C66.6494 33.9548 66.327 32.9513 65.7306 32.1115C65.1342 31.2718 64.2929 30.6368 63.3218 30.2935V14.9935C63.3174 11.0183 61.7363 7.20722 58.9254 4.39636C56.1145 1.58549 52.3035 0.0044095 48.3283 0H18.3413C14.3662 0.0044095 10.5551 1.58549 7.74423 4.39636C4.93336 7.20722 3.35228 11.0183 3.34787 14.9935V30.2935C2.25855 30.6698 1.33384 31.413 0.731909 32.3958C0.129978 33.3786 -0.111769 34.54 0.0480223 35.6814C0.207813 36.8227 0.759213 37.8731 1.6079 38.6529C2.45659 39.4326 3.54983 39.8932 4.70062 39.9559L10.0749 58.7711C10.1754 59.1183 10.3861 59.4234 10.6752 59.6404C10.9643 59.8573 11.3161 59.9744 11.6776 59.9739H27.634C27.9657 59.9734 28.2898 59.8739 28.5646 59.6881C28.8394 59.5023 29.0526 59.2387 29.1766 58.931L32.7917 49.9782H33.8413L37.1532 58.8877C37.2716 59.2066 37.4848 59.4817 37.7641 59.6759C38.0435 59.8701 38.3756 59.9741 38.7158 59.9739H54.9921C55.3544 59.974 55.7068 59.856 55.9961 59.6377C56.2853 59.4195 56.4954 59.1129 56.5947 58.7644L61.969 39.9493C63.2338 39.8699 64.4211 39.313 65.2908 38.3913C66.1606 37.4696 66.6477 36.252 66.6536 34.9848ZM6.67976 14.9935C6.67976 11.9006 7.90838 8.93446 10.0954 6.74748C12.2823 4.56051 15.2485 3.33188 18.3413 3.33188H48.3283C51.4211 3.33188 54.3873 4.56051 56.5743 6.74748C58.7613 8.93446 59.9899 11.9006 59.9899 14.9935V29.9869H59.9366C59.8809 26.2721 58.7414 22.6543 56.658 19.5781V14.9935C56.658 12.7843 55.7804 10.6656 54.2183 9.10348C52.6562 7.54136 50.5375 6.66377 48.3283 6.66377H18.3413C16.1322 6.66377 14.0135 7.54136 12.4514 9.10348C10.8892 10.6656 10.0116 12.7843 10.0116 14.9935V19.5781C7.92826 22.6543 6.78874 26.2721 6.73306 29.9869H6.67976V14.9935ZM18.3413 18.0888C22.7728 18.0888 26.3745 23.3698 26.6244 29.9869H10.0583C10.3082 23.3698 13.9099 18.0888 18.3413 18.0888ZM29.9496 29.9869C29.6697 21.534 24.592 14.7569 18.3413 14.7569C16.5543 14.7865 14.8157 15.3428 13.3435 16.3562V14.9935C13.3435 13.668 13.8701 12.3968 14.8073 11.4595C15.7446 10.5222 17.0158 9.99565 18.3413 9.99565H48.3283C49.6538 9.99565 50.925 10.5222 51.8623 11.4595C52.7996 12.3968 53.3261 13.668 53.3261 14.9935V16.3562C51.8539 15.3428 50.1153 14.7865 48.3283 14.7569C42.0777 14.7569 36.9999 21.534 36.72 29.9869H29.9496ZM48.3283 18.0888C52.7597 18.0888 56.3615 23.3698 56.6114 29.9869H40.0452C40.2951 23.3698 43.8969 18.0888 48.3283 18.0888ZM53.7359 56.642H39.8753L36.5634 47.7326C36.445 47.4136 36.2318 47.1385 35.9524 46.9444C35.6731 46.7502 35.341 46.6462 35.0008 46.6464H31.6689C31.3366 46.6462 31.0118 46.7454 30.7363 46.9312C30.4608 47.1171 30.2472 47.381 30.1229 47.6892L26.5078 56.642H12.9337L8.17577 39.9826H58.4872L53.7359 56.642ZM61.6558 36.6507H5.01381C4.57198 36.6507 4.14824 36.4752 3.83582 36.1628C3.52339 35.8503 3.34787 35.4266 3.34787 34.9848C3.34787 34.5429 3.52339 34.1192 3.83582 33.8068C4.14824 33.4943 4.57198 33.3188 5.01381 33.3188H61.6558C62.0977 33.3188 62.5214 33.4943 62.8338 33.8068C63.1462 34.1192 63.3218 34.5429 63.3218 34.9848C63.3218 35.4266 63.1462 35.8503 62.8338 36.1628C62.5214 36.4752 62.0977 36.6507 61.6558 36.6507Z" fill="black"/>
<defs>
<linearGradient id="paint0_linear_822_363" x1="22.5158" y1="16.3458" x2="11.2266" y2="31.3981" gradientUnits="userSpaceOnUse">
<stop stop-color="#F5AF83"/>
<stop offset="1" stop-color="#DE8B57"/>
</linearGradient>
<linearGradient id="paint1_linear_822_363" x1="51.6805" y1="16.3458" x2="41.3321" y2="31.3981" gradientUnits="userSpaceOnUse">
<stop stop-color="#F5AF83"/>
<stop offset="1" stop-color="#DE8B57"/>
</linearGradient>
</defs>
</svg>