<svg width="67" height="72" viewBox="0 0 67 72" fill="none" xmlns="http://www.w3.org/2000/svg">
<path d="M34.1515 29.6742C38.6725 32.2844 45.5619 28.8156 49.5394 21.9264C53.5169 15.0372 53.0762 7.33644 48.5552 4.72622C44.0342 2.116 37.1448 5.5848 33.1673 12.474C29.1898 19.3632 29.6304 27.064 34.1515 29.6742Z" fill="#474747"/>
<path d="M32.5019 29.6742C27.9808 32.2844 21.0914 28.8156 17.1139 21.9264C13.1364 15.0372 13.5771 7.33644 18.0981 4.72622C22.6192 2.116 29.5086 5.5848 33.486 12.474C37.4635 19.3632 37.0229 27.064 32.5019 29.6742Z" fill="#474747"/>
<path d="M18.5643 23.2075H48.0675C48.2905 23.2038 48.5112 23.2541 48.7105 23.3542L48.7078 23.3594C55.3972 26.7042 61.7764 35.8137 64.7969 45.1094C66.1542 49.2868 66.8481 53.5256 66.6061 57.3276C66.3548 61.2768 65.0981 64.7714 62.5429 67.2935C60.0502 69.7541 56.3808 71.2348 51.2836 71.2348H15.3701C10.2728 71.2348 6.60354 69.7541 4.11079 67.2935C1.55563 64.7714 0.298878 61.2768 0.0475281 57.3276C-0.194434 53.5256 0.499387 49.2868 1.85676 45.1094C4.85774 35.8739 11.1742 26.8229 17.8162 23.4261C18.0394 23.283 18.2991 23.2071 18.5643 23.2075Z" fill="#5E5E5E"/>
<path fill-rule="evenodd" clip-rule="evenodd" d="M49.9307 45.6423C49.3224 45.9258 48.0551 45.779 47.0367 45.5968C47.0519 45.465 47.0313 45.3283 46.9656 45.2065C46.9453 45.1609 46.9201 45.1207 46.8946 45.085C46.5551 44.5887 45.4654 43.1097 43.8231 42.1423C42.7841 41.5345 41.5321 41.1245 40.1283 41.2813L41.5829 39.8278C44.6594 39.9899 46.3928 38.4655 47.3711 36.7435C48.3137 35.0872 48.5164 33.2539 48.5571 32.6562C48.562 32.6156 48.562 32.5701 48.562 32.5246C48.5523 32.4081 48.5219 32.3067 48.466 32.2157L49.6873 30.995C49.7533 30.9292 49.7533 30.8177 49.6873 30.7519C49.6537 30.7202 49.6093 30.7025 49.5631 30.7025C49.517 30.7025 49.4726 30.7202 49.439 30.7519L48.2226 31.9674C48.1061 31.9015 47.9691 31.8661 47.8274 31.8763C47.285 31.9117 45.3945 32.0991 43.6915 33.0665C41.9679 34.0388 40.4426 35.7761 40.5994 38.8505L39.2513 40.1975C39.3477 38.9365 38.9927 37.807 38.4606 36.8497C37.5434 35.2037 36.0887 34.0845 35.5108 33.6843C35.4599 33.6539 35.4399 33.6337 35.4247 33.6236C35.389 33.5982 35.3484 33.578 35.3131 33.5577C35.2269 33.5121 35.1358 33.4918 35.0443 33.4868C34.872 32.4992 34.7607 31.3242 35.029 30.7468C35.0697 30.6607 35.029 30.5594 34.943 30.5188C34.9209 30.5084 34.8969 30.5027 34.8725 30.5021H34.8641C34.8326 30.5029 34.8019 30.5125 34.7755 30.5298C34.7491 30.5471 34.7281 30.5714 34.7147 30.6C34.4108 31.2482 34.5325 32.5093 34.7099 33.5476C34.5732 33.6134 34.4566 33.7249 34.3803 33.8718C34.1423 34.3528 33.3617 36.0851 33.3463 38.045C33.3311 39.8634 33.9597 41.8587 36.19 43.2566L33.691 45.7535C33.7923 44.4266 33.3972 43.2467 32.8092 42.2539C31.8461 40.6127 30.3663 39.524 29.8694 39.1845C29.829 39.1593 29.7934 39.1341 29.7478 39.1136C29.6514 39.0679 29.5501 39.0428 29.4539 39.0428C29.2966 38.0957 29.2105 37.0321 29.4639 36.4851C29.5045 36.3991 29.4689 36.2978 29.3777 36.2571C29.2915 36.2166 29.1902 36.2522 29.1496 36.3383C28.866 36.956 28.9571 38.1159 29.1192 39.1238C28.9926 39.1845 28.8861 39.2909 28.8202 39.4277C28.582 39.9139 27.8015 41.6412 27.7863 43.601C27.7711 45.4195 28.3945 47.4149 30.6297 48.8127L28.1311 51.3097C28.2324 49.9877 27.8319 48.8026 27.249 47.8097C26.286 46.1738 24.8059 45.08 24.3042 44.7455C24.2687 44.7152 24.2281 44.6901 24.1875 44.6697C24.0862 44.6191 23.9847 44.5986 23.8785 44.5986C23.711 43.6214 23.5996 42.4716 23.8682 41.8994C23.9089 41.8132 23.8682 41.7069 23.782 41.6715C23.6958 41.6309 23.5945 41.6663 23.5541 41.7524C23.2551 42.3955 23.3716 43.6464 23.549 44.6848C23.4242 44.7523 23.3234 44.8566 23.2601 44.9836C23.0218 45.4699 22.2363 47.1969 22.221 49.1572C22.2108 50.9752 22.8343 52.9709 25.0695 54.3689L16.676 62.7561C16.5479 62.8859 16.4756 63.0607 16.4746 63.243V63.2514C16.4756 63.4338 16.5479 63.6087 16.676 63.7386C16.8072 63.8697 16.9795 63.9367 17.1526 63.9398H17.1776C17.3508 63.9367 17.5231 63.8696 17.6542 63.7386L26.0731 55.3261C27.472 57.6505 29.5045 58.2937 31.3544 58.2838C33.316 58.2686 35.0443 57.4835 35.531 57.2455C35.5511 57.2656 35.7337 57.0985 35.7538 57.0732C36.8335 57.271 38.2226 57.4277 38.9168 57.1088C39.003 57.0683 39.0437 56.962 39.003 56.8757C38.9623 56.7897 38.8611 56.7542 38.7749 56.7949C38.1667 57.0732 36.9196 56.9365 35.906 56.7542C35.9316 56.6123 35.9164 56.4604 35.8453 56.3188C35.8249 56.278 35.7998 56.2376 35.7694 56.2021C35.4347 55.7056 34.3397 54.2219 32.7029 53.2595C31.6585 52.6468 30.4067 52.2413 29.0026 52.3985L31.6332 49.7699C33.0322 52.0949 35.0649 52.7379 36.9146 52.7227C38.8763 52.7126 40.6097 51.9274 41.0914 51.6893C40.9239 51.3553 40.9288 51.3602 41.0914 51.6893C41.1825 51.6437 41.2633 51.5831 41.3244 51.5072C42.3787 51.6893 43.6763 51.8211 44.3348 51.5121C44.4211 51.4717 44.4616 51.3705 44.4211 51.2842C44.3807 51.1982 44.2741 51.1578 44.188 51.1982C43.6155 51.4665 42.4546 51.3553 41.4664 51.183C41.4916 51.0462 41.4712 50.8993 41.4053 50.7625C41.3852 50.717 41.3597 50.6817 41.3342 50.6461C40.995 50.1445 39.905 48.6659 38.2628 47.7035C37.2189 47.0907 35.9721 46.6856 34.5629 46.8424L37.1933 44.2141C38.5976 46.5387 40.6248 47.1818 42.4747 47.1666C44.4363 47.1514 46.17 46.3716 46.6514 46.1336C46.7526 46.0852 46.8398 46.0119 46.9049 45.9206C47.9895 46.1184 49.3831 46.2752 50.0778 45.9563C50.1398 45.9271 50.178 45.864 50.1796 45.7988V45.7903C50.1791 45.7671 50.1738 45.7442 50.164 45.7232C50.1234 45.637 50.0219 45.6017 49.9307 45.6423V45.6423Z" fill="#DCDDDD"/>
<path d="M49.3579 21.918H16.9721C16.268 21.918 15.6973 22.4888 15.6973 23.1929C15.6973 23.8969 16.268 24.4677 16.9721 24.4677H49.3579C50.062 24.4677 50.6328 23.8969 50.6328 23.1929C50.6328 22.4888 50.062 21.918 49.3579 21.918Z" fill="#7E7E7E"/>
<path fill-rule="evenodd" clip-rule="evenodd" d="M18.6475 21.918H19.4944L18.1369 24.4677H17.2899L18.6475 21.918Z" fill="#A9A9A9"/>
<path fill-rule="evenodd" clip-rule="evenodd" d="M20.9199 21.918H21.7668L20.4093 24.4677H19.5624L20.9199 21.918Z" fill="#A9A9A9"/>
<path fill-rule="evenodd" clip-rule="evenodd" d="M23.1934 21.918H24.0403L22.6828 24.4677H21.8358L23.1934 21.918Z" fill="#A9A9A9"/>
<path fill-rule="evenodd" clip-rule="evenodd" d="M25.4648 21.918H26.3118L24.9542 24.4677H24.1073L25.4648 21.918Z" fill="#A9A9A9"/>
<path fill-rule="evenodd" clip-rule="evenodd" d="M27.7383 21.918H28.5852L27.2277 24.4677H26.3808L27.7383 21.918Z" fill="#A9A9A9"/>
<path fill-rule="evenodd" clip-rule="evenodd" d="M30.0107 21.918H30.8577L29.5001 24.4677H28.6532L30.0107 21.918Z" fill="#A9A9A9"/>
<path fill-rule="evenodd" clip-rule="evenodd" d="M32.2842 21.918H33.1311L31.7736 24.4677H30.9267L32.2842 21.918Z" fill="#A9A9A9"/>
<path fill-rule="evenodd" clip-rule="evenodd" d="M34.5566 21.918H35.4036L34.046 24.4677H33.1991L34.5566 21.918Z" fill="#A9A9A9"/>
<path fill-rule="evenodd" clip-rule="evenodd" d="M36.8281 21.918H37.675L36.3175 24.4677H35.4706L36.8281 21.918Z" fill="#A9A9A9"/>
<path fill-rule="evenodd" clip-rule="evenodd" d="M39.1016 21.918H39.9485L38.591 24.4677H37.744L39.1016 21.918Z" fill="#A9A9A9"/>
<path fill-rule="evenodd" clip-rule="evenodd" d="M41.374 21.918H42.2209L40.8634 24.4677H40.0165L41.374 21.918Z" fill="#A9A9A9"/>
<path fill-rule="evenodd" clip-rule="evenodd" d="M43.6465 21.918H44.4934L43.1359 24.4677H42.289L43.6465 21.918Z" fill="#A9A9A9"/>
<path fill-rule="evenodd" clip-rule="evenodd" d="M45.9199 21.918H46.7668L45.4093 24.4677H44.5624L45.9199 21.918Z" fill="#A9A9A9"/>
<path fill-rule="evenodd" clip-rule="evenodd" d="M48.1914 21.918H49.0383L47.6808 24.4677H46.8339L48.1914 21.918Z" fill="#A9A9A9"/>
</svg>