<svg width="67" height="97" viewBox="0 0 67 97" fill="none" xmlns="http://www.w3.org/2000/svg">
<path d="M64.6611 29.2597H24.0867V94.1873H64.6611V29.2597Z" fill="#F4F4F4"/>
<path d="M24.0869 29.2597H2.0503V94.1873H24.0869V29.2597Z" fill="#E5E5E4"/>
<path d="M12.8869 9.50299H53.4613L64.6611 29.2597H24.0862L12.8869 9.50299Z" fill="#F4F4F4"/>
<path d="M47.1065 9.50299H53.4613L64.6611 29.2597V94.1873H58.3063V29.2597L47.1065 9.50299Z" fill="#F9F9F9"/>
<path d="M24.0869 29.2597H2.0503L12.8876 9.50299L24.0869 29.2597Z" fill="#E5E5E4"/>
<path d="M53.4613 1.95624H12.8869V9.50308H53.4613V1.95624ZM64.6611 47.8496H24.0867V75.5971H64.6611V47.8496Z" fill="#9AE8CE"/>
<path d="M24.0869 47.8495H2.0036V75.5971H24.0869V47.8495Z" fill="#86DBBC"/>
<path d="M64.6611 47.8496H58.3063V75.5971H64.6611V47.8496ZM53.4613 1.95624H47.1065V9.50308H53.4613V1.95624Z" fill="#AEF4DB"/>
<path d="M24.0822 96.2268H64.6567C65.1865 96.2267 65.6945 96.0162 66.0691 95.6416C66.4437 95.267 66.6542 94.759 66.6543 94.2292V29.3016C66.6542 28.7719 66.4437 28.2638 66.0691 27.8892C65.6945 27.5146 65.1865 27.3041 64.6567 27.304H24.0822C23.5525 27.3041 23.0444 27.5146 22.6698 27.8892C22.2952 28.2638 22.0847 28.7719 22.0846 29.3016V94.2292C22.0846 94.759 22.2951 95.2671 22.6697 95.6417C23.0443 96.0164 23.5524 96.2268 24.0822 96.2268ZM62.6591 92.2312H26.0803V31.2992H62.6591V92.2312Z" fill="#161616"/>
<path d="M2.04487 96.2268H24.0815C24.6113 96.2267 25.1193 96.0162 25.4939 95.6416C25.8685 95.267 26.079 94.759 26.0791 94.2292V29.3016C26.079 28.7719 25.8685 28.2638 25.4939 27.8892C25.1193 27.5146 24.6113 27.3041 24.0815 27.304H2.04487C1.51511 27.3041 1.00709 27.5146 0.632492 27.8892C0.257895 28.2638 0.0473862 28.7719 0.0472698 29.3016V34.2403C0.0582447 34.7629 0.273527 35.2603 0.646955 35.626C1.02038 35.9916 1.52223 36.1964 2.04487 36.1964C2.56752 36.1964 3.06936 35.9916 3.44279 35.626C3.81622 35.2603 4.03151 34.7629 4.04248 34.2403V31.2997H22.0835V92.2316H4.04248V43.4566C4.03151 42.9341 3.81622 42.4367 3.44279 42.071C3.06936 41.7053 2.56752 41.5005 2.04487 41.5005C1.52223 41.5005 1.02038 41.7053 0.646955 42.071C0.273527 42.4367 0.0582447 42.9341 0.0472698 43.4566V94.2297C0.0473862 94.7594 0.257908 95.2674 0.632519 95.6419C1.00713 96.0164 1.51515 96.2268 2.04487 96.2268Z" fill="#161616"/>
<path d="M24.0822 31.2992H64.6567C65.0061 31.2994 65.3494 31.2079 65.6523 31.0337C65.9551 30.8595 66.207 30.6089 66.3825 30.3068C66.5585 30.0051 66.6522 29.6625 66.6543 29.3133C66.6563 28.9641 66.5667 28.6204 66.3944 28.3167L55.1946 8.55955C55.0203 8.25222 54.7677 7.99658 54.4624 7.81868C54.1572 7.64079 53.8102 7.547 53.4569 7.54688H12.8824C12.171 7.54688 11.5143 7.92481 11.1566 8.53929C10.9806 8.84096 10.8869 9.18353 10.8848 9.53276C10.8827 9.88199 10.9724 10.2257 11.1447 10.5294L22.3445 30.2861C22.5185 30.5936 22.7711 30.8495 23.0764 31.0275C23.3817 31.2055 23.7288 31.2993 24.0822 31.2992ZM61.2284 27.3035H25.2464L16.3112 11.5425H52.2931L61.2284 27.3035Z" fill="#161616"/>
<path d="M2.04486 31.2992H24.0815C24.4309 31.2994 24.7742 31.2079 25.0771 31.0337C25.38 30.8595 25.6318 30.6089 25.8073 30.3068C25.9833 30.0051 26.077 29.6625 26.0791 29.3133C26.0812 28.9641 25.9915 28.6204 25.8192 28.3167L14.6194 8.55955C14.4453 8.25209 14.1927 7.99636 13.8874 7.81844C13.5821 7.64053 13.235 7.54682 12.8817 7.54688H12.8672C12.5114 7.54936 12.1627 7.64683 11.8572 7.8292C11.5517 8.01157 11.3005 8.27223 11.1294 8.58422L0.292612 28.3405C0.125898 28.6449 0.0412483 28.9875 0.0469627 29.3345C0.0526772 29.6816 0.148563 30.0212 0.325211 30.32C0.502213 30.6184 0.753853 30.8656 1.05537 31.0373C1.35689 31.209 1.69789 31.2993 2.04486 31.2992ZM20.6527 27.3035H5.41854L12.9103 13.6467L20.6527 27.3035Z" fill="#161616"/>
<path d="M12.8824 11.5425H53.4569C53.9867 11.5424 54.4947 11.3319 54.8693 10.9573C55.2439 10.5827 55.4544 10.0746 55.4545 9.54489V1.9976C55.4544 1.46784 55.2439 0.959811 54.8693 0.585213C54.4947 0.210616 53.9867 0.000116778 53.4569 0H12.8824C12.3526 0 11.8445 0.210461 11.4699 0.585084C11.0953 0.959707 10.8848 1.46781 10.8848 1.9976V9.54445C10.8848 10.0743 11.0953 10.5824 11.4699 10.9571C11.8445 11.3318 12.3526 11.5424 12.8824 11.5425ZM51.4593 7.54684H14.88V3.99565H51.4589V7.54684H51.4593ZM23.7193 77.6369H64.6567C65.1865 77.6368 65.6945 77.4263 66.0691 77.0517C66.4437 76.6771 66.6542 76.1691 66.6543 75.6393V47.8918C66.6542 47.3621 66.4437 46.854 66.0691 46.4794C65.6945 46.1048 65.1865 45.8943 64.6567 45.8942H23.7193C23.1895 45.8943 22.6815 46.1048 22.3069 46.4794C21.9323 46.854 21.7218 47.3621 21.7217 47.8918V75.6393C21.7218 76.1691 21.9323 76.6771 22.3069 77.0517C22.6815 77.4263 23.1895 77.6368 23.7193 77.6369ZM62.6591 73.6413H25.7173V49.889H62.6591V73.6413Z" fill="#161616"/>
<path d="M1.99743 77.6369H23.7182C24.248 77.6368 24.756 77.4263 25.1306 77.0517C25.5052 76.6771 25.7157 76.1691 25.7158 75.6394V47.8918C25.7157 47.3621 25.5052 46.854 25.1306 46.4794C24.756 46.1048 24.248 45.8943 23.7182 45.8942H1.99743C1.46766 45.8943 0.959627 46.1048 0.585028 46.4794C0.21043 46.854 -6.29425e-05 47.3621 -0.000179291 47.8918V75.6394C-6.29425e-05 76.1691 0.21043 76.6771 0.585028 77.0517C0.959627 77.4263 1.46766 77.6368 1.99743 77.6369ZM21.7202 73.6413H3.99503V49.889H21.7202V73.6413Z" fill="#161616"/>
</svg>