<svg width="160" height="95" viewBox="0 0 160 95" fill="none" xmlns="http://www.w3.org/2000/svg">
    <path d="M143.202 0.5H158.777V36.7191L143.202 92.8223V0.5Z" fill="#D6AC69" stroke="black"/>
    <mask id="path-2-inside-1_135_2" fill="white">
    <path d="M0 65.8936H143.106V95H0V65.8936Z"/>
    </mask>
    <path d="M0 65.8936H143.106V95H0V65.8936Z" fill="#FFCA73"/>
    <path d="M143.106 95V96H144.106V95H143.106ZM0 95H-1V96H0V95ZM142.106 65.8936V95H144.106V65.8936H142.106ZM143.106 94H0V96H143.106V94ZM1 95V65.8936H-1V95H1Z" fill="black" mask="url(#path-2-inside-1_135_2)"/>
    <path d="M79.6383 65.3936H0.688344L2.90723 58.5695L18.4375 10.8067L19.3153 10.473C19.7691 10.3005 19.9138 9.72966 19.5969 9.36182L19.0963 8.78056L21.7887 0.5H87.2092C87.0469 0.980903 87.4715 1.51171 88.0181 1.38962L92.0012 0.5H158.637L157.313 5.82968H157.087C156.493 5.82968 156.321 6.64164 156.864 6.8825L157.034 6.9577L142.714 65.3936H79.6383Z" fill="#FCD28D" stroke="black"/>
    <line x1="54" y1="46.5" x2="99" y2="46.5" stroke="black"/>
    <line x1="54" y1="37.5" x2="99" y2="37.5" stroke="black"/>
    <line x1="54" y1="27.5" x2="99" y2="27.5" stroke="black"/>
    <line x1="27" y1="13.5" x2="44" y2="13.5" stroke="black"/>
    <line x1="27" y1="9.5" x2="44" y2="9.5" stroke="black"/>
    <line x1="27" y1="5.5" x2="44" y2="5.5" stroke="black"/>
    </svg>
    