<svg width="59" height="58" viewBox="0 0 59 58" fill="none" xmlns="http://www.w3.org/2000/svg">
<g clip-path="url(#clip0_557_816)">
<path d="M3.13318 16.8204L14.2987 14.65C13.6752 11.4425 10.3394 9.39113 7.12732 10.0155C4.08744 10.6064 2.04723 13.4182 2.3632 16.4365C2.39762 16.6135 2.54327 16.935 3.13318 16.8204Z" fill="#EFB961"/>
<path d="M4.98694 15.9264C4.71714 13.3551 6.1611 10.9348 8.4725 9.90949C4.77787 9.799 1.997 12.9421 2.36306 16.4365C2.39748 16.6135 2.54314 16.9351 3.13475 16.8201L5.76033 16.3097C5.16872 16.4247 5.02477 16.1028 4.98865 15.9261L4.98694 15.9264Z" fill="#E2A750"/>
<path d="M31.0867 5.35829L7.12744 10.0155C10.3395 9.39114 13.4503 11.4862 14.0738 14.6938L20.8064 49.3299C21.4299 52.5375 24.5407 54.6326 27.7528 54.0082L45.8948 50.4817L38.0331 10.0366C37.4096 6.829 34.2988 4.73392 31.0867 5.35829Z" fill="#FCD28D"/>
<path d="M23.5545 48.7957L16.8219 14.1596C16.1984 10.952 13.0876 8.85692 9.87553 9.48128L7.12549 10.0158C10.3376 9.39147 13.4484 11.4865 14.0718 14.6941L20.8044 49.3303C21.4279 52.5378 24.5387 54.6329 27.7508 54.0085L30.4991 53.4743C27.2871 54.0987 24.1763 52.0036 23.5528 48.7961L23.5545 48.7957Z" fill="#F7C781"/>
<path d="M55.3276 42.6197L33.612 46.8408C32.4868 47.0595 32.5467 48.0231 32.5467 48.0231C32.6334 50.8721 30.6459 53.4458 27.7527 54.0082L51.712 49.351C54.607 48.7883 56.5954 46.2108 56.505 43.3608C56.4095 42.7327 55.8954 42.5093 55.3259 42.62L55.3276 42.6197Z" fill="#EFB961"/>
<path d="M35.6803 47.414C35.6803 47.414 35.6204 46.4504 36.7457 46.2316L33.612 46.8408C32.4868 47.0595 32.5467 48.0231 32.5467 48.0231C32.6334 50.8721 30.6459 53.4458 27.7527 54.0082L30.8863 53.3991C33.7796 52.8367 35.767 50.263 35.6803 47.414Z" fill="#E2A750"/>
<path d="M41.4966 32.343L43.603 43.1795L32.0828 45.4188C31.6157 45.5096 31.3089 45.9615 31.3999 46.4297C31.9341 49.1776 30.13 51.8481 27.3783 52.383C24.6265 52.9179 21.9534 51.1176 21.4193 48.3697L15.9357 20.1589C15.845 19.6924 15.3927 19.3863 14.9239 19.4775C14.455 19.5686 14.15 20.0201 14.241 20.4883L19.7243 48.6975C20.4398 52.3783 24.0205 54.7884 27.7049 54.0722L51.7477 49.3988C55.4337 48.6823 57.8489 45.105 57.1337 41.4258C57.0431 40.9593 56.5908 40.6532 56.1219 40.7443L45.2956 42.8488L42.8606 30.3216M42.8606 30.3216L38.705 8.94297C37.9899 5.26382 34.4088 2.85202 30.7244 3.56818L6.6833 8.2413C2.99896 8.95747 0.581788 12.5334 1.29727 16.2143C1.38795 16.6808 1.84024 16.9869 2.3091 16.8958L13.1354 14.7913L13.6801 17.5937C13.7708 18.0602 14.2231 18.3663 14.6919 18.2751C15.1608 18.184 15.4658 17.7325 15.3748 17.2643C14.5418 12.979 14.6452 13.4837 14.5548 13.1461C14.0872 11.4048 12.955 9.95871 11.455 9.06827L31.0531 5.25879C33.8048 4.7239 36.4779 6.52418 37.012 9.27206L41.4966 32.343M12.7331 13.1133L2.8974 15.0251C2.77646 9.45126 10.6914 7.72546 12.7331 13.1133ZM51.4174 47.7085L31.8193 51.518C32.8189 50.207 33.3094 48.5798 33.2042 46.9553L55.5319 42.6153C55.5856 45.0396 53.881 47.2296 51.4174 47.7085Z" fill="black"/>
<path d="M41.1879 38.4103L40.1363 39.2172C39.9093 38.7047 39.3091 38.4751 38.7959 38.7021C38.5596 38.8063 38.3722 38.9982 38.2731 39.2348L37.7117 40.5613L37.1684 40.4513L37.1483 39.7379C37.1313 39.1776 36.6635 38.7367 36.1024 38.7539C35.8067 38.7619 35.5307 38.8986 35.3434 39.1276L33.7979 41.0252C33.6082 41.26 33.643 41.6031 33.8783 41.7941C34.1133 41.9834 34.4568 41.9484 34.6482 41.7133L36.0638 39.9752L36.0789 40.5447C36.0912 41.0176 36.4292 41.4184 36.8947 41.5099L37.5594 41.6439C37.6884 41.6701 37.8212 41.6708 37.9508 41.6456C38.2833 41.581 38.5632 41.3552 38.6957 41.045L39.2105 39.8247C39.4778 40.3169 40.0953 40.499 40.5883 40.2318C40.6348 40.2069 40.6803 40.1769 40.7234 40.1437L41.8564 39.2733C42.0948 39.0891 42.1397 38.7465 41.9571 38.5081C41.7746 38.2697 41.4298 38.2254 41.191 38.4079L41.1879 38.4103Z" fill="black"/>
<path d="M27.5011 13.5184C26.9948 13.6169 26.5182 13.5593 26.3142 13.3834C25.6506 12.8004 24.1326 12.6007 22.4876 12.8763C19.6131 13.4351 18.6613 14.0088 18.6503 14.0162L16.8683 13.5869C17.1053 13.4225 18.4585 12.5835 22.2861 11.8395C24.5376 11.4071 26.6948 11.5638 27.8902 12.2431L30.3611 11.3741C30.6014 11.2903 30.8605 11.2399 31.1028 11.23L34.738 11.0622L34.1883 12.1939L30.9398 12.3394L27.872 13.4146C27.7573 13.4528 27.6297 13.4882 27.5001 13.5133L27.5011 13.5184ZM34.1886 16.1639C33.8099 15.7905 33.2606 15.4768 32.5787 15.2365C32.0736 15.4054 31.6153 15.6234 31.26 15.871C31.1089 15.9763 30.9064 16.0634 30.687 16.1272L24.8991 17.7912C24.4365 17.9235 23.9474 17.9285 23.6429 17.8092L21.5038 16.9264L17.6764 18.1173L16.9025 17.2218L21.5123 15.7868C21.9845 15.6403 22.5071 15.6253 22.8265 15.7575L24.9925 16.6511L29.704 15.2935C30.4417 14.8109 31.428 14.4142 32.5037 14.168C34.1762 13.8429 35.5204 14.6594 36.35 15.4046L34.1749 16.1666L34.1869 16.1642L34.1886 16.1639ZM29.0046 21.3166C28.9108 21.3349 28.8143 21.3483 28.7186 21.3563L23.9069 21.7527C23.6179 21.7771 23.3555 21.7468 23.1689 21.67L21.0689 20.8061L18.4604 21.723L17.5268 20.8797L20.9602 19.6735C21.4523 19.5018 22.0227 19.4775 22.3533 19.6129L24.7327 20.5939L28.583 20.2766L31.5041 18.7653C31.7709 18.6269 32.1069 18.5351 32.4327 18.5088L37.2444 18.1124L36.8623 19.2327L32.5683 19.5885L29.6472 21.0998C29.4589 21.1965 29.2398 21.2709 29.0046 21.3166ZM28.533 25.1805C28.2142 25.2425 27.9097 25.2416 27.6668 25.1934L24.7382 24.5276L24.4264 24.7437C24.2222 24.8859 23.9372 24.9943 23.6184 25.0563L18.9077 25.9719L18.7058 24.9334L22.934 24.1115L23.6993 23.5794C24.1186 23.2876 24.8619 23.1431 25.3599 23.2566L28.2884 23.9224L29.6775 22.958C29.9473 22.7713 30.3598 22.6363 30.7698 22.6061L35.1496 22.2459L37.0334 21.4327L38.2626 22.1585L36.0073 23.1358C35.7714 23.2417 35.4784 23.3092 35.202 23.3347L31.0525 23.6784L29.3301 24.8754C29.1259 25.0176 28.8409 25.126 28.5221 25.1879L28.533 25.1805ZM31.5958 28.3574C31.3605 28.4031 31.1312 28.4159 30.9187 28.3971L27.6939 28.0911L24.7865 29.1085C24.2486 29.2997 23.6144 29.3046 23.3109 29.1268L22.3182 28.5441L19.5153 29.0889L19.3135 28.0504L22.8478 27.3634C23.2962 27.2762 23.7282 27.3053 23.9638 27.4433L24.8047 27.9371L27.2995 27.0635C27.6306 26.9461 28.0113 26.8933 28.3364 26.9273L31.225 27.1962L33.8314 25.3857C34.123 25.1841 34.5724 25.0473 35.0092 25.0277L38.6444 24.86L38.0947 25.9916L35.1753 26.128L32.4177 28.0439C32.2126 28.181 31.9285 28.2945 31.6097 28.3565L31.5978 28.3588L31.5958 28.3574Z" fill="black"/>
<path d="M37.7534 33.2755C37.5422 33.7636 37.1504 34.2602 36.6081 34.7385C36.0766 34.7711 35.5699 34.7406 35.1478 34.6442C34.9682 34.6031 34.7478 34.5983 34.5205 34.6213L28.5308 35.2467C28.0523 35.2973 27.5969 35.4759 27.3592 35.7005L25.7066 37.3204L21.7118 37.6499L21.3297 38.7702L26.1413 38.3738C26.6341 38.3327 27.1242 38.1509 27.3709 37.9086L29.0444 36.2688L33.9214 35.7625C34.7862 35.9336 35.8493 35.9319 36.9388 35.7573C38.6114 35.4321 39.5518 34.1716 40.0418 33.1699L37.7397 33.2782L37.7517 33.2758L37.7534 33.2755ZM31.0166 30.44C30.9228 30.4582 30.8283 30.4819 30.7365 30.5103L26.1268 31.9452C25.8497 32.0309 25.6177 32.1573 25.4735 32.2984L23.85 33.8861L21.088 34.0131L20.5383 35.1447L24.1735 34.977C24.6941 34.9517 25.232 34.7606 25.4879 34.5112L27.3265 32.7103L31.0153 31.5622L34.2899 31.8692C34.5891 31.8976 34.9351 31.8568 35.2469 31.7591L39.8567 30.3242L39.0828 29.4286L34.9682 30.7072L31.6936 30.4003C31.4829 30.3811 31.2519 30.3942 31.0166 30.44Z" fill="black"/>
</g>
<defs>
<clipPath id="clip0_557_816">
<rect width="50" height="49" fill="white" transform="translate(0 9.54041) rotate(-11)"/>
</clipPath>
</defs>
</svg>