<svg width="286" height="116" viewBox="0 0 286 116" fill="none" xmlns="http://www.w3.org/2000/svg">
<path d="M68.1458 115L82.8871 58H224.854L210.113 115H68.1458Z" fill="#EFBD6C" stroke="black"/>
<path d="M68 86.5657L82.5616 32.0771L82.9989 57.4406L68.1129 115H68V86.5657Z" fill="#EFBD6C" stroke="black"/>
<path d="M210 86.5657L224.562 32.0771L224.999 57.4406L210.113 115H210V86.5657Z" fill="#EFBD6C" stroke="black"/>
<mask id="path-4-inside-1_817_338" fill="white">
<path d="M67.5 86.5H210.5V115.5H67.5V86.5Z"/>
</mask>
<path d="M67.5 86.5H210.5V115.5H67.5V86.5Z" fill="#FFCA73"/>
<path d="M67.5 86.5V85.5H66.5V86.5H67.5ZM210.5 86.5H211.5V85.5H210.5V86.5ZM210.5 115.5V116.5H211.5V115.5H210.5ZM67.5 115.5H66.5V116.5H67.5V115.5ZM67.5 87.5H210.5V85.5H67.5V87.5ZM209.5 86.5V115.5H211.5V86.5H209.5ZM210.5 114.5H67.5V116.5H210.5V114.5ZM68.5 115.5V86.5H66.5V115.5H68.5Z" fill="black" mask="url(#path-4-inside-1_817_338)"/>
<path d="M82.7398 29H224.992L224.508 58H82.7397L82.7398 29Z" fill="#EFBD6C" stroke="black"/>
<path d="M82.9083 28.7811L67.6783 86.2618L1.12796 50.7682L20.7734 0.672448L82.9083 28.7811Z" fill="#FCD28D" stroke="black"/>
<path d="M285 60.6448L210.222 86.7186L225.424 28.8528L285 0.788239V60.6448Z" fill="#FCD28D" stroke="black"/>
</svg>