<svg width="137" height="37" viewBox="0 0 137 37" fill="none" xmlns="http://www.w3.org/2000/svg">
<g filter="url(#filter0_d_861_326)">
<path d="M2 13.76L121.584 1L135 18.6L10.4966 34L2 13.76Z" fill="url(#paint0_linear_861_326)"/>
</g>
<path fill-rule="evenodd" clip-rule="evenodd" d="M7.00488 13.226L16.9307 12.1669C16.9766 12.4379 17 12.7162 17 13C17 15.7615 14.7617 18 12 18C9.31445 18 7.12305 15.8826 7.00488 13.226Z" fill="#F9AD46"/>
<path fill-rule="evenodd" clip-rule="evenodd" d="M6.44922 24.36L2.60352 15.1976C3.04688 15.069 3.51562 15 4 15C6.76172 15 9 17.2385 9 20C9 21.8716 7.97168 23.5029 6.44922 24.36Z" fill="#F9AD46"/>
<path fill-rule="evenodd" clip-rule="evenodd" d="M11.0967 33.9257L10.4961 34L6.78125 25.1497C7.17188 25.0519 7.5791 25 8 25C10.7617 25 13 27.2385 13 30C13 31.5919 12.2559 33.01 11.0967 33.9257Z" fill="#F9AD46"/>
<path fill-rule="evenodd" clip-rule="evenodd" d="M22.7656 32.4824L13.0098 33.6891C13.1699 31.0724 15.3428 29 18 29C20.2324 29 22.123 30.4629 22.7656 32.4824Z" fill="#F9AD46"/>
<path d="M26.8539 30.1817L35.1521 29.1552C35.3225 29.1342 35.4214 28.9516 35.346 28.7973L33 24L31.1221 24.9389C31.0417 24.9791 30.9533 25.0008 30.8635 25.0022L24.7868 25.1005C24.4206 25.1064 24.1848 25.4911 24.3457 25.8201L26.3433 29.9051C26.4371 30.0968 26.6421 30.2079 26.8539 30.1817Z" fill="#FCC918"/>
<path d="M23.8539 24.1817L32.1521 23.1552C32.3225 23.1342 32.4214 22.9516 32.346 22.7973L30 18L28.1221 18.9389C28.0417 18.9791 27.9533 19.0008 27.8635 19.0022L21.7868 19.1005C21.4206 19.1064 21.1848 19.4911 21.3457 19.8201L23.3433 23.9051C23.4371 24.0968 23.6421 24.2079 23.8539 24.1817Z" fill="#E4D5CF"/>
<path d="M20.8539 18.1817L29.1521 17.1552C29.3225 17.1342 29.4214 16.9516 29.346 16.7973L27 12L25.1221 12.9389C25.0417 12.9791 24.9533 13.0008 24.8635 13.0022L18.7868 13.1005C18.4206 13.1064 18.1848 13.4911 18.3457 13.8201L20.3433 17.9051C20.4371 18.0968 20.6421 18.2079 20.8539 18.1817Z" fill="#9DCECE"/>
<path d="M62.8539 26.1817L71.1521 25.1552C71.3225 25.1342 71.4214 24.9516 71.346 24.7973L69 20L67.1221 20.9389C67.0417 20.9791 66.9533 21.0008 66.8635 21.0022L60.7868 21.1005C60.4206 21.1064 60.1848 21.4911 60.3457 21.8201L62.3433 25.9051C62.4371 26.0968 62.6421 26.2079 62.8539 26.1817Z" fill="#FCC918"/>
<path d="M59.8539 20.1817L68.1521 19.1552C68.3225 19.1342 68.4214 18.9516 68.346 18.7973L66 14L64.1221 14.9389C64.0417 14.9791 63.9533 15.0008 63.8635 15.0022L57.7868 15.1005C57.4206 15.1064 57.1848 15.4911 57.3457 15.8201L59.3433 19.9051C59.4371 20.0968 59.6421 20.2079 59.8539 20.1817Z" fill="#FC973A"/>
<path d="M56.8539 14.1817L65.1521 13.1552C65.3225 13.1342 65.4214 12.9516 65.346 12.7973L63 8L61.1221 8.93894C61.0417 8.97913 60.9533 9.00075 60.8635 9.00221L54.7868 9.1005C54.4206 9.10642 54.1848 9.49107 54.3457 9.82009L56.3433 13.9051C56.4371 14.0968 56.6421 14.2079 56.8539 14.1817Z" fill="#E4D5CF"/>
<path d="M115.854 20.1817L124.152 19.1552C124.323 19.1342 124.421 18.9516 124.346 18.7973L122 14L120.122 14.9389C120.042 14.9791 119.953 15.0008 119.863 15.0022L113.787 15.1005C113.421 15.1064 113.185 15.4911 113.346 15.8201L115.343 19.9051C115.437 20.0968 115.642 20.2079 115.854 20.1817Z" fill="#FC973A"/>
<path d="M112.854 14.1817L121.152 13.1552C121.323 13.1342 121.421 12.9516 121.346 12.7973L119 8L117.122 8.93894C117.042 8.97913 116.953 9.00075 116.863 9.00221L110.787 9.1005C110.421 9.10642 110.185 9.49107 110.346 9.82009L112.343 13.9051C112.437 14.0968 112.642 14.2079 112.854 14.1817Z" fill="#FCC918"/>
<path d="M109.854 8.18167L118.152 7.15525C118.323 7.13417 118.421 6.95155 118.346 6.79731L116 2L114.122 2.93894C114.042 2.97913 113.953 3.00075 113.863 3.00221L107.787 3.1005C107.421 3.10642 107.185 3.49107 107.346 3.82009L109.343 7.9051C109.437 8.09678 109.642 8.20786 109.854 8.18167Z" fill="#E4D5CF"/>
<path d="M98.8539 22.1817L107.152 21.1552C107.323 21.1342 107.421 20.9516 107.346 20.7973L105 16L103.122 16.9389C103.042 16.9791 102.953 17.0008 102.863 17.0022L96.7868 17.1005C96.4206 17.1064 96.1848 17.4911 96.3457 17.8201L98.3433 21.9051C98.4371 22.0968 98.6421 22.2079 98.8539 22.1817Z" fill="#E4D5CF"/>
<path d="M95.8539 16.1817L104.152 15.1552C104.323 15.1342 104.421 14.9516 104.346 14.7973L102 10L100.122 10.9389C100.042 10.9791 99.9533 11.0008 99.8635 11.0022L93.7868 11.1005C93.4206 11.1064 93.1848 11.4911 93.3457 11.8201L95.3433 15.9051C95.4371 16.0968 95.6421 16.2079 95.8539 16.1817Z" fill="#FCC918"/>
<path d="M92.8539 10.1817L101.152 9.15525C101.323 9.13417 101.421 8.95155 101.346 8.79731L99 4L97.1221 4.93894C97.0417 4.97913 96.9533 5.00075 96.8635 5.00221L90.7868 5.1005C90.4206 5.10642 90.1848 5.49107 90.3457 5.82009L92.3433 9.9051C92.4371 10.0968 92.6421 10.2079 92.8539 10.1817Z" fill="#9DCECE"/>
<path d="M80.8539 24.1817L89.1521 23.1552C89.3225 23.1342 89.4214 22.9516 89.346 22.7973L87 18L85.1221 18.9389C85.0417 18.9791 84.9533 19.0008 84.8635 19.0022L78.7868 19.1005C78.4206 19.1064 78.1848 19.4911 78.3457 19.8201L80.3433 23.9051C80.4371 24.0968 80.6421 24.2079 80.8539 24.1817Z" fill="#9DCECE"/>
<path d="M77.8539 18.1817L86.1521 17.1552C86.3225 17.1342 86.4214 16.9516 86.346 16.7973L84 12L82.1221 12.9389C82.0417 12.9791 81.9533 13.0008 81.8635 13.0022L75.7868 13.1005C75.4206 13.1064 75.1848 13.4911 75.3457 13.8201L77.3433 17.9051C77.4371 18.0968 77.6421 18.2079 77.8539 18.1817Z" fill="#FCC918"/>
<path d="M74.8539 12.1817L83.1521 11.1552C83.3225 11.1342 83.4214 10.9516 83.346 10.7973L81 6L79.1221 6.93894C79.0417 6.97913 78.9533 7.00075 78.8635 7.00221L72.7868 7.1005C72.4206 7.10642 72.1848 7.49107 72.3457 7.82009L74.3433 11.9051C74.4371 12.0968 74.6421 12.2079 74.8539 12.1817Z" fill="#FC973A"/>
<path d="M44.8539 28.1817L53.1521 27.1552C53.3225 27.1342 53.4214 26.9516 53.346 26.7973L51 22L49.1221 22.9389C49.0417 22.9791 48.9533 23.0008 48.8635 23.0022L42.7868 23.1005C42.4206 23.1064 42.1848 23.4911 42.3457 23.8201L44.3433 27.9051C44.4371 28.0968 44.6421 28.2079 44.8539 28.1817Z" fill="#FC973A"/>
<path d="M41.8539 22.1817L50.1521 21.1552C50.3225 21.1342 50.4214 20.9516 50.346 20.7973L48 16L46.1221 16.9389C46.0417 16.9791 45.9533 17.0008 45.8635 17.0022L39.7868 17.1005C39.4206 17.1064 39.1848 17.4911 39.3457 17.8201L41.3433 21.9051C41.4371 22.0968 41.6421 22.2079 41.8539 22.1817Z" fill="#9DCECE"/>
<path d="M38.8539 16.1817L47.1521 15.1552C47.3225 15.1342 47.4214 14.9516 47.346 14.7973L45 10L43.1221 10.9389C43.0417 10.9791 42.9533 11.0008 42.8635 11.0022L36.7868 11.1005C36.4206 11.1064 36.1848 11.4911 36.3457 11.8201L38.3433 15.9051C38.4371 16.0968 38.6421 16.2079 38.8539 16.1817Z" fill="#E4D5CF"/>
<defs>
<filter id="filter0_d_861_326" x="0" y="0" width="137" height="37" filterUnits="userSpaceOnUse" color-interpolation-filters="sRGB">
<feFlood flood-opacity="0" result="BackgroundImageFix"/>
<feColorMatrix in="SourceAlpha" type="matrix" values="0 0 0 0 0 0 0 0 0 0 0 0 0 0 0 0 0 0 127 0" result="hardAlpha"/>
<feOffset dy="1"/>
<feGaussianBlur stdDeviation="1"/>
<feComposite in2="hardAlpha" operator="out"/>
<feColorMatrix type="matrix" values="0 0 0 0 0 0 0 0 0 0 0 0 0 0 0 0 0 0 0.25 0"/>
<feBlend mode="normal" in2="BackgroundImageFix" result="effect1_dropShadow_861_326"/>
<feBlend mode="normal" in="SourceGraphic" in2="effect1_dropShadow_861_326" result="shape"/>
</filter>
<linearGradient id="paint0_linear_861_326" x1="106.5" y1="-2.50001" x2="32" y2="36.5" gradientUnits="userSpaceOnUse">
<stop stop-color="#F6F8F5"/>
<stop offset="1" stop-color="#EEEEEE"/>
</linearGradient>
</defs>
</svg>
