<svg width="69" height="71" viewBox="0 0 69 71" fill="none" xmlns="http://www.w3.org/2000/svg">
<path d="M21.2558 4.43648C27.2658 14.4039 19.1783 36.9229 17.2492 44.0847C22.072 36.0369 30.8224 19.0649 31.9402 16.8404C33.0532 14.6254 37.505 5.91314 40.1761 2C40.6213 4.80565 40.3988 10.8911 39.5083 14.1824C38.0227 19.6734 29.6569 33.0175 27.7239 35.3995C31.7896 30.722 36.7781 22.6251 43.2924 16.8404C50.2037 10.703 58.7029 7.0537 62.8804 6.87296C59.2447 10.9338 51.7063 19.3212 50.6379 20.3844L25.7076 44.0847C33.4983 38.8426 49.3914 28.1811 50.6379 27.4723C52.196 26.5863 61.5448 21.4919 68 21.9349C60.8771 24.5928 35.2049 41.5005 32.3854 43.6417C23.0365 51.3203 6.34219 68.0065 4.11628 70L1 68.0065C5.67442 59.5896 13.4651 42.0912 15.2458 35.2248C16.9072 28.8187 21.701 14.1824 21.2558 4.43648Z" fill="url(#paint0_linear_821_336)" stroke="black"/>
<defs>
<linearGradient id="paint0_linear_821_336" x1="48.3902" y1="4.45783" x2="3.69574" y2="69.888" gradientUnits="userSpaceOnUse">
<stop stop-color="#3B9839"/>
<stop offset="0.609375" stop-color="#3B9839"/>
<stop offset="0.848958" stop-color="#E5F2C0"/>
</linearGradient>
</defs>
</svg>