<svg width="118" height="89" viewBox="0 0 118 89" fill="none" xmlns="http://www.w3.org/2000/svg">
<path d="M7.3418 22.9083L14.1596 12.1124V75.0444L7.3418 85.0503V22.9083Z" fill="#D9D9D9" fill-opacity="0.36"/>
<path d="M7.60449 84.1993V22.9848L13.8978 13.0193V74.9628L7.60449 84.1993Z" stroke="black"/>
<path d="M111.707 12.639H14.1602V74.7811H111.707V12.639Z" fill="#D9D9D9" fill-opacity="0.36"/>
<path d="M111.445 12.9023H14.4229V74.5177H111.445V12.9023Z" stroke="black"/>
<path d="M35.8191 21.5917C35.8191 21.5917 32.91 23.8246 33.7843 26.4751C33.3767 25.7827 32.8264 25.1858 32.1703 24.7245C31.5142 24.2632 30.7674 23.9481 29.98 23.8004C29.98 23.8004 28.7916 26.2787 30.7499 28.2446C28.7916 26.2787 26.3235 27.4715 26.3235 27.4715C26.4707 28.2623 26.7845 29.0123 27.244 29.6713C27.7035 30.3302 28.2981 30.8829 28.9877 31.2922C26.3477 30.4138 24.124 33.3355 24.124 33.3355C27.1516 35.6453 29.3428 34.1255 29.3428 34.1255L36.6058 26.8317C36.6058 26.8317 38.1199 24.6325 35.8191 21.5917Z" fill="#79CCB8"/>
<path d="M49.2452 43.273C48.2791 37.8487 48.9221 31.5023 46.0052 28.5738C41.8846 24.4355 36.4487 25.69 32.3282 29.8303C28.2076 33.9706 26.9563 39.4265 31.0774 43.5663C33.9943 46.4954 40.3155 45.8498 45.7157 46.8198C46.1991 46.9105 46.6973 46.8814 47.167 46.7351C47.6367 46.5889 48.0639 46.33 48.4115 45.9806C48.7591 45.6313 49.0167 45.2022 49.1619 44.7304C49.3072 44.2586 49.3358 43.7584 49.2452 43.273Z" fill="#F87670"/>
<path d="M35.7582 31.6845C36.195 32.1237 36.2858 33.8037 36.2858 33.8037C36.2858 33.8037 34.6133 33.7126 34.1749 33.2734C33.9651 33.0625 33.8473 32.7766 33.8474 32.4786C33.8475 32.1805 33.9655 31.8947 34.1754 31.684C34.3854 31.4733 34.6701 31.355 34.9669 31.3551C35.2637 31.3552 35.5484 31.4737 35.7582 31.6845ZM40.5076 30.0952C40.9444 30.5338 41.0351 32.2143 41.0351 32.2143C41.0351 32.2143 39.3616 32.1243 38.9243 31.6845C38.8204 31.5801 38.7379 31.4562 38.6817 31.3198C38.6254 31.1834 38.5965 31.0372 38.5965 30.8897C38.5966 30.5916 38.7146 30.3057 38.9245 30.0949C39.1345 29.8841 39.4192 29.7658 39.7161 29.7658C40.013 29.7659 40.2977 29.8844 40.5076 30.0952ZM45.2564 30.4127C45.6933 30.8514 45.784 32.5324 45.784 32.5324C45.784 32.5324 44.1105 32.4413 43.6731 32.0021C43.4632 31.7913 43.3453 31.5053 43.3454 31.2072C43.3454 30.9091 43.4634 30.6232 43.6734 30.4125C43.8834 30.2017 44.1681 30.0833 44.465 30.0834C44.7618 30.0834 45.0465 30.2019 45.2564 30.4127ZM40.5076 36.4537C40.9444 36.8929 41.0351 38.5728 41.0351 38.5728C41.0351 38.5728 39.3616 38.4817 38.9243 38.0425C38.8204 37.9381 38.738 37.8142 38.6818 37.6778C38.6256 37.5415 38.5967 37.3953 38.5967 37.2477C38.5968 37.1001 38.6258 36.954 38.6821 36.8177C38.7383 36.6813 38.8208 36.5575 38.9248 36.4531C39.0288 36.3488 39.1522 36.2661 39.288 36.2096C39.4238 36.1532 39.5693 36.1242 39.7163 36.1243C39.8633 36.1243 40.0088 36.1534 40.1446 36.2099C40.2803 36.2664 40.4037 36.3493 40.5076 36.4537ZM45.2564 41.2228C45.6933 41.662 45.784 43.3419 45.784 43.3419C45.784 43.3419 44.1105 43.2508 43.6731 42.8116C43.5692 42.7073 43.4868 42.5833 43.4307 42.4469C43.3744 42.3106 43.3455 42.1645 43.3456 42.0168C43.3456 41.8693 43.3746 41.7231 43.4309 41.5868C43.4872 41.4505 43.5697 41.3266 43.6736 41.2223C43.7776 41.1179 43.901 41.0352 44.0368 40.9788C44.1726 40.9224 44.3182 40.8933 44.4651 40.8934C44.6121 40.8934 44.7577 40.9225 44.8934 40.9791C45.0292 41.0356 45.1525 41.1184 45.2564 41.2228ZM45.5742 35.818C46.0111 36.2567 46.1018 37.9372 46.1018 37.9372C46.1018 37.9372 44.4283 37.8461 43.9909 37.4069C43.887 37.3025 43.8046 37.1786 43.7485 37.0422C43.6922 36.9058 43.6633 36.7596 43.6634 36.6121C43.6635 36.4645 43.6925 36.3184 43.7487 36.182C43.805 36.0457 43.8875 35.9218 43.9914 35.8175C44.0954 35.7132 44.2188 35.6304 44.3546 35.574C44.4904 35.5176 44.636 35.4886 44.7829 35.4886C44.9299 35.4887 45.0755 35.5177 45.2112 35.5743C45.347 35.6308 45.4703 35.7136 45.5742 35.818ZM32.5921 38.043C33.029 38.4822 34.7025 38.5733 34.7025 38.5733C34.7025 38.5733 34.6117 36.8934 34.1749 36.4542C34.0717 36.3469 33.9482 36.2613 33.8117 36.2025C33.6751 36.1436 33.5284 36.1127 33.3798 36.1114C33.2312 36.1101 33.0839 36.1385 32.9464 36.195C32.8089 36.2515 32.6839 36.3349 32.5789 36.4404C32.4739 36.5458 32.3907 36.6713 32.3345 36.8093C32.2781 36.9474 32.2498 37.0953 32.251 37.2445C32.2522 37.3936 32.2831 37.5411 32.3416 37.6782C32.4002 37.8153 32.4853 37.9393 32.5921 38.043ZM32.9089 42.8116C33.3457 43.2508 35.0192 43.3419 35.0192 43.3419C35.0192 43.3419 34.9285 41.662 34.4917 41.2228C34.3884 41.1155 34.2649 41.0299 34.1284 40.9711C33.9919 40.9122 33.8451 40.8813 33.6965 40.88C33.548 40.8787 33.4007 40.9071 33.2631 40.9636C33.1257 41.0201 33.0007 41.1035 32.8957 41.209C32.7906 41.3144 32.7075 41.4399 32.6512 41.578C32.5949 41.716 32.5665 41.8639 32.5678 42.0131C32.569 42.1622 32.5998 42.3097 32.6584 42.4468C32.7169 42.5839 32.8021 42.7079 32.9089 42.8116ZM38.2913 43.1308C38.7281 43.57 40.4016 43.6611 40.4016 43.6611C40.4016 43.6611 40.3114 41.9811 39.8772 41.5419C39.6674 41.3308 39.3826 41.2119 39.0855 41.2116C38.7885 41.2112 38.5034 41.3294 38.2931 41.5401C38.0828 41.7508 37.9645 42.0367 37.9641 42.335C37.9638 42.6334 38.0815 42.9196 38.2913 43.1308Z" fill="#DB5743"/>
<path d="M69.3836 21.5917C69.3836 21.5917 66.4745 23.8246 67.3487 26.4751C66.9412 25.7827 66.3911 25.1858 65.735 24.7245C65.0784 24.2632 64.3316 23.9481 63.5444 23.8004C63.5444 23.8004 62.356 26.2787 64.3143 28.2446C62.356 26.2787 59.888 27.4715 59.888 27.4715C60.0354 28.2623 60.349 29.0123 60.8084 29.6713C61.2678 30.3302 61.8625 30.8829 62.5522 31.2922C59.9121 30.4138 57.6885 33.3355 57.6885 33.3355C60.7161 35.6453 62.9072 34.1255 62.9072 34.1255L70.1703 26.8317C70.1703 26.8317 71.6843 24.6325 69.3836 21.5917Z" fill="#79CCB8"/>
<path d="M82.8096 43.273C81.8436 37.8487 82.4866 31.5023 79.5696 28.5738C75.449 24.4355 70.0132 25.69 65.8926 29.8303C61.7721 33.9706 60.5207 39.4265 64.6418 43.5663C67.5588 46.4954 73.8799 45.8498 79.2801 46.8198C79.7636 46.9105 80.2619 46.8814 80.7318 46.7351C81.2012 46.5889 81.6286 46.33 81.9763 45.9806C82.3235 45.6313 82.581 45.2022 82.7262 44.7304C82.8715 44.2586 82.9003 43.7584 82.8096 43.273Z" fill="#F87670"/>
<path d="M69.3229 31.6845C69.7598 32.1237 69.8505 33.8037 69.8505 33.8037C69.8505 33.8037 68.1781 33.7126 67.7396 33.2734C67.5299 33.0625 67.4119 32.7766 67.4119 32.4786C67.4119 32.1805 67.5299 31.8947 67.7402 31.684C67.9499 31.4733 68.2347 31.355 68.5316 31.3551C68.8284 31.3552 69.1132 31.4737 69.3229 31.6845ZM74.0723 30.0952C74.5092 30.5338 74.5999 32.2143 74.5999 32.2143C74.5999 32.2143 72.9264 32.1243 72.489 31.6845C72.3846 31.5801 72.3023 31.4562 72.2462 31.3198C72.1901 31.1834 72.1612 31.0372 72.1612 30.8897C72.1612 30.5916 72.2792 30.3057 72.489 30.0949C72.6988 29.8841 72.9836 29.7658 73.2804 29.7658C73.5778 29.7659 73.862 29.8844 74.0723 30.0952ZM78.8212 30.4127C79.258 30.8514 79.3487 32.5324 79.3487 32.5324C79.3487 32.5324 77.6752 32.4413 77.2379 32.0021C77.0276 31.7913 76.9101 31.5053 76.9101 31.2072C76.9101 30.9091 77.0281 30.6232 77.2379 30.4125C77.4476 30.2017 77.7324 30.0833 78.0292 30.0834C78.3266 30.0834 78.6109 30.2019 78.8212 30.4127ZM74.0723 36.4537C74.5092 36.8929 74.5999 38.5728 74.5999 38.5728C74.5999 38.5728 72.9264 38.4817 72.489 38.0425C72.3852 37.9381 72.3023 37.8142 72.2462 37.6778C72.1901 37.5415 72.1612 37.3953 72.1612 37.2477C72.1612 37.1001 72.1901 36.954 72.2467 36.8177C72.3028 36.6813 72.3852 36.5575 72.4895 36.4531C72.5934 36.3488 72.7166 36.2661 72.8524 36.2096C72.9883 36.1532 73.1341 36.1242 73.2809 36.1243C73.4278 36.1243 73.5736 36.1534 73.7089 36.2099C73.8447 36.2664 73.9685 36.3493 74.0723 36.4537ZM78.8212 41.2228C79.258 41.662 79.3487 43.3419 79.3487 43.3419C79.3487 43.3419 77.6752 43.2508 77.2379 42.8116C77.134 42.7073 77.0512 42.5833 76.995 42.4469C76.9389 42.3106 76.9101 42.1645 76.9101 42.0168C76.9101 41.8693 76.9389 41.7231 76.9956 41.5868C77.0517 41.4505 77.134 41.3266 77.2384 41.2223C77.3422 41.1179 77.4655 41.0352 77.6013 40.9788C77.7371 40.9224 77.8829 40.8933 78.0298 40.8934C78.1766 40.8934 78.3224 40.9225 78.4577 40.9791C78.5935 41.0356 78.7173 41.1184 78.8212 41.2228ZM79.139 35.818C79.5758 36.2567 79.6666 37.9372 79.6666 37.9372C79.6666 37.9372 77.9931 37.8461 77.5557 37.4069C77.4518 37.3025 77.369 37.1786 77.3129 37.0422C77.2567 36.9058 77.2279 36.7596 77.2279 36.6121C77.2279 36.4645 77.2567 36.3184 77.3134 36.182C77.3695 36.0457 77.4518 35.9218 77.5562 35.8175C77.66 35.7132 77.7833 35.6304 77.9191 35.574C78.0549 35.5176 78.2007 35.4886 78.3476 35.4886C78.4944 35.4887 78.6402 35.5177 78.7755 35.5743C78.9114 35.6308 79.0351 35.7136 79.139 35.818ZM66.1569 38.043C66.5937 38.4822 68.2672 38.5733 68.2672 38.5733C68.2672 38.5733 68.1765 36.8934 67.7396 36.4542C67.6363 36.3469 67.5126 36.2613 67.3762 36.2025C67.2398 36.1436 67.093 36.1127 66.9446 36.1114C66.7956 36.1101 66.6483 36.1385 66.5109 36.195C66.3735 36.2515 66.2486 36.3349 66.1432 36.4404C66.0383 36.5458 65.9555 36.6713 65.8988 36.8093C65.8427 36.9474 65.8144 37.0953 65.8155 37.2445C65.817 37.3936 65.8474 37.5411 65.9062 37.6782C65.9649 37.8153 66.0499 37.9393 66.1569 38.043ZM66.4736 42.8116C66.9105 43.2508 68.584 43.3419 68.584 43.3419C68.584 43.3419 68.4933 41.662 68.0564 41.2228C67.9531 41.1155 67.8293 41.0299 67.693 40.9711C67.5566 40.9122 67.4098 40.8813 67.2613 40.88C67.1124 40.8787 66.965 40.9071 66.8276 40.9636C66.6902 41.0201 66.5654 41.1035 66.46 41.209C66.3551 41.3144 66.2722 41.4399 66.2156 41.578C66.1595 41.716 66.1312 41.8639 66.1322 42.0131C66.1338 42.1622 66.1642 42.3097 66.223 42.4468C66.2817 42.5839 66.3666 42.7079 66.4736 42.8116ZM71.856 43.1308C72.2929 43.57 73.9664 43.6611 73.9664 43.6611C73.9664 43.6611 73.8762 41.9811 73.4419 41.5419C73.2322 41.3308 72.9474 41.2119 72.65 41.2116C72.3532 41.2112 72.0679 41.3294 71.8576 41.5401C71.6473 41.7508 71.5288 42.0367 71.5288 42.335C71.5282 42.6334 71.6462 42.9196 71.856 43.1308Z" fill="#DB5743"/>
<path d="M69.3836 57.929C69.3836 57.929 66.4745 60.1619 67.3487 62.8124C66.9412 62.1199 66.3911 61.5232 65.735 61.0619C65.0784 60.6006 64.3316 60.2851 63.5444 60.1377C63.5444 60.1377 62.356 62.616 64.3143 64.5819C62.356 62.616 59.888 63.8088 59.888 63.8088C60.0354 64.5998 60.349 65.3497 60.8084 66.0085C61.2678 66.6673 61.8625 67.2203 62.5522 67.6295C59.9121 66.7511 57.6885 69.6728 57.6885 69.6728C60.7161 71.9826 62.9072 70.4627 62.9072 70.4627L70.1703 63.169C70.1703 63.169 71.6843 60.9698 69.3836 57.929Z" fill="#79CCB8"/>
<path d="M82.8096 79.6103C81.8436 74.186 82.4866 67.8396 79.5696 64.911C75.449 60.7728 70.0132 62.0272 65.8926 66.1676C61.7721 70.3079 60.5207 75.7638 64.6418 79.9036C67.5588 82.8327 73.8799 82.187 79.2801 83.1571C79.7636 83.2477 80.2619 83.2187 80.7318 83.0723C81.2012 82.9264 81.6286 82.6673 81.9763 82.3177C82.3235 81.9685 82.581 81.5393 82.7262 81.0674C82.8715 80.5961 82.9003 80.0958 82.8096 79.6103Z" fill="#F87670"/>
<path d="M69.3229 68.0218C69.7598 68.461 69.8505 70.1409 69.8505 70.1409C69.8505 70.1409 68.1781 70.0498 67.7396 69.6106C67.5299 69.4 67.4119 69.114 67.4119 68.8159C67.4119 68.5179 67.5299 68.2319 67.7402 68.0212C67.9499 67.8106 68.2347 67.6921 68.5316 67.6921C68.8284 67.6926 69.1132 67.8111 69.3229 68.0218ZM74.0723 66.4324C74.5092 66.8711 74.5999 68.5516 74.5999 68.5516C74.5999 68.5516 72.9264 68.4615 72.489 68.0218C72.3846 67.9175 72.3023 67.7932 72.2462 67.6568C72.1901 67.521 72.1612 67.3745 72.1612 67.2271C72.1612 66.929 72.2792 66.6431 72.489 66.4324C72.6988 66.2212 72.9836 66.1033 73.2804 66.1033C73.5778 66.1033 73.862 66.2218 74.0723 66.4324ZM78.8212 66.75C79.258 67.1886 79.3487 68.8696 79.3487 68.8696C79.3487 68.8696 77.6752 68.7785 77.2379 68.3393C77.0276 68.1287 76.9101 67.8427 76.9101 67.5446C76.9101 67.2466 77.0281 66.9606 77.2379 66.75C77.4476 66.5388 77.7324 66.4208 78.0292 66.4208C78.3266 66.4208 78.6109 66.5393 78.8212 66.75ZM74.0723 72.7909C74.5092 73.2301 74.5999 74.9101 74.5999 74.9101C74.5999 74.9101 72.9264 74.819 72.489 74.3797C72.3852 74.2755 72.3023 74.1512 72.2462 74.0153C72.1901 73.8789 72.1612 73.7325 72.1612 73.5851C72.1612 73.4376 72.1901 73.2912 72.2467 73.1548C72.3028 73.0184 72.3852 72.8947 72.4895 72.7904C72.5934 72.6861 72.7166 72.6034 72.8524 72.5471C72.9883 72.4902 73.1341 72.4612 73.2809 72.4612C73.4278 72.4618 73.5736 72.4907 73.7089 72.5471C73.8447 72.604 73.9685 72.6866 74.0723 72.7909ZM78.8212 77.56C79.258 77.9992 79.3487 79.6792 79.3487 79.6792C79.3487 79.6792 77.6752 79.5881 77.2379 79.1489C77.134 79.0446 77.0512 78.9203 76.995 78.7845C76.9389 78.6481 76.9101 78.5017 76.9101 78.3542C76.9101 78.2067 76.9389 78.0603 76.9956 77.9239C77.0517 77.7875 77.134 77.6638 77.2384 77.5595C77.3422 77.4552 77.4655 77.3726 77.6013 77.3162C77.7371 77.2593 77.8829 77.2304 78.0298 77.2304C78.1766 77.2309 78.3224 77.2599 78.4577 77.3162C78.5935 77.3731 78.7173 77.4558 78.8212 77.56ZM79.139 72.1553C79.5758 72.594 79.6666 74.2744 79.6666 74.2744C79.6666 74.2744 77.9931 74.1833 77.5557 73.7441C77.4518 73.6398 77.369 73.5155 77.3129 73.3797C77.2567 73.2433 77.2279 73.0969 77.2279 72.9494C77.2279 72.802 77.2567 72.6556 77.3134 72.5192C77.3695 72.3828 77.4518 72.259 77.5562 72.1547C77.66 72.0505 77.7833 71.9678 77.9191 71.9114C78.0549 71.8546 78.2007 71.8256 78.3476 71.8256C78.4944 71.8261 78.6402 71.8551 78.7755 71.9114C78.9114 71.9683 79.0351 72.051 79.139 72.1553ZM66.1569 74.3803C66.5937 74.8195 68.2672 74.9106 68.2672 74.9106C68.2672 74.9106 68.1765 73.2306 67.7396 72.7914C67.6363 72.684 67.5126 72.5987 67.3762 72.5397C67.2398 72.4807 67.093 72.4502 66.9446 72.4486C66.7956 72.4475 66.6483 72.476 66.5109 72.5323C66.3735 72.5887 66.2486 72.6719 66.1432 72.7777C66.0383 72.8831 65.9555 73.0084 65.8988 73.1464C65.8427 73.2849 65.8144 73.4323 65.8155 73.5819C65.817 73.7309 65.8474 73.8784 65.9062 74.0153C65.9649 74.1528 66.0499 74.2765 66.1569 74.3803ZM66.4736 79.1489C66.9105 79.5881 68.584 79.6792 68.584 79.6792C68.584 79.6792 68.4933 77.9992 68.0564 77.56C67.9531 77.4526 67.8293 77.3673 67.693 77.3083C67.5566 77.2493 67.4098 77.2188 67.2613 77.2172C67.1124 77.2162 66.965 77.2446 66.8276 77.3009C66.6902 77.3573 66.5654 77.4405 66.46 77.5464C66.3551 77.6517 66.2722 77.777 66.2156 77.915C66.1595 78.0535 66.1312 78.2009 66.1322 78.3505C66.1338 78.4995 66.1642 78.647 66.223 78.7839C66.2817 78.9214 66.3666 79.0451 66.4736 79.1489ZM71.856 79.468C72.2929 79.9072 73.9664 79.9983 73.9664 79.9983C73.9664 79.9983 73.8762 78.3184 73.4419 77.8792C73.2322 77.668 72.9474 77.549 72.65 77.549C72.3532 77.5485 72.0679 77.6664 71.8576 77.8776C71.6473 78.0883 71.5288 78.3742 71.5288 78.6723C71.5282 78.9704 71.6462 79.2568 71.856 79.468Z" fill="#DB5743"/>
<path d="M31.0994 55.8225C31.0994 55.8225 28.1903 58.0554 29.0646 60.7059C28.657 60.0134 28.1067 59.4167 27.4506 58.9554C26.7945 58.4941 26.0476 58.1786 25.2602 58.0312C25.2602 58.0312 24.0719 60.5095 26.0301 62.4754C24.0719 60.5095 21.6038 61.7023 21.6038 61.7023C21.751 62.4933 22.0648 63.2432 22.5243 63.902C22.9838 64.5608 23.5783 65.1138 24.268 65.523C21.6279 64.6446 19.4043 67.5663 19.4043 67.5663C22.4319 69.8761 24.623 68.3562 24.623 68.3562L31.8861 61.0624C31.8861 61.0624 33.4001 58.8633 31.0994 55.8225Z" fill="#79CCB8"/>
<path d="M44.5254 77.5038C43.5594 72.0795 44.2024 65.7331 41.2854 62.8045C37.1649 58.6663 31.729 59.9207 27.6084 64.0611C23.4879 68.2014 22.2366 73.6573 26.3576 77.7971C29.2746 80.7262 35.5957 80.0805 40.9959 81.0506C41.4794 81.1412 41.9775 81.1122 42.4472 80.9658C42.917 80.8199 43.3441 80.5608 43.6917 80.2111C44.0393 79.862 44.2969 79.4328 44.4422 78.9609C44.5875 78.4896 44.6161 77.9893 44.5254 77.5038Z" fill="#F87670"/>
<path d="M31.0385 65.9153C31.4753 66.3545 31.566 68.0345 31.566 68.0345C31.566 68.0345 29.8936 67.9434 29.4552 67.5042C29.2454 67.2935 29.1275 67.0076 29.1276 66.7095C29.1278 66.4114 29.2458 66.1255 29.4557 65.9148C29.6657 65.7042 29.9504 65.5857 30.2472 65.5857C30.544 65.5862 30.8287 65.7047 31.0385 65.9153ZM35.7878 64.326C36.2247 64.7646 36.3154 66.4451 36.3154 66.4451C36.3154 66.4451 34.6419 66.3551 34.2045 65.9153C34.1006 65.8111 34.0182 65.6868 33.962 65.5504C33.9057 65.4145 33.8768 65.2681 33.8768 65.1206C33.8769 64.8226 33.9949 64.5366 34.2048 64.326C34.4148 64.1148 34.6995 63.9968 34.9964 63.9968C35.2933 63.9968 35.5779 64.1153 35.7878 64.326ZM40.5367 64.6435C40.9735 65.0822 41.0643 66.7632 41.0643 66.7632C41.0643 66.7632 39.3908 66.6721 38.9534 66.2329C38.7435 66.0222 38.6256 65.7363 38.6256 65.4382C38.6257 65.1401 38.7437 64.8542 38.9536 64.6435C39.1636 64.4323 39.4483 64.3144 39.7452 64.3144C40.0421 64.3144 40.3268 64.4329 40.5367 64.6435ZM35.7878 70.6845C36.2247 71.1237 36.3154 72.8036 36.3154 72.8036C36.3154 72.8036 34.6419 72.7125 34.2045 72.2733C34.1006 72.169 34.0182 72.0447 33.9621 71.9089C33.9059 71.7725 33.877 71.6261 33.877 71.4786C33.8771 71.3312 33.9061 71.1848 33.9623 71.0484C34.0186 70.912 34.1011 70.7882 34.2051 70.6839C34.3091 70.5797 34.4325 70.497 34.5682 70.4406C34.7041 70.3838 34.8496 70.3548 34.9965 70.3548C35.1435 70.3553 35.2891 70.3843 35.4249 70.4406C35.5606 70.4975 35.6839 70.5802 35.7878 70.6845ZM40.5367 75.4536C40.9735 75.8928 41.0643 77.5727 41.0643 77.5727C41.0643 77.5727 39.3908 77.4816 38.9534 77.0424C38.8495 76.9382 38.7671 76.8139 38.7109 76.678C38.6547 76.5416 38.6258 76.3952 38.6259 76.2478C38.6259 76.1003 38.6549 75.9539 38.7112 75.8175C38.7675 75.6811 38.85 75.5573 38.9539 75.4531C39.0579 75.3488 39.1813 75.2661 39.3171 75.2098C39.4529 75.1529 39.5984 75.1239 39.7454 75.1239C39.8924 75.1245 40.0379 75.1534 40.1737 75.2098C40.3094 75.2666 40.4328 75.3493 40.5367 75.4536ZM40.8545 70.0488C41.2913 70.4875 41.3821 72.168 41.3821 72.168C41.3821 72.168 39.7086 72.0769 39.2712 71.6377C39.1673 71.5334 39.0849 71.4091 39.0287 71.2732C38.9725 71.1368 38.9436 70.9904 38.9437 70.843C38.9437 70.6955 38.9727 70.5491 39.029 70.4127C39.0853 70.2763 39.1678 70.1526 39.2717 70.0483C39.3757 69.944 39.4991 69.8613 39.6349 69.805C39.7707 69.7481 39.9163 69.7192 40.0632 69.7192C40.2102 69.7197 40.3557 69.7486 40.4915 69.805C40.6272 69.8619 40.7506 69.9446 40.8545 70.0488ZM27.8724 72.2738C28.3093 72.713 29.9828 72.8041 29.9828 72.8041C29.9828 72.8041 29.892 71.1242 29.4552 70.685C29.352 70.5776 29.2284 70.4922 29.0919 70.4333C28.9554 70.3743 28.8086 70.3437 28.6601 70.3422C28.5115 70.3411 28.3642 70.3695 28.2266 70.4259C28.0892 70.4822 27.9642 70.5654 27.8592 70.6713C27.7541 70.7766 27.671 70.902 27.6147 71.0399C27.5584 71.1784 27.53 71.3259 27.5313 71.4755C27.5325 71.6245 27.5633 71.772 27.6219 71.9089C27.6804 72.0463 27.7656 72.1701 27.8724 72.2738ZM28.1892 77.0424C28.626 77.4816 30.2995 77.5727 30.2995 77.5727C30.2995 77.5727 30.2088 75.8928 29.7719 75.4536C29.6687 75.3462 29.5452 75.2609 29.4087 75.2019C29.2722 75.1429 29.1254 75.1123 28.9768 75.1108C28.8282 75.1097 28.6809 75.1382 28.5434 75.1945C28.406 75.2508 28.281 75.3341 28.1759 75.4399C28.0709 75.5452 27.9878 75.6706 27.9315 75.8085C27.8752 75.9471 27.8468 76.0945 27.8481 76.2441C27.8493 76.3931 27.8801 76.5406 27.9386 76.6775C27.9972 76.8149 28.0824 76.9387 28.1892 77.0424ZM33.5715 77.3616C34.0084 77.8008 35.6819 77.8919 35.6819 77.8919C35.6819 77.8919 35.5917 76.2119 35.1574 75.7727C34.9477 75.5616 34.6629 75.4425 34.3658 75.4425C34.0688 75.442 33.7837 75.56 33.5734 75.7712C33.3631 75.9818 33.2447 76.2678 33.2444 76.5658C33.2441 76.8639 33.3618 77.1504 33.5715 77.3616Z" fill="#DB5743"/>
<path d="M46.3084 41.0769C46.3084 41.0769 43.3993 43.3098 44.2735 45.9603C43.866 45.2679 43.3157 44.671 42.6596 44.2097C42.0034 43.7483 41.2566 43.4332 40.4692 43.2856C40.4692 43.2856 39.2808 45.7639 41.2391 47.7298C39.2808 45.7639 36.8128 46.9567 36.8128 46.9567C36.96 47.7475 37.2738 48.4975 37.7333 49.1564C38.1928 49.8154 38.7873 50.3681 39.477 50.7774C36.8369 49.899 34.6133 52.8207 34.6133 52.8207C37.6409 55.1305 39.832 53.6106 39.832 53.6106L47.0951 46.3168C47.0951 46.3168 48.6091 44.1177 46.3084 41.0769Z" fill="#79CCB8"/>
<path d="M59.7343 62.7582C58.7683 57.3339 59.4113 50.9875 56.4943 48.0589C52.3739 43.9207 46.938 45.1751 42.8174 49.3155C38.6969 53.4558 37.4455 58.9117 41.5666 63.0515C44.4836 65.9806 50.8047 65.3349 56.2048 66.305C56.6883 66.3956 57.1866 66.3666 57.6565 66.2202C58.1259 66.0743 58.5533 65.8152 58.901 65.4655C59.2482 65.1164 59.5057 64.6872 59.6509 64.2153C59.7962 63.744 59.8251 63.2437 59.7343 62.7582Z" fill="#F87670"/>
<path d="M46.2465 51.1698C46.6833 51.609 46.7741 53.2889 46.7741 53.2889C46.7741 53.2889 45.1016 53.1978 44.6632 52.7586C44.4534 52.5478 44.3355 52.2619 44.3357 51.9638C44.3358 51.6657 44.4538 51.3799 44.6637 51.1692C44.8737 50.9585 45.1584 50.8402 45.4552 50.8403C45.752 50.8404 46.0367 50.9589 46.2465 51.1698ZM50.9958 49.5804C51.4327 50.0191 51.5234 51.6995 51.5234 51.6995C51.5234 51.6995 49.8499 51.6095 49.4125 51.1698C49.3086 51.0654 49.2262 50.9415 49.17 50.8051C49.1137 50.6687 49.0848 50.5225 49.0848 50.3749C49.0849 50.0768 49.2029 49.7909 49.4128 49.5801C49.6228 49.3694 49.9075 49.251 50.2044 49.251C50.5013 49.2511 50.786 49.3696 50.9958 49.5804ZM55.7449 49.8979C56.1818 50.3366 56.2725 52.0176 56.2725 52.0176C56.2725 52.0176 54.599 51.9265 54.1616 51.4873C53.9513 51.2765 53.8338 50.9905 53.8338 50.6925C53.8338 50.3943 53.9518 50.1084 54.1616 49.8977C54.3714 49.6869 54.6561 49.5685 54.953 49.5686C55.2503 49.5686 55.5346 49.6871 55.7449 49.8979ZM50.9958 55.9389C51.4327 56.3781 51.5234 58.058 51.5234 58.058C51.5234 58.058 49.8499 57.9669 49.4125 57.5277C49.3086 57.4234 49.2263 57.2992 49.1701 57.1633C49.1139 57.0269 49.085 56.8805 49.085 56.733C49.0851 56.5856 49.1141 56.4392 49.1703 56.3028C49.2266 56.1664 49.3091 56.0426 49.4131 55.9384C49.5171 55.8341 49.6405 55.7514 49.7762 55.6951C49.9121 55.6382 50.0576 55.6092 50.2046 55.6092C50.3516 55.6097 50.4971 55.6387 50.6329 55.6951C50.7686 55.7519 50.8919 55.8346 50.9958 55.9389ZM55.7449 60.708C56.1818 61.1472 56.2725 62.8272 56.2725 62.8272C56.2725 62.8272 54.599 62.7361 54.1616 62.2969C54.0578 62.1926 53.9749 62.0683 53.9188 61.9324C53.8627 61.796 53.8338 61.6496 53.8338 61.5022C53.8338 61.3547 53.8627 61.2083 53.9193 61.0719C53.9754 60.9355 54.0578 60.8118 54.1621 60.7075C54.266 60.6032 54.3892 60.5205 54.525 60.4642C54.6609 60.4073 54.8067 60.3784 54.9535 60.3784C55.1004 60.3789 55.2461 60.4078 55.3814 60.4642C55.5173 60.5211 55.6411 60.6038 55.7449 60.708ZM56.0627 55.3032C56.4996 55.7419 56.5903 57.4224 56.5903 57.4224C56.5903 57.4224 54.9168 57.3313 54.4794 56.8921C54.3756 56.7878 54.2927 56.6635 54.2366 56.5277C54.1805 56.3913 54.1516 56.2449 54.1516 56.0974C54.1516 55.9499 54.1805 55.8035 54.2371 55.6671C54.2932 55.5308 54.3756 55.407 54.4799 55.3027C54.5838 55.1985 54.707 55.1158 54.8428 55.0594C54.9787 55.0025 55.1245 54.9736 55.2713 54.9736C55.4182 54.9741 55.564 55.0031 55.6993 55.0594C55.8351 55.1163 55.9589 55.199 56.0627 55.3032ZM43.0804 57.5282C43.5173 57.9675 45.1908 58.0586 45.1908 58.0586C45.1908 58.0586 45.1 56.3786 44.6632 55.9394C44.56 55.832 44.4365 55.7467 44.2999 55.6877C44.1634 55.6287 44.0166 55.5982 43.8681 55.5966C43.7195 55.5955 43.5722 55.624 43.4347 55.6803C43.2972 55.7367 43.1722 55.8199 43.0672 55.9257C42.9621 56.031 42.879 56.1564 42.8227 56.2944C42.7664 56.4329 42.738 56.5803 42.7393 56.7299C42.7405 56.8789 42.7713 57.0264 42.8299 57.1633C42.8884 57.3007 42.9736 57.4245 43.0804 57.5282ZM43.3972 62.2969C43.834 62.7361 45.5075 62.8272 45.5075 62.8272C45.5075 62.8272 45.4168 61.1472 44.9799 60.708C44.8767 60.6006 44.7532 60.5153 44.6167 60.4563C44.4802 60.3973 44.3334 60.3668 44.1848 60.3652C44.0363 60.3641 43.8889 60.3926 43.7514 60.4489C43.614 60.5053 43.489 60.5885 43.3839 60.6943C43.2789 60.7997 43.1958 60.925 43.1395 61.063C43.0832 61.2015 43.0548 61.3489 43.0561 61.4985C43.0573 61.6475 43.0881 61.795 43.1466 61.9319C43.2052 62.0694 43.2904 62.1931 43.3972 62.2969ZM48.7795 62.616C49.2164 63.0552 50.8899 63.1463 50.8899 63.1463C50.8899 63.1463 50.7997 61.4664 50.3655 61.0272C50.1557 60.816 49.8709 60.697 49.5738 60.697C49.2768 60.6964 48.9917 60.8144 48.7814 61.0256C48.5711 61.2362 48.4528 61.5222 48.4524 61.8203C48.4521 62.1183 48.5698 62.4048 48.7795 62.616Z" fill="#DB5743"/>
<path d="M50.5037 20.0118C50.5037 20.0118 47.5946 22.2447 48.4689 24.8953C48.0613 24.2028 47.511 23.6059 46.8549 23.1446C46.1988 22.6833 45.4519 22.3682 44.6645 22.2205C44.6645 22.2205 43.4762 24.6988 45.4344 26.6647C43.4762 24.6988 41.0081 25.8916 41.0081 25.8916C41.1553 26.6824 41.4691 27.4324 41.9286 28.0914C42.3881 28.7503 42.9826 29.303 43.6723 29.7123C41.0322 28.8339 38.8086 31.7556 38.8086 31.7556C41.8362 34.0654 44.0273 32.5456 44.0273 32.5456L51.2904 25.2518C51.2904 25.2518 52.8044 23.0526 50.5037 20.0118Z" fill="#79CCB8"/>
<path d="M63.9296 41.6931C62.9636 36.2688 63.6066 29.9224 60.6896 26.9939C56.5691 22.8556 51.1333 24.1101 47.0127 28.2504C42.8922 32.3907 41.6409 37.8466 45.7619 41.9864C48.6789 44.9155 54.9999 44.2699 60.4001 45.2399C60.8837 45.3306 61.3819 45.3015 61.8518 45.1552C62.3212 45.009 62.7486 44.7501 63.0963 44.4007C63.4435 44.0514 63.701 43.6223 63.8462 43.1505C63.9915 42.6787 64.0204 42.1785 63.9296 41.6931Z" fill="#F87670"/>
<path d="M50.4428 30.1046C50.8796 30.5438 50.9703 32.2238 50.9703 32.2238C50.9703 32.2238 49.2979 32.1327 48.8595 31.6935C48.6497 31.4827 48.5318 31.1967 48.5319 30.8987C48.532 30.6006 48.65 30.3148 48.86 30.1041C49.07 29.8934 49.3547 29.7751 49.6515 29.7752C49.9483 29.7753 50.233 29.8938 50.4428 30.1046ZM55.1923 28.5153C55.6292 28.9539 55.7199 30.6344 55.7199 30.6344C55.7199 30.6344 54.0464 30.5444 53.609 30.1046C53.5047 30.0003 53.4223 29.8763 53.3662 29.7399C53.3101 29.6035 53.2813 29.4574 53.2813 29.3098C53.2813 29.0117 53.3993 28.7258 53.609 28.515C53.8188 28.3042 54.1036 28.1859 54.4004 28.1859C54.6978 28.186 54.982 28.3045 55.1923 28.5153ZM59.9412 28.8328C60.378 29.2715 60.4688 30.9525 60.4688 30.9525C60.4688 30.9525 58.7953 30.8614 58.3579 30.4222C58.1476 30.2114 58.0301 29.9254 58.0301 29.6273C58.0301 29.3292 58.1481 29.0433 58.3579 28.8326C58.5677 28.6218 58.8524 28.5034 59.1493 28.5035C59.4466 28.5035 59.7309 28.622 59.9412 28.8328ZM55.1923 34.8738C55.6292 35.313 55.7199 36.9929 55.7199 36.9929C55.7199 36.9929 54.0464 36.9018 53.609 36.4626C53.5052 36.3582 53.4223 36.2343 53.3662 36.0979C53.3101 35.9616 53.2813 35.8154 53.2813 35.6678C53.2813 35.5203 53.3101 35.3741 53.3667 35.2378C53.4229 35.1014 53.5052 34.9776 53.6096 34.8732C53.7134 34.7689 53.8366 34.6862 53.9725 34.6297C54.1083 34.5733 54.2541 34.5443 54.4009 34.5444C54.5478 34.5444 54.6936 34.5735 54.8289 34.63C54.9647 34.6865 55.0885 34.7694 55.1923 34.8738ZM59.9412 39.6429C60.378 40.0821 60.4688 41.762 60.4688 41.762C60.4688 41.762 58.7953 41.6709 58.3579 41.2317C58.254 41.1274 58.1712 41.0034 58.1151 40.867C58.0589 40.7307 58.0301 40.5846 58.0301 40.4369C58.0301 40.2894 58.059 40.1432 58.1156 40.0069C58.1717 39.8706 58.254 39.7467 58.3584 39.6424C58.4622 39.538 58.5855 39.4553 58.7213 39.3989C58.8572 39.3425 59.003 39.3134 59.1498 39.3135C59.2966 39.3135 59.4424 39.3426 59.5777 39.3992C59.7136 39.4557 59.8373 39.5385 59.9412 39.6429ZM60.259 34.2381C60.6959 34.6768 60.7866 36.3573 60.7866 36.3573C60.7866 36.3573 59.1131 36.2662 58.6757 35.827C58.5719 35.7226 58.489 35.5987 58.4329 35.4623C58.3768 35.3259 58.3479 35.1797 58.3479 35.0322C58.3479 34.8846 58.3768 34.7385 58.4334 34.6021C58.4895 34.4658 58.5719 34.3419 58.6762 34.2376C58.7801 34.1333 58.9033 34.0505 59.0391 33.9941C59.175 33.9377 59.3208 33.9087 59.4676 33.9087C59.6145 33.9088 59.7602 33.9378 59.8956 33.9944C60.0314 34.0509 60.1552 34.1337 60.259 34.2381ZM47.2767 36.4631C47.7135 36.9023 49.3871 36.9934 49.3871 36.9934C49.3871 36.9934 49.2963 35.3135 48.8595 34.8743C48.7562 34.767 48.6327 34.6814 48.4962 34.6226C48.3597 34.5637 48.2129 34.5328 48.0643 34.5315C47.9158 34.5302 47.7685 34.5586 47.6309 34.6151C47.4935 34.6716 47.3685 34.755 47.2635 34.8605C47.1584 34.9659 47.0753 35.0914 47.019 35.2294C46.9627 35.3675 46.9343 35.5154 46.9356 35.6646C46.9368 35.8137 46.9676 35.9612 47.0262 36.0983C47.0847 36.2354 47.1699 36.3594 47.2767 36.4631ZM47.5935 41.2317C48.0303 41.6709 49.7038 41.762 49.7038 41.762C49.7038 41.762 49.6131 40.0821 49.1762 39.6429C49.073 39.5356 48.9495 39.4501 48.813 39.3912C48.6765 39.3323 48.5297 39.3014 48.3811 39.3001C48.2325 39.2988 48.0852 39.3272 47.9477 39.3837C47.8103 39.4402 47.6853 39.5236 47.5802 39.6291C47.4752 39.7345 47.3921 39.86 47.3358 39.9981C47.2795 40.1361 47.2511 40.284 47.2523 40.4332C47.2536 40.5824 47.2844 40.7298 47.3429 40.8669C47.4015 41.004 47.4867 41.128 47.5935 41.2317ZM52.976 41.5509C53.4129 41.9901 55.0864 42.0812 55.0864 42.0812C55.0864 42.0812 54.9962 40.4012 54.562 39.962C54.3522 39.7509 54.0674 39.632 53.77 39.6317C53.4732 39.6313 53.1879 39.7495 52.9776 39.9602C52.7673 40.1709 52.6488 40.4569 52.6488 40.7551C52.6483 41.0535 52.7663 41.3397 52.976 41.5509Z" fill="#DB5743"/>
<path d="M63.0906 36.8639C63.0906 36.8639 60.1815 39.0968 61.0558 41.7473C60.6483 41.0548 60.0981 40.458 59.4421 39.9966C58.7855 39.5353 58.0386 39.2202 57.2515 39.0726C57.2515 39.0726 56.0631 41.5509 58.0213 43.5168C56.0631 41.5509 53.595 42.7437 53.595 42.7437C53.7424 43.5345 54.056 44.2845 54.5154 44.9434C54.9748 45.6024 55.5696 46.1551 56.2592 46.5644C53.6192 45.686 51.3955 48.6077 51.3955 48.6077C54.4231 50.9175 56.6143 49.3976 56.6143 49.3976L63.8773 42.1038C63.8773 42.1038 65.3914 39.9046 63.0906 36.8639Z" fill="#79CCB8"/>
<path d="M76.5167 58.5451C75.5506 53.1209 76.1936 46.7745 73.2766 43.8459C69.1561 39.7077 63.7202 40.9621 59.5996 45.1025C55.4791 49.2428 54.2278 54.6987 58.3489 58.8385C61.2658 61.7676 67.5869 61.1219 72.9871 62.092C73.4707 62.1826 73.9689 62.1536 74.4388 62.0072C74.9082 61.8613 75.3356 61.6022 75.6833 61.2525C76.0305 60.9034 76.288 60.4742 76.4333 60.0023C76.5785 59.531 76.6074 59.0307 76.5167 58.5451Z" fill="#F87670"/>
<path d="M63.029 46.9567C63.4659 47.3959 63.5566 49.0759 63.5566 49.0759C63.5566 49.0759 61.8841 48.9848 61.4457 48.5456C61.2359 48.3348 61.1179 48.0489 61.1179 47.7508C61.1179 47.4527 61.2359 47.1669 61.4462 46.9562C61.656 46.7455 61.9408 46.6272 62.2376 46.6273C62.5344 46.6274 62.8192 46.7459 63.029 46.9567ZM67.7784 45.3674C68.2152 45.8061 68.306 47.4865 68.306 47.4865C68.306 47.4865 66.6325 47.3965 66.1951 46.9567C66.0907 46.8524 66.0084 46.7284 65.9523 46.5921C65.8961 46.4557 65.8673 46.3095 65.8673 46.1619C65.8673 45.8638 65.9853 45.5779 66.1951 45.3671C66.4048 45.1564 66.6896 45.038 66.9865 45.038C67.2838 45.0381 67.5681 45.1566 67.7784 45.3674ZM72.5272 45.6849C72.9641 46.1236 73.0548 47.8046 73.0548 47.8046C73.0548 47.8046 71.3813 47.7135 70.9439 47.2743C70.7336 47.0635 70.6161 46.7775 70.6161 46.4795C70.6161 46.1813 70.7341 45.8954 70.9439 45.6847C71.1537 45.4739 71.4385 45.3555 71.7353 45.3556C72.0327 45.3556 72.3169 45.4741 72.5272 45.6849ZM67.7784 51.7259C68.2152 52.1651 68.306 53.845 68.306 53.845C68.306 53.845 66.6325 53.7539 66.1951 53.3147C66.0912 53.2104 66.0084 53.0862 65.9523 52.9503C65.8961 52.8139 65.8673 52.6675 65.8673 52.5199C65.8673 52.3724 65.8961 52.2262 65.9528 52.0899C66.0089 51.9535 66.0912 51.8297 66.1956 51.7253C66.2994 51.621 66.4227 51.5383 66.5585 51.4818C66.6943 51.4254 66.8401 51.3964 66.987 51.3965C67.1338 51.3965 67.2796 51.4256 67.4149 51.4822C67.5508 51.5387 67.6745 51.6215 67.7784 51.7259ZM72.5272 56.495C72.9641 56.9342 73.0548 58.6142 73.0548 58.6142C73.0548 58.6142 71.3813 58.5231 70.9439 58.0838C70.8401 57.9796 70.7572 57.8553 70.7011 57.7194C70.645 57.583 70.6161 57.4366 70.6161 57.2892C70.6161 57.1417 70.645 56.9953 70.7016 56.8589C70.7577 56.7225 70.8401 56.5988 70.9444 56.4945C71.0483 56.3902 71.1715 56.3075 71.3074 56.2512C71.4432 56.1943 71.589 56.1653 71.7358 56.1653C71.8827 56.1659 72.0285 56.1948 72.1638 56.2512C72.2996 56.3081 72.4234 56.3907 72.5272 56.495ZM72.845 51.0902C73.2819 51.5289 73.3726 53.2094 73.3726 53.2094C73.3726 53.2094 71.6991 53.1183 71.2617 52.6791C71.1579 52.5747 71.075 52.4508 71.0189 52.3144C70.9628 52.178 70.9339 52.0318 70.9339 51.8843C70.9339 51.7367 70.9628 51.5906 71.0194 51.4542C71.0756 51.3179 71.1579 51.194 71.2623 51.0897C71.3661 50.9854 71.4893 50.9027 71.6252 50.8462C71.761 50.7898 71.9068 50.7608 72.0536 50.7608C72.2005 50.7609 72.3463 50.79 72.4816 50.8465C72.6174 50.903 72.7412 50.9859 72.845 51.0902ZM59.8629 53.3152C60.2998 53.7544 61.9733 53.8456 61.9733 53.8456C61.9733 53.8456 61.8826 52.1656 61.4457 51.7264C61.3424 51.6191 61.2186 51.5336 61.0823 51.4747C60.9459 51.4159 60.7991 51.3849 60.6506 51.3836C60.5017 51.3823 60.3543 51.4107 60.2169 51.4672C60.0795 51.5237 59.9547 51.6071 59.8493 51.7126C59.7444 51.818 59.6615 51.9435 59.6049 52.0816C59.5488 52.2196 59.5205 52.3675 59.5215 52.5167C59.5231 52.6659 59.5535 52.8134 59.6122 52.9503C59.671 53.0877 59.7559 53.2115 59.8629 53.3152ZM60.1797 58.0838C60.6166 58.5231 62.2901 58.6142 62.2901 58.6142C62.2901 58.6142 62.1993 56.9342 61.7625 56.495C61.6591 56.3876 61.5354 56.3023 61.399 56.2433C61.2627 56.1843 61.1158 56.1538 60.9674 56.1522C60.8185 56.1511 60.6711 56.1796 60.5337 56.2359C60.3963 56.2923 60.2715 56.3755 60.1661 56.4813C60.0612 56.5866 59.9783 56.712 59.9217 56.85C59.8655 56.9885 59.8372 57.1359 59.8383 57.2855C59.8398 57.4345 59.8703 57.582 59.929 57.7189C59.9877 57.8563 60.0727 57.9801 60.1797 58.0838ZM65.5621 58.403C65.9989 58.8422 67.6724 58.9333 67.6724 58.9333C67.6724 58.9333 67.5822 57.2534 67.148 56.8141C66.9382 56.603 66.6534 56.484 66.3561 56.484C66.0592 56.4834 65.7739 56.6014 65.5636 56.8126C65.3533 57.0232 65.2348 57.3092 65.2348 57.6072C65.2343 57.9053 65.3523 58.1918 65.5621 58.403Z" fill="#DB5743"/>
<path d="M78.824 33.7042C78.824 33.7042 75.9149 35.9371 76.7892 38.5876C76.3817 37.8951 75.8315 37.2982 75.1755 36.8369C74.5189 36.3756 73.772 36.0605 72.9849 35.9128C72.9849 35.9128 71.7965 38.3911 73.7547 40.357C71.7965 38.3911 69.3284 39.584 69.3284 39.584C69.4758 40.3747 69.7894 41.1248 70.2488 41.7837C70.7082 42.4426 71.303 42.9953 71.9926 43.4046C69.3526 42.5262 67.1289 45.448 67.1289 45.448C70.1565 47.7577 72.3477 46.2379 72.3477 46.2379L79.6107 38.9441C79.6107 38.9441 81.1248 36.7449 78.824 33.7042Z" fill="#79CCB8"/>
<path d="M92.2501 55.3854C91.284 49.9611 91.927 43.6148 89.01 40.6862C84.8895 36.548 79.4536 37.8024 75.3331 41.9427C71.2125 46.0831 69.9612 51.5389 74.0822 55.6787C76.9992 58.6078 83.3203 57.9622 88.7205 58.9322C89.2041 59.0228 89.7023 58.9939 90.1722 58.8475C90.6416 58.7016 91.069 58.4425 91.4167 58.0928C91.7639 57.7436 92.0214 57.3144 92.1667 56.8426C92.3119 56.3713 92.3408 55.871 92.2501 55.3854Z" fill="#F87670"/>
<path d="M78.7624 43.7969C79.1993 44.2362 79.29 45.9161 79.29 45.9161C79.29 45.9161 77.6175 45.825 77.1791 45.3858C76.9693 45.175 76.8513 44.8891 76.8513 44.591C76.8513 44.2929 76.9693 44.0071 77.1796 43.7964C77.3894 43.5857 77.6742 43.4674 77.971 43.4675C78.2678 43.4676 78.5526 43.5861 78.7624 43.7969ZM83.5118 42.2076C83.9486 42.6463 84.0394 44.3267 84.0394 44.3267C84.0394 44.3267 82.3659 44.2367 81.9285 43.7969C81.8241 43.6926 81.7418 43.5687 81.6857 43.4323C81.6295 43.2959 81.6007 43.1497 81.6007 43.0021C81.6007 42.704 81.7187 42.4181 81.9285 42.2073C82.1382 41.9966 82.423 41.8782 82.7199 41.8782C83.0172 41.8783 83.3015 41.9968 83.5118 42.2076ZM88.2606 42.5251C88.6975 42.9638 88.7882 44.6448 88.7882 44.6448C88.7882 44.6448 87.1147 44.5537 86.6773 44.1145C86.467 43.9037 86.3495 43.6177 86.3495 43.3197C86.3495 43.0215 86.4675 42.7356 86.6773 42.5249C86.8871 42.3141 87.1719 42.1957 87.4687 42.1958C87.7661 42.1958 88.0503 42.3143 88.2606 42.5251ZM83.5118 48.5661C83.9486 49.0053 84.0394 50.6852 84.0394 50.6852C84.0394 50.6852 82.3659 50.5941 81.9285 50.1549C81.8246 50.0505 81.7418 49.9266 81.6857 49.7902C81.6295 49.6539 81.6007 49.5077 81.6007 49.3601C81.6007 49.2126 81.6295 49.0664 81.6862 48.9301C81.7423 48.7937 81.8246 48.6699 81.929 48.5656C82.0328 48.4612 82.1561 48.3785 82.2919 48.322C82.4277 48.2656 82.5735 48.2366 82.7204 48.2367C82.8672 48.2367 83.013 48.2658 83.1483 48.3224C83.2842 48.3789 83.4079 48.4617 83.5118 48.5661ZM88.2606 53.3352C88.6975 53.7744 88.7882 55.4544 88.7882 55.4544C88.7882 55.4544 87.1147 55.3633 86.6773 54.9241C86.5735 54.8198 86.4906 54.6955 86.4345 54.5596C86.3784 54.4232 86.3495 54.2768 86.3495 54.1294C86.3495 53.9819 86.3784 53.8355 86.435 53.6991C86.4911 53.5627 86.5735 53.439 86.6778 53.3347C86.7817 53.2304 86.9049 53.1477 87.0408 53.0914C87.1766 53.0345 87.3224 53.0056 87.4692 53.0056C87.6161 53.0061 87.7619 53.035 87.8972 53.0914C88.033 53.1483 88.1568 53.2309 88.2606 53.3352ZM88.5784 47.9304C89.0153 48.3691 89.106 50.0496 89.106 50.0496C89.106 50.0496 87.4325 49.9585 86.9951 49.5193C86.8913 49.4149 86.8084 49.291 86.7523 49.1546C86.6962 49.0182 86.6673 48.8721 86.6673 48.7245C86.6673 48.5769 86.6962 48.4308 86.7528 48.2945C86.809 48.1581 86.8913 48.0342 86.9957 47.9299C87.0995 47.8256 87.2227 47.7429 87.3586 47.6864C87.4944 47.63 87.6402 47.601 87.787 47.601C87.9339 47.6011 88.0797 47.6302 88.215 47.6867C88.3508 47.7432 88.4746 47.8261 88.5784 47.9304ZM75.5963 50.1554C76.0332 50.5947 77.7067 50.6858 77.7067 50.6858C77.7067 50.6858 77.616 49.0058 77.1791 48.5666C77.0758 48.4593 76.952 48.3738 76.8157 48.3149C76.6793 48.2561 76.5325 48.2251 76.384 48.2238C76.2351 48.2225 76.0877 48.2509 75.9503 48.3075C75.8129 48.3639 75.6881 48.4473 75.5827 48.5528C75.4778 48.6582 75.3949 48.7837 75.3383 48.9218C75.2822 49.0598 75.2539 49.2077 75.2549 49.3569C75.2565 49.5061 75.2869 49.6535 75.3456 49.7906C75.4044 49.9277 75.4893 50.0518 75.5963 50.1554ZM75.9131 54.9241C76.35 55.3633 78.0235 55.4544 78.0235 55.4544C78.0235 55.4544 77.9327 53.7744 77.4959 53.3352C77.3926 53.2278 77.2688 53.1425 77.1324 53.0835C76.9961 53.0245 76.8492 52.994 76.7008 52.9924C76.5519 52.9913 76.4045 53.0198 76.2671 53.0761C76.1297 53.1325 76.0049 53.2157 75.8995 53.3215C75.7946 53.4269 75.7117 53.5522 75.6551 53.6902C75.5989 53.8287 75.5706 53.9761 75.5717 54.1257C75.5733 54.2747 75.6037 54.4222 75.6624 54.5591C75.7211 54.6966 75.8061 54.8203 75.9131 54.9241ZM81.2955 55.2432C81.7323 55.6824 83.4058 55.7735 83.4058 55.7735C83.4058 55.7735 83.3156 54.0936 82.8814 53.6544C82.6716 53.4432 82.3868 53.3242 82.0895 53.3242C81.7926 53.3236 81.5073 53.4416 81.297 53.6528C81.0867 53.8634 80.9682 54.1494 80.9682 54.4475C80.9677 54.7455 81.0857 55.032 81.2955 55.2432Z" fill="#DB5743"/>
<path d="M54.878 82.3945C54.878 82.3945 57.0098 79.4054 55.4024 77.1272C55.9934 77.6696 56.6936 78.0788 57.4551 78.3273C58.2171 78.5759 59.0232 78.6581 59.8187 78.568C59.8187 78.568 60.2341 75.849 57.7886 74.5441C60.2341 75.849 62.2469 73.9843 62.2469 73.9843C61.8756 73.2712 61.3575 72.6461 60.726 72.1505C60.0946 71.6555 59.3651 71.3016 58.5868 71.1126C61.3669 71.1773 62.6429 67.7306 62.6429 67.7306C59.0751 66.4103 57.422 68.5073 57.422 68.5073L52.6003 77.6148C52.6003 77.6148 51.7925 80.1621 54.878 82.3945Z" fill="#79CCB8"/>
<path d="M35.7266 65.6025C38.2297 70.5059 39.4627 76.7638 43.1048 78.7081C48.2503 81.4561 53.0834 78.6602 55.8184 73.4914C58.5534 68.322 58.1616 62.7371 53.0152 59.9881C49.3728 58.0433 43.5158 60.5168 38.0692 61.1746C37.5805 61.2299 37.1126 61.4037 36.706 61.6817C36.2993 61.9593 35.9662 62.3321 35.7355 62.7682C35.5048 63.2048 35.3834 63.6903 35.3819 64.1843C35.3803 64.6783 35.4986 65.1649 35.7266 65.6025Z" fill="#F87670"/>
<path d="M51.9985 72.7246C51.4529 72.4329 50.877 70.853 50.877 70.853C50.877 70.853 52.5031 70.4491 53.0501 70.7408C53.3118 70.8804 53.5079 71.1194 53.5945 71.4044C53.6815 71.6898 53.6516 71.9973 53.5121 72.2606C53.3726 72.524 53.1351 72.7204 52.8513 72.8078C52.5671 72.8947 52.2606 72.8647 51.9985 72.7246ZM47.9194 75.639C47.3739 75.3477 46.7979 73.7673 46.7979 73.7673C46.7979 73.7673 48.4245 73.3624 48.9708 73.6541C49.1006 73.7236 49.2155 73.8179 49.3089 73.9322C49.4024 74.0459 49.4727 74.177 49.5156 74.3182C49.6024 74.6036 49.5728 74.9112 49.4334 75.1745C49.2939 75.4378 49.0561 75.6347 48.7722 75.7216C48.4883 75.8091 48.1815 75.779 47.9194 75.639ZM43.2856 76.7296C42.7401 76.4384 42.1639 74.8574 42.1639 74.8574C42.1639 74.8574 43.7908 74.4535 44.337 74.7447C44.599 74.8848 44.795 75.1239 44.8818 75.4088C44.9686 75.6937 44.939 76.0018 44.7995 76.2651C44.6601 76.5284 44.4223 76.7249 44.1384 76.8123C43.8544 76.8992 43.5477 76.8697 43.2856 76.7296ZM46.0681 69.5585C45.5224 69.2668 44.9465 67.6869 44.9465 67.6869C44.9465 67.6869 46.5734 67.2824 47.1196 67.5742C47.2493 67.6437 47.3642 67.738 47.4576 67.8517C47.5511 67.9655 47.6213 68.0971 47.6642 68.2383C47.7072 68.3794 47.722 68.5274 47.7078 68.6743C47.6937 68.8212 47.6509 68.964 47.5818 69.094C47.5128 69.2246 47.4189 69.34 47.3054 69.4337C47.192 69.5274 47.0613 69.598 46.9207 69.6412C46.7801 69.6844 46.6325 69.6991 46.4862 69.6849C46.3399 69.6707 46.1978 69.628 46.0681 69.5585ZM40.1382 66.3919C39.5925 66.1002 39.0166 64.5203 39.0166 64.5203C39.0166 64.5203 40.6435 64.1158 41.1896 64.4076C41.3194 64.4771 41.4343 64.5714 41.5277 64.6851C41.6212 64.7989 41.6914 64.9305 41.7343 65.0717C41.7772 65.2128 41.7921 65.3608 41.7779 65.5077C41.7638 65.6546 41.721 65.7974 41.6519 65.928C41.5829 66.058 41.4889 66.1734 41.3755 66.2671C41.2621 66.3608 41.1313 66.4314 40.9908 66.4746C40.8502 66.5178 40.7026 66.5325 40.5563 66.5183C40.41 66.5041 40.2679 66.4614 40.1382 66.3919ZM41.4079 71.654C40.8624 71.3627 40.2863 69.7823 40.2863 69.7823C40.2863 69.7823 41.9132 69.3779 42.4594 69.6696C42.5891 69.7392 42.704 69.8334 42.7975 69.9472C42.8909 70.0609 42.9611 70.1926 43.004 70.3337C43.047 70.4749 43.0617 70.6228 43.0476 70.7698C43.0335 70.9167 42.9907 71.0594 42.9217 71.1895C42.8526 71.3201 42.7587 71.4354 42.6452 71.5292C42.5318 71.6229 42.401 71.6935 42.2605 71.7367C42.1199 71.7798 41.9723 71.7946 41.826 71.7804C41.6797 71.7661 41.5376 71.723 41.4079 71.654ZM53.1749 65.7147C52.629 65.4229 51.0023 65.8268 51.0023 65.8268C51.0023 65.8268 51.5783 67.4067 52.1239 67.699C52.2538 67.7712 52.3969 67.8164 52.5445 67.8328C52.6924 67.8491 52.8414 67.8354 52.984 67.7933C53.1267 67.7506 53.2594 67.6806 53.3742 67.5858C53.4891 67.4915 53.5845 67.3751 53.6543 67.2435C53.724 67.1118 53.767 66.9675 53.7807 66.819C53.7943 66.6705 53.778 66.5204 53.7335 66.3782C53.6889 66.236 53.6165 66.1038 53.5205 65.9901C53.4246 65.8758 53.3071 65.7826 53.1749 65.7147ZM51.4835 61.2473C50.9379 60.9555 49.311 61.36 49.311 61.36C49.311 61.36 49.8869 62.9399 50.4326 63.2316C50.5625 63.3038 50.7055 63.3496 50.8532 63.3654C51.0008 63.3817 51.1503 63.368 51.2927 63.3259C51.4352 63.2838 51.5678 63.2132 51.6828 63.1189C51.7979 63.0241 51.8931 62.9077 51.9628 62.7761C52.0326 62.6444 52.0755 62.5001 52.0892 62.3516C52.1028 62.2031 52.0869 62.053 52.0423 61.9108C51.9976 61.7687 51.9253 61.6365 51.8294 61.5227C51.7334 61.409 51.6159 61.3152 51.4835 61.2473ZM46.2434 62.5223C45.6978 62.2305 44.0709 62.635 44.0709 62.635C44.0709 62.635 44.6462 64.2148 45.1894 64.5076C45.4515 64.6477 45.7585 64.6777 46.0427 64.5908C46.3269 64.504 46.565 64.3075 46.7048 64.0442C46.8446 63.7809 46.8745 63.4728 46.788 63.1874C46.7014 62.902 46.5056 62.6629 46.2434 62.5223Z" fill="#DB5743"/>
<path d="M21.2892 38.0997C21.2892 38.0997 18.6505 40.6489 19.8179 43.1831C19.335 42.5414 18.721 42.0108 18.017 41.6271C17.313 41.2433 16.5355 41.0151 15.7366 40.9579C15.7366 40.9579 14.8352 43.5554 17.0025 45.2861C14.8352 43.5554 12.5175 45.0211 12.5175 45.0211C12.7528 45.7901 13.1492 46.4996 13.68 47.1021C14.2109 47.7046 14.8639 48.1861 15.5953 48.5144C12.8731 47.9417 10.9932 51.0974 10.9932 51.0974C14.2617 53.0482 16.2674 51.2891 16.2674 51.2891L22.6615 43.2165C22.6615 43.2165 23.9179 40.8594 21.2892 38.0997Z" fill="#79CCB8"/>
<path d="M37.0728 58.1154C35.5015 52.836 35.4249 46.4571 32.1965 43.879C27.636 40.2357 22.3764 42.1 18.7491 46.6822C15.1218 51.2643 14.4936 56.8273 19.0549 60.4721C22.2833 63.051 28.491 61.6907 33.9659 62.0409C34.4564 62.0756 34.948 61.9903 35.3983 61.7918C35.8485 61.5927 36.2437 61.2868 36.5497 60.9002C36.8557 60.5137 37.0633 60.0581 37.1544 59.5731C37.2456 59.0876 37.2176 58.5873 37.0728 58.1154Z" fill="#F87670"/>
<path d="M22.3661 48.1347C22.8497 48.5214 23.1293 50.1802 23.1293 50.1802C23.1293 50.1802 21.4573 50.2798 20.9722 49.8932C20.7399 49.7076 20.5906 49.437 20.5571 49.1408C20.5236 48.8446 20.6086 48.5472 20.7935 48.314C20.9784 48.0808 21.2479 47.9309 21.5428 47.8972C21.8378 47.8636 22.1339 47.949 22.3661 48.1347ZM26.9058 46.0156C27.3893 46.4018 27.6689 48.0611 27.6689 48.0611C27.6689 48.0611 25.996 48.1619 25.5119 47.7747C25.3969 47.6828 25.301 47.5691 25.2297 47.4399C25.1585 47.3109 25.1132 47.1689 25.0967 47.0222C25.0631 46.726 25.1481 46.4285 25.3329 46.1953C25.5178 45.962 25.7874 45.812 26.0823 45.7783C26.3773 45.7447 26.6735 45.83 26.9058 46.0156ZM31.6599 45.7913C32.1435 46.1775 32.4231 47.8374 32.4231 47.8374C32.4231 47.8374 30.7501 47.9371 30.266 47.5504C30.0337 47.3648 29.8843 47.0941 29.8507 46.7979C29.8172 46.5017 29.9022 46.2042 30.0871 45.971C30.2719 45.7377 30.5414 45.5877 30.8364 45.554C31.1314 45.5203 31.4276 45.6057 31.6599 45.7913ZM27.6226 52.3332C28.1062 52.7201 28.3857 54.379 28.3857 54.379C28.3857 54.379 26.7127 54.4785 26.2286 54.092C26.1136 53.9998 26.0178 53.8861 25.9466 53.757C25.8754 53.628 25.8302 53.4858 25.8136 53.3394C25.797 53.1925 25.8093 53.0445 25.8499 52.9023C25.8905 52.7607 25.9584 52.6281 26.05 52.5126C26.1415 52.3972 26.2548 52.3009 26.3834 52.2294C26.5119 52.1579 26.6533 52.1125 26.7993 52.0958C26.9453 52.0792 27.0932 52.0916 27.2345 52.1323C27.3757 52.173 27.5076 52.2413 27.6226 52.3332ZM32.8786 56.5318C33.3622 56.9184 33.6417 58.5773 33.6417 58.5773C33.6417 58.5773 31.9687 58.6773 31.4846 58.2902C31.3696 58.1986 31.2738 58.0849 31.2026 57.9558C31.1313 57.8268 31.0861 57.6846 31.0696 57.5382C31.053 57.3913 31.0653 57.2428 31.1059 57.1011C31.1464 56.9595 31.2144 56.8267 31.3059 56.7114C31.3975 56.5956 31.5108 56.4997 31.6393 56.4281C31.7679 56.3565 31.9092 56.3112 32.0553 56.2943C32.2013 56.278 32.3491 56.2901 32.4904 56.3312C32.6317 56.3717 32.7636 56.4402 32.8786 56.5318ZM32.585 51.1257C33.0686 51.5119 33.3482 53.1714 33.3482 53.1714C33.3482 53.1714 31.6751 53.271 31.1911 52.8844C31.0761 52.7922 30.9802 52.6785 30.909 52.5495C30.8378 52.4205 30.7926 52.2785 30.776 52.1319C30.7595 51.9852 30.7718 51.8367 30.8123 51.6949C30.8529 51.553 30.9209 51.4206 31.0124 51.3051C31.104 51.1897 31.2172 51.0934 31.3458 51.0219C31.4744 50.9504 31.6157 50.905 31.7617 50.8883C31.9078 50.8717 32.0556 50.8841 32.1969 50.9248C32.3382 50.9655 32.4701 51.0338 32.585 51.1257ZM19.9372 54.8124C20.4208 55.1989 22.0939 55.0994 22.0939 55.0994C22.0939 55.0994 21.8143 53.4405 21.3307 53.0535C21.2161 52.9587 21.0837 52.8876 20.9415 52.8449C20.7992 52.8017 20.6498 52.788 20.5021 52.8033C20.3543 52.8191 20.2111 52.8639 20.0809 52.9355C19.9507 53.0076 19.8359 53.1045 19.7434 53.2214C19.6509 53.3378 19.5825 53.4721 19.5421 53.6159C19.5017 53.7591 19.4902 53.9092 19.5083 54.0577C19.5263 54.2057 19.5736 54.3484 19.6472 54.478C19.7208 54.6075 19.8194 54.7213 19.9372 54.8124ZM20.7896 59.5141C21.2731 59.9007 22.9461 59.8011 22.9461 59.8011C22.9461 59.8011 22.6666 58.1423 22.1831 57.7557C22.0684 57.6609 21.936 57.5898 21.7938 57.5466C21.6515 57.504 21.5021 57.4898 21.3544 57.5056C21.2066 57.5208 21.0635 57.5661 20.9332 57.6377C20.803 57.7094 20.6882 57.8063 20.5957 57.9232C20.5033 58.0401 20.4348 58.1739 20.3944 58.3176C20.3541 58.4614 20.3426 58.6115 20.3606 58.7595C20.3787 58.9074 20.4259 59.0507 20.4995 59.1802C20.5732 59.3098 20.6718 59.423 20.7896 59.5141ZM26.1733 59.2192C26.6569 59.6063 28.3299 59.5062 28.3299 59.5062C28.3299 59.5062 28.0509 57.8473 27.5699 57.4603C27.3377 57.2744 27.0413 57.1885 26.7461 57.2222C26.4509 57.2554 26.181 57.4055 25.9958 57.6388C25.8106 57.8721 25.7253 58.1696 25.7586 58.4661C25.7919 58.7626 25.941 59.0333 26.1733 59.2192Z" fill="#DB5743"/>
<path d="M25.0156 35.2826C25.0156 35.2826 26.2013 38.7614 28.9818 38.7699C28.1986 38.9382 27.4603 39.2728 26.8164 39.7513C26.1725 40.2298 25.638 40.841 25.2487 41.5439C25.2487 41.5439 27.2121 43.4619 29.6901 42.2209C27.2121 43.4619 27.5555 46.1907 27.5555 46.1907C28.3489 46.3015 29.1568 46.2406 29.925 46.0121C30.6931 45.7836 31.4037 45.3929 32.0091 44.866C30.3418 47.1013 32.3955 50.1459 32.3955 50.1459C35.5375 47.9957 34.7974 45.4269 34.7974 45.4269L30.2138 36.1962C30.2138 36.1962 28.6174 34.0565 25.0156 35.2826Z" fill="#79CCB8"/>
<path d="M49.7515 29.3771C44.3223 28.5759 38.5329 25.9499 34.8416 27.7983C29.626 30.4091 29.0858 35.9836 31.6884 41.2213C34.2911 46.4589 39.0465 49.3817 44.2638 46.7709C47.9556 44.9225 49.3515 38.6983 51.9811 33.8636C52.2201 33.432 52.3508 32.9484 52.3617 32.4547C52.3726 31.961 52.2636 31.472 52.044 31.0302C51.8244 30.5883 51.5009 30.2069 51.1014 29.9189C50.702 29.6308 50.2386 29.4448 49.7515 29.3771Z" fill="#F87670"/>
<path d="M34.5274 38.5437C35.0808 38.2671 36.6961 38.7137 36.6961 38.7137C36.6961 38.7137 36.0794 40.2774 35.5254 40.5556C35.2598 40.6885 34.9524 40.71 34.671 40.6153C34.3895 40.5206 34.157 40.3176 34.0246 40.0508C33.8923 39.784 33.8709 39.4753 33.9652 39.1927C34.0595 38.9101 34.2617 38.6767 34.5274 38.5437ZM34.5334 33.5168C35.0863 33.2399 36.7021 33.6868 36.7021 33.6868C36.7021 33.6868 36.086 35.2518 35.532 35.5288C35.4004 35.5946 35.2572 35.6338 35.1106 35.6441C34.9639 35.6543 34.8167 35.6355 34.6773 35.5887C34.3958 35.494 34.1633 35.291 34.0308 35.0241C33.8984 34.7573 33.877 34.4486 33.9712 34.1659C34.0654 33.8832 34.2677 33.6497 34.5334 33.5168ZM36.3401 29.0953C36.893 28.8185 38.5093 29.2655 38.5093 29.2655C38.5093 29.2655 37.8923 30.8302 37.3387 31.1073C37.073 31.2403 36.7655 31.2618 36.4841 31.1672C36.2026 31.0726 35.97 30.8695 35.8375 30.6027C35.7051 30.3359 35.6837 30.0272 35.778 29.7445C35.8722 29.4618 36.0744 29.2283 36.3401 29.0953ZM40.5383 35.5343C41.0917 35.2577 42.707 35.7043 42.707 35.7043C42.707 35.7043 42.09 37.269 41.5364 37.5462C41.4048 37.612 41.2617 37.6512 41.1151 37.6614C40.9684 37.6716 40.8212 37.6528 40.6819 37.6059C40.5425 37.559 40.4137 37.4851 40.3028 37.3882C40.1919 37.2913 40.1011 37.1735 40.0356 37.0414C39.9701 36.9093 39.9311 36.7655 39.9209 36.6183C39.9106 36.471 39.9294 36.3233 39.9761 36.1833C40.0228 36.0434 40.0964 35.914 40.1929 35.8027C40.2894 35.6913 40.4068 35.6002 40.5383 35.5343ZM46.5491 32.5254C47.1025 32.2487 48.7178 32.6954 48.7178 32.6954C48.7178 32.6954 48.1007 34.2601 47.5472 34.5373C47.4156 34.6031 47.2724 34.6422 47.1258 34.6525C46.9792 34.6627 46.832 34.6438 46.6927 34.597C46.5533 34.5501 46.4245 34.4761 46.3136 34.3793C46.2027 34.2824 46.1119 34.1646 46.0464 34.0325C45.9808 33.9004 45.9419 33.7566 45.9316 33.6094C45.9215 33.4621 45.9402 33.3143 45.9869 33.1744C46.0336 33.0344 46.1073 32.9051 46.2037 32.7938C46.3002 32.6824 46.4175 32.5912 46.5491 32.5254ZM41.5457 30.5078C42.0986 30.231 43.7144 30.6778 43.7144 30.6778C43.7144 30.6778 43.0974 32.2425 42.5438 32.5197C42.4122 32.5855 42.2691 32.6247 42.1224 32.6349C41.9758 32.6451 41.8286 32.6263 41.6892 32.5794C41.5499 32.5325 41.4211 32.4586 41.3102 32.3617C41.1993 32.2648 41.1085 32.147 41.043 32.0149C40.9774 31.8827 40.9384 31.739 40.9283 31.5918C40.918 31.4445 40.9368 31.2967 40.9835 31.1568C41.0302 31.0169 41.1039 30.8875 41.2003 30.7761C41.2968 30.6648 41.4141 30.5736 41.5457 30.5078ZM39.5277 43.5763C40.0811 43.2997 40.6981 41.7349 40.6981 41.7349C40.6981 41.7349 39.0828 41.2882 38.5294 41.5649C38.3954 41.6292 38.2754 41.7196 38.1765 41.8309C38.0775 41.9423 38.0017 42.0722 37.9534 42.2133C37.905 42.3544 37.8851 42.5037 37.8948 42.6525C37.9045 42.8014 37.9437 42.9468 38.0099 43.0804C38.0762 43.2139 38.1683 43.3328 38.2808 43.4302C38.3933 43.5276 38.524 43.6016 38.6653 43.6478C38.8066 43.6939 38.9556 43.7114 39.1036 43.6991C39.2517 43.6868 39.3958 43.6451 39.5277 43.5763ZM44.1316 44.7877C44.685 44.5111 45.3021 42.9464 45.3021 42.9464C45.3021 42.9464 43.6868 42.4997 43.1333 42.7763C42.9993 42.8406 42.8793 42.9311 42.7804 43.0424C42.6815 43.1537 42.6057 43.2837 42.5574 43.4248C42.509 43.5658 42.4891 43.7151 42.4988 43.864C42.5085 44.0129 42.5476 44.1583 42.6139 44.2918C42.6802 44.4253 42.7722 44.5443 42.8848 44.6417C42.9973 44.7391 43.128 44.813 43.2692 44.8592C43.4105 44.9053 43.5596 44.9228 43.7076 44.9106C43.8557 44.8983 43.9998 44.8565 44.1316 44.7877ZM46.1409 39.7635C46.6943 39.4869 47.3113 37.9222 47.3113 37.9222C47.3113 37.9222 45.6962 37.475 45.1436 37.7492C44.8776 37.8819 44.675 38.1154 44.5804 38.3982C44.4858 38.681 44.507 38.9899 44.6392 39.257C44.7715 39.5242 45.004 39.7276 45.2856 39.8226C45.5672 39.9175 45.8749 39.8963 46.1409 39.7635Z" fill="#DB5743"/>
<path d="M78.4707 69.0666C78.4707 69.0666 79.5652 72.5756 82.3448 72.6572C81.5571 72.8046 80.8103 73.1201 80.1542 73.5814C79.4981 74.0427 78.9479 74.6394 78.5405 75.3319C78.5405 75.3319 80.4531 77.301 82.9626 76.1256C80.4531 77.301 80.7253 80.0379 80.7253 80.0379C81.5156 80.1695 82.3248 80.13 83.0989 79.9215C83.8725 79.7135 84.5931 79.3417 85.2119 78.8308C83.487 81.0216 85.4605 84.1187 85.4605 84.1187C88.6575 82.0522 87.9847 79.4649 87.9847 79.4649L83.6433 70.1167C83.6433 70.1167 82.103 67.936 78.4707 69.0666Z" fill="#79CCB8"/>
<path d="M103.353 63.8136C97.9461 62.8698 92.2276 60.0924 88.4893 61.8434C83.2071 64.316 82.5222 69.8745 84.9871 75.1787C87.4525 80.4829 92.13 83.53 97.4133 81.0569C101.152 79.3064 102.71 73.1206 105.465 68.3568C105.715 67.9318 105.858 67.452 105.882 66.9586C105.906 66.4651 105.81 65.9738 105.601 65.5262C105.393 65.0785 105.08 64.6888 104.688 64.3902C104.296 64.0921 103.838 63.8941 103.353 63.8136Z" fill="#F87670"/>
<path d="M87.8946 72.5766C88.4547 72.3149 90.058 72.8036 90.058 72.8036C90.058 72.8036 89.4008 74.3508 88.8397 74.6141C88.5706 74.74 88.2628 74.7537 87.9838 74.6515C87.7053 74.5493 87.4782 74.3403 87.3529 74.0701C87.2275 73.8 87.2139 73.4908 87.3157 73.2107C87.4174 72.9305 87.6256 72.7025 87.8946 72.5766ZM88.0315 67.5515C88.5916 67.2893 90.1948 67.7785 90.1948 67.7785C90.1948 67.7785 89.5382 69.3268 88.9771 69.589C88.8439 69.6517 88.7002 69.687 88.5533 69.6933C88.406 69.6996 88.2597 69.677 88.1212 69.6264C87.8427 69.5248 87.6151 69.3157 87.4898 69.045C87.3644 68.7749 87.3513 68.4657 87.4525 68.1856C87.5543 67.9059 87.7625 67.6774 88.0315 67.5515ZM89.9531 63.1795C90.5127 62.9172 92.1169 63.4064 92.1169 63.4064C92.1169 63.4064 91.4593 64.9542 90.8987 65.217C90.6296 65.3428 90.3218 65.356 90.0428 65.2544C89.7638 65.1522 89.5367 64.9431 89.4113 64.673C89.286 64.4028 89.2724 64.0937 89.3741 63.8135C89.4758 63.5334 89.684 63.3053 89.9531 63.1795ZM93.9819 69.7265C94.5425 69.4642 96.1452 69.9535 96.1452 69.9535C96.1452 69.9535 95.4875 71.5012 94.9269 71.764C94.7937 71.8262 94.65 71.8614 94.5032 71.8678C94.3563 71.8741 94.2095 71.8514 94.0715 71.8009C93.9331 71.7503 93.8062 71.6729 93.6981 71.5734C93.5896 71.4738 93.502 71.3532 93.4401 71.2195C93.3777 71.0857 93.3426 70.9414 93.3363 70.794C93.33 70.6465 93.3525 70.4991 93.4029 70.3606C93.4532 70.2215 93.5303 70.0941 93.6294 69.9856C93.7291 69.8766 93.8487 69.7886 93.9819 69.7265ZM100.069 66.8764C100.629 66.6147 102.232 67.1034 102.232 67.1034C102.232 67.1034 101.575 68.6516 101.014 68.9139C100.881 68.976 100.737 69.0113 100.59 69.0182C100.443 69.0245 100.297 69.0019 100.158 68.9513C100.02 68.9007 99.8934 68.8233 99.7854 68.7233C99.6768 68.6237 99.5892 68.5037 99.5273 68.3699C99.4649 68.2361 99.4298 68.0913 99.4235 67.9439C99.4172 67.7964 99.4398 67.649 99.4901 67.5104C99.5404 67.3719 99.6175 67.2445 99.7167 67.1355C99.8158 67.027 99.9359 66.9391 100.069 66.8764ZM95.1199 64.7283C95.68 64.466 97.2832 64.9553 97.2832 64.9553C97.2832 64.9553 96.6256 66.503 96.065 66.7653C95.9318 66.8279 95.7881 66.8632 95.6412 66.8695C95.4944 66.8759 95.3475 66.8532 95.2096 66.8027C95.0711 66.7521 94.9442 66.6747 94.8362 66.5752C94.7276 66.4751 94.64 66.355 94.5782 66.2213C94.5157 66.0875 94.4806 65.9427 94.4743 65.7952C94.468 65.6478 94.4906 65.5008 94.5409 65.3618C94.5913 65.2233 94.6684 65.0959 94.7675 64.9874C94.8671 64.8784 94.9867 64.7904 95.1199 64.7283ZM92.762 77.7391C93.3221 77.4769 93.9798 75.9291 93.9798 75.9291C93.9798 75.9291 92.3771 75.4399 91.8164 75.7021C91.6806 75.7627 91.5584 75.8501 91.4567 75.9586C91.3549 76.0676 91.2757 76.1956 91.2238 76.3351C91.1719 76.4747 91.1478 76.6237 91.1535 76.7728C91.1593 76.9218 91.195 77.0682 91.2574 77.2036C91.3203 77.3384 91.4095 77.46 91.5191 77.5601C91.6292 77.6607 91.7577 77.7381 91.8977 77.7876C92.0378 77.8376 92.1867 77.8592 92.3346 77.8508C92.483 77.8423 92.6283 77.8044 92.762 77.7391ZM97.3325 79.071C97.8932 78.8092 98.5508 77.261 98.5508 77.261C98.5508 77.261 96.9476 76.7722 96.387 77.034C96.2517 77.0951 96.1295 77.182 96.0272 77.291C95.9255 77.3995 95.8463 77.5274 95.7943 77.667C95.7424 77.8071 95.7188 77.9556 95.7246 78.1046C95.7304 78.2536 95.7655 78.4 95.8284 78.5354C95.8914 78.6707 95.98 78.7919 96.0901 78.8924C96.1997 78.9925 96.3288 79.0699 96.4688 79.1199C96.6088 79.1694 96.7572 79.191 96.9056 79.1826C97.0541 79.1742 97.1993 79.1363 97.3325 79.071ZM99.4723 74.1012C100.032 73.8395 100.69 72.2912 100.69 72.2912C100.69 72.2912 99.0873 71.8019 98.5278 72.0616C98.2582 72.1874 98.05 72.4155 97.9477 72.6956C97.846 72.9758 97.8591 73.2849 97.9844 73.5556C98.1098 73.8263 98.3369 74.0354 98.6159 74.1381C98.8949 74.2402 99.2027 74.2271 99.4723 74.1012Z" fill="#DB5743"/>
<path d="M96.856 50.4881C96.856 50.4881 99.8411 48.3585 99.0597 45.679C99.4426 46.3853 99.9717 47.0011 100.612 47.4851C101.251 47.9692 101.987 48.3102 102.769 48.4854C102.769 48.4854 104.042 46.0502 102.153 44.0169C104.042 46.0502 106.55 44.9446 106.55 44.9446C106.431 44.1492 106.143 43.3887 105.707 42.714C105.271 42.0393 104.695 41.4662 104.02 41.0329C106.629 42.0033 108.952 39.1613 108.952 39.1613C106.007 36.7468 103.764 38.189 103.764 38.189L96.2519 45.2238C96.2519 45.2238 94.6623 47.3686 96.856 50.4881Z" fill="#79CCB8"/>
<path d="M84.1913 28.3495C84.9685 33.8043 84.1053 40.1243 86.9184 43.1533C90.8926 47.4335 96.3689 46.3703 100.631 42.3769C104.893 38.3835 106.333 32.9747 102.359 28.6931C99.5449 25.6635 93.2054 26.0872 87.8419 24.9285C87.3621 24.821 86.8633 24.8326 86.3887 24.9623C85.9141 25.092 85.4783 25.3358 85.1185 25.6727C84.7593 26.0097 84.4871 26.4295 84.325 26.8959C84.1635 27.3623 84.1179 27.8612 84.1913 28.3495Z" fill="#F87670"/>
<path d="M97.2686 40.4036C96.8475 39.9493 96.815 38.2672 96.815 38.2672C96.815 38.2672 98.4833 38.4169 98.9065 38.8712C99.1084 39.0892 99.2164 39.3791 99.2059 39.677C99.1954 39.9748 99.0675 40.2563 98.8504 40.4595C98.6332 40.6628 98.3448 40.771 98.048 40.7605C97.7517 40.75 97.4711 40.6216 97.2686 40.4036ZM92.4668 41.8255C92.0457 41.3718 92.0132 39.6891 92.0132 39.6891C92.0132 39.6891 93.6825 39.8378 94.1047 40.2926C94.2048 40.4006 94.283 40.5273 94.3344 40.6656C94.3858 40.8039 94.4094 40.9509 94.4047 41.0984C94.3942 41.3964 94.2662 41.6779 94.0491 41.8812C93.832 42.0845 93.543 42.1928 93.2467 42.1824C92.9498 42.1719 92.6693 42.0436 92.4668 41.8255ZM87.7321 41.3417C87.3105 40.888 87.2785 39.2049 87.2785 39.2049C87.2785 39.2049 88.9478 39.3545 89.3695 39.8088C89.5719 40.0269 89.6799 40.3168 89.6694 40.6147C89.659 40.9126 89.5315 41.1942 89.3139 41.3975C89.0967 41.6007 88.8083 41.7091 88.5115 41.6986C88.2152 41.6882 87.9346 41.5598 87.7321 41.3417ZM92.6881 35.4709C92.2665 35.0166 92.2345 33.3345 92.2345 33.3345C92.2345 33.3345 93.9038 33.4842 94.3255 33.9385C94.4256 34.0465 94.5038 34.1732 94.5552 34.3114C94.6066 34.4497 94.6302 34.5968 94.6254 34.7443C94.6202 34.8918 94.5861 35.0368 94.5253 35.1711C94.4639 35.3053 94.3774 35.4262 94.2699 35.5269C94.1624 35.6275 94.036 35.7058 93.8986 35.7575C93.7606 35.8091 93.6143 35.833 93.4675 35.8279C93.3206 35.8226 93.1759 35.7884 93.0421 35.7272C92.9084 35.6659 92.7883 35.5789 92.6881 35.4709ZM88.1077 30.5382C87.6865 30.084 87.654 28.4019 87.654 28.4019C87.654 28.4019 89.3233 28.5516 89.7455 29.0058C89.8457 29.1138 89.9238 29.2405 89.9752 29.3788C90.0266 29.5171 90.0502 29.6642 90.0449 29.8116C90.0397 29.9591 90.0056 30.1042 89.9448 30.2384C89.8839 30.3727 89.7969 30.4936 89.6894 30.5942C89.5819 30.6948 89.456 30.7732 89.3181 30.8248C89.1807 30.8765 89.0338 30.9004 88.887 30.8952C88.7401 30.89 88.5959 30.8558 88.4622 30.7946C88.3284 30.7333 88.2078 30.6462 88.1077 30.5382ZM87.6021 35.9285C87.181 35.4749 87.1484 33.7922 87.1484 33.7922C87.1484 33.7922 88.8177 33.9419 89.2399 34.3962C89.3401 34.5042 89.4182 34.6309 89.4696 34.7691C89.521 34.9074 89.5446 35.0545 89.5394 35.202C89.5347 35.3495 89.5006 35.4945 89.4392 35.6288C89.3784 35.763 89.2918 35.8839 89.1843 35.9846C89.0768 36.0852 88.9504 36.1635 88.8125 36.2152C88.6751 36.2669 88.5288 36.2907 88.3814 36.2855C88.2346 36.2803 88.0903 36.2462 87.9566 36.1849C87.8229 36.1236 87.7023 36.0366 87.6021 35.9285ZM100.654 34.1599C100.232 33.7057 98.563 33.5559 98.563 33.5559C98.563 33.5559 98.5955 35.238 99.0166 35.6923C99.1163 35.8031 99.2369 35.8929 99.3711 35.9566C99.5054 36.0201 99.6512 36.0563 99.7996 36.0627C99.948 36.0692 100.096 36.046 100.235 35.9944C100.375 35.9427 100.503 35.8637 100.611 35.762C100.72 35.6603 100.808 35.5378 100.868 35.4019C100.93 35.2658 100.963 35.119 100.967 34.9699C100.971 34.8207 100.946 34.6723 100.892 34.5332C100.838 34.3942 100.757 34.2672 100.654 34.1599ZM100.503 29.3831C100.082 28.9288 98.4125 28.7791 98.4125 28.7791C98.4125 28.7791 98.4444 30.4612 98.8661 30.9155C98.9652 31.0263 99.0858 31.1161 99.2201 31.1797C99.3544 31.2434 99.5002 31.2794 99.6486 31.286C99.797 31.2924 99.9454 31.2692 100.085 31.2176C100.224 31.1659 100.352 31.0869 100.46 30.9852C100.569 30.8835 100.657 30.7611 100.718 30.625C100.779 30.4891 100.812 30.3422 100.816 30.1931C100.82 30.044 100.794 29.8955 100.74 29.7565C100.687 29.6174 100.606 29.4905 100.503 29.3831ZM95.1352 28.8755C94.7136 28.4213 93.0442 28.2715 93.0442 28.2715C93.0442 28.2715 93.0762 29.9536 93.4947 30.4078C93.6972 30.6262 93.9778 30.755 94.2746 30.7657C94.5714 30.7764 94.8604 30.6683 95.078 30.4652C95.2952 30.2619 95.4236 29.9803 95.4341 29.6822C95.4451 29.3841 95.3371 29.0939 95.1352 28.8755Z" fill="#DB5743"/>
<path d="M24.4151 56.5993C24.4151 56.5993 20.7555 56.7204 19.9345 59.3883C20.0031 58.5868 19.9003 57.78 19.6329 57.0216C19.3655 56.2638 18.9397 55.5718 18.3841 54.992C18.3841 54.992 15.9834 56.317 16.4408 59.0592C15.9834 56.317 13.2844 55.8488 13.2844 55.8488C12.9468 56.5782 12.7686 57.3718 12.7617 58.1765C12.7546 58.9807 12.919 59.7775 13.2438 60.5126C11.6025 58.2581 8.10254 59.3404 8.10254 59.3404C9.23167 62.9862 11.8944 63.0262 11.8944 63.0262L22.0253 61.3236C22.0253 61.3236 24.5297 60.4163 24.4151 56.5993Z" fill="#79CCB8"/>
<path d="M22.8073 82.079C25.1576 77.0998 29.3512 72.308 28.67 68.2229C27.7085 62.4511 22.5577 60.3025 16.8087 61.2704C11.0598 62.2384 6.88595 65.9506 7.84694 71.724C8.52778 75.8095 14.0473 78.9698 17.8827 82.9085C18.2239 83.2639 18.6462 83.5309 19.1132 83.6858C19.5802 83.8406 20.0777 83.879 20.5627 83.7969C21.0477 83.7153 21.5056 83.5162 21.8967 83.2171C22.2878 82.9174 22.6003 82.5272 22.8073 82.079Z" fill="#F87670"/>
<path d="M18.5289 64.7799C18.6305 65.3924 17.7329 66.8127 17.7329 66.8127C17.7329 66.8127 16.424 65.7631 16.3211 65.1501C16.2722 64.8562 16.3416 64.5545 16.514 64.3122C16.6865 64.0695 16.9479 63.9057 17.2406 63.8567C17.5334 63.8072 17.8336 63.8772 18.0752 64.0505C18.3168 64.2232 18.48 64.486 18.5289 64.7799ZM23.3145 66.2555C23.4165 66.8674 22.5186 68.2883 22.5186 68.2883C22.5186 68.2883 21.2082 67.2392 21.1064 66.6262C21.0822 66.4804 21.0867 66.3313 21.1198 66.1876C21.1529 66.0438 21.2139 65.9079 21.2993 65.7879C21.4717 65.5451 21.7331 65.3813 22.0259 65.3323C22.3187 65.2828 22.619 65.3529 22.8607 65.5256C23.1023 65.6989 23.2656 65.9616 23.3145 66.2555ZM26.997 69.2831C27.099 69.895 26.2007 71.3164 26.2007 71.3164C26.2007 71.3164 24.891 70.2663 24.7889 69.6538C24.7399 69.36 24.8093 69.0582 24.9818 68.8154C25.1542 68.5727 25.4156 68.4089 25.7084 68.3599C26.0012 68.3104 26.3015 68.3804 26.5431 68.5532C26.7848 68.7264 26.9481 68.9892 26.997 69.2831ZM19.6374 71.4317C19.7391 72.0442 18.8415 73.465 18.8415 73.465C18.8415 73.465 17.5317 72.4149 17.4296 71.8025C17.4054 71.6566 17.41 71.5076 17.4431 71.3638C17.4762 71.22 17.5372 71.0841 17.6226 70.9641C17.708 70.844 17.8161 70.7418 17.9408 70.6639C18.0654 70.5854 18.2042 70.5328 18.3492 70.5085C18.4941 70.4843 18.6424 70.489 18.7857 70.5222C18.9288 70.5554 19.0641 70.6165 19.1838 70.7023C19.3034 70.7882 19.405 70.8967 19.4829 71.022C19.5607 71.1468 19.6132 71.2864 19.6374 71.4317ZM20.7456 78.0835C20.8473 78.696 19.9496 80.1169 19.9496 80.1169C19.9496 80.1169 18.6399 79.0668 18.5378 78.4538C18.5136 78.3084 18.5181 78.1594 18.5512 78.0156C18.5843 77.8718 18.6453 77.736 18.7308 77.6159C18.8161 77.4958 18.9242 77.3937 19.0489 77.3157C19.1735 77.2373 19.3124 77.1846 19.4573 77.1604C19.6023 77.1361 19.7506 77.1409 19.8938 77.1741C20.037 77.2072 20.1722 77.2683 20.2919 77.3542C20.4115 77.44 20.5131 77.5485 20.591 77.6738C20.6688 77.7986 20.7213 77.9382 20.7456 78.0835ZM24.1299 73.8689C24.2319 74.4809 23.3339 75.9017 23.3339 75.9017C23.3339 75.9017 22.0242 74.8516 21.9221 74.2392C21.8979 74.0938 21.9024 73.9448 21.9355 73.801C21.9687 73.6572 22.0297 73.5214 22.1151 73.4013C22.2004 73.2812 22.3085 73.1791 22.4332 73.1006C22.5579 73.0227 22.6967 72.97 22.8416 72.9458C22.9866 72.921 23.1349 72.9258 23.2781 72.9589C23.4213 72.9921 23.5565 73.0537 23.6762 73.1396C23.7958 73.2249 23.8974 73.3339 23.9753 73.4587C24.0531 73.584 24.1057 73.7236 24.1299 73.8689ZM12.2742 68.1103C12.3759 68.7227 13.6857 69.7723 13.6857 69.7723C13.6857 69.7723 14.5833 68.352 14.4816 67.7395C14.4596 67.5921 14.4085 67.4504 14.3315 67.323C14.2544 67.1955 14.1527 67.0844 14.0325 66.997C13.9123 66.909 13.776 66.8464 13.6313 66.8121C13.4867 66.7779 13.3368 66.7732 13.1903 66.7979C13.0437 66.8221 12.9036 66.8759 12.7779 66.9554C12.6522 67.0349 12.5436 67.1392 12.4583 67.2614C12.3731 67.3835 12.3129 67.5215 12.2812 67.6674C12.2497 67.8127 12.2473 67.9633 12.2742 68.1103ZM9.77445 72.1769C9.87609 72.7894 11.1858 73.8395 11.1858 73.8395C11.1858 73.8395 12.0835 72.4191 11.9818 71.8067C11.9598 71.6592 11.9088 71.5176 11.8316 71.3901C11.7545 71.2621 11.653 71.1515 11.5328 71.0636C11.4126 70.9762 11.2761 70.9135 11.1316 70.8793C10.987 70.8451 10.837 70.8403 10.6905 70.8645C10.544 70.8893 10.4038 70.943 10.2781 71.0225C10.1524 71.1021 10.0438 71.2058 9.95853 71.328C9.87326 71.4501 9.81305 71.5881 9.78148 71.734C9.74986 71.8799 9.7475 72.0305 9.77445 72.1769ZM13.9718 75.5757C14.0734 76.1877 15.3832 77.2378 15.3832 77.2378C15.3832 77.2378 16.2812 75.8175 16.1817 75.2066C16.133 74.9127 15.9699 74.6499 15.7283 74.4762C15.4866 74.3029 15.1862 74.2328 14.8931 74.2818C14.6001 74.3303 14.3384 74.4941 14.1656 74.7368C13.9928 74.9796 13.9231 75.2814 13.9718 75.5757Z" fill="#DB5743"/>
<path d="M53.8604 18.9572C53.8604 18.9572 55.0461 22.4359 57.8267 22.4445C57.0432 22.6128 56.3048 22.9474 55.6613 23.4259C55.0173 23.9043 54.4829 24.5155 54.0932 25.2185C54.0932 25.2185 56.0567 27.1366 58.5347 25.8955C56.0567 27.1366 56.4002 29.8653 56.4002 29.8653C57.1937 29.976 58.0014 29.9151 58.7697 29.6867C59.538 29.4582 60.2486 29.0674 60.8538 28.5405C59.1866 30.7759 61.2403 33.8205 61.2403 33.8205C64.3823 31.6702 63.6423 29.1015 63.6423 29.1015L59.0586 19.8707C59.0586 19.8707 57.4622 17.7311 53.8604 18.9572Z" fill="#79CCB8"/>
<path d="M78.5963 13.0517C73.1668 12.2504 67.3774 9.62442 63.6864 11.4729C58.4708 14.0837 57.9306 19.6582 60.5329 24.8958C63.1357 30.1334 67.8914 33.0562 73.1086 30.4454C76.8001 28.5971 78.1962 22.3728 80.8258 17.5381C81.0649 17.1065 81.1955 16.623 81.2065 16.1293C81.2175 15.6356 81.1084 15.1466 80.8887 14.7047C80.669 14.2629 80.3454 13.8814 79.9463 13.5934C79.5466 13.3053 79.083 13.1194 78.5963 13.0517Z" fill="#F87670"/>
<path d="M63.3722 22.2183C63.9255 21.9416 65.5408 22.3883 65.5408 22.3883C65.5408 22.3883 64.924 23.952 64.3702 24.2301C64.1043 24.3631 63.797 24.3846 63.5159 24.2899C63.2343 24.1952 63.0019 23.9922 62.8692 23.7254C62.7371 23.4586 62.7156 23.1499 62.81 22.8673C62.9044 22.5846 63.1063 22.3512 63.3722 22.2183ZM63.378 17.1913C63.9312 16.9145 65.5471 17.3613 65.5471 17.3613C65.5471 17.3613 64.9308 18.9264 64.3765 19.2033C64.2454 19.2692 64.1022 19.3083 63.9554 19.3186C63.8085 19.3289 63.6617 19.3101 63.5222 19.2632C63.2405 19.1686 63.0082 18.9655 62.8755 18.6987C62.7434 18.4319 62.7219 18.1232 62.8157 17.8405C62.9101 17.5578 63.1126 17.3243 63.378 17.1913ZM65.1847 12.7699C65.738 12.493 67.3543 12.94 67.3543 12.94C67.3543 12.94 66.737 14.5048 66.1832 14.7819C65.9178 14.9149 65.6105 14.9364 65.3289 14.8418C65.0473 14.7471 64.8149 14.5441 64.6822 14.2773C64.5501 14.0105 64.5286 13.7018 64.6225 13.4191C64.7169 13.1364 64.9193 12.9029 65.1847 12.7699ZM69.3828 19.2089C69.9367 18.9322 71.5519 19.3789 71.5519 19.3789C71.5519 19.3789 70.9347 20.9436 70.3814 21.2207C70.2497 21.2866 70.1066 21.3257 69.9597 21.336C69.8134 21.3462 69.666 21.3273 69.5265 21.2805C69.387 21.2336 69.2585 21.1596 69.1474 21.0627C69.0367 20.9659 68.946 20.848 68.8804 20.716C68.8149 20.5838 68.7761 20.4401 68.7656 20.2928C68.7556 20.1456 68.774 19.9978 68.8206 19.8579C68.8673 19.7179 68.9413 19.5886 69.0378 19.4772C69.1343 19.3658 69.2517 19.2747 69.3828 19.2089ZM75.394 16.2C75.9473 15.9233 77.5626 16.37 77.5626 16.37C77.5626 16.37 76.9453 17.9347 76.392 18.2118C76.2604 18.2776 76.1172 18.3168 75.9704 18.327C75.8241 18.3373 75.6767 18.3184 75.5372 18.2716C75.3982 18.2247 75.2692 18.1507 75.1585 18.0538C75.0474 17.957 74.9566 17.8391 74.8911 17.707C74.8255 17.5749 74.7867 17.4312 74.7762 17.2839C74.7663 17.1367 74.7851 16.9889 74.8318 16.8489C74.8785 16.709 74.9519 16.5797 75.0484 16.4683C75.1449 16.357 75.2624 16.2658 75.394 16.2ZM70.3903 14.1824C70.9436 13.9055 72.5594 14.3524 72.5594 14.3524C72.5594 14.3524 71.9421 15.9171 71.3883 16.1942C71.2572 16.26 71.114 16.2992 70.9672 16.3094C70.8203 16.3197 70.6735 16.3008 70.534 16.254C70.3945 16.2071 70.266 16.1331 70.1548 16.0362C70.0442 15.9393 69.9534 15.8215 69.8879 15.6894C69.8223 15.5573 69.783 15.4136 69.773 15.2663C69.7625 15.1191 69.7814 14.9713 69.8281 14.8313C69.8748 14.6914 69.9487 14.5621 70.0452 14.4507C70.1417 14.3393 70.2587 14.2482 70.3903 14.1824ZM68.3722 27.2508C68.9261 26.9742 69.5428 25.4095 69.5428 25.4095C69.5428 25.4095 67.9275 24.9628 67.3742 25.2395C67.24 25.3037 67.1199 25.3941 67.0213 25.5055C66.9221 25.6168 66.8466 25.7468 66.7984 25.8879C66.7496 26.0289 66.7297 26.1782 66.7396 26.3271C66.7491 26.4759 66.7884 26.6214 66.8545 26.7549C66.9211 26.8884 67.0129 27.0074 67.1256 27.1048C67.2379 27.2022 67.369 27.2761 67.5101 27.3223C67.6511 27.3685 67.8006 27.3859 67.9485 27.3736C68.0964 27.3614 68.2406 27.3196 68.3722 27.2508ZM72.9763 28.4623C73.5296 28.1856 74.1469 26.6209 74.1469 26.6209C74.1469 26.6209 72.5316 26.1742 71.9783 26.4509C71.8441 26.5152 71.724 26.6056 71.6254 26.7169C71.5262 26.8283 71.4502 26.9582 71.4019 27.0993C71.3537 27.2403 71.3338 27.3897 71.3437 27.5385C71.3532 27.6874 71.3925 27.8329 71.4586 27.9664C71.5247 28.0999 71.617 28.2188 71.7297 28.3162C71.842 28.4136 71.9725 28.4876 72.1141 28.5337C72.2552 28.5799 72.4042 28.5974 72.5526 28.5851C72.7005 28.5728 72.8447 28.5311 72.9763 28.4623ZM74.9855 23.4381C75.5388 23.1614 76.156 21.5967 76.156 21.5967C76.156 21.5967 74.5408 21.1495 73.9885 21.4237C73.7221 21.5565 73.5197 21.79 73.4253 22.0728C73.3303 22.3556 73.3518 22.6645 73.484 22.9316C73.6162 23.1987 73.8485 23.4021 74.1301 23.4971C74.4117 23.5921 74.7196 23.5709 74.9855 23.4381Z" fill="#DB5743"/>
<path d="M8.53762 28.0258C8.53762 28.0258 8.43493 31.7012 11.0364 32.687C10.2441 32.5692 9.43579 32.6231 8.66585 32.8448C7.89586 33.0665 7.18204 33.451 6.57227 33.9725C6.57227 33.9725 7.74241 36.4596 10.4962 36.1686C7.74241 36.4596 7.11234 39.1363 7.11234 39.1363C7.81693 39.5191 8.59489 39.7462 9.39409 39.8023C10.1932 39.8584 10.9951 39.7422 11.7459 39.4616C9.40463 40.9691 10.2665 44.5431 10.2665 44.5431C13.9594 43.6339 14.1621 40.9676 14.1621 40.9676L13.088 30.7095C13.088 30.7095 12.3388 28.1439 8.53762 28.0258Z" fill="#79CCB8"/>
<path d="M33.7661 31.193C28.9602 28.5332 24.4532 24.0376 20.351 24.4709C14.5551 25.0822 12.1051 30.1137 12.7162 35.9349C13.3274 41.7561 16.7624 46.1661 22.5597 45.5554C26.6624 45.1224 30.1407 39.7832 34.2899 36.1794C34.6642 35.8592 34.9552 35.4522 35.1377 34.9936C35.3201 34.535 35.3885 34.0386 35.3369 33.5475C35.2853 33.0564 35.1153 32.5854 34.8416 32.1751C34.5679 31.7648 34.1987 31.4277 33.7661 31.193Z" fill="#F87670"/>
<path d="M16.3092 34.4255C16.924 34.361 18.2813 35.3474 18.2813 35.3474C18.2813 35.3474 17.1583 36.5952 16.5425 36.661C16.2472 36.692 15.9518 36.604 15.7212 36.4164C15.4906 36.2288 15.3436 35.9568 15.3127 35.6603C15.2818 35.3639 15.3694 35.0673 15.5563 34.8357C15.7432 34.6041 16.014 34.4566 16.3092 34.4255ZM18.068 29.719C18.6825 29.6541 20.0401 30.6409 20.0401 30.6409C20.0401 30.6409 18.9172 31.8902 18.3017 31.9548C18.1555 31.9702 18.0077 31.9565 17.8668 31.9146C17.7258 31.8726 17.5945 31.8032 17.4803 31.7103C17.2496 31.5227 17.1026 31.2507 17.0716 30.9542C17.0406 30.6577 17.1282 30.361 17.3151 30.1294C17.5019 29.8977 17.7728 29.7501 18.068 29.719ZM21.3024 26.2129C21.9168 26.1481 23.2749 27.1351 23.2749 27.1351C23.2749 27.1351 22.1512 28.3838 21.536 28.4487C21.2407 28.4798 20.9453 28.3919 20.7146 28.2042C20.4839 28.0166 20.3369 27.7446 20.3059 27.4481C20.2749 27.1517 20.3625 26.855 20.5494 26.6233C20.7362 26.3916 21.0071 26.244 21.3024 26.2129ZM22.989 33.7205C23.6039 33.656 24.9611 34.6424 24.9611 34.6424C24.9611 34.6424 23.8374 35.891 23.2223 35.956C23.0761 35.9714 22.9284 35.9577 22.7874 35.9157C22.6465 35.8737 22.5152 35.8043 22.401 35.7114C22.2869 35.6185 22.192 35.5039 22.1219 35.3742C22.0518 35.2444 22.0078 35.1021 21.9925 34.9553C21.9772 34.8086 21.9909 34.6602 22.0327 34.5187C22.0745 34.3772 22.1436 34.2453 22.2361 34.1307C22.3287 34.016 22.4428 33.9208 22.5719 33.8504C22.7011 33.78 22.8429 33.7359 22.989 33.7205ZM29.6685 33.0159C30.2834 32.9514 31.6406 33.9378 31.6406 33.9378C31.6406 33.9378 30.517 35.1865 29.9018 35.2514C29.7556 35.2668 29.6078 35.2531 29.4669 35.2111C29.326 35.1691 29.1947 35.0997 29.0805 35.0068C28.9663 34.9139 28.8715 34.7993 28.8014 34.6696C28.7313 34.5399 28.6874 34.3975 28.6721 34.2508C28.6568 34.104 28.6703 33.9556 28.7121 33.8141C28.7539 33.6726 28.8231 33.5408 28.9156 33.4261C29.0081 33.3114 29.1223 33.2162 29.2514 33.1458C29.3806 33.0754 29.5224 33.0313 29.6685 33.0159ZM25.6856 29.3666C26.3001 29.3017 27.6577 30.2885 27.6577 30.2885C27.6577 30.2885 26.5341 31.5371 25.9189 31.602C25.7727 31.6174 25.6249 31.6037 25.484 31.5617C25.3432 31.5198 25.2118 31.4504 25.0977 31.3575C24.9834 31.2646 24.8886 31.15 24.8185 31.0202C24.7484 30.8905 24.7045 30.7482 24.6892 30.6014C24.6739 30.4546 24.6875 30.3063 24.7292 30.1648C24.771 30.0233 24.8402 29.8914 24.9327 29.7767C25.0252 29.6621 25.1394 29.5668 25.2686 29.4965C25.3978 29.4261 25.5395 29.3819 25.6856 29.3666ZM19.2377 40.8978C19.8526 40.8333 20.9763 39.5846 20.9763 39.5846C20.9763 39.5846 19.619 38.5982 19.0041 38.6627C18.8561 38.6758 18.7122 38.7183 18.5808 38.7878C18.4493 38.8573 18.333 38.9524 18.2385 39.0675C18.144 39.1826 18.0733 39.3155 18.0305 39.4583C17.9876 39.6012 17.9736 39.7512 17.9891 39.8995C18.0046 40.0479 18.0493 40.1917 18.1208 40.3225C18.1922 40.4533 18.2888 40.5685 18.405 40.6614C18.5213 40.7544 18.6548 40.8231 18.7977 40.8637C18.9407 40.9043 19.0903 40.9159 19.2377 40.8978ZM23.1276 43.6516C23.7424 43.5871 24.8661 42.3384 24.8661 42.3384C24.8661 42.3384 23.5089 41.352 22.8941 41.4165C22.7461 41.4296 22.6021 41.4721 22.4707 41.5416C22.3392 41.6111 22.2229 41.7062 22.1284 41.8213C22.0339 41.9364 21.9632 42.0693 21.9203 42.2121C21.8775 42.355 21.8635 42.505 21.8789 42.6533C21.8945 42.8017 21.9393 42.9455 22.0106 43.0763C22.0821 43.2071 22.1787 43.3223 22.2949 43.4152C22.4111 43.5082 22.5447 43.5769 22.6876 43.6175C22.8306 43.6581 22.9802 43.6696 23.1276 43.6516ZM26.7618 39.6521C27.3767 39.5876 28.5004 38.339 28.5004 38.339C28.5004 38.339 27.1435 37.3521 26.5302 37.4146C26.2348 37.4454 25.9636 37.5929 25.7764 37.8245C25.5892 38.0561 25.5012 38.3529 25.532 38.6496C25.5626 38.9463 25.7095 39.2186 25.9401 39.4066C26.1708 39.5947 26.4664 39.683 26.7618 39.6521Z" fill="#DB5743"/>
<path d="M57.2552 26.211C57.2552 26.211 57.7398 22.5664 55.2555 21.313C56.0312 21.5133 56.8404 21.5446 57.6291 21.4049C58.4179 21.2653 59.1679 20.9578 59.8287 20.5031C59.8287 20.5031 58.924 17.9068 56.1549 17.9072C58.924 17.9068 59.8292 15.311 59.8292 15.311C59.1684 14.8563 58.4184 14.5488 57.6291 14.4091C56.8404 14.2694 56.0306 14.3008 55.255 14.501C57.7403 13.2476 57.2552 9.60272 57.2552 9.60272C53.4876 10.1192 53.0088 12.7497 53.0088 12.7497L53.0093 23.0643C53.0093 23.0643 53.4871 25.6944 57.2552 26.211Z" fill="#79CCB8"/>
<path d="M32.4938 20.4131C36.9966 23.5627 41.0109 28.5068 45.1357 28.5065C50.9635 28.5068 53.9241 23.7601 53.922 17.9066C53.9199 12.0532 50.9631 7.30677 45.1339 7.30566C41.0087 7.30566 36.9936 12.2505 32.492 15.399C32.0864 15.6782 31.7546 16.0524 31.5254 16.4894C31.2962 16.9263 31.1765 17.4127 31.1768 17.9065C31.1769 18.4004 31.297 18.8867 31.5265 19.3235C31.756 19.7602 32.088 20.1342 32.4938 20.4131Z" fill="#F87670"/>
<path d="M50.1917 19.0306C49.5735 19.0302 48.3264 17.9067 48.3264 17.9067C48.3264 17.9067 49.5732 16.7836 50.1924 16.7829C50.4893 16.783 50.7739 16.9015 50.9837 17.1123C51.1936 17.3232 51.3114 17.6091 51.3113 17.9071C51.3112 18.2052 51.1932 18.491 50.9832 18.7017C50.7733 18.9124 50.4885 19.0307 50.1917 19.0306ZM47.9526 23.5267C47.3348 23.5267 46.0873 22.4029 46.0873 22.4029C46.0873 22.4029 47.3341 21.2783 47.953 21.2787C48.1 21.2787 48.2455 21.3078 48.3813 21.3643C48.5171 21.4208 48.6405 21.5036 48.7444 21.608C48.9543 21.8188 49.0722 22.1048 49.0722 22.4029C49.0721 22.701 48.9541 22.9869 48.7442 23.1976C48.5342 23.4084 48.2495 23.5268 47.9526 23.5267ZM44.3711 26.6741C43.7532 26.6741 42.5053 25.5499 42.5053 25.5499C42.5053 25.5499 43.7528 24.426 44.3714 24.426C44.6683 24.426 44.953 24.5445 45.1629 24.7553C45.3727 24.9662 45.4906 25.2521 45.4906 25.5502C45.4905 25.8484 45.3726 26.1342 45.1626 26.345C44.9527 26.5558 44.6679 26.6741 44.3711 26.6741ZM43.4751 19.0306C42.8569 19.0302 41.6098 17.9067 41.6098 17.9067C41.6098 17.9067 42.8573 16.7829 43.4758 16.7829C43.6228 16.7829 43.7684 16.8121 43.9041 16.8686C44.0399 16.9251 44.1632 17.0079 44.2671 17.1123C44.371 17.2167 44.4534 17.3406 44.5096 17.477C44.5658 17.6134 44.5947 17.7595 44.5947 17.9071C44.5946 18.0547 44.5656 18.2008 44.5093 18.3371C44.453 18.4735 44.3705 18.5973 44.2666 18.7017C44.1626 18.806 44.0392 18.8887 43.9034 18.9452C43.7676 19.0016 43.6221 19.0306 43.4751 19.0306ZM36.7588 19.0302C36.1407 19.0299 34.8936 17.9064 34.8936 17.9064C34.8936 17.9064 36.141 16.7825 36.7596 16.7825C36.9066 16.7826 37.0521 16.8117 37.1878 16.8682C37.3236 16.9247 37.447 17.0076 37.5509 17.1119C37.6548 17.2163 37.7371 17.3403 37.7934 17.4766C37.8495 17.613 37.8784 17.7592 37.8784 17.9067C37.8784 18.0543 37.8494 18.2005 37.7931 18.3368C37.7368 18.4731 37.6543 18.597 37.5503 18.7013C37.4464 18.8056 37.323 18.8884 37.1872 18.9448C37.0514 19.0013 36.9058 19.0303 36.7588 19.0302ZM40.34 23.0776C39.7222 23.0776 38.4747 21.9538 38.4747 21.9538C38.4747 21.9538 39.7222 20.8299 40.3407 20.8299C40.4877 20.83 40.6333 20.8591 40.7691 20.9156C40.9048 20.9722 41.0281 21.0549 41.132 21.1594C41.2359 21.2638 41.3184 21.3877 41.3745 21.5241C41.4308 21.6604 41.4597 21.8066 41.4596 21.9542C41.4595 22.1017 41.4305 22.2479 41.3743 22.3842C41.3179 22.5206 41.2355 22.6444 41.1315 22.7487C41.0276 22.8531 40.9042 22.9358 40.7684 22.9922C40.6325 23.0487 40.487 23.0777 40.34 23.0776ZM47.953 12.2864C47.3348 12.286 46.0873 13.4098 46.0873 13.4098C46.0873 13.4098 47.3344 14.5333 47.9526 14.5337C48.1012 14.5363 48.2487 14.5091 48.3867 14.4538C48.5247 14.3984 48.6503 14.3161 48.7562 14.2115C48.8622 14.1069 48.9464 13.9822 49.0038 13.8447C49.0613 13.7071 49.0908 13.5594 49.0909 13.4102C49.0909 13.261 49.0614 13.1134 49.0039 12.9757C48.9465 12.8381 48.8624 12.7134 48.7565 12.6088C48.6506 12.5042 48.525 12.4218 48.387 12.3664C48.2491 12.3111 48.1015 12.2839 47.953 12.2864ZM44.3711 9.13938C43.7528 9.13901 42.5053 10.2628 42.5053 10.2628C42.5053 10.2628 43.7525 11.3863 44.3707 11.3867C44.5192 11.3892 44.6668 11.3621 44.8048 11.3068C44.9427 11.2515 45.0684 11.1691 45.1743 11.0645C45.2802 10.96 45.3644 10.8352 45.4219 10.6977C45.4793 10.5601 45.5089 10.4124 45.5089 10.2633C45.509 10.1141 45.4794 9.96634 45.422 9.82878C45.3646 9.69118 45.2805 9.56642 45.1746 9.46183C45.0687 9.35719 44.9431 9.27482 44.8051 9.21948C44.6672 9.16413 44.5196 9.1369 44.3711 9.13938ZM40.3404 12.7355C39.7222 12.7351 38.4747 13.859 38.4747 13.859C38.4747 13.859 39.7215 14.9828 40.3378 14.985C40.6349 14.9854 40.9199 14.8672 41.1302 14.6565C41.3405 14.4458 41.4589 14.1599 41.4592 13.8615C41.4595 13.5633 41.3419 13.277 41.1321 13.0659C40.9223 12.8546 40.6375 12.7358 40.3404 12.7355Z" fill="#DB5743"/>
<path d="M111.013 43.8229C111.013 43.8229 107.621 42.4392 105.79 44.5409C106.178 43.8368 106.411 43.0578 106.474 42.2559C106.537 41.4541 106.428 40.648 106.155 39.8918C106.155 39.8918 103.425 40.1214 102.732 42.8136C103.425 40.1214 101.149 38.5914 101.149 38.5914C100.545 39.1201 100.061 39.7723 99.7289 40.5044C99.3964 41.2364 99.2239 42.0313 99.2228 42.8357C98.6365 40.1056 95.0011 39.6646 95.0011 39.6646C94.5558 43.4565 96.9719 44.5809 96.9719 44.5809L106.917 47.1631C106.917 47.1631 109.572 47.3569 111.013 43.8229Z" fill="#79CCB8"/>
<path d="M99.2239 66.4435C103.388 62.8545 109.16 60.1898 110.193 56.1795C111.652 50.5141 107.817 46.4476 102.173 44.9838C96.5288 43.5199 91.212 45.2064 89.7514 50.8731C88.7188 54.8835 92.4811 60.025 94.3896 65.1896C94.5569 65.6541 94.8348 66.0701 95.1988 66.4024C95.5627 66.7347 96.0017 66.9728 96.4779 67.096C96.9536 67.2198 97.4528 67.2245 97.9311 67.1107C98.41 66.997 98.8536 66.7679 99.2239 66.4435Z" fill="#F87670"/>
<path d="M102.322 48.8922C102.167 49.4931 100.771 50.4242 100.771 50.4242C100.771 50.4242 100 48.9309 100.155 48.3287C100.23 48.0401 100.415 47.7931 100.671 47.6419C100.927 47.4907 101.232 47.4477 101.519 47.5225C101.807 47.5972 102.053 47.7835 102.203 48.0403C102.354 48.2972 102.396 48.6036 102.322 48.8922ZM106.096 52.1947C105.941 52.7954 104.546 53.7265 104.546 53.7265C104.546 53.7265 103.773 52.2331 103.929 51.6315C103.966 51.4886 104.03 51.3544 104.118 51.2365C104.207 51.1186 104.318 51.0194 104.445 50.9445C104.701 50.7932 105.006 50.7502 105.293 50.8249C105.581 50.8996 105.827 51.0859 105.977 51.3428C106.128 51.5997 106.171 51.9061 106.096 52.1947ZM108.234 56.4644C108.079 57.0653 106.683 57.9969 106.683 57.9969C106.683 57.9969 105.911 56.5029 106.067 55.9015C106.141 55.6129 106.326 55.3659 106.582 55.2142C106.838 55.0631 107.143 55.0204 107.431 55.0947C107.718 55.1695 107.964 55.3559 108.115 55.6129C108.266 55.8693 108.308 56.1758 108.234 56.4644ZM100.64 55.4217C100.485 56.0226 99.0895 56.9537 99.0895 56.9537C99.0895 56.9537 98.3186 55.4596 98.4733 54.8582C98.51 54.7155 98.5745 54.5812 98.6631 54.4633C98.7518 54.3458 98.8624 54.2463 98.9888 54.1715C99.1157 54.0967 99.2558 54.0477 99.4016 54.0272C99.5468 54.0067 99.6952 54.0151 99.8374 54.052C99.9795 54.0893 100.113 54.1541 100.231 54.2426C100.348 54.3316 100.447 54.4427 100.521 54.5702C100.596 54.6971 100.644 54.8382 100.665 54.9841C100.685 55.1305 100.677 55.279 100.64 55.4217ZM98.9584 61.9514C98.8032 62.5522 97.4076 63.4833 97.4076 63.4833C97.4076 63.4833 96.6367 61.9893 96.7914 61.3879C96.8281 61.2446 96.8926 61.1109 96.9812 60.9929C97.0699 60.8749 97.1805 60.7759 97.3069 60.7012C97.4338 60.6258 97.5739 60.5769 97.7191 60.5563C97.8649 60.5358 98.0134 60.5447 98.1555 60.5816C98.2976 60.6185 98.4313 60.6832 98.5488 60.7722C98.6658 60.8612 98.7649 60.9724 98.8394 61.0993C98.9138 61.2267 98.9626 61.3673 98.9831 61.5132C99.0035 61.6596 98.9951 61.8081 98.9584 61.9514ZM103.757 59.4831C103.602 60.0834 102.207 61.015 102.207 61.015C102.207 61.015 101.435 59.521 101.59 58.9196C101.627 58.7769 101.692 58.6426 101.78 58.5246C101.869 58.4066 101.979 58.3076 102.106 58.2329C102.233 58.1581 102.373 58.1086 102.518 58.0886C102.664 58.068 102.812 58.0764 102.954 58.1133C103.097 58.1502 103.23 58.2149 103.347 58.3039C103.465 58.3929 103.564 58.5041 103.638 58.631C103.713 58.7584 103.762 58.899 103.782 59.0454C103.803 59.1913 103.794 59.3403 103.757 59.4831ZM95.259 49.38C95.1037 49.9809 95.8752 51.4751 95.8752 51.4751C95.8752 51.4751 97.2707 50.5439 97.4255 49.9431C97.4653 49.7993 97.4763 49.649 97.4574 49.5011C97.4386 49.3531 97.3908 49.2103 97.3164 49.0811C97.2419 48.9519 97.1428 48.8389 97.0248 48.7486C96.9063 48.6583 96.7715 48.5925 96.6278 48.5551C96.4836 48.5178 96.3341 48.5095 96.1867 48.5309C96.0399 48.5522 95.8983 48.6028 95.7714 48.6796C95.6439 48.7564 95.5327 48.8578 95.4452 48.9781C95.357 49.0983 95.2936 49.235 95.259 49.38ZM91.3283 52.0743C91.173 52.6754 91.944 54.1694 91.944 54.1694C91.944 54.1694 93.3395 53.2383 93.4947 52.6374C93.5346 52.4936 93.5451 52.3434 93.5262 52.1953C93.5073 52.0474 93.4596 51.9046 93.3851 51.7755C93.3112 51.6463 93.2121 51.5332 93.0935 51.4429C92.9755 51.3526 92.8402 51.2868 92.6965 51.2495C92.5528 51.2121 92.4029 51.2039 92.256 51.2252C92.1086 51.2466 91.9676 51.2971 91.8401 51.3739C91.7127 51.4507 91.602 51.5522 91.5139 51.6724C91.4258 51.7927 91.3629 51.9293 91.3283 52.0743ZM93.7858 56.8931C93.6311 57.494 94.402 58.988 94.402 58.988C94.402 58.988 95.7976 58.0575 95.9544 57.4592C96.0289 57.1701 95.9864 56.8636 95.8359 56.6061C95.6854 56.3491 95.4394 56.1627 95.152 56.0874C94.8641 56.0126 94.5588 56.0552 94.3029 56.2064C94.0465 56.3575 93.8608 56.6045 93.7858 56.8931Z" fill="#DB5743"/>
<path d="M97.7352 19.6862C97.7352 19.6862 94.7768 17.5195 92.4944 19.114C93.0399 18.5249 93.4536 17.8256 93.7075 17.0628C93.9618 16.3 94.0505 15.4915 93.9676 14.6915C93.9676 14.6915 91.2641 14.2511 89.943 16.695C91.2641 14.2511 89.4238 12.2137 89.4238 12.2137C88.7106 12.58 88.0839 13.0951 87.5851 13.7247C87.0864 14.3543 86.7276 15.0836 86.5326 15.8639C86.6212 13.0726 83.2002 11.7614 83.2002 11.7614C81.8545 15.3325 83.9282 17.0105 83.9282 17.0105L92.9554 21.9318C92.9554 21.9318 95.4853 22.765 97.7352 19.6862Z" fill="#79CCB8"/>
<path d="M80.8467 38.7706C85.7513 36.2999 91.9938 35.1165 93.962 31.4763C96.7426 26.3336 94.0014 21.4562 88.8775 18.6648C83.7537 15.8734 78.1888 16.2181 75.4067 21.3618C73.4379 25.0021 75.8498 30.9048 76.4576 36.3797C76.508 36.8709 76.6774 37.3422 76.9506 37.7529C77.2233 38.1637 77.592 38.5014 78.0242 38.7369C78.4568 38.9723 78.9393 39.0985 79.4312 39.1044C79.9232 39.1102 80.4088 38.9957 80.8467 38.7706Z" fill="#F87670"/>
<path d="M88.0809 22.4935C87.7856 23.0388 86.2071 23.6033 86.2071 23.6033C86.2071 23.6033 85.819 21.9672 86.1142 21.4203C86.2558 21.1584 86.4955 20.9638 86.7798 20.8792C87.0645 20.7947 87.3708 20.8271 87.632 20.9694C87.8926 21.1117 88.0867 21.3523 88.1706 21.6381C88.255 21.9239 88.2225 22.2316 88.0809 22.4935ZM90.9475 26.6148C90.6528 27.16 89.0737 27.7247 89.0737 27.7247C89.0737 27.7247 88.6845 26.0878 88.9803 25.5418C89.0501 25.4121 89.145 25.2975 89.2593 25.2046C89.3737 25.1117 89.5048 25.0424 89.6459 25.0005C89.9306 24.9159 90.2369 24.9483 90.4981 25.0906C90.7587 25.2329 90.9528 25.4734 91.0372 25.7592C91.1211 26.0451 91.0891 26.3528 90.9475 26.6148ZM91.9927 31.2772C91.698 31.8224 90.1189 32.3872 90.1189 32.3872C90.1189 32.3872 89.7303 30.7501 90.0255 30.2042C90.1671 29.9423 90.4068 29.7475 90.6916 29.6629C90.9764 29.5783 91.2826 29.6107 91.5433 29.753C91.8045 29.8953 91.9985 30.1358 92.0824 30.4217C92.1669 30.7075 92.1343 31.0153 91.9927 31.2772ZM84.876 28.4207C84.5808 28.9661 83.0022 29.5306 83.0022 29.5306C83.0022 29.5306 82.6141 27.8934 82.9094 27.3475C82.9791 27.2179 83.074 27.1033 83.1884 27.0105C83.3027 26.9176 83.4343 26.8483 83.5749 26.8065C83.716 26.7646 83.8638 26.751 84.0102 26.7665C84.156 26.7819 84.2976 26.8262 84.4271 26.8966C84.5561 26.9671 84.6699 27.0624 84.7627 27.1772C84.855 27.2919 84.9243 27.4238 84.9657 27.5653C85.0077 27.7068 85.0208 27.8552 85.0056 28.002C84.9904 28.1487 84.9463 28.291 84.876 28.4207ZM81.6712 34.3475C81.3754 34.8928 79.7973 35.4573 79.7973 35.4573C79.7973 35.4573 79.4092 33.8202 79.704 33.2743C79.7742 33.1446 79.8692 33.0301 79.9835 32.9373C80.0978 32.8444 80.2289 32.7751 80.37 32.7332C80.5111 32.6913 80.659 32.6777 80.8048 32.6932C80.9511 32.7087 81.0927 32.7529 81.2217 32.8234C81.3512 32.8939 81.465 32.9892 81.5573 33.1039C81.6502 33.2186 81.7189 33.3505 81.7608 33.4921C81.8023 33.6336 81.8159 33.782 81.8007 33.9287C81.785 34.0755 81.7409 34.2178 81.6712 34.3475ZM86.9219 33.1184C86.6271 33.6636 85.048 34.2282 85.048 34.2282C85.048 34.2282 84.66 32.5911 84.9552 32.0453C85.0255 31.9156 85.1204 31.8011 85.2342 31.7082C85.3486 31.6154 85.4802 31.546 85.6213 31.5041C85.7618 31.4623 85.9097 31.4487 86.056 31.4642C86.2018 31.4797 86.3439 31.5239 86.473 31.5944C86.602 31.6648 86.7163 31.7601 86.8086 31.8748C86.9009 31.9896 86.9701 32.1215 87.0116 32.263C87.0535 32.4045 87.0672 32.5529 87.0514 32.6997C87.0362 32.8465 86.9922 32.9887 86.9219 33.1184ZM81.1105 21.251C80.8147 21.7964 81.2033 23.4335 81.2033 23.4335C81.2033 23.4335 82.7814 22.869 83.0767 22.3237C83.1501 22.1939 83.1968 22.0507 83.2141 21.9025C83.2314 21.7543 83.2193 21.6042 83.1784 21.4608C83.1375 21.3174 83.0683 21.1836 82.9754 21.0673C82.8826 20.9509 82.7672 20.8543 82.6367 20.7831C82.5061 20.7119 82.3629 20.6675 82.215 20.6525C82.0671 20.6376 81.9182 20.6523 81.776 20.6958C81.6339 20.7394 81.5018 20.8109 81.3874 20.9062C81.2731 21.0016 81.1792 21.1187 81.1105 21.251ZM76.647 22.9104C76.3517 23.4558 76.7398 25.0929 76.7398 25.0929C76.7398 25.0929 78.3184 24.5284 78.6136 23.9831C78.6865 23.8532 78.7332 23.71 78.7505 23.5618C78.7684 23.4137 78.7563 23.2635 78.7149 23.1201C78.6739 22.9767 78.6052 22.843 78.5119 22.7266C78.4191 22.6103 78.3042 22.5137 78.1736 22.4425C78.043 22.3713 77.8993 22.3269 77.752 22.3119C77.6041 22.2969 77.4546 22.3116 77.3125 22.3552C77.1704 22.3987 77.0382 22.4702 76.9244 22.5655C76.8101 22.6609 76.7157 22.7781 76.647 22.9104ZM77.871 28.1832C77.5758 28.7286 77.9639 30.3657 77.9639 30.3657C77.9639 30.3657 79.5424 29.8018 79.8382 29.2589C79.9803 28.9969 80.0129 28.689 79.9289 28.4029C79.845 28.1167 79.651 27.8758 79.3903 27.7332C79.1292 27.5906 78.8229 27.5579 78.5376 27.6422C78.2528 27.7267 78.0131 27.9212 77.871 28.1832Z" fill="#DB5743"/>
<path d="M39.0633 19.3656C39.0633 19.3656 36.4341 16.8066 33.9528 18.0666C34.5745 17.5595 35.0811 16.9248 35.4385 16.2049C35.7959 15.4851 35.9958 14.6969 36.0249 13.8931C36.0249 13.8931 33.4083 13.0791 31.7615 15.3146C33.4083 13.0791 31.8687 10.8044 31.8687 10.8044C31.1116 11.0674 30.4193 11.4899 29.8382 12.0437C29.257 12.5974 28.8006 13.2696 28.4994 14.015C28.9744 11.2632 25.768 9.48669 25.768 9.48669C23.9406 12.8349 25.7614 14.7864 25.7614 14.7864L34.0187 20.9215C34.0187 20.9215 36.4085 22.1 39.0633 19.3656Z" fill="#79CCB8"/>
<path d="M19.6935 35.9041C24.8932 34.1429 31.2389 33.8435 33.6922 30.5136C37.1589 25.8097 35.1199 20.5966 30.433 17.1163C25.7461 13.636 20.1875 13.1997 16.7193 17.9044C14.2655 21.2343 15.8357 27.4165 15.6785 32.9231C15.6607 33.4166 15.763 33.907 15.9764 34.3519C16.1899 34.7968 16.5081 35.1827 16.9035 35.4763C17.2989 35.7699 17.7597 35.9623 18.2458 36.0368C18.732 36.1114 19.2289 36.0658 19.6935 35.9041Z" fill="#F87670"/>
<path d="M29.1136 20.7964C28.7456 21.2952 27.1044 21.6336 27.1044 21.6336C27.1044 21.6336 26.9469 19.9591 27.3147 19.4588C27.4914 19.2193 27.7555 19.06 28.0491 19.0161C28.3427 18.9721 28.6416 19.047 28.8802 19.2244C29.1188 19.4018 29.2774 19.6671 29.3211 19.9619C29.3649 20.2567 29.2903 20.5569 29.1136 20.7964ZM31.381 25.2782C31.0135 25.7769 29.3718 26.1154 29.3718 26.1154C29.3718 26.1154 29.2132 24.4401 29.5816 23.9407C29.6691 23.8221 29.7789 23.7219 29.905 23.6459C30.031 23.5699 30.1706 23.5196 30.316 23.4978C30.6097 23.4537 30.9087 23.5287 31.1473 23.706C31.3859 23.8834 31.5446 24.1487 31.5884 24.4435C31.6323 24.7384 31.5576 25.0386 31.381 25.2782ZM31.7702 30.0414C31.4027 30.5401 29.7605 30.8786 29.7605 30.8786C29.7605 30.8786 29.6028 29.2032 29.9708 28.7039C30.1474 28.4643 30.4116 28.3049 30.7052 28.2609C30.9988 28.2169 31.2978 28.2918 31.5365 28.4692C31.7751 28.6465 31.9337 28.9119 31.9776 29.2067C32.0214 29.5015 31.9468 29.8018 31.7702 30.0414ZM25.1184 26.218C24.7504 26.7169 23.1092 27.0553 23.1092 27.0553C23.1092 27.0553 22.9516 25.3798 23.3195 24.8805C23.407 24.7619 23.5169 24.6617 23.6429 24.5858C23.7689 24.5098 23.9086 24.4595 24.0539 24.4377C24.1993 24.4159 24.3475 24.4231 24.4901 24.4589C24.6327 24.4947 24.7669 24.5583 24.885 24.6461C25.0031 24.7339 25.1028 24.8442 25.1785 24.9708C25.2541 25.0973 25.3043 25.2376 25.3259 25.3836C25.3476 25.5295 25.3405 25.6783 25.3048 25.8215C25.2692 25.9647 25.2059 26.0995 25.1184 26.218ZM21.1231 31.6392C20.7551 32.138 19.1139 32.4764 19.1139 32.4764C19.1139 32.4764 18.9563 30.801 19.3242 30.3016C19.4117 30.183 19.5216 30.0829 19.6476 30.0069C19.7736 29.9309 19.9133 29.8806 20.0586 29.8589C20.204 29.8371 20.3522 29.8443 20.4948 29.8801C20.6374 29.9158 20.7716 29.9794 20.8897 30.0672C21.0078 30.1551 21.1076 30.2654 21.1832 30.3919C21.2589 30.5184 21.309 30.6587 21.3307 30.8047C21.3523 30.9506 21.3451 31.0995 21.3096 31.2427C21.274 31.3858 21.2106 31.5206 21.1231 31.6392ZM26.4934 31.156C26.1259 31.6547 24.4842 31.9931 24.4842 31.9931C24.4842 31.9931 24.3265 30.3177 24.6945 29.8184C24.7819 29.6998 24.8918 29.5996 25.0178 29.5237C25.1438 29.4477 25.2835 29.3974 25.4289 29.3757C25.5743 29.3538 25.7225 29.3611 25.8651 29.3968C26.0077 29.4326 26.1418 29.4961 26.26 29.584C26.3781 29.6718 26.4778 29.7822 26.5534 29.9087C26.6291 30.0352 26.6792 30.1755 26.7009 30.3214C26.7226 30.4674 26.7154 30.6162 26.6798 30.7594C26.6442 30.9026 26.5808 31.0374 26.4934 31.156ZM22.3831 18.5919C22.0151 19.0907 22.1727 20.7662 22.1727 20.7662C22.1727 20.7662 23.8139 20.4277 24.1819 19.929C24.2723 19.8106 24.3383 19.6753 24.3761 19.531C24.4139 19.3867 24.4227 19.2364 24.402 19.0886C24.3813 18.9409 24.3315 18.7988 24.2556 18.6706C24.1796 18.5424 24.079 18.4307 23.9596 18.3419C23.8402 18.2531 23.7043 18.1891 23.5601 18.1536C23.4158 18.1181 23.2659 18.1118 23.1191 18.1351C22.9724 18.1584 22.8317 18.2107 22.7053 18.2892C22.579 18.3676 22.4694 18.4705 22.3831 18.5919ZM17.7332 19.6113C17.3652 20.1101 17.5228 21.7856 17.5228 21.7856C17.5228 21.7856 19.164 21.4472 19.532 20.9484C19.6224 20.83 19.6884 20.6947 19.7262 20.5505C19.764 20.4062 19.7728 20.2558 19.7521 20.1081C19.7314 19.9603 19.6816 19.8182 19.6057 19.69C19.5298 19.5618 19.4291 19.4501 19.3097 19.3613C19.1903 19.2726 19.0545 19.2086 18.9102 19.173C18.7659 19.1375 18.616 19.1313 18.4693 19.1546C18.3226 19.1778 18.1818 19.2302 18.0555 19.3086C17.9291 19.3871 17.8196 19.49 17.7332 19.6113ZM18.2145 25.0039C17.8464 25.5027 18.0041 27.1782 18.0041 27.1782C18.0041 27.1782 19.6453 26.8403 20.0137 26.3441C20.1907 26.1045 20.2657 25.8041 20.2221 25.509C20.1785 25.214 20.02 24.9483 19.7814 24.7706C19.5428 24.5929 19.2437 24.5177 18.9498 24.5614C18.6559 24.6051 18.3914 24.7643 18.2145 25.0039Z" fill="#DB5743"/>
<path d="M104.888 22.645H7.3418V84.787H104.888V22.645Z" fill="#D9D9D9" fill-opacity="0.36"/>
<path d="M104.627 22.9083H7.60449V84.5237H104.627V22.9083Z" stroke="black"/>
<path d="M104.889 22.645L111.706 12.639V74.7811L104.889 84.787V22.645Z" fill="#D9D9D9" fill-opacity="0.36"/>
<path d="M105.151 83.9359V22.7264L111.445 13.4902V74.6994L105.151 83.9359Z" stroke="black"/>
</svg>